<svg xmlns="http://www.w3.org/2000/svg" width="77.688" height="77.688" viewBox="0 0 77.688 77.688"><defs><style>.a{fill:#e6e9ed;}.b{fill:#fff;}.c{fill:#ffc727;}.d{fill:#aab2bd;}.e{fill:#69d6f4;}.f{fill:#2b56f5;}</style></defs><path class="a" d="M57.109,10.771,40.519,21.623l.3-.827V18.289L32.049,23.3v2.707l-3.3,1.867a12.917,12.917,0,0,1-15.525-2.093L12,24.555V23.3l6.278-3.684,9.836-5.764,8.007-4.686,10.6-6.215A6.892,6.892,0,0,1,57.109,8.9Z" transform="translate(1.783 -0.747)"/><path class="b" d="M19.493,17.518l.05.075-6.278,3.684L7,11.253,10.759,10Z" transform="translate(0.518 1.277)"/><path class="b" d="M35.109,8.9v.013L27.1,13.6,16,5.506,19.759,3Z" transform="translate(2.796 -0.494)"/><path class="b" d="M36.771,15v2.506l-.3.827L31.759,31.289,28,32.543V20.012Z" transform="translate(5.832 2.543)"/><path class="c" d="M40,30v1.253L43.759,42.53H58.8l3.759-11.277V30Z" transform="translate(8.868 6.338)"/><path class="d" d="M55.024,40V50.024H45V40H55.024Z" transform="translate(10.134 8.868)"/><path class="a" d="M35.2,48,32,65.543H69.591V48Z" transform="translate(6.844 10.893)"/><path class="d" d="M47.109,37.253v2.506a1.257,1.257,0,0,1-1.253,1.253H3.253A1.257,1.257,0,0,1,2,39.759V37.253A1.257,1.257,0,0,1,3.253,36h42.6A1.257,1.257,0,0,1,47.109,37.253Z" transform="translate(-0.747 7.856)"/><g transform="translate(3.759 41.35)"><path class="e" d="M35.326,40H4L6.506,53.783,9.012,67.567H39.085l2.506-13.783.689-3.759L44.1,40Z" transform="translate(-4 -32.482)"/><path class="e" d="M54,54h5.012V64.024H54Z" transform="translate(8.652 -28.939)"/><path class="e" d="M46,54h5.012V64.024H46Z" transform="translate(6.628 -28.939)"/><path class="e" d="M38,54h5.012V64.024H38Z" transform="translate(4.603 -28.939)"/><path class="e" d="M47,34h5.012v7.518H47Z" transform="translate(6.881 -34)"/></g><path class="c" d="M0,0H2.506V2.506H0Z" transform="matrix(0.857, -0.515, 0.515, 0.857, 48.563, 5.206)"/><path class="c" d="M0,0H2.506V2.506H0Z" transform="matrix(0.857, -0.515, 0.515, 0.857, 44.267, 7.785)"/><path class="c" d="M0,0H2.506V2.506H0Z" transform="matrix(0.857, -0.515, 0.515, 0.857, 39.972, 10.365)"/><path class="f" d="M12.4,25.326l1.593,1.593a14.176,14.176,0,0,0,17.034,2.3l1.422-.809v9.413l5.982-1.994L43.2,22.7l16.809-11V9.151A8.152,8.152,0,0,0,47.739,2.119L37.663,8.026,22.266,2.1,16.472,5.966,27.479,14l-7.385,4.329-8.671-7.461L5.479,12.845,12.4,23.914Zm24.091,8.508-1.536.512V24.281l6.265-3.58ZM49.006,4.282a5.645,5.645,0,0,1,8.5,4.869v1.2L43.723,19.363v-2.98L32.446,22.828v2.7l-2.661,1.515a11.671,11.671,0,0,1-14.021-1.895l-.86-.858ZM20.852,6.059l1.724-1.15L34.9,9.646l-5.06,2.966Zm-9.987,7.632,6.943,5.974-3.742,2.193L9.291,14.216Z" transform="translate(0.133 -1)"/><path class="f" d="M67.411,51.555V44.036h2.156l4.109-12.327V29H48.615v2.709l4.109,12.327h2.156v7.518H44.535L45.9,44.036h.207a2.509,2.509,0,0,0,2.506-2.506V39.024a2.509,2.509,0,0,0-2.506-2.506H3.506A2.509,2.509,0,0,0,1,39.024V41.53a2.509,2.509,0,0,0,2.506,2.506h.207L8.725,71.6H78.688V51.555ZM62.4,41.53H59.893V36.518H62.4ZM51.189,31.506H71.1L67.761,41.53H64.9V34.012H57.387V41.53H54.531Zm6.2,12.53H64.9v7.518H57.387ZM41.3,55.314H37.338V44.036h6.017ZM19.8,44.036V55.314H14.783V44.036Zm15.036,0V55.314H29.82V44.036ZM27.314,55.314H22.3V44.036h5.012ZM19.8,57.82V69.1H14.783V57.82Zm2.506,0h5.012V69.1H22.3Zm7.518,0h5.012V69.1H29.82Zm7.518,0h3.511L38.8,69.1H37.338ZM3.506,39.024h42.6V41.53H3.506Zm8.771,5.012V55.314H8.311L6.261,44.036ZM8.766,57.82h3.511V69.1H10.816ZM51.121,69.1H48.615V61.579h2.506Zm10.024,0H58.64V61.579h2.506Zm10.024,0H68.664V61.579H71.17Zm5.012,0H73.676V59.073H66.158V69.1H63.652V59.073H56.134V69.1H53.628V59.073H46.109V69.1H41.345l2.734-15.036h32.1Z" transform="translate(-1 6.085)"/></svg>