<svg xmlns="http://www.w3.org/2000/svg" width="78.843" height="78.843" viewBox="0 0 78.843 78.843"><defs><style>.a{fill:#fcd770;}.b{fill:#e6e9ed;}.c{opacity:0.14;}.d{fill:#ccd1d9;}.e,.g{fill:#2b56f5;}.e{opacity:0.39;}.f{fill:#b4dd7f;}</style></defs><g transform="translate(1.272 1.272)"><g transform="translate(0 12.717)"><path class="a" d="M33.792,19.63H4.543A2.551,2.551,0,0,1,2,17.087V12H23.936A10.181,10.181,0,0,0,33.792,19.63Z" transform="translate(-2 -12)"/></g><g transform="translate(31.792 12.717)"><path class="a" d="M58.792,12v5.087a2.551,2.551,0,0,1-2.543,2.543H27A10.181,10.181,0,0,0,36.855,12Z" transform="translate(-27 -12)"/></g><g transform="translate(0 7.63)"><path class="a" d="M4.543,8H23.936a10.332,10.332,0,0,0,0,5.087H2V10.543A2.551,2.551,0,0,1,4.543,8Z" transform="translate(-2 -8)"/></g><g transform="translate(41.647 7.63)"><path class="a" d="M56.686,13.087H34.75A10.332,10.332,0,0,0,34.75,8H54.143a2.551,2.551,0,0,1,2.543,2.543Z" transform="translate(-34.75 -8)"/></g><g transform="translate(21.618)"><path class="b" d="M39.029,9.63a10.332,10.332,0,0,1,0,5.087,10.18,10.18,0,0,1-19.711,0,10.332,10.332,0,0,1,0-5.087,10.18,10.18,0,0,1,19.711,0Z" transform="translate(-19 -2)"/></g><g transform="translate(26.705 5.087)"><path class="a" d="M33.173,8.543V13.63H30.63v2.543H25.543V13.63H23V8.543h2.543V6H30.63V8.543Z" transform="translate(-23 -6)"/></g><g class="c" transform="translate(3.815 20.347)"><path class="a" d="M44.7,65.891l1.843-20.372a5.086,5.086,0,0,1,5.061-4.629h9.347V18H5V66.323H44.422Z" transform="translate(-5 -18)"/></g><g transform="translate(8.902 33.063)"><path class="d" d="M9,28H54.182a7.593,7.593,0,0,0-1.946,5.087H9Z" transform="translate(-9 -28)"/></g><g transform="translate(11.445 38.15)"><path class="e" d="M11,32V62.52H43.033l1.882-20.8a5.086,5.086,0,0,1,5.061-4.629h1.717V32Z" transform="translate(-11 -32)"/></g><g transform="translate(43.237 43.237)"><path class="a" d="M66.94,40.629l2.1,23.132c.013.14.025.292.025.432a4.863,4.863,0,0,1-4.87,4.87H40.87A4.863,4.863,0,0,1,36,64.193c0-.14.013-.292.025-.432l.216-2.327,1.882-20.8A5.086,5.086,0,0,1,43.185,36H61.878A5.086,5.086,0,0,1,66.94,40.629Z" transform="translate(-36 -36)"/></g><g transform="translate(48.325 57.072)"><path class="f" d="M48.266,46.88l6.358,7.935L48.266,59.9a5.084,5.084,0,1,1-6.358-7.935Z" transform="translate(-40.001 -46.88)"/></g><g transform="translate(56.589 50.867)"><path class="a" d="M60.005,43.907a5.088,5.088,0,0,1-.788,7.147l-6.358,5.087L46.5,48.206l6.358-5.087a5.078,5.078,0,0,1,7.147.788Z" transform="translate(-46.5 -42)"/></g></g><g transform="translate(0 0)"><path class="g" d="M58.072,41A6.377,6.377,0,0,0,54.1,42.392L41.382,52.568A6.359,6.359,0,0,0,49.328,62.5L62.048,52.322A6.358,6.358,0,0,0,58.072,41ZM47.739,60.512a3.816,3.816,0,0,1-4.767-5.959l5.368-4.294,4.766,5.959ZM60.458,50.337,55.092,54.63l-4.766-5.959,5.365-4.293a3.816,3.816,0,0,1,4.767,5.959Z" transform="translate(9.323 9.867)"/><path class="g" d="M79.818,73.149l-2.1-23.13a6.326,6.326,0,0,0-6.332-5.782h-.441V40.422a8.908,8.908,0,0,0-7.63-8.8V23.89a3.82,3.82,0,0,0,3.815-3.815v-7.63A3.82,3.82,0,0,0,63.312,8.63H44.841a11.427,11.427,0,0,0-21.555,0H4.815A3.82,3.82,0,0,0,1,12.445v7.63A3.82,3.82,0,0,0,4.815,23.89V72.213H44.347l-.085.938c-.017.184-.025.369-.025.554a6.144,6.144,0,0,0,6.138,6.137H73.706a6.144,6.144,0,0,0,6.137-6.137C79.843,73.521,79.834,73.336,79.818,73.149ZM68.4,40.422v3.815H55.682V40.422a6.358,6.358,0,0,1,12.717,0ZM32.792,41.693V69.67h-17.8V41.693ZM12.445,39.15V36.607H54.009a8.822,8.822,0,0,0-.769,2.543Zm50.867-17.8H41.241a11.489,11.489,0,0,0,3.6-5.087H64.583v3.815A1.273,1.273,0,0,1,63.312,21.347Zm0-10.173a1.273,1.273,0,0,1,1.272,1.272v1.272H45.433a10.813,10.813,0,0,0,0-2.543ZM34.063,3.543a8.9,8.9,0,1,1-8.9,8.9A8.912,8.912,0,0,1,34.063,3.543ZM4.815,11.173H22.693a10.815,10.815,0,0,0,0,2.543H3.543V12.445A1.273,1.273,0,0,1,4.815,11.173Zm-1.272,8.9V16.26H23.286a11.47,11.47,0,0,0,3.6,5.087H4.815a1.273,1.273,0,0,1-1.272-1.272ZM7.358,23.89h53.41v7.732a8.869,8.869,0,0,0-4.946,2.442H9.9v7.63h2.543V69.67H7.358ZM44.577,69.67H35.335V41.693h17.8v2.543H52.7a6.326,6.326,0,0,0-6.332,5.782ZM73.7,77.3H50.375a3.6,3.6,0,0,1-3.6-3.594c0-.111.005-.219.015-.326l2.1-23.13a3.8,3.8,0,0,1,3.8-3.47h.441v2.543h2.543V46.78H68.4v2.543h2.543V46.78h.441a3.8,3.8,0,0,1,3.8,3.47l2.1,23.129c.01.108.015.216.015.327A3.6,3.6,0,0,1,73.7,77.3Z" transform="translate(-1 -1)"/><path class="g" d="M24.543,17.717h7.63V15.173h2.543V7.543H32.173V5h-7.63V7.543H22v7.63h2.543Zm0-7.63h2.543V7.543H29.63v2.543h2.543V12.63H29.63v2.543H27.087V12.63H24.543Z" transform="translate(4.705 0.087)"/><path d="M30,41h2.543v5.087H30Z" transform="translate(6.878 9.867)"/><path d="M22,41h2.543v5.087H22Z" transform="translate(4.705 9.867)"/></g></svg>