<svg xmlns="http://www.w3.org/2000/svg" width="79.058" height="79.184" viewBox="0 0 79.058 79.184"><defs><style>.a{fill:#8690a6;}.b{fill:#eefaff;}.c{fill:#fcd770;}.d{fill:#ffda8f;}.e{fill:#2b56f5;}</style></defs><g transform="translate(1.544 1.544)"><path class="a" d="M10,302H28.529v30.882H10Z" transform="translate(-10 -256.912)"/><path class="a" d="M382,302h18.529v30.882H382Z" transform="translate(-324.56 -256.912)"/><path class="b" d="M422,422h6.176v6.177H422Z" transform="translate(-358.383 -358.383)"/><path class="b" d="M422,342h6.176v6.176H422Z" transform="translate(-358.383 -290.736)"/><path class="c" d="M274.529,10l-6.176,6.176,6.176,6.176H256V10Z" transform="translate(-218.015 -10)"/><path class="d" d="M154.969,136a18.531,18.531,0,0,0-18.449,16.8h36.9A18.531,18.531,0,0,0,154.969,136Z" transform="translate(-116.984 -116.544)"/><path class="d" d="M276,302h10.191v24.706H276Z" transform="translate(-234.927 -256.912)"/><path class="d" d="M170,302h10.191v24.706H170Z" transform="translate(-145.294 -256.912)"/><g transform="translate(6.176 31.808)"><path class="b" d="M141.264,229.279v-7.1L115.632,216,90,222.176v7.1h6.176v24.706H90v6.176h51.264v-6.176h-6.176V229.279Zm-38.911,24.706V229.279h10.191v24.706Zm26.559,0H118.72V229.279h10.191Z" transform="translate(-83.824 -216)"/><path class="b" d="M50,422h6.176v6.177H50Z" transform="translate(-50 -390.191)"/><path class="b" d="M50,342h6.176v6.176H50Z" transform="translate(-50 -322.544)"/></g></g><g transform="translate(0 0)"><path class="e" d="M77.514,45.088H66.705V39.529a1.544,1.544,0,0,0-1.182-1.5l-6.142-1.48A20.073,20.073,0,0,0,41.073,19.516V15.441H58.058a1.544,1.544,0,0,0,1.092-2.636L54.065,7.72,59.15,2.636A1.544,1.544,0,0,0,58.058,0H39.529a1.544,1.544,0,0,0-1.544,1.544V19.516A20.073,20.073,0,0,0,19.678,36.548l-6.142,1.48a1.544,1.544,0,0,0-1.182,1.5v5.559H1.544A1.544,1.544,0,0,0,0,46.632V77.514a1.544,1.544,0,0,0,1.544,1.544H32.581a1.544,1.544,0,1,0,0-3.088H15.441V72.881H63.617V75.97H46.477a1.544,1.544,0,1,0,0,3.088H77.514a1.544,1.544,0,0,0,1.544-1.544V46.632A1.544,1.544,0,0,0,77.514,45.088Zm-36.441-42H54.33l-3.54,3.54a1.544,1.544,0,0,0,0,2.184l3.54,3.54H41.073ZM39.529,22.544A16.89,16.89,0,0,1,56.1,35.756l-16.205-3.9a1.545,1.545,0,0,0-.724,0l-16.205,3.9A16.89,16.89,0,0,1,39.529,22.544Zm-24.088,18.2,24.088-5.8,24.088,5.8v4.342H15.441Zm9.265,7.431V69.793H21.617V48.176Zm3.088,0h7.1V69.793h-7.1Zm10.191,0h3.088V69.793H37.985Zm6.176,0h7.1V69.793h-7.1Zm10.191,0H57.44V69.793H54.352ZM3.088,75.97V48.176H18.529V69.793H15.441V65.161A1.544,1.544,0,0,0,13.9,63.617H7.721a1.544,1.544,0,0,0-1.544,1.544v6.176a1.544,1.544,0,0,0,1.544,1.544h4.632V75.97Zm9.265-6.176H9.265V66.705h3.088ZM75.97,75.97H66.705V72.881h4.632a1.544,1.544,0,0,0,1.544-1.544V65.161a1.544,1.544,0,0,0-1.544-1.544H65.161a1.544,1.544,0,0,0-1.544,1.544v4.632H60.529V48.176H75.97Zm-9.265-6.176V66.705h3.088v3.088Z" transform="translate(0 0)"/><path class="e" d="M412,333.544v6.176a1.544,1.544,0,0,0,1.544,1.544h6.176a1.544,1.544,0,0,0,1.544-1.544v-6.176A1.544,1.544,0,0,0,419.72,332h-6.176A1.544,1.544,0,0,0,412,333.544Zm3.088,1.544h3.088v3.088h-3.088Z" transform="translate(-348.383 -280.736)"/><path class="e" d="M41.544,341.265H47.72a1.544,1.544,0,0,0,1.544-1.544v-6.176A1.544,1.544,0,0,0,47.72,332H41.544A1.544,1.544,0,0,0,40,333.544v6.176A1.544,1.544,0,0,0,41.544,341.265Zm1.544-6.176h3.088v3.088H43.088Z" transform="translate(-33.824 -280.736)"/><ellipse class="e" cx="1.586" cy="1.586" rx="1.586" ry="1.586" transform="translate(37.943 76.012)"/></g></svg>