<svg xmlns="http://www.w3.org/2000/svg" width="214" height="399" viewBox="0 0 214 399"><defs><style>.a,.d{fill:#262626;font-family:Poppins-Bold, Poppins;font-weight:700;}.a{font-size:22px;}.b{fill:#535353;}.b,.c{font-size:16px;font-family:Poppins-Regular, Poppins;}.c,.e{fill:#2b56f5;}.d{font-size:30px;}.f,.i{fill:#fff;}.f{font-size:14px;font-family:Poppins-Medium, Poppins;font-weight:500;}.g{fill:#2679dd;}.h{fill:#3a56cc;}.i{stroke:#0b5baa;stroke-linecap:round;stroke-linejoin:round;stroke-width:2px;}.j{fill:#89b9e8;opacity:0.76;}.k{fill:#58a0db;}</style></defs><g transform="translate(-212 -5704)"><text class="a" transform="translate(280 5727)"><tspan x="0" y="0">Starter</tspan></text><text class="b" transform="translate(319 5937)"><tspan x="-106.528" y="0">If you are a small business </tspan><tspan x="-88.68" y="27">please select this plan</tspan></text><text class="c" transform="translate(319 6004)"><tspan x="-63.136" y="0">1 Branches,1User</tspan></text><text class="d" transform="translate(319 5891)"><tspan x="-103.995" y="0">$19.99 /Month</tspan></text><g transform="translate(57 3815)"><g transform="translate(0)"><rect class="e" width="153" height="45" rx="5" transform="translate(186 2243)"/></g><text class="f" transform="translate(206 2270)"><tspan x="0" y="0">Try Free 30 Days</tspan></text></g><g transform="translate(274 5745.6)"><path class="g" d="M81.8,22.2a2.9,2.9,0,1,1,2.9-2.9h0a2.9,2.9,0,0,1-2.9,2.9"/><circle class="g" cx="2.9" cy="2.9" r="2.9" transform="translate(69.5 70.4)"/><path class="g" d="M15,78.1a1.9,1.9,0,0,1,0-3.8,1.967,1.967,0,0,1,1.9,1.9h0A1.839,1.839,0,0,1,15,78.1"/><path class="g" d="M14,51.3a1.9,1.9,0,0,1-1.9-1.9,1.9,1.9,0,1,1,3.8,0A1.839,1.839,0,0,1,14,51.3"/><rect class="g" width="6" height="2" transform="translate(6 13.2)"/><rect class="g" width="2" height="6" transform="translate(8 11.2)"/><path class="h" d="M74.3,34.9l-6-8.8-2-10.4L47.2,34.9Z"/><path class="h" d="M42.5,6.4l-8.7,6-10.5,2L42.5,33.6Z"/><path class="h" d="M14.2,37.7l5.9,8.8,2,10.4L41.3,37.7Z"/><path class="h" d="M23.3,58.6l10.5,2,8.7,6V39.4Z"/><path class="h" d="M22.1,15.7l-2,10.4-5.9,8.8H41.3Z"/><path class="h" d="M74.3,37.9H47.2L66.3,57.1l2-10.5Z"/><path class="h" d="M45.5,66.6l8.8-6,10.4-2L45.5,39.4Z"/><path class="h" d="M64.7,14.4l-10.4-2-8.8-6V33.6Z"/><path class="h" d="M53.8,62.8,44,69.5l-9.8-6.7H30.6V85.6h3.6L44,78.9l9.8,6.7h3.7V62.8Z"/><path class="i" d="M61.8,36.5A17.6,17.6,0,1,1,44.2,18.9h0A17.562,17.562,0,0,1,61.8,36.5h0"/><path class="g" d="M44.2,23.3V50.7a1.181,1.181,0,0,1-1.3,1.2,14.973,14.973,0,0,1,0-29.8A1.181,1.181,0,0,1,44.2,23.3Z"/><path class="j" d="M44.7,23.3V34.9A1.179,1.179,0,0,0,46.3,36l11-3.5a1.146,1.146,0,0,0,.7-1.6,14.827,14.827,0,0,0-12-8.8A1.181,1.181,0,0,0,44.7,23.3Z"/><path class="k" d="M44.7,38.1V50.7A1.181,1.181,0,0,0,46,51.9,15.033,15.033,0,0,0,59.3,37a13.575,13.575,0,0,0-.3-2.9,1.184,1.184,0,0,0-1.5-.9L45.6,37A1.172,1.172,0,0,0,44.7,38.1Z"/></g></g></svg>