<svg xmlns="http://www.w3.org/2000/svg" xmlns:xlink="http://www.w3.org/1999/xlink" width="559.736" height="340.984" viewBox="0 0 559.736 340.984"><defs><style>.a,.aa,.ab,.ac,.b,.l,.p,.v,.w,.x,.y{fill:none;}.b{stroke:#ded8d5;stroke-width:1.968px;}.ac,.b,.l,.x{stroke-miterlimit:10;}.c{fill:#ffb1a5;}.d{fill:#ead254;}.e{fill:#00857b;}.f{fill:#ededed;}.g,.h{fill:#ffc727;}.ac,.h,.l{stroke:#fff;}.aa,.ab,.h,.p,.v,.w,.y{stroke-linecap:round;stroke-linejoin:round;}.h{stroke-width:1.647px;}.i{fill:#fff;}.j{fill:#56dfed;}.k{fill:#c98bd2;}.l{stroke-width:1.18px;}.m{fill:#2b56f5;}.n{clip-path:url(#a);}.o{fill:#8e716c;}.aa,.ab,.p,.v,.w,.y{stroke:#282828;}.p{stroke-width:1.233px;}.q{fill:#f3978e;}.r{fill:#372f5f;}.s{fill:#261b43;}.t{fill:#e6e6e6;}.u{fill:#282828;}.v{stroke-width:0.993px;}.w{stroke-width:1.232px;}.x{stroke:#c98bd2;stroke-width:1.342px;}.y{stroke-width:1.23px;}.z{fill:#005683;}.aa{stroke-width:1.397px;}.ab{stroke-width:1.532px;}.ac{stroke-width:1.951px;}</style><clipPath id="a"><rect class="a" width="381.819" height="276.578"/></clipPath></defs><g transform="translate(-740.016 -6743)"><g transform="translate(741 6743)"><g transform="translate(0 83.141)"><g transform="translate(58.084)"><line class="b" x2="440.148" transform="translate(0 27.215)"/><rect class="b" width="440.148" height="256.859" rx="6.521"/><g transform="translate(19.765 10.088)"><path class="c" d="M157.346,141.874a3.8,3.8,0,1,1-3.8-3.8A3.8,3.8,0,0,1,157.346,141.874Z" transform="translate(-149.751 -138.077)"/><path class="d" d="M175.1,141.874a3.8,3.8,0,1,1-3.8-3.8A3.8,3.8,0,0,1,175.1,141.874Z" transform="translate(-152.745 -138.077)"/><path class="e" d="M192.851,141.874a3.8,3.8,0,1,1-3.8-3.8A3.8,3.8,0,0,1,192.851,141.874Z" transform="translate(-155.739 -138.077)"/></g></g><g transform="translate(449.613 18.68)"><rect class="f" width="107.53" height="100.198" rx="5.991"/><rect class="b" width="107.53" height="100.198" rx="5.991"/><g transform="translate(23.563 22.56)"><g transform="translate(0 0)"><rect class="g" width="60.724" height="51.573" rx="6.022" transform="translate(60.724 51.573) rotate(180)"/></g><g transform="translate(16.191 15.568)"><path class="h" d="M642.706,213.069H614.683V194.276h28.023v18.793Z" transform="translate(-614.683 -194.276)"/><path class="h" d="M614.683,194.276l14.011,11.042,14.012-11.042" transform="translate(-614.683 -194.276)"/></g></g></g><g transform="translate(0 103.812)"><rect class="f" width="102.55" height="90.627" rx="5.713"/><rect class="b" width="102.55" height="90.627" rx="5.713"/><g transform="translate(21.384 15.521)"><rect class="g" width="59.299" height="57.645" rx="6.639"/><g transform="translate(13.273 12.623)"><path class="i" d="M102.68,289.55a16.766,16.766,0,1,0,23.71,0A16.832,16.832,0,0,0,102.68,289.55Zm23.672,2.414h-5.343a34,34,0,0,0-2.078-5.035A15.145,15.145,0,0,1,126.352,291.965Zm-17.973,8.461a27.127,27.127,0,0,1,.794-6.5H119.9a27.084,27.084,0,0,1,.794,6.5Zm12.247,1.96a31.941,31.941,0,0,1-1.151,6.5H109.6a31.878,31.878,0,0,1-1.152-6.5Zm-6.091-16.105a15.23,15.23,0,0,1,2.369.184,30.807,30.807,0,0,1,2.431,5.5h-9.6a30.806,30.806,0,0,1,2.431-5.5A15.237,15.237,0,0,1,114.536,286.281Zm-4.4.649a33.9,33.9,0,0,0-2.077,5.035H102.72A15.133,15.133,0,0,1,110.139,286.93Zm-8.753,7h6.12a29.17,29.17,0,0,0-.857,6.5H99.442A15.046,15.046,0,0,1,101.387,293.925Zm0,14.961a15.032,15.032,0,0,1-1.945-6.5h7.237a31.586,31.586,0,0,0,1.021,6.5Zm1.333,1.96h5.559a40.679,40.679,0,0,0,2.067,5.1A15.134,15.134,0,0,1,102.72,310.846Zm11.816,5.685a15.273,15.273,0,0,1-1.981-.129,45.129,45.129,0,0,1-2.344-5.556h8.652a45.389,45.389,0,0,1-2.344,5.556A15.3,15.3,0,0,1,114.536,316.531Zm4.191-.589a40.617,40.617,0,0,0,2.066-5.1h5.56A15.134,15.134,0,0,1,118.726,315.943Zm8.958-7.056h-6.313a31.458,31.458,0,0,0,1.021-6.5h7.237A15.035,15.035,0,0,1,127.684,308.886Zm1.945-8.461h-7.207a29.171,29.171,0,0,0-.857-6.5h6.12A15.046,15.046,0,0,1,129.629,300.425Z" transform="translate(-97.797 -284.667)"/></g></g></g></g><g transform="translate(4.803)"><path class="j" d="M685.41,343.837H644.5a3.153,3.153,0,0,1-3.153-3.153h0a3.153,3.153,0,0,1,3.153-3.153H685.41a3.154,3.154,0,0,1,3.153,3.153h0A3.154,3.154,0,0,1,685.41,343.837Z" transform="translate(-134.614 -79.953)"/><rect class="k" width="9.757" height="9.451" rx="2.861" transform="translate(514.761 292.378)"/><rect class="c" width="9.757" height="9.451" rx="2.861" transform="translate(15.855 314.224)"/><g transform="translate(338.334 23.071)"><rect class="g" width="88.213" height="25.323" rx="3.012"/><g transform="translate(12.015 9.023)"><line class="l" x2="59.174"/><line class="l" x2="24.102" transform="translate(0 6.073)"/></g><path class="g" d="M458.571,90.068v9.869l12.411-9.869Z" transform="translate(-448.962 -67.61)"/></g><g transform="translate(162.188)"><path class="m" d="M6.46,0H46.272a6.46,6.46,0,0,1,6.46,6.46V43.44a6.46,6.46,0,0,1-6.46,6.46H8.521A8.521,8.521,0,0,1,0,41.379V6.46A6.46,6.46,0,0,1,6.46,0Z"/><g transform="translate(15.062 11.054)"><path class="i" d="M288.974,66.186l-3-3a2.63,2.63,0,0,0-1.93-.911,2.781,2.781,0,0,0-1.93.857L280.4,64.846l-.322-.16a4.945,4.945,0,0,1-.536-.269,18.487,18.487,0,0,1-4.45-4.074,9.737,9.737,0,0,1-1.394-2.2c.429-.375.8-.8,1.18-1.179l.482-.483a2.615,2.615,0,0,0,0-3.967l-1.5-1.5a4.867,4.867,0,0,1-.482-.536l-1.019-1.019a2.779,2.779,0,0,0-1.93-.857,2.656,2.656,0,0,0-1.93.857l-1.877,1.877a4.313,4.313,0,0,0-1.233,2.627,9.754,9.754,0,0,0,.7,4.074,21.929,21.929,0,0,0,4.182,7.024,26.065,26.065,0,0,0,8.579,6.7,14.24,14.24,0,0,0,4.826,1.447h.375a4.257,4.257,0,0,0,3.217-1.394l.053-.053a8.245,8.245,0,0,1,.965-.965l.7-.7A2.69,2.69,0,0,0,288.974,66.186Zm-1.234,2.788-.643.643c-.375.322-.7.7-1.073,1.072a2.548,2.548,0,0,1-1.93.8h-.268a11.293,11.293,0,0,1-4.182-1.287,24.406,24.406,0,0,1-7.989-6.273,23.255,23.255,0,0,1-3.914-6.488,6.643,6.643,0,0,1-.643-3.325,2.26,2.26,0,0,1,.751-1.555l1.823-1.823a1.125,1.125,0,0,1,.751-.375,1.022,1.022,0,0,1,.75.375l.965.965a5.022,5.022,0,0,0,.536.536l1.5,1.5a1.255,1.255,0,0,1,.376.751,1.124,1.124,0,0,1-.376.751l-.482.482-1.341,1.341-.053.053a1.174,1.174,0,0,0-.322,1.34v.054a12.375,12.375,0,0,0,1.769,2.9,19.908,19.908,0,0,0,4.879,4.45,4.467,4.467,0,0,0,.7.375,5.025,5.025,0,0,1,.536.269l.053.053a1.231,1.231,0,0,0,1.5-.268l1.876-1.877a.886.886,0,0,1,1.448,0l3,3A1.015,1.015,0,0,1,287.74,68.974Z" transform="translate(-265.365 -48.6)"/></g></g></g></g><g transform="translate(862.32 6805.75)"><g class="n" transform="translate(0)"><g transform="translate(2.496 3.356)"><g transform="translate(213.88 10.566)"><g transform="translate(4.656 165.904)"><path class="o" d="M501.957,321.762l-30.345-4.04.237,3.013L445.9,324.19s-16.724,41.958-1.984,134.235h21.106l7.6-93.568h2.7l7.357,93.568H503.78C518.519,366.148,501.957,321.762,501.957,321.762Z" transform="translate(-437.845 -317.722)"/><line class="p" x2="22.02" transform="translate(25.125 47.135)"/></g><g transform="translate(0 84.431)"><g transform="translate(67.354 25.309)"><g transform="translate(0 11.85)"><path class="c" d="M532.4,268.511c-2.6-4.144-17.18-4-17.95-4.088-3.942-.462,2.528,30.91,10.729,58.333a9.207,9.207,0,0,0,12.41,5.854l.164-.069a9.22,9.22,0,0,0,5.467-10.2C539.316,297.646,535.4,273.3,532.4,268.511Z" transform="translate(-513.261 -264.418)"/><path class="q" d="M536.329,281.684l-18.62,7.225-1.746-8.834,19.28-4.81Z" transform="translate(-513.716 -266.247)"/><path class="q" d="M542.983,302.654s-8.821,11.846-8.4,11.3,6.918-19.144,6.918-19.144Z" transform="translate(-516.854 -269.544)"/></g><g transform="translate(11.52)"><path class="c" d="M554.338,285.092l-25.283,32.759a9.3,9.3,0,0,0,2.3,13.478h0a9.3,9.3,0,0,0,13.235-3.368l21.045-38.828Z" transform="translate(-527.117 -256.055)"/><g transform="translate(26.539 15.216)"><path class="c" d="M566.265,291.082a10.429,10.429,0,1,1,13.13-6.718A10.429,10.429,0,0,1,566.265,291.082Z" transform="translate(-559.039 -268.848)"/><path class="c" d="M577.179,274.508s2.854-2.964-2.209-5.04-11.324-1.6-15.32,8.1Z" transform="translate(-559.142 -268.467)"/></g><g transform="translate(33.078)"><path class="r" d="M583.853,250.812l10.586,4.59a1.092,1.092,0,0,1,.479,1.56l-13.927,26.013a1.332,1.332,0,0,1-1.654.635l-10.586-4.59a1.091,1.091,0,0,1-.479-1.56L582.2,251.447A1.331,1.331,0,0,1,583.853,250.812Z" transform="translate(-567.11 -250.258)"/><path class="s" d="M582.637,250.258l10.587,4.59a1.092,1.092,0,0,1,.479,1.56l-13.927,26.013a1.332,1.332,0,0,1-1.654.635l-10.586-4.59a1.09,1.09,0,0,1-.479-1.56l13.927-26.013A1.331,1.331,0,0,1,582.637,250.258Z" transform="translate(-566.904 -250.164)"/><path class="t" d="M582.089,253.461l9.3,4.033-11.35,21.2-9.3-4.033Z" transform="translate(-567.551 -250.72)"/><path class="i" d="M591.391,257.494l-20.652,17.168,11.35-21.2Z" transform="translate(-567.551 -250.72)"/></g><path class="c" d="M572.7,268.631a16.891,16.891,0,0,1,4.485,1.664,2.4,2.4,0,0,1,1.157,2.659h0a2.378,2.378,0,0,1-2.01,1.785l-5.5.694s-2.871,4.949-6.623,5.505l3.442-8.69Z" transform="translate(-533.371 -253.279)"/></g></g><path class="j" d="M480.157,219.721c-.608,0,39.029,5.484,45.569,50.674l-20.568,3.152-4.147,34.116H443.635l-11.391-63.033s12.712-18.218,36.315-24.908Z" transform="translate(-432.244 -219.721)"/><line class="p" y1="19.731" x2="1.785" transform="translate(72.915 34.095)"/></g><g transform="translate(17.865 0)"><path class="c" d="M489.674,217.314v-15.7H471.28V217.5a35.727,35.727,0,0,0-4.942,2l14.347,8.546,14.667-8.546A23.93,23.93,0,0,0,489.674,217.314Z" transform="translate(-455.859 -132.237)"/><path class="u" d="M472.077,202.942s3.3,8.772,12.122,8.014c8.106-.7,6.815-12.853,6.815-12.853Z" transform="translate(-456.827 -131.645)"/><g transform="translate(0 48.614)"><path class="q" d="M460.961,187.656c-2.883,2.615-9.33-7.3-6.544-10.089s4.911,1.585,4.911,1.585l1.245,2.96.938,4.01.224,1.051Z" transform="translate(-453.733 -176.639)"/><g transform="translate(2.03 4.298)"><path class="v" d="M456.175,181.953s2.182-.982,4.121,2.182" transform="translate(-456.175 -181.809)"/></g></g><g transform="translate(40.597 48.74)"><path class="q" d="M503.293,187.381c2.651,2.85,9.914-6.489,7.374-9.5s-5.028,1.163-5.028,1.163l-1.489,2.845-1.274,3.917-.311,1.028Z" transform="translate(-502.565 -176.79)"/><g transform="translate(2.172 4.255)"><path class="v" d="M509.469,182.132s-2.092-1.163-4.291,1.826" transform="translate(-505.178 -181.909)"/></g></g><g transform="translate(2.17 18.016)"><path class="u" d="M456.344,161.9c0,13.13,10.011,19.356,22.361,19.356s22.36-6.226,22.36-19.356-10.011-22.064-22.36-22.064S456.344,148.767,456.344,161.9Z" transform="translate(-456.344 -139.834)"/></g><path class="c" d="M460,163.423a89.769,89.769,0,0,0,2.276,19.954c1.113,4.833,4.245,8.211,8.671,10.93l.806.5a15.218,15.218,0,0,0,15.49.171h0c4.8-2.8,8.154-6.482,9.186-11.669a131.223,131.223,0,0,0,2.085-19.882s1.788-20.348-18.982-19.953S460,163.423,460,163.423Z" transform="translate(-454.787 -122.43)"/><g transform="translate(4.781 39.475)"><path class="w" d="M481.648,181.441v2.816a1.282,1.282,0,0,0,.091.473,1.255,1.255,0,0,0,1.5.692l1.292-.342" transform="translate(-463.221 -168.31)"/><path class="u" d="M475.581,168.02l-10.322,2.42s.469-2.627,4.692-3.582S475.581,168.02,475.581,168.02Z" transform="translate(-460.458 -165.808)"/><path class="u" d="M488.7,168.02l9.968,2.42s-.453-2.627-4.531-3.582S488.7,168.02,488.7,168.02Z" transform="translate(-464.41 -165.808)"/><ellipse class="u" cx="1.741" cy="1.736" rx="1.741" ry="1.736" transform="translate(9.461 8.059)"/><path class="u" d="M494.2,177.076a1.741,1.741,0,1,1-1.741-1.737A1.738,1.738,0,0,1,494.2,177.076Z" transform="translate(-464.751 -167.28)"/><path class="i" d="M475.052,190.172h13.425S482.527,197.41,475.052,190.172Z" transform="translate(-462.109 -169.782)"/><g transform="translate(0 0)"><circle class="x" cx="7.403" cy="7.403" r="7.403" transform="translate(0 10.47) rotate(-45)"/><circle class="x" cx="7.403" cy="7.403" r="7.403" transform="translate(18.187 10.47) rotate(-45)"/><path class="x" d="M480.982,178.091a2.41,2.41,0,0,1,3.38,0" transform="translate(-463.109 -167.622)"/><line class="x" x1="2.332" y1="0.059" transform="translate(0.735 10.41)"/><line class="x" y1="0.059" x2="2.346" transform="translate(36.059 10.41)"/></g></g><path class="u" d="M504.653,171s-8.3-11.227-6.389-22.6a16.363,16.363,0,0,1,7.769,11.108C507.638,167.517,504.653,171,504.653,171Z" transform="translate(-461.195 -123.263)"/><path class="u" d="M459.748,171.608s9.647-12.751,7.732-24.125a18.994,18.994,0,0,0-8.3,11.872C457.579,167.362,459.748,171.608,459.748,171.608Z" transform="translate(-454.553 -123.108)"/><path class="u" d="M497.087,151.881s-10.664,11.674-39.839,9.675c0,0,4.468-17.13,18.607-18.955C475.856,142.6,492.181,140.652,497.087,151.881Z" transform="translate(-454.326 -122.263)"/><circle class="u" cx="13.93" cy="13.93" r="13.93" transform="translate(26.041 27.504) rotate(-80.831)"/></g></g><g transform="translate(19.567 26.123)"><path class="u" d="M286.745,321.232,260.8,317.777l.237-3.014L230.691,318.8s-16.562,44.385-1.823,136.662h21.106L257.33,361.9h2.7l7.6,93.568h21.106C303.468,363.189,286.745,321.232,286.745,321.232Z" transform="translate(-202.602 -166.876)"/><g transform="translate(15.087)"><path class="u" d="M283.647,165.313a47.848,47.848,0,0,1-8.713-15.713c-2.565-7.26-10.965-4.309-10.965-4.309s-7-9-17.532-5.869-14.192,10.631-14.407,19.542-7.224,10.3-12.621,20.613c-9.527,18.2,6.514,33.527,35.714,29.275l.04-.283a30.64,30.64,0,0,0,10.7,1C300.945,207.485,297.56,181.682,283.647,165.313Z" transform="translate(-216.662 -137.194)"/><g transform="translate(54.728 30.598)"><path class="q" d="M283.264,184.7c2.883,2.615,9.33-7.3,6.544-10.089s-4.912,1.585-4.912,1.585l-1.244,2.96-.938,4.01-.224,1.05Z" transform="translate(-282.492 -173.68)"/><g transform="translate(1.849 4.298)"><path class="v" d="M288.837,178.995s-2.182-.982-4.121,2.181" transform="translate(-284.716 -178.851)"/></g></g><g transform="translate(13.499 30.723)"><path class="q" d="M240.8,184.423c-2.651,2.849-9.914-6.489-7.374-9.5s5.028,1.164,5.028,1.164l1.489,2.845,1.274,3.917.311,1.028Z" transform="translate(-232.899 -173.832)"/><g transform="translate(2.169 4.256)"><path class="v" d="M235.508,179.174S237.6,178.011,239.8,181" transform="translate(-235.508 -178.951)"/></g></g><g transform="translate(15.837)"><path class="u" d="M280.431,158.939c0,13.13-10.01,19.357-22.36,19.357s-22.36-6.227-22.36-19.357,10.011-22.063,22.36-22.063S280.431,145.809,280.431,158.939Z" transform="translate(-235.711 -136.876)"/></g><rect class="c" width="18.394" height="23.819" transform="translate(28.913 51.363)"/><path class="u" d="M248.211,196.872s5.12,10.219,11.419,11.814a8.865,8.865,0,0,0,5.1-.3c2.371-.84,5.378-4.375,5.888-8.286l.238-2.235S259.65,203.973,248.211,196.872Z" transform="translate(-221.982 -146.994)"/><path class="c" d="M278.027,160.465a89.752,89.752,0,0,1-2.276,19.953c-1.113,4.833-4.245,8.211-8.671,10.931l-.806.495a15.218,15.218,0,0,1-15.49.172h0c-4.8-2.8-8.154-6.482-9.187-11.669a131.285,131.285,0,0,1-2.084-19.882s-1.788-20.349,18.982-19.953S278.027,160.465,278.027,160.465Z" transform="translate(-220.509 -137.488)"/><g transform="translate(24.143 23.138)"><path class="y" d="M260.938,179.808v1.673a1.278,1.278,0,0,0,.091.472,1.256,1.256,0,0,0,1.5.689l1.292-.342" transform="translate(-248.271 -167.254)"/><path class="u" d="M266.144,166.231l11.05,2.615s-.5-2.84-5.023-3.872S266.144,166.231,266.144,166.231Z" transform="translate(-249.149 -164.707)"/><path class="u" d="M256.895,166.231,245.7,168.846s.509-2.84,5.087-3.872S256.895,166.231,256.895,166.231Z" transform="translate(-245.702 -164.707)"/><path class="u" d="M253.636,174.439a1.741,1.741,0,1,1-1.741-1.731A1.736,1.736,0,0,1,253.636,174.439Z" transform="translate(-246.453 -166.056)"/><path class="u" d="M273.488,174.439a1.741,1.741,0,1,1-1.741-1.731A1.736,1.736,0,0,1,273.488,174.439Z" transform="translate(-249.801 -166.056)"/><path class="i" d="M252.959,186.7h15.28s-1.078,4.2-8.007,4.2A8.1,8.1,0,0,1,252.959,186.7Z" transform="translate(-246.926 -168.416)"/></g><path class="u" d="M239.465,168.044s8.3-11.227,6.389-22.6a16.365,16.365,0,0,0-7.769,11.109C236.479,164.558,239.465,168.044,239.465,168.044Z" transform="translate(-220.195 -138.321)"/><path class="u" d="M284.246,167.515s-9.647-11.617-7.732-22.99a18.994,18.994,0,0,1,8.3,11.872C286.415,164.4,284.246,167.515,284.246,167.515Z" transform="translate(-226.713 -138.166)"/><path class="u" d="M240.679,148.923s9.529,12.808,38.7,10.809c0,0-3.333-18.265-17.472-20.089C261.911,139.644,245.586,137.694,240.679,148.923Z" transform="translate(-220.712 -137.321)"/></g><g transform="translate(0 67.423)"><g transform="translate(0 37.391)"><path class="c" d="M207.07,368.833c-.424.668,24.282-107.5,16.947-105.863-.669.15-13.516,1.343-15.425,5.224-5.535,11.254-9.5,99.819-9.5,99.819Z" transform="translate(-198.61 -262.952)"/><path class="c" d="M198.99,388.87s-3.982,18.476,11.072,20.5a2.115,2.115,0,0,0,2.277-1.4l.043-.126a2.113,2.113,0,0,0-1.171-2.614c-2.454-1.1-6.261-3.871-4.372-10.167,0,0,2.176-.267,3.377,3.793a1.745,1.745,0,0,0,2.453,1.078h0a1.745,1.745,0,0,0,.944-1.785c-.361-2.843-1.792-9.687-7.279-11.523Z" transform="translate(-198.514 -283.809)"/><path class="q" d="M205.181,297.281s14.235,20.048,14.31,19.66,4.978-28.146,4.978-28.146L207.2,281.312Z" transform="translate(-199.638 -266.048)"/></g><g transform="translate(3.374)"><path class="e" d="M244.294,222.535c.608,0-35.181.638-41.722,45.828l20.568,3.151,4.147,34.116h57.377L296.055,242.6s-8.1-13.657-31.7-20.347Z" transform="translate(-202.572 -218.697)"/><path class="c" d="M231.716,227.277s5.058,6.714,25.781,6.714c20.53,0,25.78-7.066,25.78-7.066a88.519,88.519,0,0,0-26.147-8.95A93.037,93.037,0,0,0,231.716,227.277Z" transform="translate(-207.487 -217.976)"/></g></g></g><g transform="translate(117.584 246.009)"><path class="z" d="M316.414,401.367l.049,90.123h44.584l3.426-90.123Z" transform="translate(-316.414 -401.367)"/><path class="z" d="M423.107,401.367l-.049,90.123H378.473l-3.426-90.123Z" transform="translate(-326.302 -401.367)"/><rect class="z" width="46.098" height="31.31" transform="translate(26.356)"/><line class="aa" x2="31.796" transform="translate(32.795 31.31)"/></g><g transform="translate(0 84.716)"><g transform="translate(189.479 12.332)"><g transform="translate(23.154 70.312)"><path class="c" d="M460.665,306.763c2.764,30.539-.151,52.79.655,108.984l-26.611,1.114-3.965-105.185Z" transform="translate(-430.745 -306.763)"/><path class="q" d="M434.691,332.288s16.479-1.509,27.745-8.94l-.3-6.54-27.458,3.739Z" transform="translate(-431.409 -308.457)"/></g><path class="m" d="M402.894,222.188s52.341,13.164,61.825,79.6c0,0-25.617,11.106-51.29,6.329l5.775-22.221Z" transform="translate(-402.894 -222.188)"/></g><path class="c" d="M211.611,255.417l38.972,46.025-11.926,33.585s-29.621-41.183-42.931-73.014Z" transform="translate(-178.477 -215.46)"/><path class="c" d="M210.638,251.912s-13.685,7.732-17.166,4.935c-6.083-4.888-11.109-22.778-11.109-22.778s25.591-9.648,25.35-9.271S210.638,251.912,210.638,251.912Z" transform="translate(-176.223 -210.294)"/><path class="c" d="M215.434,252.348c-.242-1.378,5.075-16.241,6.9-21.814a2.459,2.459,0,0,0-1.946-3.1h0a2.839,2.839,0,0,0-3.166,1.3L210.8,239.7Z" transform="translate(-181.019 -210.73)"/><path class="c" d="M213.87,233.188l-4.407-21.926a2.76,2.76,0,0,0-3.19-2.188h0a2.377,2.377,0,0,0-1.951,2.636l1.92,16.326Z" transform="translate(-179.923 -207.637)"/><path class="c" d="M203.035,224.818l-5.985-15.657a2.746,2.746,0,0,0-3.4-1.674h0a2.367,2.367,0,0,0-1.565,2.808l4.441,18.092Z" transform="translate(-177.852 -207.354)"/><path class="c" d="M194.9,230.447l-7.572-15.384a3.01,3.01,0,0,0-3.843-1.474h0a2.622,2.622,0,0,0-1.353,3.463l6.036,14.524Z" transform="translate(-176.147 -208.367)"/><path class="c" d="M181.117,233.422,175.176,224a2.128,2.128,0,0,1,1.038-2.843h0a2.432,2.432,0,0,1,2.97.864L187,232.857Z" transform="translate(-174.978 -209.647)"/><path class="ab" d="M212.374,236.1s-8.923-.936-9.84,10.956" transform="translate(-179.625 -212.2)"/><g transform="translate(52.277 11.181)"><g transform="translate(0 26.835)"><path class="c" d="M237.859,318.925s7.33,25.367,21.936,21.994,37.372-34.569,37.372-34.569l-5.1-53.268-41,50.457Z" transform="translate(-237.859 -253.082)"/><path class="q" d="M269.051,293.993s13.841,20.878,25.649,28.239l7.727-9.755-29.813-23.063Z" transform="translate(-243.119 -259.209)"/></g><path class="m" d="M329.257,220.8s-40.637,9.159-62.292,56.388c0,0,13.084,19.715,34.06,28.477l14.043-17.2Z" transform="translate(-242.768 -220.803)"/></g><g transform="translate(112.288 7.506)"><path class="m" d="M336.648,219.911A101.767,101.767,0,0,0,310.8,238.852l3.132,138.055H413.961l-.324-137.342s-12.609-12.34-26.275-18.355C375.755,216.1,347.933,214.123,336.648,219.911Z" transform="translate(-310.171 -216.383)"/><path class="aa" d="M0,0H27.828a0,0,0,0,1,0,0V13.914A13.914,13.914,0,0,1,13.914,27.828h0A13.914,13.914,0,0,1,0,13.914V0A0,0,0,0,1,0,0Z" transform="translate(59.899 42.971)"/><line class="aa" y1="45.162" x2="1.298" transform="translate(103.627 46.106)"/><line class="aa" x1="2.161" y1="39.148" transform="translate(0 44.594)"/></g></g><g transform="translate(130.871)"><path class="u" d="M342.361,152.575l-4.17-20.63c-.234-1.68-.886-4.273-.088-6.71,1.321-4.031,6.175-11.773,14.471-8.228l1.794,8.167s-8.616,1.739-12.073,13.011Z" transform="translate(-333.294 -107.249)"/><path class="u" d="M352.334,122.313c-.15,2.71-2.543,14.57-10.955,18.892C341.379,141.2,334.012,125.4,352.334,122.313Z" transform="translate(-333.665 -108.297)"/><path class="c" d="M381.845,208.952h0V173.921H349.552v35.031l-9.613,4.382s2.255,14.519,26.1,14.841,26.239-14.126,26.239-14.126Z" transform="translate(-333.669 -117)"/><path class="u" d="M355.588,115.211s5.927-15.635,24.2-7.323c11.061,5.031,14.16,11.776,15.478,16.555a19.229,19.229,0,0,1,.493,5.575l-4.42,20.761-17.259-28.725-16.7,1.324Z" transform="translate(-336.308 -105.453)"/><g transform="translate(53.116 43.095)"><path class="q" d="M398.205,159.521a5.379,5.379,0,0,1,6.667-1.76c4.49,1.7,2.459,12.609-4.277,14a5.327,5.327,0,0,1-4.308-1.127S397.944,162.578,398.205,159.521Z" transform="translate(-396.288 -157.291)"/><g transform="translate(1.263 4.196)"><path class="aa" d="M404.238,162.46s-3.762-1.255-6.431,4.284" transform="translate(-397.807 -162.338)"/></g></g><g transform="translate(0 43.095)"><path class="q" d="M341.464,159.521a5.379,5.379,0,0,0-6.667-1.76c-4.491,1.7-2.459,12.609,4.277,14a5.328,5.328,0,0,0,4.308-1.127S341.724,162.578,341.464,159.521Z" transform="translate(-332.397 -157.291)"/><g transform="translate(3.29 4.196)"><path class="aa" d="M336.354,162.46s3.762-1.255,6.431,4.284" transform="translate(-336.354 -162.338)"/></g></g><path class="c" d="M389.614,142.787c0,6.574-.643,20.328-4.685,28.492-3.8,7.665-10.071,11.79-18.3,12.036s-14.358-2.926-19.27-12.874-4.678-27.532-4.678-27.532,0-23.485,23.211-23.485C390.34,119.424,389.614,142.787,389.614,142.787Z" transform="translate(-334.131 -107.809)"/><path class="u" d="M351.794,186.688s2.7,13.721,14.646,15.3c13.744,1.815,17.4-14.949,17.4-14.949s-6.073,7.61-15.678,7.622A21.014,21.014,0,0,1,351.794,186.688Z" transform="translate(-335.668 -119.153)"/><g transform="translate(8.835 29.482)"><path class="aa" d="M368.917,159.254v5.435a1.778,1.778,0,0,0,.127.663,1.749,1.749,0,0,0,2.086.968l1.8-.48" transform="translate(-347.391 -144.008)"/><path class="u" d="M359.815,155.7a2.113,2.113,0,1,1-2.113-2.113A2.113,2.113,0,0,1,359.815,155.7Z" transform="translate(-345.143 -143.053)"/><path class="u" d="M383.644,155.7a2.113,2.113,0,1,1-2.112-2.113A2.112,2.112,0,0,1,383.644,155.7Z" transform="translate(-349.162 -143.053)"/><path class="u" d="M375.454,143.054l14.207,3.67s-.646-3.985-6.458-5.433S375.454,143.054,375.454,143.054Z" transform="translate(-348.493 -140.916)"/><path class="u" d="M361.953,143.054l-14.207,3.67s.646-3.985,6.458-5.433S361.953,143.054,361.953,143.054Z" transform="translate(-343.821 -140.916)"/><path class="aa" d="M361.436,172.379s2.1,1.606,7.608,1.606a19.264,19.264,0,0,0,8.142-1.606" transform="translate(-346.129 -146.222)"/><g transform="translate(0 4.289)"><circle class="ac" cx="8.979" cy="8.979" r="8.979" transform="translate(3.011)"/><circle class="ac" cx="8.979" cy="8.979" r="8.979" transform="translate(25.068)"/><path class="ac" d="M368.246,156.7s2.127-1.985,4.1,0" transform="translate(-347.278 -147.717)"/><line class="ac" x1="3.011" y1="0.076" transform="translate(0 8.903)"/><line class="ac" y1="0.055" x2="3.361" transform="translate(43.026 8.924)"/></g></g><path class="u" d="M351.794,121.9s4.312,12.25,23.769,11.874c13.221-.255,16.38,9.312,16.38,9.312s-2.3-21.388-2.906-21.186-20.119-5.207-20.119-5.207Z" transform="translate(-335.668 -107.349)"/></g></g></g></g></g></svg>