<svg xmlns="http://www.w3.org/2000/svg" width="302.024" height="331.205" viewBox="0 0 302.024 331.205"><defs><style>.a,.n{fill:none;}.b{fill:#e0e0e0;}.c{fill:#f5f5f5;}.d{fill:#ebebeb;}.e{fill:#fafafa;}.f{fill:#fff;}.g{fill:#2b56f5;}.h{opacity:0.3;}.i{fill:#263238;}.j{fill:#455a64;}.k{opacity:0.2;}.l{fill:#e8505b;}.m{opacity:0.1;}.n{stroke:#f3a7ad;stroke-miterlimit:10;}.o,.p,.r,.t,.u,.v{fill:#ffc727;}.o,.p{fill-rule:evenodd;}.p{opacity:0.5;}.q{opacity:0.45;}.r{opacity:0.8;}.s{fill:#fcd770;}.u{opacity:0.6;}.v{opacity:0.58;}</style></defs><g transform="translate(-260.315 -3220.641)"><g transform="translate(280.986 3304.606)"><g transform="translate(224.476 22.387)"><g transform="translate(0.074 0.218)"><g transform="translate(0.123 0.185)"><path class="a" d="M362.16,180.258a14.053,14.053,0,0,1,2.606-2.679l-.634-3.406L369.4,171.9l2.04,2.8a14.034,14.034,0,0,1,3.737-.053l1.96-2.856,5.327,2.119-.538,3.421a14.059,14.059,0,0,1,2.679,2.606l3.406-.634,2.269,5.265-2.8,2.04a14.065,14.065,0,0,1,.054,3.737l2.855,1.96-2.118,5.326-3.421-.537a14.058,14.058,0,0,1-2.606,2.679l.634,3.406-5.266,2.268-2.04-2.8a14.034,14.034,0,0,1-3.737.054l-1.96,2.856-5.326-2.119.537-3.421a14.057,14.057,0,0,1-2.679-2.606l-3.406.634-2.268-5.265,2.8-2.04a14.062,14.062,0,0,1-.054-3.737l-2.856-1.96,2.119-5.326,3.422.537Zm5.724,5.9a6.15,6.15,0,1,0,7.987-3.441A6.15,6.15,0,0,0,367.884,186.162Z" transform="translate(-356.619 -171.795)"/></g><g transform="translate(10.862 10.523)"><path class="b" d="M371.279,189.43a1.5,1.5,0,0,1,.128-.374,4.907,4.907,0,0,1,.544-1,6.118,6.118,0,0,1,3.355-2.409,6.21,6.21,0,0,1,2.9-.141,6.3,6.3,0,0,1,2.992,1.464,6.239,6.239,0,0,1,1.931,3.133,6.3,6.3,0,0,1-2.771,6.968,6.246,6.246,0,0,1-3.556.951,6.311,6.311,0,0,1-3.181-.992,6.209,6.209,0,0,1-2.009-2.093,6.119,6.119,0,0,1-.783-4.056,4.874,4.874,0,0,1,.288-1.1,1.535,1.535,0,0,1,.164-.359c.045.014-.185.517-.3,1.476a6.127,6.127,0,0,0,.869,3.891,5.993,5.993,0,0,0,4.962,2.865,5.907,5.907,0,0,0,3.339-.916,5.94,5.94,0,0,0,2.6-6.541,5.906,5.906,0,0,0-1.8-2.958,5.993,5.993,0,0,0-5.573-1.327,6.134,6.134,0,0,0-3.305,2.231C371.5,188.928,371.321,189.451,371.279,189.43Z" transform="translate(-370.752 -185.401)"/></g><path class="b" d="M362.121,180.2a1.165,1.165,0,0,1-.214-.019l-.65-.087-2.567-.369.068-.04-2.084,5.341-.036-.12,2.865,1.947.058.04-.008.07a14.029,14.029,0,0,0,.067,3.7l.012.077-.064.047-2.795,2.049.047-.169q1.077,2.485,2.282,5.259l-.172-.092,3.4-.641.1-.018.062.078a13.945,13.945,0,0,0,2.652,2.57l.083.062-.016.1c-.165,1.061-.346,2.23-.532,3.421l-.109-.191,5.329,2.112-.22.067c.609-.891,1.278-1.868,1.956-2.858l.065-.093.113.013a13.929,13.929,0,0,0,3.686-.056l.115-.017.068.094,2.042,2.8-.233-.064,5.263-2.27-.115.216-.635-3.406-.022-.118.094-.074a13.891,13.891,0,0,0,2.567-2.638l0,0,.19-.077h.009l.014,0,.027,0,.054.008.107.018.216.033.43.068.858.135,1.706.268-.214.122,2.121-5.326.071.234-2.855-1.961-.1-.067.014-.117a13.867,13.867,0,0,0-.051-3.685l-.017-.115.093-.068,2.8-2.038-.062.227-2.263-5.267.2.107-3.407.629-.106.02-.066-.085a13.935,13.935,0,0,0-2.642-2.578l-.083-.062.016-.1c.186-1.172.367-2.31.544-3.42l.1.179-5.322-2.131.181-.055-1.967,2.85-.049.071-.085-.011a13.975,13.975,0,0,0-3.7.042l-.079.011-.046-.064-2.029-2.808.141.038-5.276,2.242.052-.1.609,3.411.007.038-.03.024a14.612,14.612,0,0,0-2.043,1.925l-.45.53a1.29,1.29,0,0,1-.152.174,1.554,1.554,0,0,1,.126-.195c.09-.124.227-.312.426-.552a13.545,13.545,0,0,1,2.015-1.982l-.024.062-.659-3.4-.013-.069.065-.029,5.253-2.294.085-.037.056.076,2.051,2.793-.125-.052a14.192,14.192,0,0,1,3.773-.066l-.135.061,1.952-2.861.068-.1.113.044,5.332,2.107.122.049-.02.13c-.172,1.111-.349,2.249-.531,3.422l-.067-.164a14.258,14.258,0,0,1,2.716,2.634l-.172-.065,3.4-.639.143-.027.059.134,2.273,5.262.06.138-.122.089-2.8,2.043.077-.183a14.223,14.223,0,0,1,.057,3.788l-.083-.183,2.857,1.958.129.089-.058.145-2.117,5.327-.059.147-.156-.025-1.707-.267-.858-.134-.43-.068-.215-.034-.108-.017-.054-.008-.027,0-.013,0h-.01c.084-.035-.19.077.189-.078l0,0a14.275,14.275,0,0,1-2.64,2.713l.071-.191c.218,1.17.434,2.331.634,3.407l.029.154-.144.062-5.266,2.266-.143.061-.091-.125-2.038-2.8.182.076a14.268,14.268,0,0,1-3.787.052l.177-.081-1.963,2.854-.084.122-.136-.055-5.324-2.126-.131-.052.023-.139c.188-1.191.375-2.36.543-3.42l.067.163a14.252,14.252,0,0,1-2.706-2.642l.159.059-3.408.627-.123.022-.049-.114-2.254-5.27-.045-.1.091-.066,2.807-2.032-.052.125a14.225,14.225,0,0,1-.041-3.769l.05.109-2.847-1.972-.067-.046.03-.074,2.153-5.313.02-.048.049.008,2.531.432.655.118A1.459,1.459,0,0,1,362.121,180.2Z" transform="translate(-356.457 -171.551)"/></g><g transform="translate(10.749 10.64)"><path class="b" d="M371.22,189.4c.012.012.094-.242.341-.682a6.11,6.11,0,0,1,1.393-1.7,6.136,6.136,0,1,1,3.472,10.809,6.28,6.28,0,0,1-5.746-6.52,6.668,6.668,0,0,1,.12-.993q.047-.246.11-.489l.066-.241.034-.116.014-.052,0-.014a.1.1,0,0,0,0,.024.2.2,0,0,0,.131.166l.233-.088a3.864,3.864,0,0,0-.283.758A5.83,5.83,0,0,0,371.34,194a6.031,6.031,0,0,0,2.326,2.818,6.12,6.12,0,0,0,8.8-2.461,6.152,6.152,0,0,0-9.515-7.386,5.992,5.992,0,0,0-1.4,1.719,5.532,5.532,0,0,0-.254.523,1.2,1.2,0,0,1-.079.183.567.567,0,0,1,.041-.2,3.829,3.829,0,0,1,.221-.546,5.744,5.744,0,0,1,1.365-1.8,6.3,6.3,0,0,1,3.228-1.513,6.385,6.385,0,0,1,4.576,1.06,6.464,6.464,0,0,1,2.759,4.937,6.54,6.54,0,0,1-.635,3.173,6.468,6.468,0,0,1-9.315,2.635,6.407,6.407,0,0,1-2.485-3,6.22,6.22,0,0,1-.249-4,4.19,4.19,0,0,1,.324-.854l.075-.141.157.053a.222.222,0,0,1,.14.194.373.373,0,0,1,0,.054l-.01.046-.017.066-.035.119-.064.231c-.04.154-.074.308-.1.463a6.264,6.264,0,0,0-.114.935,5.861,5.861,0,0,0,5.378,6.129,5.833,5.833,0,0,0,3.951-10.486,5.939,5.939,0,0,0-4.245-1.142,6.119,6.119,0,0,0-3.108,1.311,6.409,6.409,0,0,0-1.422,1.625C371.363,189.176,371.254,189.426,371.22,189.4Z" transform="translate(-370.506 -185.268)"/></g><path class="b" d="M362.1,180.13l-3.464-.557.048-.027-2.168,5.432-.026-.085,2.914,2-.122.1-.045-.1.159-.024a14.134,14.134,0,0,0,.052,3.742l-.179-.023.046-.11.142.112-2.882,2.1.033-.123q1.106,2.566,2.351,5.459l-.127-.068,3.516-.654-.021.234-.141-.052.14-.19a14.1,14.1,0,0,0,2.683,2.61l-.2.152-.059-.145.246-.029c-.169,1.078-.36,2.3-.556,3.545l-.083-.146,5.565,2.212-.171.052c.618-.9,1.319-1.925,2.033-2.965l.182.218-.157.072-.043-.283a14.172,14.172,0,0,0,3.741-.056l-.036.293-.163-.068.183-.231,2.123,2.911-.189-.052,5.519-2.382-.1.18-.662-3.543.32.028-.064.17-.26-.19a14.09,14.09,0,0,0,2.609-2.687l.2.264-.169.069-.038-.327,3.561.556-.188.108,2.216-5.589.065.213-2.973-2.036.267-.223.074.163-.344.053a14.111,14.111,0,0,0-.058-3.734l.349.043-.068.163-.277-.219,2.906-2.124-.061.223-2.381-5.5.207.11-3.532.664.033-.365.153.058-.216.3a14.069,14.069,0,0,0-2.677-2.595l.291-.226.06.146-.366.043.548-3.538.12.209-5.541-2.189.233-.071-2.012,2.95-.242-.288.119-.054.058.372a14.036,14.036,0,0,0-3.716.065l.046-.375.11.046-.234.3-2.1-2.86.237.064-5.389,2.35.115-.218c.211,1.092.439,2.276.669,3.464l-.379-.033.021-.055.308.224a12.981,12.981,0,0,0-2.247,2.286l-.16.206c-.006.012-.014.009-.039.005a.2.2,0,0,0-.043,0l-.013,0-.007,0h0c.058.011-.18-.205-.26-.113a.216.216,0,0,0-.041.023l-.014.012c-.005,0,0-.005.01-.011l.342-.408c.228-.277.473-.549.722-.808a14.87,14.87,0,0,1,1.6-1.436l-.073.191-.618-3.445.369.058-.046.087-.252-.275,5.275-2.244.025.371-.125-.034.211-.305,2.071,2.864-.187-.079a14.255,14.255,0,0,1,3.9-.044l-.184.083,2.01-2.913.217.3-.16.049.015-.367,5.322,2.131-.239.275-.09-.159.358-.065q-.282,1.769-.559,3.51l-.074-.184a14.215,14.215,0,0,1,2.814,2.748l-.184-.069,3.5-.646-.054.352-.179-.1.261-.24,2.261,5.268-.35.024.056-.2.288.2-2.887,2.1.074-.175a14.118,14.118,0,0,1,.052,3.946l-.077-.171,2.94,2.023-.271.2-.063-.209.336.014-2.124,5.324-.247-.215.191-.109.059.322-3.525-.557.163-.065a14.168,14.168,0,0,1-2.755,2.825l.062-.162c.227,1.224.441,2.375.651,3.512l-.305-.047.1-.193.209.227-5.266,2.265-.021-.3.208.057-.169.244-2.1-2.885.146.061a14.109,14.109,0,0,1-3.934.055l.14-.063-2.018,2.938-.16-.218.2-.059-.011.27-5.326-2.12.166-.191.1.17-.249.046.552-3.512.05.122a14.047,14.047,0,0,1-2.8-2.726l.118.044-3.493.65.033-.214.153.082-.159.146-2.269-5.264.191-.014-.042.151-.157-.109,2.857-2.083-.037.088a14.06,14.06,0,0,1-.058-3.861l.035.077-2.909-1.992.107-.079.032.106-.132,0,2.112-5.329.062.054-.061.034-.015-.08,3.424.524a6.029,6.029,0,0,1-.852-.085l-2.585-.354-.125-.017.109-.064.061-.035.106-.062-.044.115-2.063,5.348-.073.189-.06-.195-.033-.106-.059-.191.166.112,2.922,1.974.041.027-.005.049a13.974,13.974,0,0,0,.079,3.816l.008.055-.045.033-2.847,2.1-.233.172.076-.281.041-.15.076-.279.115.265,2.292,5.254.131.3-.29-.154-.153-.081-.288-.153.321-.061,3.491-.663.072-.014.046.058a13.826,13.826,0,0,0,2.764,2.669l.062.046-.011.078c-.169,1.1-.343,2.222-.541,3.513l-.058.38-.191-.334-.1-.17-.19-.332.356.141,5.332,2.1.381.15-.391.119-.2.06-.391.12.231-.338,2.01-2.944.051-.074.089.011a13.835,13.835,0,0,0,3.854-.064l.091-.014.056.075,2.106,2.88.265.362-.434-.118-.207-.057L377,205.2l.413-.179,5.261-2.276.429-.185-.22.413-.1.193-.22.412-.086-.459c-.213-1.136-.428-2.287-.658-3.51l-.018-.1.08-.062a13.835,13.835,0,0,0,2.688-2.768l.06-.082.1.017,3.526.551.489.077-.43.245-.191.109-.431.246.183-.461L390,192.051l.188-.473.148.486.064.208.148.487-.42-.288-2.943-2.018-.09-.062.014-.109a13.774,13.774,0,0,0-.055-3.849l-.017-.109.09-.066,2.884-2.1.427-.311-.14.509c-.018.067-.036.134-.055.2l-.14.511-.21-.487q-1.118-2.6-2.265-5.266l-.213-.492.474.252.179.095.476.254-.53.1-3.5.649-.114.021-.071-.09a13.8,13.8,0,0,0-2.743-2.675l-.094-.068.018-.115q.277-1.743.556-3.511l.086-.542.273.476.09.159.273.48-.513-.205-5.323-2.128-.514-.206.53-.161.161-.049.534-.163-.317.46-2.01,2.915-.068.1-.117-.015a13.864,13.864,0,0,0-3.8.044l-.117.017-.071-.1-2.072-2.863-.327-.454.539.148.125.034.546.15-.52.221-5.275,2.245-.515.22.264-.494.046-.087.268-.5.1.56c.2,1.138.41,2.282.618,3.444l.021.119-.094.073a14.426,14.426,0,0,0-1.56,1.4c-.245.255-.478.514-.7.789l-.348.415-.036.038-.021.017a.234.234,0,0,1-.045.025c-.08.091-.319-.124-.261-.114v0l0-.013.006-.026a1.1,1.1,0,0,1,.03-.113.884.884,0,0,1,.109-.22l.169-.219a13.373,13.373,0,0,1,2.315-2.355l.562-.451-.254.675-.021.055-.246.656-.133-.688c-.229-1.188-.457-2.371-.668-3.464l-.03-.155.145-.064,5.389-2.349.144-.063.094.127,2.1,2.862.419.571-.653-.274-.111-.046-.644-.27.69-.106a14.474,14.474,0,0,1,3.821-.065l.7.083-.641.29-.119.054-.635.287.394-.576,2.014-2.949.088-.128.144.057,5.539,2.193.144.056-.024.153c-.19,1.222-.38,2.438-.551,3.538l-.106.681-.261-.637-.059-.146-.258-.632.549.4a14.467,14.467,0,0,1,2.748,2.668l.421.536-.637-.241-.153-.058-.634-.24.666-.125,3.533-.66.148-.028.059.138,2.375,5.506.059.136-.12.087-2.909,2.12-.532.388.255-.606.068-.163.252-.6.1.645a14.457,14.457,0,0,1,.055,3.831l-.078.642-.266-.589-.074-.163-.267-.59.533.366,2.97,2.039.118.081-.053.132c-.774,1.945-1.538,3.861-2.225,5.585l-.051.129-.137-.021-3.56-.562-.6-.095.566-.232.169-.068.564-.23-.365.494a14.462,14.462,0,0,1-2.669,2.738l-.47.366.211-.557.065-.17.211-.56.109.588c.229,1.239.455,2.463.655,3.545l.024.128-.12.052-5.523,2.37-.116.049-.074-.1-2.116-2.915-.322-.444.505.213.163.068.5.212-.54.08a14.446,14.446,0,0,1-3.822.048l-.525-.065.482-.217.158-.071.485-.218-.3.437-2.041,2.96-.065.095-.106-.043-5.56-2.229-.1-.04.017-.106.568-3.543.073-.455.174.426.059.146.174.428-.37-.276a14.336,14.336,0,0,1-2.722-2.666l-.267-.343.407.154.141.053.41.155-.432.079-3.518.641-.09.017-.036-.084-2.327-5.469-.033-.076.067-.048,2.893-2.084.272-.2-.131.308-.046.111-.131.312-.048-.334a14.262,14.262,0,0,1-.032-3.789l.037-.295.122.271.043.1.123.274-.245-.171-2.9-2.022-.047-.033.021-.052,2.218-5.412.014-.033.035.006,2.585.459.65.128C362.034,180.11,362.1,180.13,362.1,180.13Z" transform="translate(-356.36 -171.264)"/></g><g transform="translate(50.261 50.639)"><g transform="translate(0.043 0.065)"><path class="b" d="M129.1,213.125a5.963,5.963,0,0,1,.9-1.3l-.507-1.376,2.036-1.32,1.05,1.023a5.951,5.951,0,0,1,1.555-.288l.615-1.33,2.372.505.019,1.466a5.921,5.921,0,0,1,1.3.9l1.376-.506,1.32,2.035-1.023,1.05a5.918,5.918,0,0,1,.288,1.555l1.33.615-.505,2.372-1.466.019a5.921,5.921,0,0,1-.9,1.3l.507,1.376-2.036,1.32-1.05-1.023a5.92,5.92,0,0,1-1.555.288l-.615,1.33-2.372-.505-.019-1.466a5.939,5.939,0,0,1-1.3-.9l-1.376.507-1.32-2.036,1.024-1.05a5.949,5.949,0,0,1-.288-1.555l-1.33-.615.505-2.372,1.466-.019Zm2.807,2.057a2.6,2.6,0,1,0,3.087-2A2.6,2.6,0,0,0,131.912,215.182Z" transform="translate(-127.134 -208.532)"/></g><g transform="translate(4.74 4.595)"><path class="b" d="M133.4,216.614a1.98,1.98,0,0,1,.186-.617,2.59,2.59,0,0,1,1.228-1.239,2.622,2.622,0,0,1,1.2-.263,2.665,2.665,0,0,1,1.348.4,2.677,2.677,0,0,1,1.024,1.166,2.656,2.656,0,0,1-.66,3.093,2.67,2.67,0,0,1-1.41.647,2.661,2.661,0,0,1-1.394-.186,2.62,2.62,0,0,1-.985-.728,2.588,2.588,0,0,1-.615-1.632,1.967,1.967,0,0,1,.081-.639c.018,0-.043.228-.024.637a2.6,2.6,0,0,0,.637,1.565,2.544,2.544,0,0,0,2.279.846,2.535,2.535,0,0,0,1.333-.621,2.522,2.522,0,0,0,.622-2.924,2.383,2.383,0,0,0-.41-.638,2.358,2.358,0,0,0-.554-.472,2.541,2.541,0,0,0-2.426-.156,2.6,2.6,0,0,0-1.22,1.169C133.45,216.388,133.415,216.619,133.4,216.614Z" transform="translate(-133.315 -214.494)"/></g><path class="b" d="M129.091,213.1a.448.448,0,0,1-.091.007l-.277.009-1.1.027.023-.018c-.126.608-.292,1.408-.492,2.375l-.021-.043,1.333.609.024.011,0,.027a5.913,5.913,0,0,0,.29,1.542l.009.028-.021.021-1.02,1.053.007-.066,1.324,2.032-.069-.023,1.375-.509.035-.013.028.025a5.889,5.889,0,0,0,1.29.885l.034.017v.039c.007.454.014.955.021,1.466l-.053-.065,2.373.5-.077.039.613-1.331.018-.039.043,0a5.923,5.923,0,0,0,1.536-.286l.041-.014.032.03,1.05,1.023-.09-.009,2.034-1.321-.029.088-.507-1.376-.015-.043.03-.033a5.858,5.858,0,0,0,.885-1.285h0l.021-.041h.045l1.466-.019-.072.059.506-2.372.041.082-1.33-.615-.04-.018,0-.044a5.877,5.877,0,0,0-.283-1.536l-.014-.042.03-.031,1.024-1.049-.008.088-1.318-2.036.081.027-1.377.505-.038.014-.03-.027a5.913,5.913,0,0,0-1.287-.889l-.035-.017v-.039q-.009-.753-.017-1.466l.049.06-2.371-.511.064-.032-.618,1.329-.014.03-.033,0a5.9,5.9,0,0,0-1.542.281l-.029.009-.021-.021-1.047-1.027.055.005-2.041,1.311.014-.04c.2.551.362,1,.5,1.379l0,.014-.01.011a6.248,6.248,0,0,0-.715.949l-.149.254a.53.53,0,0,1-.05.084.811.811,0,0,1,.04-.09c.029-.058.073-.146.139-.26a5.7,5.7,0,0,1,.7-.969l-.005.024-.515-1.372-.009-.025.023-.015,2.029-1.329.03-.019.025.025,1.054,1.019-.049-.011a6,6,0,0,1,1.567-.294l-.046.03.612-1.332.019-.041.045.009,2.373.5.049.011v.049l.021,1.465-.036-.056a6,6,0,0,1,1.318.9l-.068-.013,1.375-.508.051-.019.03.046,1.322,2.033.03.047-.04.041-1.023,1.051.017-.073a6,6,0,0,1,.292,1.574l-.042-.062,1.33.614.053.024-.012.058q-.248,1.169-.5,2.373l-.012.058h-.06l-1.465.019.065-.041v0a6.047,6.047,0,0,1-.907,1.318l.014-.076.506,1.376.021.055-.049.033-2.036,1.319-.049.032-.042-.041-1.049-1.024.073.017a6.054,6.054,0,0,1-1.574.29l.061-.041-.616,1.33-.023.051-.055-.011-2.371-.509-.052-.011v-.053c-.006-.51-.012-1.011-.017-1.465l.035.056a5.987,5.987,0,0,1-1.314-.909l.062.012-1.377.5-.044.016-.026-.039-1.315-2.039-.023-.036.03-.03,1.027-1.048-.011.049a6,6,0,0,1-.286-1.568l.026.038-1.328-.62-.027-.013.006-.03c.211-.965.387-1.763.52-2.369l0-.019h1.106l.281,0A.765.765,0,0,1,129.091,213.1Z" transform="translate(-127.077 -208.446)"/></g><g transform="translate(266.929 33.898)"><g transform="translate(0.046 0.07)"><path class="b" d="M414.639,190.087a5.931,5.931,0,0,1,1.1-1.134l-.268-1.441,2.227-.96.864,1.185a5.948,5.948,0,0,1,1.581-.024l.829-1.208,2.254.9L423,188.85a5.96,5.96,0,0,1,1.134,1.1l1.441-.268.96,2.227-1.185.864a5.941,5.941,0,0,1,.023,1.58l1.208.83-.9,2.254-1.448-.227a5.928,5.928,0,0,1-1.1,1.133l.268,1.442-2.228.96-.863-1.185a5.948,5.948,0,0,1-1.581.023l-.829,1.208-2.254-.9.227-1.447a5.929,5.929,0,0,1-1.134-1.1l-1.441.268-.96-2.228,1.185-.863a5.915,5.915,0,0,1-.023-1.581l-1.209-.829.9-2.254,1.448.228Zm2.422,2.5a2.6,2.6,0,1,0,3.38-1.456A2.6,2.6,0,0,0,417.06,192.585Z" transform="translate(-412.294 -186.506)"/></g><g transform="translate(4.594 4.452)"><path class="b" d="M418.5,193.97a1.974,1.974,0,0,1,.287-.578,2.592,2.592,0,0,1,1.419-1.015,2.624,2.624,0,0,1,1.223-.059,2.666,2.666,0,0,1,1.262.619,2.669,2.669,0,0,1,.814,1.321,2.656,2.656,0,0,1-1.169,2.939,2.673,2.673,0,0,1-1.5.4,2.668,2.668,0,0,1-1.343-.417,2.627,2.627,0,0,1-.849-.883,2.593,2.593,0,0,1-.333-1.712,1.971,1.971,0,0,1,.188-.617c.018.006-.081.218-.13.625a2.6,2.6,0,0,0,.365,1.65,2.543,2.543,0,0,0,2.1,1.216,2.382,2.382,0,0,0,.723-.085,2.358,2.358,0,0,0,.7-.3,2.522,2.522,0,0,0,1.1-2.777,2.542,2.542,0,0,0-.764-1.256,2.543,2.543,0,0,0-2.365-.561,2.594,2.594,0,0,0-1.4.948C418.589,193.757,418.515,193.979,418.5,193.97Z" transform="translate(-418.28 -192.273)"/></g><path class="b" d="M414.624,190.065a.712.712,0,0,1-.091-.009l-.275-.037-1.086-.158.026-.014-.884,2.259-.014-.045,1.212.824.022.014,0,.027a5.929,5.929,0,0,0,.027,1.568l0,.03-.024.017-1.183.867.017-.064.965,2.225-.065-.034,1.441-.271.036-.007.024.03a5.9,5.9,0,0,0,1.123,1.089l.032.024-.006.038c-.07.449-.147.944-.226,1.448l-.041-.072,2.255.894-.083.026.827-1.21.024-.035.043,0a5.909,5.909,0,0,0,1.562-.024l.043-.007.026.036.864,1.185-.088-.024,2.228-.96-.044.081c-.084-.455-.176-.946-.268-1.441l-.008-.044.035-.028a5.875,5.875,0,0,0,1.088-1.118v0l.027-.036.045.007,1.448.227-.081.046.9-2.254.027.088-1.207-.83-.037-.025.005-.044a5.828,5.828,0,0,0-.021-1.561l-.006-.043.035-.026,1.186-.862-.024.085q-.49-1.141-.957-2.229l.075.04-1.441.267-.04.008-.025-.032a5.872,5.872,0,0,0-1.119-1.093l-.031-.023.006-.039c.079-.5.155-.977.229-1.447l.039.068-2.252-.9.068-.021-.832,1.206-.019.027-.032,0a5.944,5.944,0,0,0-1.568.018l-.03,0-.017-.024-.859-1.188.052.014-2.232.95.02-.036c.1.577.188,1.049.259,1.443l0,.014-.011.009a6.2,6.2,0,0,0-.864.815l-.19.226a.684.684,0,0,1-.063.074.657.657,0,0,1,.053-.082c.039-.052.1-.131.181-.233a5.747,5.747,0,0,1,.853-.837l-.008.024-.278-1.44,0-.026.024-.011,2.223-.97.033-.014.02.029.868,1.182-.047-.019a6,6,0,0,1,1.595-.028l-.051.024.827-1.211.026-.037.043.017,2.255.892.046.018-.008.049-.225,1.447-.026-.062a6,6,0,0,1,1.148,1.113l-.065-.024,1.441-.27.054-.011.022.051q.468,1.086.962,2.226l.022.052-.046.033-1.185.864.029-.068a6.024,6.024,0,0,1,.024,1.6l-.031-.069,1.208.829.049.033-.021.055-.9,2.254-.022.055-.059-.009-1.448-.227.071-.03v0a6.036,6.036,0,0,1-1.115,1.147l.027-.072c.092.495.184.985.268,1.441l.011.058-.054.024-2.229.959-.053.023-.034-.047-.863-1.185.069.029a6.06,6.06,0,0,1-1.6.022l.067-.03-.83,1.207-.031.046-.052-.021-2.253-.9-.049-.02.008-.052c.08-.5.159-1,.229-1.447l.026.062a6.037,6.037,0,0,1-1.144-1.116l.06.023-1.442.265-.046.008-.018-.043-.954-2.23-.017-.039.034-.024,1.188-.86-.02.046a6.009,6.009,0,0,1-.018-1.593l.019.042-1.205-.834-.025-.018.011-.028c.37-.916.676-1.672.91-2.248l.007-.018.019,0,1.072.181.277.049A.626.626,0,0,1,414.624,190.065Z" transform="translate(-412.233 -186.414)"/></g><g transform="translate(254.47 0)"><g transform="translate(0.078 0.116)"><path class="c" d="M399.855,147.94a9.931,9.931,0,0,1,1.843-1.9l-.449-2.409,3.724-1.6,1.443,1.981a9.947,9.947,0,0,1,2.643-.038l1.386-2.02,3.767,1.5-.38,2.419a9.925,9.925,0,0,1,1.894,1.843l2.409-.448,1.6,3.723-1.981,1.444a9.884,9.884,0,0,1,.038,2.643l2.02,1.386-1.5,3.767-2.42-.38a9.926,9.926,0,0,1-1.843,1.894l.449,2.409-3.724,1.6-1.443-1.981a9.947,9.947,0,0,1-2.643.038l-1.386,2.02-3.767-1.5.38-2.419a9.9,9.9,0,0,1-1.894-1.843l-2.409.448-1.6-3.723,1.98-1.443a9.95,9.95,0,0,1-.038-2.643l-2.02-1.386,1.5-3.767,2.42.38Zm4.048,4.176a4.349,4.349,0,1,0,5.649-2.434A4.35,4.35,0,0,0,403.9,152.116Z" transform="translate(-395.937 -141.954)"/></g><g transform="translate(7.679 7.44)"><path class="c" d="M406.307,154.431a3.285,3.285,0,0,1,.48-.965,4.327,4.327,0,0,1,2.37-1.7,4.394,4.394,0,0,1,2.045-.1,4.455,4.455,0,0,1,2.109,1.034,4.452,4.452,0,0,1,1.36,2.209,4.438,4.438,0,0,1-1.954,4.911,4.453,4.453,0,0,1-2.506.672,4.453,4.453,0,0,1-2.244-.7,4.382,4.382,0,0,1-1.418-1.476,4.33,4.33,0,0,1-.557-2.862,3.293,3.293,0,0,1,.314-1.03c.03.01-.134.364-.218,1.043a4.339,4.339,0,0,0,.612,2.758,4.247,4.247,0,0,0,3.517,2.035,4.252,4.252,0,0,0,2.37-.649,4.213,4.213,0,0,0,1.846-4.643,4.252,4.252,0,0,0-1.277-2.1,4.246,4.246,0,0,0-3.953-.938,4.334,4.334,0,0,0-2.339,1.584C406.459,154.075,406.335,154.445,406.307,154.431Z" transform="translate(-405.942 -151.593)"/></g><path class="c" d="M399.831,147.9a1.024,1.024,0,0,1-.152-.015l-.46-.062-1.815-.264.043-.024c-.378.966-.875,2.238-1.477,3.776l-.023-.075,2.026,1.378.036.025-.005.044a9.9,9.9,0,0,0,.046,2.622l.008.049-.04.03-1.977,1.448.03-.106c.508,1.171,1.047,2.414,1.612,3.719l-.108-.058,2.409-.453.061-.011.039.049a9.874,9.874,0,0,0,1.878,1.821l.052.039-.01.065c-.117.75-.245,1.577-.377,2.42l-.068-.121,3.769,1.495-.138.042,1.384-2.021.041-.059.071.008a9.834,9.834,0,0,0,2.611-.04l.072-.011.043.059,1.444,1.979-.147-.04L414.431,164l-.073.137c-.141-.761-.295-1.582-.449-2.409l-.014-.074.059-.046a9.815,9.815,0,0,0,1.818-1.868l0,0,.046-.061.074.012,2.419.38-.135.077q.759-1.909,1.5-3.766l.045.147-2.02-1.387-.061-.042.009-.074a9.8,9.8,0,0,0-.036-2.61l-.011-.072.059-.043,1.982-1.441-.039.143q-.821-1.907-1.6-3.725l.127.068-2.41.445-.067.012-.041-.053a9.86,9.86,0,0,0-1.871-1.826l-.052-.039.011-.065.384-2.419.064.112-3.763-1.507.114-.034-1.391,2.016-.03.045-.054-.006a9.854,9.854,0,0,0-2.62.03l-.049.007-.029-.04-1.437-1.985.089.024-3.731,1.587.033-.062c.173.963.315,1.754.433,2.412l0,.024-.019.014a10.273,10.273,0,0,0-1.444,1.363l-.317.376a1,1,0,0,1-.106.124,1.356,1.356,0,0,1,.09-.137c.065-.087.162-.22.3-.39a9.609,9.609,0,0,1,1.426-1.4l-.015.039c-.127-.657-.279-1.445-.464-2.406l-.008-.043.041-.018,3.716-1.621.054-.024.035.048,1.45,1.976-.078-.033a10.009,10.009,0,0,1,2.665-.046l-.084.038,1.381-2.023.043-.062.071.028,3.77,1.491.078.03-.013.082c-.122.786-.247,1.59-.376,2.42l-.043-.1a10.064,10.064,0,0,1,1.919,1.861l-.109-.04,2.409-.451.09-.017.036.084q.784,1.816,1.608,3.722l.037.087-.077.056-1.979,1.444.049-.115a10.032,10.032,0,0,1,.039,2.675l-.052-.115,2.02,1.385.081.055-.036.092-1.5,3.767-.036.093-.1-.015-2.419-.38.119-.049,0,0a10.116,10.116,0,0,1-1.865,1.916l.046-.121c.154.827.307,1.648.448,2.409l.018.1-.091.04-3.724,1.6-.09.038-.058-.078-1.441-1.982.115.048a10.115,10.115,0,0,1-2.675.036l.112-.051-1.387,2.019-.052.077-.087-.034-3.765-1.5-.083-.033.014-.087c.134-.843.265-1.669.384-2.419l.043.1a10.08,10.08,0,0,1-1.912-1.866l.1.037-2.41.444-.077.014-.031-.072c-.56-1.308-1.093-2.553-1.6-3.727l-.028-.065.058-.042,1.985-1.438-.033.078a10,10,0,0,1-.03-2.663l.031.069-2.014-1.394-.042-.029.019-.046c.619-1.531,1.131-2.8,1.52-3.759l.012-.03.031.005,1.792.3.463.083A1.3,1.3,0,0,1,399.831,147.9Z" transform="translate(-395.835 -141.801)"/></g><g transform="translate(0 130.185)"><path class="b" d="M157.858,369.3s-.011-.348-.016-1.011-.01-1.65-.017-2.931c-.009-2.576-.022-6.353-.039-11.2-.019-9.694-.047-23.666-.081-40.819l.153.153-96.724.045h-.008l.2-.2c0,19.807-.009,38.732-.014,55.965l-.184-.184,69.573.09,19.98.05,5.327.022,1.378.011c.311,0,.474.011.474.011s-.149.008-.452.011l-1.356.011-5.291.023-19.938.05-69.695.09h-.184V369.3c0-17.233-.009-36.158-.014-55.965v-.2h.205l96.724.046h.153v.153c-.034,17.193-.062,31.2-.081,40.913-.017,4.835-.03,8.6-.039,11.169-.008,1.269-.013,2.239-.017,2.9S157.858,369.3,157.858,369.3Z" transform="translate(-60.929 -313.136)"/><g transform="translate(0.321 6.777)"><path class="b" d="M158,322.253c0,.109-21.637.2-48.32.2s-48.325-.089-48.325-.2,21.631-.2,48.325-.2S158,322.143,158,322.253Z" transform="translate(-61.352 -322.055)"/></g><g transform="translate(8.576 16.203)"><rect class="c" width="29.88" height="29.88"/></g><g transform="translate(46.665 20.933)"><path class="b" d="M165.594,340.884a1.832,1.832,0,0,1-.439.04l-1.261.037-4.634.063-15.29.058-15.293-.058-4.634-.063-1.26-.037a1.832,1.832,0,0,1-.439-.04,1.873,1.873,0,0,1,.439-.039l1.26-.037,4.634-.063,15.293-.058,15.29.058,4.634.063,1.261.037A1.873,1.873,0,0,1,165.594,340.884Z" transform="translate(-122.344 -340.686)"/><g transform="translate(0 6.674)"><path class="b" d="M166.557,349.668a1.918,1.918,0,0,1-.449.04l-1.289.037-4.737.063-15.63.058-15.633-.058-4.738-.063-1.288-.037a1.911,1.911,0,0,1-.449-.04,1.95,1.95,0,0,1,.449-.039l1.288-.037,4.738-.063,15.633-.058,15.63.058,4.737.063,1.289.037A1.958,1.958,0,0,1,166.557,349.668Z" transform="translate(-122.344 -349.47)"/></g><g transform="translate(0 13.349)"><path class="b" d="M166.557,358.452a2.007,2.007,0,0,1-.449.04l-1.289.037-4.737.063-15.63.058-15.633-.058-4.738-.063-1.288-.037a2,2,0,0,1-.449-.04,1.917,1.917,0,0,1,.449-.04l1.288-.037,4.738-.063,15.633-.058,15.63.058,4.737.063,1.289.037A1.925,1.925,0,0,1,166.557,358.452Z" transform="translate(-122.344 -358.254)"/></g><g transform="translate(0 20.023)"><path class="b" d="M166.557,367.236a1.959,1.959,0,0,1-.449.039l-1.289.037-4.737.063-15.63.058-15.633-.058-4.738-.063-1.288-.037a1.952,1.952,0,0,1-.449-.039,1.919,1.919,0,0,1,.449-.04l1.288-.037,4.738-.063,15.633-.058,15.63.058,4.737.063,1.289.037A1.926,1.926,0,0,1,166.557,367.236Z" transform="translate(-122.344 -367.038)"/></g></g></g><g transform="translate(219.398 138.261)"><g transform="translate(25.551 46.493)"><path class="d" d="M388.182,431.128c-.581-2.307.942-4.611,2.645-6.273s3.736-3.148,4.63-5.353c1.448-3.573-.444-8.22,2.008-11.194,1.443-1.75,4.016-2.323,5.3-4.193a9.613,9.613,0,0,0,1.164-3.348,34.076,34.076,0,0,1,8.566-15.812,29.573,29.573,0,0,1-3.412,15.266c-1,1.873-2.219,3.7-2.558,5.791-.55,3.4,1.33,6.919.475,10.256-.978,3.817-5.287,6.351-5.512,10.285-.191,3.326,2.692,6.262,2.456,9.585a8.971,8.971,0,0,1-1.5,3.937c-2.6,4.261-6.392,7.185-12.118,7.056l-7.016.206Z" transform="translate(-383.305 -384.954)"/></g><g transform="translate(0 21.962)"><path class="b" d="M373.742,439.632a5.6,5.6,0,0,1-1.931-.052,11.729,11.729,0,0,1-2.276-.587,9.655,9.655,0,0,1-2.807-1.558,3.924,3.924,0,0,1-1.15-1.55,7.285,7.285,0,0,1-.318-2.1,20.246,20.246,0,0,0-.15-2.27,6.259,6.259,0,0,0-.844-2.261c-.819-1.457-2.184-2.841-2.618-4.816a15.907,15.907,0,0,1,.226-6.148,13.043,13.043,0,0,0-.126-6.591c-.74-2.2-2.267-4.188-3.022-6.665-.752-2.5-.38-5.187-.527-7.838a10.394,10.394,0,0,0-.892-3.9c-.561-1.245-1.341-2.421-1.948-3.731-1.23-2.65-1.433-5.647-1.757-8.584q-.237-2.22-.478-4.485a21.948,21.948,0,0,0-.754-4.49,39.55,39.55,0,0,0-1.653-4.352,14.348,14.348,0,0,1-.8-2.272,22.84,22.84,0,0,1-.213-2.414,28.408,28.408,0,0,1,.214-4.854c.2-1.618.5-3.222.685-4.843.011-.1.022-.191.033-.28l.038-.323.286.146a10.826,10.826,0,0,1,3.758,3.208,17.176,17.176,0,0,1,2.3,4.289,52.64,52.64,0,0,1,2.133,9.2,24.938,24.938,0,0,0,2.834,8.5c.761,1.254,1.685,2.4,2.492,3.623a9.934,9.934,0,0,1,1.718,4.008c.4,2.97-1.251,5.567-.926,8.2a9.1,9.1,0,0,0,1.259,3.648c.631,1.125,1.373,2.169,2.077,3.217a20.58,20.58,0,0,1,1.865,3.247,10.282,10.282,0,0,1,.842,3.522c.157,2.366-.191,4.608-.03,6.728a15.482,15.482,0,0,0,1.7,5.775c.839,1.731,1.773,3.3,2.556,4.814.394.758.755,1.5,1.051,2.241a11.04,11.04,0,0,1,.6,2.222,14.011,14.011,0,0,1,.03,4,10.089,10.089,0,0,1-2.036,5.095,4.85,4.85,0,0,1-.571.612,2.814,2.814,0,0,1-.462.388c-.263.192-.4.279-.4.279a8.833,8.833,0,0,0,1.366-1.336,10.149,10.149,0,0,0,1.933-5.06,13.951,13.951,0,0,0-.067-3.947,10.8,10.8,0,0,0-.608-2.169c-.295-.726-.661-1.462-1.058-2.212-.789-1.5-1.733-3.064-2.59-4.807a15.74,15.74,0,0,1-1.758-5.877c-.172-2.164.166-4.415,0-6.726a9.906,9.906,0,0,0-.827-3.4,20.226,20.226,0,0,0-1.843-3.182c-.7-1.042-1.455-2.089-2.1-3.238a9.482,9.482,0,0,1-1.318-3.8c-.322-2.8,1.315-5.415.91-8.176a9.514,9.514,0,0,0-1.66-3.834c-.794-1.2-1.723-2.347-2.507-3.633a25.323,25.323,0,0,1-2.9-8.642,52.439,52.439,0,0,0-2.118-9.122,16.765,16.765,0,0,0-2.235-4.177,10.394,10.394,0,0,0-3.6-3.076l.324-.178-.033.283c-.185,1.64-.488,3.247-.685,4.845a28.059,28.059,0,0,0-.213,4.781,22.958,22.958,0,0,0,.2,2.342,14.135,14.135,0,0,0,.775,2.191,39.775,39.775,0,0,1,1.666,4.4,22.294,22.294,0,0,1,.764,4.565l.472,4.488c.318,2.95.521,5.9,1.706,8.456.586,1.273,1.365,2.453,1.942,3.738a10.8,10.8,0,0,1,.917,4.044c.138,2.708-.229,5.353.489,7.755s2.233,4.391,2.993,6.659a13.341,13.341,0,0,1,.112,6.754,15.678,15.678,0,0,0-.261,6.031c.394,1.887,1.72,3.257,2.556,4.757a6.484,6.484,0,0,1,.857,2.351,20.332,20.332,0,0,1,.134,2.3,7.078,7.078,0,0,0,.288,2.041,3.751,3.751,0,0,0,1.08,1.482,9.63,9.63,0,0,0,2.739,1.565,12.129,12.129,0,0,0,2.244.623,9.005,9.005,0,0,0,1.426.145C373.575,439.625,373.742,439.632,373.742,439.632Z" transform="translate(-349.678 -352.669)"/><g transform="translate(2.366 4.194)"><path class="b" d="M352.794,358.189a.815.815,0,0,1,.067.212l.151.633c.134.553.295,1.388.554,2.432s.9,2.22,1.435,3.672c.557,1.441,1.121,3.111,1.639,4.986s.987,3.954,1.469,6.182a25.992,25.992,0,0,0,2.207,6.864c.568,1.143,1.209,2.3,1.716,3.564a16.514,16.514,0,0,1,.988,4.032,81.544,81.544,0,0,0,1.464,8.5c1.374,5.756,2.682,11.239,3.874,16.232l3.249,13.239c.9,3.745,1.635,6.788,2.153,8.935q.358,1.544.563,2.434c.055.258.1.466.135.636a.813.813,0,0,1,.031.22.839.839,0,0,1-.075-.209c-.048-.166-.106-.372-.179-.625l-.645-2.414c-.55-2.138-1.331-5.17-2.292-8.9-.954-3.773-2.086-8.249-3.343-13.216l-3.912-16.237a80.358,80.358,0,0,1-1.461-8.531,16.186,16.186,0,0,0-.95-3.934c-.489-1.232-1.119-2.384-1.688-3.538a26.152,26.152,0,0,1-2.2-6.969c-.468-2.234-.91-4.308-1.413-6.177s-1.035-3.539-1.568-4.981c-.508-1.447-1.117-2.64-1.369-3.716-.237-1.069-.366-1.9-.473-2.46-.043-.26-.079-.47-.107-.641A.822.822,0,0,1,352.794,358.189Z" transform="translate(-352.791 -358.189)"/></g></g><g transform="translate(18.055)"><path class="b" d="M378.212,432.7c-4.567-2.75-5.835-11.024-3.9-15.989s5.311-9.492,5.858-14.8c.419-4.076-.892-8.269.08-12.25,1.313-5.372,6.588-9.508,6.559-15.039-.016-3.1-1.764-6.032-1.606-9.132.194-3.8,3.129-6.8,4.956-10.14,2.8-5.111,3.012-11.17,3.991-16.913s3.2-11.886,8.315-14.682c.724,4.884,1.99,8.233,1.549,14.842-.158,2.374-2.942,6.9-3.347,12.1-.242,3.109-.415,6.223-.622,9.334a29.938,29.938,0,0,1-1.518,8.938c-.844,2.166-2.192,4.131-2.822,6.37-1.186,4.211.315,8.787-.648,13.055-.815,3.615-3.339,6.717-3.871,10.384-.748,5.154,2.559,10.532.822,15.442-.862,2.436-2.88,4.385-3.465,6.9-.453,1.953.017,4.026-.394,5.989-.663,3.162-6.715,5.792-9.938,5.578" transform="translate(-373.439 -323.765)"/><g transform="translate(4.77 4.837)"><path class="e" d="M402.683,330.131a1.225,1.225,0,0,1-.021.276c-.027.2-.063.469-.108.8-.109.7-.233,1.739-.479,3.075-.264,1.345-.966,2.855-1.53,4.679-.595,1.818-1.188,3.916-1.716,6.265s-.989,4.948-1.464,7.746a32.494,32.494,0,0,1-2.4,8.754c-.65,1.461-1.38,2.923-1.93,4.481a20.151,20.151,0,0,0-.995,4.946,99.922,99.922,0,0,1-1.4,10.666l-4.072,20.364c-1.318,6.237-2.505,11.856-3.505,16.585l-2.4,11.174-.675,3.033-.187.786c-.045.176-.071.472-.078.47a2.789,2.789,0,0,1,.033-.48l.143-.8c.141-.727.34-1.749.592-3.05.54-2.675,1.311-6.5,2.261-11.2.973-4.736,2.128-10.362,3.41-16.606l4.035-20.358a101.374,101.374,0,0,0,1.409-10.631,20.511,20.511,0,0,1,1.028-5.045c.567-1.592,1.306-3.06,1.957-4.509A32.372,32.372,0,0,0,397,352.908c.491-2.793.963-5.4,1.521-7.752s1.167-4.456,1.787-6.273c.593-1.83,1.316-3.327,1.6-4.637s.422-2.356.56-3.051l.152-.794A1.253,1.253,0,0,1,402.683,330.131Z" transform="translate(-379.717 -330.131)"/></g></g></g></g><g transform="translate(325.138 3275.696)"><g transform="translate(0 0)"><g transform="translate(112.438 249.69)"><path class="f" d="M267.149,432.411a.314.314,0,1,1-.025.017" transform="translate(-267.017 -432.368)"/></g><g transform="translate(123.445 6.814)"><g transform="translate(3.284 18.505)"><path class="g" d="M338.419,137.075l11.656,5.237s-18.206,25.95-21.967,30.129-40.522,9.377-40.522,9.377l-1.76-15.373,31.341-5.337Z" transform="translate(-285.825 -137.075)"/><g transform="translate(31.321 23.847)"><path class="f" d="M336.336,181.206c-.074.008-.151-.92-.549-2.35a16.276,16.276,0,0,0-.9-2.438,16.25,16.25,0,0,0-3.725-5.11,16.246,16.246,0,0,0-2.045-1.6c-1.24-.816-2.1-1.174-2.07-1.241a2.06,2.06,0,0,1,.624.2,10.569,10.569,0,0,1,1.6.8,14.334,14.334,0,0,1,2.141,1.57,15.169,15.169,0,0,1,3.812,5.23,14.3,14.3,0,0,1,.84,2.518,10.608,10.608,0,0,1,.276,1.764A2.127,2.127,0,0,1,336.336,181.206Z" transform="translate(-327.046 -168.459)"/></g><g transform="translate(7.518 30.724)"><path class="f" d="M326.408,177.516a7.343,7.343,0,0,1-1.169.4c-.759.233-1.865.549-3.236.922-2.741.745-6.552,1.692-10.795,2.585s-8.115,1.561-10.924,1.982c-1.4.211-2.544.367-3.333.459a7.355,7.355,0,0,1-1.231.106,7.3,7.3,0,0,1,1.208-.258l3.311-.584c2.8-.492,6.65-1.2,10.888-2.093s8.05-1.793,10.807-2.469l3.265-.8A7.482,7.482,0,0,1,326.408,177.516Z" transform="translate(-295.719 -177.511)"/></g><g transform="translate(34.202 1.688)"><path class="f" d="M352.2,139.3c.082.072-4.633,5.541-10.53,12.214s-10.745,12.027-10.827,11.954,4.632-5.54,10.53-12.216S352.115,139.226,352.2,139.3Z" transform="translate(-330.839 -139.297)"/></g><g transform="translate(40.611 20.111)"><path class="f" d="M339.4,163.585a.317.317,0,1,1-.024.017" transform="translate(-339.272 -163.542)"/></g><g transform="translate(21.527 32.479)"><path class="f" d="M314.288,179.863a.321.321,0,1,1-.024.018" transform="translate(-314.156 -179.821)"/></g><g transform="translate(30.703 30.446)"><path class="f" d="M326.364,177.188a.315.315,0,1,1-.025.018" transform="translate(-326.233 -177.145)"/></g><g transform="translate(45.818 14.267)"><path class="f" d="M346.258,155.895a.318.318,0,1,1-.025.018" transform="translate(-346.126 -155.852)"/></g><g transform="translate(51.275 8.08)"><path class="f" d="M353.439,147.751a.318.318,0,1,1-.025.018" transform="translate(-353.308 -147.709)"/></g><g class="h" transform="translate(8.077 25.34)"><path class="f" d="M317.884,170.681c.087.539-4.639,1.752-10.555,2.71s-10.786,1.3-10.872.757,4.638-1.752,10.556-2.71S317.8,170.141,317.884,170.681Z" transform="translate(-296.455 -170.424)"/></g><g transform="translate(13.581 33.901)"><path class="f" d="M303.831,181.735a.314.314,0,1,1-.025.017" transform="translate(-303.699 -181.692)"/></g></g><g transform="translate(0 45.21)"><path class="i" d="M281.5,172.663a8.329,8.329,0,0,1,9.015,2.64,10.567,10.567,0,0,1,1.781,9.467c-.9,3.215-5.19,7.557-8.092,8.766" transform="translate(-281.503 -172.222)"/></g><g transform="translate(55.179)"><path class="g" d="M369.559,132.915a24.028,24.028,0,0,0,2.569-4.159,8.079,8.079,0,0,0,.7-4.769,4.9,4.9,0,0,0-2.9-3.68,3.552,3.552,0,0,0-4.266,1.409l3.093-6.119c.378-.748.747-1.69.258-2.371a1.6,1.6,0,0,0-2.108-.209,4.641,4.641,0,0,0-1.415,1.828l-4.577,8.58q-2.021-3.163-4.04-6.327c-.409-.64-1-1.366-1.745-1.248a1.355,1.355,0,0,0-1,1.349,3.958,3.958,0,0,0,.511,1.734c1.18,2.5,3.318,8.167,3.318,8.167Z" transform="translate(-354.123 -112.721)"/></g><g transform="translate(2.045 45.223)"><path class="j" d="M284.853,193.1c-.062-.064,1.041-.9,2.365-2.642a11.364,11.364,0,0,0,1.764-3.359,11.909,11.909,0,0,0,.466-4.61,16.861,16.861,0,0,0-2.692-7.98,5.885,5.885,0,0,0-1.7-1.889,5.027,5.027,0,0,0-.861-.375c0-.011.089-.017.252.007a2.176,2.176,0,0,1,.685.235,5.578,5.578,0,0,1,1.855,1.866,16.24,16.24,0,0,1,2.855,8.109,11.877,11.877,0,0,1-.514,4.75,11.119,11.119,0,0,1-1.888,3.417,13.833,13.833,0,0,1-1.821,1.889A3.946,3.946,0,0,1,284.853,193.1Z" transform="translate(-284.194 -172.239)"/></g><g transform="translate(54.756 12.891)"><path class="i" d="M354.689,135.3a79.725,79.725,0,0,0,9.905,5.367c1.36.631,3.047,1.213,4.269.343a2.858,2.858,0,0,0,.944-2.921,6.385,6.385,0,0,0-1.615-2.781,17.709,17.709,0,0,0-8.36-5.234,7.3,7.3,0,0,0-3.519-.274,3.408,3.408,0,0,0-2.594,2.2,2.894,2.894,0,0,0,.97,3.3" transform="translate(-353.568 -129.687)"/></g><g transform="translate(55.142 14.797)"><path class="j" d="M369.438,140.175c-.064.034-.507-.906-1.533-2.2a14.338,14.338,0,0,0-11.152-5.492c-1.652-.024-2.667.2-2.678.128a2.306,2.306,0,0,1,.7-.2,11.625,11.625,0,0,1,1.976-.21,13.648,13.648,0,0,1,11.375,5.6,11.623,11.623,0,0,1,1.038,1.694A2.331,2.331,0,0,1,369.438,140.175Z" transform="translate(-354.075 -132.196)"/></g></g><g transform="translate(88.298 108.765)"><path class="i" d="M265.783,246.964c.111.222-1.352,1.267-4.016,2.391a33.252,33.252,0,0,1-4.82,1.583,37.1,37.1,0,0,1-12.374.913,33.225,33.225,0,0,1-5-.859c-2.8-.721-4.4-1.54-4.323-1.776.088-.283,1.814.052,4.583.4,1.383.182,3.035.327,4.866.415a50.871,50.871,0,0,0,11.859-.875c1.8-.356,3.411-.74,4.752-1.124C264,247.282,265.654,246.7,265.783,246.964Z" transform="translate(-235.247 -246.898)"/></g><g transform="translate(90.203 112.91)"><path class="i" d="M265.4,252.46c.084.245-1.322,1.014-3.766,1.821a43.188,43.188,0,0,1-19.887,1.445c-2.535-.446-4.037-1-3.989-1.258.1-.577,6.288.309,13.874-.275C259.217,253.674,265.209,251.9,265.4,252.46Z" transform="translate(-237.754 -252.354)"/></g><g transform="translate(65.562)"><path class="g" d="M230.086,104.9s-25.075,4.636-24.759,27.085,21.552,18.678,27.717,17.887c2.8-.358,8.368-1.15,13.624-1.908,11.15-1.609,19.47-7.031,20.131-18.277a20.7,20.7,0,0,0-.134-3.954C265.084,113.862,254.018,99.576,230.086,104.9Z" transform="translate(-205.324 -103.753)"/><g transform="translate(12.324 11.375)"><path class="i" d="M261.039,131.006l-32,6.79a6.208,6.208,0,0,1-7.361-4.785h0a6.207,6.207,0,0,1,4.784-7.361l32-6.789a6.208,6.208,0,0,1,7.362,4.784h0A6.208,6.208,0,0,1,261.039,131.006Z" transform="translate(-221.543 -118.724)"/></g><g transform="translate(22.151 21.716)"><ellipse class="f" cx="1.992" cy="1.992" rx="1.992" ry="1.992"/></g><g transform="translate(44.504 16.966)"><ellipse class="f" cx="1.992" cy="1.992" rx="1.992" ry="1.992"/></g><g transform="translate(23.256 1.471)"><path class="f" d="M247.207,117.212a18.818,18.818,0,0,1-1.071-2.262,22.167,22.167,0,0,0-3.111-5.094,11.226,11.226,0,0,0-4.693-3.531,19.92,19.92,0,0,0-2.4-.608,1.989,1.989,0,0,1,.678-.017,7.816,7.816,0,0,1,1.814.362,10.715,10.715,0,0,1,4.908,3.543,19.436,19.436,0,0,1,3.062,5.235c.289.72.5,1.31.638,1.72A2.235,2.235,0,0,1,247.207,117.212Z" transform="translate(-235.931 -105.689)"/></g><g transform="translate(35.333 28.54)"><path class="f" d="M251.828,157.845c-.05-.049.669-.74,1.552-2.061a13.993,13.993,0,0,0,2.2-5.714,23.874,23.874,0,0,0-.051-6.186,20.355,20.355,0,0,1-.343-2.57,2.336,2.336,0,0,1,.21.667c.109.435.258,1.067.409,1.857a20.872,20.872,0,0,1,.167,6.287,13.117,13.117,0,0,1-2.362,5.818,12.049,12.049,0,0,1-1.242,1.453A2.279,2.279,0,0,1,251.828,157.845Z" transform="translate(-251.826 -141.315)"/></g><g class="h" transform="translate(12.048 32.295)"><path d="M267.757,149.28A20.136,20.136,0,0,0,258,146.315a48.624,48.624,0,0,0-10.264.7c-7.857,1.182-15.9,3.039-22.261,7.8a12.25,12.25,0,0,0-4.3,5.052s3.374,1.389,10.1.94,20.619-2.866,20.619-2.866,7.1-1.2,11.115-4.2S267.757,149.28,267.757,149.28Z" transform="translate(-221.18 -146.256)"/></g><g transform="translate(10.026 9.661)"><path class="f" d="M267.04,122.473a5,5,0,0,1,.286,1.152,7.221,7.221,0,0,1-.306,3.38,7.759,7.759,0,0,1-3.4,4.108,21.638,21.638,0,0,1-6.75,2.281l-18.105,3.962-5.234,1.14c-1.788.367-3.59.843-5.5,1.09a8.633,8.633,0,0,1-5.721-.975,8.213,8.213,0,0,1-3.521-4.819,8.1,8.1,0,0,1,.691-5.924,8.863,8.863,0,0,1,4.285-3.923,15.206,15.206,0,0,1,2.737-.793l2.694-.631,5.215-1.22,9.645-2.251c3.034-.65,5.8-1.5,8.4-2.024a27.214,27.214,0,0,1,3.744-.51,14.46,14.46,0,0,1,3.373.115,10.629,10.629,0,0,1,4.95,2.07,7.442,7.442,0,0,1,2.109,2.657,5.134,5.134,0,0,1,.321.826,1.774,1.774,0,0,1,.084.289c-.03.011-.128-.391-.476-1.08a7.589,7.589,0,0,0-2.133-2.571,10.558,10.558,0,0,0-4.889-1.972,14.284,14.284,0,0,0-3.322-.084,27.382,27.382,0,0,0-3.7.533c-2.574.533-5.339,1.4-8.369,2.068l-9.639,2.286-5.215,1.234-2.694.636a14.861,14.861,0,0,0-2.672.777,8.482,8.482,0,0,0-4.093,3.753,7.716,7.716,0,0,0-.656,5.636,7.823,7.823,0,0,0,3.346,4.586,8.248,8.248,0,0,0,5.468.925c1.861-.237,3.675-.71,5.463-1.074L238.69,137l18.123-3.879a21.608,21.608,0,0,0,6.695-2.2,7.639,7.639,0,0,0,3.367-3.969,7.339,7.339,0,0,0,.372-3.319C267.155,122.867,267.017,122.478,267.04,122.473Z" transform="translate(-218.519 -116.469)"/></g><g transform="translate(0.351 27.11)"><path class="f" d="M205.788,144.27a5.514,5.514,0,0,1,1.223-1.071,21.778,21.778,0,0,1,7.012-3.442,5.514,5.514,0,0,1,1.595-.312c.033.122-2.367.732-5.082,2.072S205.864,144.371,205.788,144.27Z" transform="translate(-205.786 -139.433)"/></g><g transform="translate(26.274 4.247)"><path class="f" d="M240.035,109.385a.317.317,0,1,1-.025.018" transform="translate(-239.904 -109.343)"/></g><g transform="translate(30.254 10.057)"><path class="f" d="M245.273,117.032a.318.318,0,1,1-.025.018" transform="translate(-245.141 -116.99)"/></g><g transform="translate(6.19 26.32)"><path class="f" d="M213.6,138.436a.317.317,0,1,1-.024.018" transform="translate(-213.47 -138.393)"/></g><g transform="translate(1.22 28.984)"><path class="f" d="M207.061,141.941a.314.314,0,1,1-.025.017" transform="translate(-206.93 -141.898)"/></g><g class="h" transform="translate(2.338 1.401)"><path class="f" d="M237.6,105.706c.061.285-2.2.931-5.761,2.071a46.769,46.769,0,0,0-13,6.108,26.1,26.1,0,0,0-5.545,5.449,21.878,21.878,0,0,0-3.042,5.573c-1.245,3.434-1.091,5.811-1.43,5.819-.124.009-.308-.569-.393-1.653a14.258,14.258,0,0,1,.487-4.58,19.989,19.989,0,0,1,2.893-6.217,24.865,24.865,0,0,1,5.873-6,33.152,33.152,0,0,1,7.341-3.918,44.281,44.281,0,0,1,6.443-1.935C235.2,105.614,237.549,105.457,237.6,105.706Z" transform="translate(-208.401 -105.597)"/></g><g class="h" transform="translate(3.515 32.665)"><path class="f" d="M213.731,151.65c-.328.425-1.778-.166-2.838-1.66s-1.15-3.054-.64-3.225c.522-.187,1.359.84,2.251,2.077S214.078,151.217,213.731,151.65Z" transform="translate(-209.951 -146.743)"/></g></g><g transform="translate(71.152 47.328)"><g transform="translate(0 0.071)"><path class="g" d="M266.378,168.5c1.523.432,1.427,22.435,1.1,33.666-.175,6.019-.625,12.3-3.694,17.48a21.146,21.146,0,0,1-16.62,9.905c-8.054.544-16.015-3.354-21.524-9.253s-8.772-13.611-10.527-21.491-2.1-16-2.434-24.06C212.68,174.751,238.756,160.676,266.378,168.5Z" transform="translate(-212.68 -166.135)"/></g><g class="k" transform="translate(1.205 11.79)"><path d="M214.283,189.092a59.34,59.34,0,0,0,3.344,21.2,38.956,38.956,0,0,0,12,17.016,37.254,37.254,0,0,0,5.289,3.316,23.324,23.324,0,0,0,5,1.873c2.833.812,4.5-2.693,5.058-5.588a10.789,10.789,0,0,0-2.25-8.29,24.678,24.678,0,0,0-6.666-5.738,79.056,79.056,0,0,1-7.359-4.894,34.068,34.068,0,0,1-9-12.1,101.8,101.8,0,0,1-5.079-14.324" transform="translate(-214.265 -181.558)"/></g><g transform="translate(19.695 49.3)"><path class="f" d="M238.732,230.968a.314.314,0,1,1-.025.017" transform="translate(-238.601 -230.925)"/></g><g transform="translate(29.446 48.915)"><path class="f" d="M251.566,230.461a.317.317,0,1,1-.024.017" transform="translate(-251.434 -230.418)"/></g><g transform="translate(40.101 38.847)"><path class="f" d="M265.588,217.211a.317.317,0,1,1-.024.017" transform="translate(-265.456 -217.168)"/></g><g transform="translate(35.206 13.984)"><path class="f" d="M259.145,184.489a.314.314,0,1,1-.025.017" transform="translate(-259.014 -184.446)"/></g><g transform="translate(45.19 18.061)"><path class="f" d="M272.286,189.855a.317.317,0,1,1-.024.018" transform="translate(-272.154 -189.812)"/></g><g transform="translate(8.642 46.421)"><path class="f" d="M224.185,227.178a.321.321,0,1,1-.024.018" transform="translate(-224.053 -227.136)"/></g><g transform="translate(7.031 38.146)"><path class="f" d="M222.065,216.288a.317.317,0,1,1-.024.017" transform="translate(-221.933 -216.245)"/></g><g transform="translate(6.327 30.653)"><path class="f" d="M221.139,206.427a.314.314,0,1,1-.025.017" transform="translate(-221.007 -206.384)"/></g><g transform="translate(5.617 22.691)"><path class="f" d="M220.2,195.948a.32.32,0,1,1-.024.018" transform="translate(-220.072 -195.906)"/></g><g transform="translate(51.12 16.116)"><path class="f" d="M280.09,187.294a.32.32,0,1,1-.024.018" transform="translate(-279.958 -187.252)"/></g><g transform="translate(41.726 48.166)"><path class="f" d="M267.727,229.475a.317.317,0,1,1-.024.017" transform="translate(-267.595 -229.432)"/></g><g transform="translate(42.796 56.023)"><path class="f" d="M269.135,239.816a.314.314,0,1,1-.025.017" transform="translate(-269.003 -239.773)"/></g><g class="h" transform="translate(2.566 8.281)"><path class="f" d="M261.143,177.018c.076.236-2.286,1.288-6.31,2.379a68.044,68.044,0,0,1-7.164,1.5,74.867,74.867,0,0,1-17.907.6,68,68,0,0,1-7.249-1.02c-4.089-.818-6.515-1.709-6.455-1.95.126-.6,10.122,1.7,22.61,1.229C251.156,179.4,260.976,176.426,261.143,177.018Z" transform="translate(-216.057 -176.94)"/></g><g transform="translate(6.568 9.901)"><path class="f" d="M233.673,228.371a2.6,2.6,0,0,1-.415-.325c-.264-.223-.644-.563-1.107-1.03a15.444,15.444,0,0,1-3.212-4.534,24.54,24.54,0,0,1-1.27-3.632c-.4-1.321-.786-2.741-1.188-4.238-.8-3-1.576-6.316-2.272-9.825a159.731,159.731,0,0,1-2.52-18.139c-.179-2.337-.28-4.231-.325-5.541l-.038-1.509a2.668,2.668,0,0,1,.014-.527,2.592,2.592,0,0,1,.066.523c.029.384.065.883.112,1.5.093,1.305.236,3.194.451,5.525a182.227,182.227,0,0,0,2.63,18.087c.694,3.5,1.461,6.815,2.236,9.809.393,1.5.77,2.916,1.151,4.238a25,25,0,0,0,1.21,3.608,16.09,16.09,0,0,0,3.067,4.542c.443.479.8.837,1.05,1.077A2.653,2.653,0,0,1,233.673,228.371Z" transform="translate(-221.324 -179.073)"/></g><g transform="translate(36.593 34.993)"><path class="f" d="M260.852,212.1c.109-.013.926,6.038,1.826,13.512s1.542,13.548,1.434,13.561-.926-6.035-1.827-13.513S260.744,212.11,260.852,212.1Z" transform="translate(-260.84 -212.096)"/></g><g transform="translate(25.165 0.887)"><path class="f" d="M245.8,167.21c.021-.017.214.178.545.545s.8.906,1.371,1.578c1.144,1.343,2.7,3.216,4.405,5.3l.63.773.078.095a.24.24,0,0,1,.09.12,1.582,1.582,0,0,1,.062.166l.024.126c.035.171.051.331.07.492.068.64.1,1.251.134,1.836.059,1.168.086,2.219.1,3.1s.017,1.6.011,2.091a3.068,3.068,0,0,1-.049.767,20.133,20.133,0,0,1-.24-2.848c-.055-.913-.118-1.954-.187-3.089-.04-.58-.084-1.191-.155-1.812-.019-.155-.036-.313-.068-.458l-.02-.112a.346.346,0,0,1-.021-.062c0-.039-.095-.1-.132-.163l-.631-.772c-1.7-2.084-3.228-3.985-4.317-5.374-.544-.694-.979-1.261-1.273-1.657A2.932,2.932,0,0,1,245.8,167.21Z" transform="translate(-245.8 -167.209)"/></g><g transform="translate(12.676 46.451)"><path class="f" d="M253.971,227.188a4.524,4.524,0,0,1-.952.2c-.616.1-1.511.229-2.62.367-2.217.276-5.291.571-8.7.745s-6.5.188-8.729.138c-1.117-.024-2.02-.059-2.643-.1a4.692,4.692,0,0,1-.967-.1,4.567,4.567,0,0,1,.97-.055l2.642-.026c2.23-.021,5.31-.082,8.707-.254s6.466-.425,8.687-.628l2.631-.242A4.616,4.616,0,0,1,253.971,227.188Z" transform="translate(-229.363 -227.176)"/></g><g transform="translate(39.518 17.105)"><path class="f" d="M280.082,188.559c.014.024-.172.156-.521.375a17.177,17.177,0,0,1-1.528.84,33.334,33.334,0,0,1-5.365,2.064,42.56,42.56,0,0,1-5.61,1.245,11.409,11.409,0,0,1-2.369.222,18.587,18.587,0,0,1,2.321-.5c1.434-.286,3.407-.72,5.545-1.35a44.933,44.933,0,0,0,5.359-1.937C279.252,188.934,280.05,188.5,280.082,188.559Z" transform="translate(-264.689 -188.554)"/></g><g transform="translate(21.48 13.749)"><g transform="translate(0 0)"><circle class="i" cx="8.903" cy="8.903" r="8.903" transform="translate(0 12.591) rotate(-45)"/><g transform="translate(4.175 4.175)"><ellipse class="f" cx="6.488" cy="6.488" rx="6.488" ry="6.488" transform="matrix(0.93, -0.367, 0.367, 0.93, 0, 4.76)"/></g></g><g transform="translate(8.939 8.188)"><path class="l" d="M259.819,200.72a6.592,6.592,0,0,1-.138-1.063c-.065-.669-.148-1.621-.234-2.786l.081.123-3.471-1.7.186-.011-3.222,2.134c-.079.158.108-.215.089-.176h0v.03l0,.031,0,.064.008.127.014.252.029.5q.027.5.055.981c.034.644.068,1.269.1,1.871l-.1-.156,3.436,1.769-.147.008c.986-.627,1.8-1.129,2.374-1.476a6.611,6.611,0,0,1,.935-.524,5.1,5.1,0,0,1-.8.617c-.542.387-1.343.947-2.347,1.63l-.069.046-.078-.038-3.471-1.7-.1-.047-.007-.109c-.038-.6-.077-1.228-.118-1.871-.019-.323-.04-.65-.059-.981l-.03-.5-.015-.252-.008-.127,0-.063,0-.032v-.03h0c-.02.038.168-.336.089-.178l3.234-2.114.091-.06.1.049,3.436,1.769.077.04,0,.084c.053,1.213.083,2.19.1,2.855A5.1,5.1,0,0,1,259.819,200.72Z" transform="translate(-252.713 -194.913)"/></g></g><g class="k"><path d="M212.68,174.729s26.089-14.251,53.7-6.247C266.378,168.482,254.562,179.705,212.68,174.729Z" transform="translate(-212.68 -166.042)"/></g></g><g transform="translate(113.057 231.266)"><path class="f" d="M267.963,408.164a.317.317,0,1,1-.024.017" transform="translate(-267.831 -408.121)"/></g><g transform="translate(78.289 116.263)"><g transform="translate(23.558)"><path class="g" d="M253.089,274.22c.474,18.554,2.368,37.121,7.092,55.07.811,3.082,1.765,6.279,3.977,8.573s6.069,3.321,8.632,1.426c2.193-1.623,2.688-4.646,2.991-7.357a570.162,570.162,0,0,0,3.933-59.876s.579-15.3-10.207-15.29S252.8,262.852,253.089,274.22Z" transform="translate(-253.079 -256.766)"/></g><g class="k" transform="translate(24.179 0.461)"><path d="M260.824,258.576c1.346-1.633,4.072-1.516,5.718-.186A8.28,8.28,0,0,1,269.159,264c.765,6.653-2.508,13.039-3.67,19.634-1.118,6.35-.264,12.868-.573,19.309s-1.721,13.011-6.765,17.027c0,0-4.876-24.807-4.189-34.283C254.462,278.774,260.824,258.576,260.824,258.576Z" transform="translate(-253.896 -257.372)"/></g><g transform="translate(32.532 26.699)"><path class="f" d="M264.9,291.9a3.249,3.249,0,0,1,.09.576q.068.626.182,1.66c.153,1.485.366,3.56.628,6.107.533,5.156,1.318,12.273,2.326,20.117s2.057,14.931,2.847,20.053c.392,2.53.712,4.592.94,6.066l.245,1.651a3.328,3.328,0,0,1,.059.581,3.13,3.13,0,0,1-.138-.567l-.318-1.639c-.27-1.425-.635-3.491-1.065-6.048-.861-5.114-1.95-12.2-2.963-20.047s-1.75-14.975-2.213-20.14c-.232-2.583-.4-4.674-.5-6.12-.045-.694-.081-1.248-.108-1.667A3.243,3.243,0,0,1,264.9,291.9Z" transform="translate(-264.89 -291.904)"/></g><g transform="translate(0 0.853)"><path class="i" d="M238.723,287.911c5.038,2.463,12.227.463,15.718-4.63s4.579-11.406,5.581-17.5c.337-2.044.609-4.358-.663-5.992-1.454-1.869-4.2-1.958-6.563-1.881l-22.529.733s-8.194,2.347-8.194,7.294S231.839,284.547,238.723,287.911Z" transform="translate(-222.074 -257.889)"/></g><g transform="translate(28.805 84.755)"><path class="g" d="M267.193,368.793c-2.427.119-4.46,2.062-5.421,4.294a19.693,19.693,0,0,0-1.145,7.155c-.517,14.773-1.033,29.57-.216,44.329.177,3.2.491,6.592,2.444,9.126s6.143,3.589,8.35,1.272c1.261-1.324,1.522-3.282,1.72-5.1l5.74-52.821c.217-1.991.4-4.141-.614-5.868a6.367,6.367,0,0,0-4.81-2.8,18.817,18.817,0,0,0-5.722.5" transform="translate(-259.984 -368.312)"/></g><g transform="translate(32.018 85.884)"><path class="f" d="M265.233,438.681a.617.617,0,0,1-.037-.176l-.068-.522c-.052-.46-.137-1.137-.216-2.012-.168-1.749-.361-4.285-.5-7.425-.3-6.279-.243-14.966.051-24.543s.565-18.224.76-24.532a21.3,21.3,0,0,1,1.274-7.325,10.509,10.509,0,0,1,.957-1.791l.318-.422c.074-.093.114-.139.119-.135a.641.641,0,0,1-.087.159l-.283.441a12.131,12.131,0,0,0-.881,1.805,21.992,21.992,0,0,0-1.137,7.278c-.166,6.308-.393,14.966-.644,24.532-.294,9.577-.4,18.249-.166,24.522.1,3.137.253,5.672.374,7.423q.089,1.274.141,2.017l.029.526A.634.634,0,0,1,265.233,438.681Z" transform="translate(-264.212 -369.798)"/></g><g transform="translate(29.76 146.302)"><g transform="translate(0.546)"><path class="i" d="M262.248,458.952a17.355,17.355,0,0,1-.21-4.527,5.847,5.847,0,0,1,2.039-3.932,7.451,7.451,0,0,1,6.724-.656,5.846,5.846,0,0,1,2.892,4.447l1.134,5.509" transform="translate(-261.959 -449.313)"/></g><g transform="translate(0 9.383)"><path class="g" d="M261.624,461.662l13.118.138s9.651,2.183,9.445,2.96-22.945-.153-22.945-.153Z" transform="translate(-261.241 -461.662)"/></g></g><g transform="translate(21.939 1.589)"><path class="j" d="M255.9,258.858a7.632,7.632,0,0,1,.442,1.182,13.563,13.563,0,0,1,.419,1.42c.139.56.324,1.194.441,1.912.141.714.283,1.5.368,2.351.126.849.161,1.764.22,2.725a35.874,35.874,0,0,1-.359,6.249,34.546,34.546,0,0,1-1.548,6.068c-.359.894-.67,1.757-1.064,2.52-.188.384-.356.764-.543,1.114l-.566.994a18.859,18.859,0,0,1-1.053,1.656,11.435,11.435,0,0,1-.881,1.191,7.656,7.656,0,0,1-.824.954,7.693,7.693,0,0,1,.7-1.047,13.348,13.348,0,0,0,.819-1.221c.3-.489.67-1.027.995-1.672q.257-.479.538-1c.178-.351.337-.729.517-1.112.377-.76.672-1.618,1.019-2.5a36.2,36.2,0,0,0,1.5-6,37.7,37.7,0,0,0,.385-6.177c-.048-.952-.07-1.858-.181-2.7-.07-.846-.2-1.625-.318-2.337-.1-.716-.263-1.348-.381-1.909s-.239-1.041-.353-1.429A7.764,7.764,0,0,1,255.9,258.858Z" transform="translate(-250.947 -258.858)"/></g><g transform="translate(37.011 45.774)"><path class="f" d="M270.916,317.052a.318.318,0,1,1-.025.018" transform="translate(-270.784 -317.009)"/></g><g transform="translate(38.937 62.034)"><path class="f" d="M273.45,338.451a.314.314,0,1,1-.025.017" transform="translate(-273.319 -338.408)"/></g><g transform="translate(35.078 29.187)"><path class="f" d="M268.371,295.222a.321.321,0,1,1-.024.018" transform="translate(-268.239 -295.179)"/></g><g transform="translate(35.078 99.497)"><path class="f" d="M268.371,387.756a.317.317,0,1,1-.024.017" transform="translate(-268.239 -387.713)"/></g><g transform="translate(30.168 151.357)"><path class="j" d="M273.9,455.977a6.261,6.261,0,0,1-1.694.634,20.816,20.816,0,0,1-8.668.528,6.264,6.264,0,0,1-1.758-.423,48.248,48.248,0,0,0,6.1.221A48.292,48.292,0,0,0,273.9,455.977Z" transform="translate(-261.778 -455.966)"/></g><g class="k" transform="translate(28.793 87.088)"><path d="M259.968,414.085a20.109,20.109,0,0,0,6.94-10.622,60.649,60.649,0,0,0,1.9-12.747,58.446,58.446,0,0,1,1.955-12.738,5.566,5.566,0,0,0,.4-2.75c-.315-1.477-1.819-2.343-3.2-2.964-1.7-.77-3.846-1.406-5.31-.245-1.1.873-1.342,2.422-1.485,3.82-1.321,12.886-1.213,25.871-1.1,38.825" transform="translate(-259.968 -371.382)"/></g><g transform="translate(30.734 73.661)"><circle class="i" cx="9.333" cy="9.333" r="9.333"/><g transform="translate(0.265 7.985)"><path class="j" d="M280.746,364.223a2.318,2.318,0,0,1-.484.575,8.046,8.046,0,0,1-1.642,1.232,12.277,12.277,0,0,1-6.55,1.477,24.511,24.511,0,0,1-6.6-1.341c-.816-.271-1.47-.51-1.917-.684a2.747,2.747,0,0,1-.683-.308,22.988,22.988,0,0,1,2.683.725,28.232,28.232,0,0,0,6.53,1.213,12.836,12.836,0,0,0,6.4-1.327A16.314,16.314,0,0,0,280.746,364.223Z" transform="translate(-262.872 -364.22)"/></g></g></g><g transform="translate(0 36.02)"><path class="g" d="M140.52,163.874s-1.833-7.506-2.811-7.857-12.735,1.33-12.735,1.33-3.822-5.344-4.41-6.035-1.855,1.056-1.447,1.861,3.209,8.581,4.956,8.841a42.56,42.56,0,0,0,6.126-.077l1.427,4.886Z" transform="translate(-119.038 -151.158)"/><g transform="translate(13.473 15.889)"><path class="g" d="M195.589,197.921c-7.419,2.7-12.156,4.073-19.583,6.841-4.115,1.533-9.359,3.227-13.243,4.225a12.657,12.657,0,0,1-8.068-.224,13.725,13.725,0,0,1-5.108-4.647c-6.59-8.713-10.254-19.75-12.817-30.369l8.916-1.675,16.122,22.555L191.114,184.6l4.83,11.916A.878.878,0,0,1,195.589,197.921Z" transform="translate(-136.769 -172.07)"/><g transform="translate(51.783 7.021)"><path class="i" d="M212.256,181.31A10.412,10.412,0,0,0,208.7,199.3c1.214,1,2.925,1.765,4.346.248a4.119,4.119,0,0,0,.924-1.71A22.261,22.261,0,0,0,212.256,181.31Z" transform="translate(-204.92 -181.31)"/></g><g transform="translate(54.621 9.133)"><path class="j" d="M208.657,184.823c-.01-.009.027-.068.109-.17a2.1,2.1,0,0,1,.422-.4.887.887,0,0,1,.419-.161,1.267,1.267,0,0,1,.52.1,1.171,1.171,0,0,1,.484.373l.382.5a15.619,15.619,0,0,1,2.809,6.3,14.85,14.85,0,0,1-.186,6.9,3.961,3.961,0,0,1-1.1,1.809,1.415,1.415,0,0,1-.675.385c-.018-.033.235-.151.569-.5a4.152,4.152,0,0,0,.935-1.78,15.808,15.808,0,0,0,.065-6.74,16.708,16.708,0,0,0-2.647-6.215c-.258-.36-.439-.723-.729-.839a.748.748,0,0,0-.769-.012C208.868,184.631,208.682,184.854,208.657,184.823Z" transform="translate(-208.655 -184.09)"/></g><g transform="translate(17.332 22.555)"><path class="f" d="M167.285,201.754a2.138,2.138,0,0,1,.132.653,9.981,9.981,0,0,1,.074,1.814,12.273,12.273,0,0,1-.408,2.67,13.586,13.586,0,0,1-1.268,3.059,13.855,13.855,0,0,1-4.057,4.385,11.36,11.36,0,0,1-1.561.924,2.166,2.166,0,0,1-.616.251c-.035-.065.808-.493,2.013-1.4a15.052,15.052,0,0,0,3.879-4.356,14.389,14.389,0,0,0,1.26-2.96,13.582,13.582,0,0,0,.479-2.59C167.334,202.7,167.209,201.762,167.285,201.754Z" transform="translate(-159.58 -201.754)"/></g><g transform="translate(25.042 15.268)"><path class="f" d="M197.629,192.168c.038.1-6.177,2.533-13.881,5.43s-13.983,5.162-14.021,5.06,6.175-2.533,13.882-5.43S197.591,192.065,197.629,192.168Z" transform="translate(-169.727 -192.165)"/></g><g transform="translate(2.899 1.431)"><path class="f" d="M140.587,173.953a1.4,1.4,0,0,1,.157.35l.377,1.027c.319.894.787,2.187,1.4,3.769,1.215,3.17,3.042,7.493,5.357,12.125,1.166,2.313,2.344,4.481,3.458,6.427,1.139,1.932,2.186,3.662,3.134,5.068.46.714.9,1.344,1.285,1.9s.714,1.032,1,1.411l.637.89a1.4,1.4,0,0,1,.2.327c-.011.008-.1-.087-.264-.277l-.7-.846c-.3-.366-.657-.83-1.057-1.375s-.861-1.163-1.337-1.868c-.982-1.392-2.057-3.112-3.217-5.041-1.136-1.944-2.327-4.114-3.5-6.434a115.842,115.842,0,0,1-5.266-12.2c-.584-1.6-1.012-2.907-1.286-3.818-.123-.42-.224-.767-.307-1.052A1.4,1.4,0,0,1,140.587,173.953Z" transform="translate(-140.584 -173.953)"/></g><g transform="translate(30.328 24.715)"><path class="f" d="M177.16,205.18a.316.316,0,1,0-.027.014" transform="translate(-176.683 -204.598)"/></g><g transform="translate(17.901 28.385)"><path class="f" d="M160.805,210.009a.314.314,0,1,0-.027.014" transform="translate(-160.328 -209.427)"/></g><g transform="translate(12.275 19.565)"><path class="f" d="M153.4,198.4a.316.316,0,1,0-.027.014" transform="translate(-152.923 -197.819)"/></g><g transform="translate(37.606 22.157)"><path class="f" d="M186.738,201.814a.32.32,0,1,0-.027.014" transform="translate(-186.261 -201.231)"/></g><g transform="translate(46.163 19.875)"><path class="f" d="M197.656,198.27a.314.314,0,1,1-.025.018" transform="translate(-197.524 -198.228)"/></g></g><g transform="translate(10.914 10.803)"><path class="i" d="M135.762,172.191a64.711,64.711,0,0,0,9.056-1.28c1.193-.245,2.574-.68,2.951-1.838a2.32,2.32,0,0,0-.794-2.362,5.189,5.189,0,0,0-2.4-1.035,14.368,14.368,0,0,0-7.983.622,5.91,5.91,0,0,0-2.43,1.521,2.763,2.763,0,0,0-.631,2.686,2.348,2.348,0,0,0,2.228,1.686" transform="translate(-133.402 -165.376)"/></g><g transform="translate(11.201 11.888)"><path class="j" d="M147.462,168.259c-.03.062-.777-.329-2.071-.672a11.718,11.718,0,0,0-9.907,1.8c-1.091.776-1.653,1.4-1.7,1.356-.019-.017.1-.191.353-.478a9.142,9.142,0,0,1,1.183-1.1,11.025,11.025,0,0,1,10.152-1.841,9.193,9.193,0,0,1,1.495.616C147.3,168.115,147.473,168.236,147.462,168.259Z" transform="translate(-133.779 -166.804)"/></g></g><g transform="translate(74.03 116.48)"><g transform="translate(6.688 83.51)"><path class="g" d="M231.176,367.743c-2.415.263-4.33,2.322-5.158,4.607a19.7,19.7,0,0,0-.72,7.209c.358,14.778.717,29.58,2.407,44.265.365,3.179.88,6.55,2.979,8.966s6.345,3.219,8.412.776c1.18-1.4,1.324-3.366,1.414-5.192q1.3-26.534,2.606-53.068c.1-2,.155-4.159-.96-5.822a6.368,6.368,0,0,0-4.966-2.509,18.837,18.837,0,0,0-5.682.834" transform="translate(-225.27 -366.959)"/></g><path class="g" d="M216.478,274.506c.473,18.553,2.367,37.121,7.091,55.07.811,3.081,1.765,6.278,3.977,8.572s6.069,3.321,8.632,1.426c2.193-1.622,2.688-4.645,2.991-7.356a570.207,570.207,0,0,0,3.933-59.877s.579-15.3-10.207-15.289S216.188,263.137,216.478,274.506Z" transform="translate(-216.468 -257.052)"/><g class="h" transform="translate(1.14 5.018)"><path class="f" d="M225.857,333.817c-.269.041-1.131-3.874-2.308-10.243s-2.649-15.2-3.8-25.035c-.581-4.911-1.01-9.619-1.359-13.877a56.271,56.271,0,0,1-.208-11.5,16.848,16.848,0,0,1,2.485-7.43l.747-.986a6.986,6.986,0,0,1,.628-.649c.356-.334.563-.483.613-.437s-.058.285-.3.689c-.116.207-.295.435-.457.737s-.353.648-.561,1.033a18.538,18.538,0,0,0-1.759,7.173,64.79,64.79,0,0,0,.63,11.191c.45,4.263.931,8.923,1.51,13.822,1.141,9.788,2.4,18.629,3.213,25.051S226.128,333.776,225.857,333.817Z" transform="translate(-217.968 -263.656)"/></g><g transform="translate(6.542 0.555)"><path class="f" d="M233.488,340.539a.879.879,0,0,1-.067-.21l-.157-.625-.568-2.413c-.476-2.1-1.108-5.149-1.8-8.936-1.369-7.576-2.8-18.126-3.807-29.827-.519-5.851-.928-11.431-1.289-16.5-.177-2.537-.346-4.948-.5-7.206a50.668,50.668,0,0,1-.174-6.3,17.427,17.427,0,0,1,.975-5.117,12.1,12.1,0,0,1,1.9-3.44,9.1,9.1,0,0,1,1.8-1.717,4.856,4.856,0,0,1,.737-.454,10.974,10.974,0,0,0-2.412,2.267,12.246,12.246,0,0,0-1.818,3.42,17.418,17.418,0,0,0-.9,5.057,51.617,51.617,0,0,0,.222,6.266c.169,2.257.35,4.668.54,7.2.381,5.073.8,10.65,1.32,16.5,1.008,11.694,2.391,22.233,3.688,29.814.658,3.789,1.247,6.844,1.677,8.952l.5,2.428c.049.26.088.469.119.633A.988.988,0,0,1,233.488,340.539Z" transform="translate(-225.077 -257.783)"/></g><g transform="translate(9.363 86.258)"><path class="f" d="M232.281,433.547a3.9,3.9,0,0,1-.106-.634q-.084-.678-.226-1.824c-.191-1.586-.437-3.883-.716-6.724-.559-5.683-1.206-13.546-1.68-22.247s-.678-16.592-.737-22.3c-.03-2.855-.034-5.165-.017-6.762q.017-1.154.027-1.838a3.89,3.89,0,0,1,.036-.641,3.9,3.9,0,0,1,.043.64q.018.684.047,1.838c.034,1.634.083,3.934.142,6.758.131,5.706.383,13.587.853,22.285s1.076,16.556,1.564,22.242c.246,2.814.447,5.105.59,6.734q.1,1.151.153,1.832A3.846,3.846,0,0,1,232.281,433.547Z" transform="translate(-228.79 -370.575)"/></g><g transform="translate(5.876 73.66)"><ellipse class="i" cx="9.333" cy="9.333" rx="9.333" ry="9.333"/></g><g transform="translate(9.647 146.1)"><g transform="translate(0.122)"><path class="i" d="M229.325,460.765c.021-1.515.027-5.733.44-7.19a5.844,5.844,0,0,1,2.595-3.589,7.455,7.455,0,0,1,6.747.34,5.844,5.844,0,0,1,2.207,4.824l.312,5.616" transform="translate(-229.325 -449.333)"/></g><g transform="translate(0 9.464)"><path class="g" d="M229.49,461.911l13.117-.122s9.692,1.993,9.5,2.773-22.944.3-22.944.3Z" transform="translate(-229.164 -461.789)"/></g></g><g transform="translate(10.2 32.855)"><path class="f" d="M230.024,300.335a.317.317,0,1,1-.024.018" transform="translate(-229.892 -300.292)"/></g><g transform="translate(9.253 18.838)"><path class="f" d="M228.777,281.887a.314.314,0,1,1-.025.017" transform="translate(-228.646 -281.844)"/></g><g transform="translate(11.371 50.069)"><path class="f" d="M231.564,322.99a.318.318,0,1,1-.025.018" transform="translate(-231.433 -322.948)"/></g><g transform="translate(13.741 69.414)"><path class="f" d="M234.684,348.45a.317.317,0,1,1-.024.018" transform="translate(-234.552 -348.407)"/></g><g transform="translate(11.062 98.942)"><path class="f" d="M231.158,387.311a.314.314,0,1,1-.025.017" transform="translate(-231.026 -387.268)"/></g><g transform="translate(12.546 114.187)"><path class="f" d="M233.11,407.375a.314.314,0,1,1-.025.017" transform="translate(-232.979 -407.332)"/></g><g transform="translate(12.723 131.279)"><path class="f" d="M233.344,429.87a.321.321,0,1,1-.024.018" transform="translate(-233.212 -429.828)"/></g><g transform="translate(6.294 81.141)"><path class="j" d="M242.814,363.844a2.6,2.6,0,0,1-.543.557,11.876,11.876,0,0,1-1.718,1.244,13.582,13.582,0,0,1-13.456.321,11.813,11.813,0,0,1-1.776-1.161,2.591,2.591,0,0,1-.569-.53c.045-.059.889.663,2.472,1.442a14.118,14.118,0,0,0,13.188-.315C241.957,364.548,242.766,363.786,242.814,363.844Z" transform="translate(-224.751 -363.841)"/></g><g transform="translate(9.857 151.669)"><path class="j" d="M241.266,456.674a5.918,5.918,0,0,1-1.651.629,19.016,19.016,0,0,1-8.471.4,5.93,5.93,0,0,1-1.7-.469,41.4,41.4,0,0,0,5.943.35A41.451,41.451,0,0,0,241.266,456.674Z" transform="translate(-229.44 -456.663)"/></g></g></g><g transform="translate(97.936 20.595)"><path class="f" d="M255.433,130.859a2.554,2.554,0,0,1-.018,1.688,3.923,3.923,0,0,1-6.727,1.538,2.558,2.558,0,0,1-.751-1.514,8.277,8.277,0,0,0,.954,1.321,3.971,3.971,0,0,0,1.454.919,3.8,3.8,0,0,0,3.893-.89,3.968,3.968,0,0,0,.91-1.459A8.232,8.232,0,0,0,255.433,130.859Z" transform="translate(-247.931 -130.859)"/></g></g><g transform="translate(321.421 3508.152)"><g transform="translate(0 0)"><path class="j" d="M125.674,409.686a8.387,8.387,0,0,1,5.537,3.539,14.812,14.812,0,0,1,2.393,6.256c.72,4.3-.442,9.178-2.036,13.234-4.382-2.055-6.717-7.161-7.739-9.827-1.615-4.212-1.976-12.8,1.846-13.2" transform="translate(-116.194 -409.686)"/><path class="j" d="M142.547,444.19a7.161,7.161,0,0,1-.169-7.186,9.5,9.5,0,0,1,5.832-4.469,4,4,0,0,1,3.365.239,3.061,3.061,0,0,1,1.112,2.9,6.206,6.206,0,0,1-1.378,2.915c-2.285,2.948-5.038,5.382-8.761,5.6" transform="translate(-120.714 -415.113)"/><g transform="translate(20.315 21.768)"><path class="i" d="M141.293,459.257a3.266,3.266,0,0,1-.147-.9c-.062-.584-.135-1.431-.194-2.481a30.746,30.746,0,0,1,.5-8.214,15.412,15.412,0,0,1,3.733-7.316,10.091,10.091,0,0,1,1.939-1.592,2.829,2.829,0,0,1,.822-.413,21.445,21.445,0,0,0-2.507,2.239,16.155,16.155,0,0,0-3.51,7.187,35.643,35.643,0,0,0-.633,8.1A27.77,27.77,0,0,1,141.293,459.257Z" transform="translate(-140.882 -438.334)"/></g><g transform="translate(10.495 6.518)"><path class="i" d="M127.962,418.265a8.98,8.98,0,0,1,.552,1.406c.327.915.777,2.246,1.315,3.9,1.078,3.3,2.493,7.885,3.931,12.985s2.622,9.752,3.425,13.13c.4,1.689.713,3.059.911,4.01a8.925,8.925,0,0,1,.263,1.487,8.841,8.841,0,0,1-.448-1.442c-.273-1.02-.63-2.358-1.061-3.971-.887-3.354-2.126-7.984-3.561-13.081s-2.8-9.689-3.79-13.014c-.473-1.6-.867-2.928-1.166-3.94A8.852,8.852,0,0,1,127.962,418.265Z" transform="translate(-127.958 -418.265)"/></g><path class="j" d="M130.142,450.277a16.748,16.748,0,0,0-11.968-9.534c-1.327-.254-2.963-.217-3.7.914s-.106,2.653.689,3.747a14.307,14.307,0,0,0,14.987,5.24" transform="translate(-114.145 -417.114)"/><g transform="translate(5.485 27.434)"><path class="i" d="M121.364,445.8a3.06,3.06,0,0,1,.873.089,7.079,7.079,0,0,1,1.006.214,11.711,11.711,0,0,1,1.308.392,17.624,17.624,0,0,1,3.222,1.5,18.84,18.84,0,0,1,6.22,6.022A17.615,17.615,0,0,1,135.6,457.2a11.589,11.589,0,0,1,.434,1.294,7.026,7.026,0,0,1,.247,1,3.038,3.038,0,0,1,.117.869c-.093.022-.333-1.2-1.117-3.031a19.68,19.68,0,0,0-1.663-3.057,19.879,19.879,0,0,0-6.077-5.884,19.617,19.617,0,0,0-3.109-1.563C122.579,446.1,121.346,445.9,121.364,445.8Z" transform="translate(-121.364 -445.792)"/></g></g></g><g transform="translate(468.611 3240.184)"><g transform="translate(0 0)"><path class="g" d="M397.986,80.182a1.438,1.438,0,0,1-.019-.258c0-.19-.011-.432-.019-.736-.009-.67-.022-1.608-.038-2.8-.017-2.444-.041-5.926-.071-10.21l.074.128-12.147-6.968h.186l-12.12,7.011c-.09.153.119-.207.1-.169v1.833q0,.913,0,1.815,0,1.8,0,3.561c0,2.341-.006,4.612-.008,6.793l-.093-.161,12.108,7.036h-.147l8.878-5.044,2.444-1.367.646-.351a1.576,1.576,0,0,1,.233-.113,1.056,1.056,0,0,1-.2.135l-.611.375-2.387,1.422-8.86,5.2-.072.043-.074-.043-12.147-6.968-.093-.053v-.109c0-2.181-.005-4.452-.008-6.793q0-1.755,0-3.561,0-.9,0-1.815V66.18c-.022.036.188-.327.1-.174l12.131-6.991.093-.054.093.054,12.108,7.036.074.043v.084c-.03,4.31-.054,7.813-.071,10.271-.017,1.184-.03,2.115-.039,2.779-.008.3-.014.533-.018.717A1.11,1.11,0,0,1,397.986,80.182Z" transform="translate(-373.531 -58.961)"/><g transform="translate(0.199 7.215)"><path class="g" d="M398.049,68.459a5.9,5.9,0,0,1-.915.617l-2.567,1.555c-2.177,1.3-5.2,3.067-8.546,5-.4,0-.113,0-.2,0l-.005,0-.01-.006-.019-.011-.039-.022-.078-.046-.156-.09-.311-.179-.615-.356-1.2-.7-2.271-1.324-3.834-2.263-2.567-1.555a5.9,5.9,0,0,1-.915-.617,5.9,5.9,0,0,1,.992.483l2.631,1.446,3.877,2.189,2.282,1.3,1.206.693.616.355.311.179.157.09.078.046.04.022.02.011.01.006,0,0c-.087,0,.2,0-.193,0,3.349-1.933,6.392-3.664,8.6-4.9l2.63-1.447A5.893,5.893,0,0,1,398.049,68.459Z" transform="translate(-373.792 -68.457)"/></g><g transform="translate(12.15 14.071)"><path class="g" d="M389.72,91.459a61.925,61.925,0,0,1-.2-6.99,61.914,61.914,0,0,1,.2-6.99,61.778,61.778,0,0,1,.2,6.99A61.789,61.789,0,0,1,389.72,91.459Z" transform="translate(-389.522 -77.48)"/></g></g><g class="m" transform="translate(16.946 3.026)"><path class="n" d="M395.833,62.943" transform="translate(-395.833 -62.943)"/></g></g><g transform="translate(324.862 3370.103)"><g transform="translate(29.709 0)"><path class="o" d="M161.838,237.394a12.188,12.188,0,0,1,1.85-2.668l-1.03-2.829,4.188-2.7,2.148,2.108a12.224,12.224,0,0,1,3.2-.58L173.461,228l4.867,1.055.028,3.008a12.212,12.212,0,0,1,2.668,1.851l2.829-1.03,2.7,4.187-2.109,2.149a12.194,12.194,0,0,1,.58,3.194l2.728,1.271-1.055,4.867-3.009.029a12.178,12.178,0,0,1-1.851,2.668l1.03,2.829-4.188,2.7-2.149-2.109a12.181,12.181,0,0,1-3.194.581l-1.271,2.727-4.867-1.055-.028-3.009a12.183,12.183,0,0,1-2.668-1.85l-2.829,1.03-2.7-4.187,2.108-2.149a12.193,12.193,0,0,1-.58-3.194l-2.728-1.271,1.055-4.867,3.01-.028Zm5.749,4.242a5.343,5.343,0,1,0,6.353-4.09A5.343,5.343,0,0,0,167.587,241.636Z" transform="translate(-157.774 -228.002)"/><path class="p" d="M161.838,237.394a12.188,12.188,0,0,1,1.85-2.668l-1.03-2.829,4.188-2.7,2.148,2.108a12.224,12.224,0,0,1,3.2-.58L173.461,228l4.867,1.055.028,3.008a12.212,12.212,0,0,1,2.668,1.851l2.829-1.03,2.7,4.187-2.109,2.149a12.194,12.194,0,0,1,.58,3.194l2.728,1.271-1.055,4.867-3.009.029a12.178,12.178,0,0,1-1.851,2.668l1.03,2.829-4.188,2.7-2.149-2.109a12.181,12.181,0,0,1-3.194.581l-1.271,2.727-4.867-1.055-.028-3.009a12.183,12.183,0,0,1-2.668-1.85l-2.829,1.03-2.7-4.187,2.108-2.149a12.193,12.193,0,0,1-.58-3.194l-2.728-1.271,1.055-4.867,3.01-.028Zm5.749,4.242a5.343,5.343,0,1,0,6.353-4.09A5.343,5.343,0,0,0,167.587,241.636Z" transform="translate(-157.774 -228.002)"/></g><g transform="translate(0 7.1)"><g transform="translate(0.031 0.215)"><g transform="translate(0.115 0.173)"><path class="a" d="M121.794,244.678a8.868,8.868,0,0,1,1.331-1.934l-.751-2.043,3.022-1.96,1.559,1.52a8.829,8.829,0,0,1,2.308-.428l.913-1.976,3.523.751.027,2.176a8.787,8.787,0,0,1,1.935,1.332l2.043-.752,1.96,3.022-1.52,1.559a8.807,8.807,0,0,1,.427,2.309l1.976.913-.751,3.523-2.176.028a8.827,8.827,0,0,1-1.332,1.934l.752,2.043-3.022,1.96-1.559-1.52a8.835,8.835,0,0,1-2.309.428l-.913,1.976-3.523-.751-.028-2.176a8.8,8.8,0,0,1-1.934-1.331l-2.043.751-1.96-3.022,1.52-1.559a8.836,8.836,0,0,1-.428-2.308l-1.976-.913.751-3.523,2.176-.028Zm4.168,3.054a3.864,3.864,0,1,0,4.584-2.974A3.864,3.864,0,0,0,125.962,247.732Z" transform="translate(-118.867 -237.857)"/></g><g transform="translate(7.056 6.831)"><path class="i" d="M128.156,249.837c-.013,0,0-.088.025-.249a2.922,2.922,0,0,1,.22-.682,3.845,3.845,0,0,1,1.827-1.881,3.993,3.993,0,0,1,3.846.188,4.033,4.033,0,0,1-1.583,7.434,3.992,3.992,0,0,1-3.589-1.4,3.846,3.846,0,0,1-.9-2.463,2.888,2.888,0,0,1,.077-.713c.039-.16.065-.24.078-.237.039.006-.04.343,0,.944a3.854,3.854,0,0,0,.96,2.286,3.693,3.693,0,1,0,1.234-5.79,3.858,3.858,0,0,0-1.809,1.7C128.259,249.506,128.194,249.847,128.156,249.837Z" transform="translate(-128.001 -246.619)"/></g><path class="i" d="M121.757,244.623a3.753,3.753,0,0,1-.542.037l-1.634.054.061-.049c-.185.915-.425,2.1-.714,3.53l-.055-.112,1.982.9.064.029,0,.071a8.788,8.788,0,0,0,.435,2.274l.025.074-.055.058-1.511,1.567.017-.176,1.973,3.014-.185-.062,2.04-.759.093-.035.074.067a8.715,8.715,0,0,0,1.9,1.3l.092.046,0,.1c.01.674.022,1.418.033,2.175l-.14-.17,3.525.743-.206.1.91-1.977.047-.1.114-.006a8.693,8.693,0,0,0,2.258-.421l.11-.036.084.081,1.561,1.517-.241-.024,3.02-1.963-.077.233-.753-2.043-.041-.112.081-.088a8.669,8.669,0,0,0,1.3-1.889l0,0,.174-.109h.135l.137,0,.274,0,.546-.007,1.084-.014-.191.157q.382-1.786.752-3.523l.109.219-1.975-.914-.106-.05-.006-.117a8.611,8.611,0,0,0-.416-2.258l-.036-.111.081-.083,1.522-1.557-.024.234-1.954-3.025.216.071-2.045.748-.1.036-.079-.071a8.68,8.68,0,0,0-1.892-1.311l-.093-.048,0-.1c-.007-.746-.014-1.469-.021-2.176l.131.159-3.52-.764.169-.084-.921,1.972-.036.078-.085,0a8.73,8.73,0,0,0-2.276.41l-.076.024-.055-.055-1.55-1.528.145.014-3.037,1.937.035-.1c.289.815.528,1.486.729,2.052l.013.037-.026.027a9.431,9.431,0,0,0-1.07,1.4c-.2.327-.3.505-.309.493a.635.635,0,0,1,.052-.136c.041-.087.1-.22.2-.391a8.316,8.316,0,0,1,1.032-1.45l-.012.065c-.214-.561-.468-1.227-.776-2.035l-.025-.065.06-.039,3.007-1.984.078-.051.068.065,1.568,1.51-.131-.03a8.947,8.947,0,0,1,2.343-.445l-.122.082.9-1.979.05-.11.119.025,3.526.738.128.027,0,.132c.011.706.023,1.429.035,2.175l-.094-.15a8.98,8.98,0,0,1,1.976,1.353l-.18-.035,2.041-.757.136-.05.08.122,1.966,3.018.082.126-.106.108-1.517,1.561.045-.193a9.037,9.037,0,0,1,.439,2.359l-.112-.166,1.976.911.142.065-.033.154q-.369,1.736-.749,3.523l-.033.154-.158,0-1.085.014-.546.007-.274,0-.137,0h-.134l.173-.108v0a9.035,9.035,0,0,1-1.361,1.976l.039-.2c.258.7.514,1.4.751,2.043l.054.147-.131.085-3.023,1.958-.131.084-.11-.108-1.558-1.522.193.046a9.054,9.054,0,0,1-2.359.433l.161-.109-.916,1.974-.062.134-.144-.031-3.521-.758-.138-.03,0-.141c-.008-.758-.015-1.5-.022-2.176l.093.15a8.988,8.988,0,0,1-1.966-1.362l.166.032-2.045.745-.118.043-.068-.1q-1.024-1.594-1.947-3.03l-.061-.095.078-.08,1.527-1.552-.03.131a8.932,8.932,0,0,1-.419-2.343l.067.1-1.969-.927-.074-.034.017-.078c.318-1.423.583-2.6.787-3.515l.011-.05h.05l1.609.013.42.01A.7.7,0,0,1,121.757,244.623Z" transform="translate(-118.715 -237.629)"/></g><g transform="translate(6.921 6.992)"><path class="i" d="M128.1,249.82a2.857,2.857,0,0,1,.125-.464,3.8,3.8,0,0,1,.676-1.214,3.9,3.9,0,1,1,3.318,6.417,4.015,4.015,0,0,1-4.326-3.493,4.186,4.186,0,0,1-.031-.638c0-.106.008-.214.017-.319l.016-.159.008-.075,0-.031v0a.12.12,0,0,0,0,.028.2.2,0,0,0,.159.147l.216-.126a2.407,2.407,0,0,0-.091.481,3.7,3.7,0,0,0,2.231,3.722,3.782,3.782,0,0,0,5.17-4.3,3.815,3.815,0,0,0-4.859-2.828,3.9,3.9,0,0,0-1.8,1.186,4.112,4.112,0,0,0-.837,1.667,1.138,1.138,0,0,1,.07-.492,3.554,3.554,0,0,1,.648-1.272,3.975,3.975,0,0,1,1.849-1.3,4.056,4.056,0,0,1,2.982.166,4.124,4.124,0,1,1-5.848,3.409,2.647,2.647,0,0,1,.115-.582l.05-.153.165.027c.142.024.186.2.168.164a.3.3,0,0,1,0,.047v.036l0,.045-.009.078-.015.147c-.008.1-.014.2-.015.294a3.859,3.859,0,0,0,.027.581,3.674,3.674,0,0,0,1.816,2.719,3.6,3.6,0,1,0,3.407-6.346,3.692,3.692,0,0,0-2.715-.267,3.824,3.824,0,0,0-1.777,1.119A6.541,6.541,0,0,0,128.1,249.82Z" transform="translate(-127.782 -246.549)"/></g><path class="i" d="M121.747,244.555l-2.2.037.043-.035c-.193.916-.448,2.12-.76,3.6l-.04-.079L120.8,249l-.1.122-.038-.055.152-.05a8.867,8.867,0,0,0,.429,2.3l-.18.008.017-.074.158.087-1.561,1.606.013-.127,2.036,3.13-.136-.046,2.108-.778.018.234-.093-.018.106-.21a8.823,8.823,0,0,0,1.928,1.324l-.168.183-.052-.084.239-.07c.01.685.021,1.461.031,2.254l-.106-.13,3.681.78-.16.08.944-2.052.217.185-.09.062-.09-.271a8.843,8.843,0,0,0,2.3-.428l.013.294-.108-.025.141-.258,1.623,1.578-.2-.02,3.166-2.059-.065.194-.785-2.124.32-.026-.021.112-.288-.144a8.813,8.813,0,0,0,1.323-1.928l.239.226-.1.061-.093-.315,2.264-.033-.168.138c.242-1.141.51-2.409.782-3.7l.1.2L138.5,248.2l.225-.265.063.093-.33.11a8.8,8.8,0,0,0-.428-2.289l.353-.015-.025.108-.31-.169,1.576-1.622-.023.23-2.056-3.157.223.074-2.118.784-.03-.365.1.019-.163.327a8.788,8.788,0,0,0-1.916-1.313l.249-.273.052.084-.355.1c-.011-.7-.022-1.473-.033-2.249l.153.185-3.663-.771.217-.109-.935,2.039-.286-.244.068-.046.12.357a8.748,8.748,0,0,0-2.276.429l-.017-.378.074.017-.181.332-1.6-1.55.245.023-3.089,2.024.077-.234c.245.654.511,1.363.779,2.074l-.379.033.007-.036.342.169a8.053,8.053,0,0,0-1.14,1.637l-.076.142s0-.02-.017-.035a.081.081,0,0,0-.033-.016l-.01,0h-.006c.055-.014-.229-.166-.276-.068a.176.176,0,0,0-.037.03l-.012.014c-.007.009,0,0,0,0l.168-.287c.112-.2.237-.393.365-.581a9.36,9.36,0,0,1,.847-1.067l-.04.2c-.251-.7-.5-1.385-.746-2.068l.374,0-.02.059-.294-.229,3.03-1.946.087.361-.081-.008.157-.337,1.585,1.556-.2-.047a9.024,9.024,0,0,1,2.431-.441l-.168.112q.473-1.014.938-2.017l.264.256-.094.047-.046-.364,3.521.76-.19.311-.073-.089.342-.125q.013,1.126.024,2.234l-.1-.169a8.994,8.994,0,0,1,2.048,1.416l-.193-.037,2.1-.769.005.356-.121-.04.217-.281,1.955,3.026-.34.082.013-.131.318.147-1.568,1.6.043-.185a8.911,8.911,0,0,1,.451,2.456l-.1-.155,2.033.944-.234.242-.061-.122.334-.043c-.258,1.2-.509,2.373-.756,3.521l-.28-.17.107-.087.112.308-2.242.026.149-.092a8.961,8.961,0,0,1-1.419,2.053l.033-.17.772,2.107-.309,0,.043-.13.244.188L134,258.572l-.07-.289.134.014-.125.269-1.6-1.567.154.036a8.906,8.906,0,0,1-2.447.45l.128-.086-.942,2.033-.194-.188.115-.057.034.267-3.522-.754.132-.217.078.095-.238.087c-.009-.821-.017-1.536-.026-2.234l.071.112a8.874,8.874,0,0,1-2.033-1.4l.124.024-2.1.769,0-.217.1.035-.131.171-1.957-3.024.186-.046-.01.1-.173-.081,1.552-1.59-.021.093a8.874,8.874,0,0,1-.441-2.395l.048.07-2.01-.931.092-.1.031.062-.131.017.756-3.522.071.043-.034.028-.029-.077,2.177-.02a2.863,2.863,0,0,1-.536.046l-1.638.062-.126,0,.1-.081.033-.028.094-.079-.024.122-.7,3.532-.04.2-.092-.182-.032-.062-.09-.178.183.082,2.02.91.044.021,0,.05a8.791,8.791,0,0,0,.454,2.346l.017.052-.04.041-1.539,1.6-.2.21.028-.29.009-.1.027-.288.159.242,1.978,3.01.179.273-.312-.1-.1-.033-.309-.1.306-.114,2.091-.782.068-.025.055.049a8.645,8.645,0,0,0,1.985,1.352l.069.035,0,.078c.011.7.024,1.413.037,2.234l.007.383-.245-.3-.078-.1-.243-.3.375.079,3.525.738.4.084-.365.184-.115.058-.365.183.17-.372c.3-.647.6-1.306.933-2.036l.037-.082.09,0a8.631,8.631,0,0,0,2.365-.445l.087-.03.067.065,1.61,1.561.322.312-.448-.044-.135-.013-.447-.043.377-.245,3.017-1.966.391-.255-.147.444-.043.13-.147.444-.162-.438-.779-2.1-.036-.1.068-.074a8.623,8.623,0,0,0,1.363-1.985l.046-.09.1,0,2.242-.032.5-.007-.383.315-.106.088-.384.315.1-.486c.243-1.15.492-2.319.747-3.523l.106-.5.228.455.062.122.228.455-.463-.214-2.036-.939-.1-.046,0-.109a8.6,8.6,0,0,0-.438-2.361l-.035-.1.078-.081,1.564-1.606.368-.378-.052.526-.013.131-.052.527-.289-.444-1.96-3.022-.292-.451.51.169.121.04.511.169-.505.186-2.1.771-.109.04-.085-.077a8.61,8.61,0,0,0-1.966-1.357l-.1-.052v-.117q-.013-1.109-.026-2.233l-.007-.549.349.424.073.089.35.427-.54-.116-3.522-.756-.541-.116.5-.248.094-.047.5-.25-.235.506-.937,2.017-.05.108-.118.005a8.619,8.619,0,0,0-2.329.425l-.113.037-.085-.084-1.586-1.555-.4-.391.556.055.081.008.563.055-.476.306-3.03,1.947-.472.3.178-.532.019-.058.18-.539.193.535.747,2.068.041.113-.081.088a8.906,8.906,0,0,0-.812,1.022c-.124.182-.239.365-.35.558l-.172.295-.023.033-.015.019a.229.229,0,0,1-.04.032c-.046.1-.332-.054-.277-.068h0v-.011l0-.02a.641.641,0,0,1,0-.093.574.574,0,0,1,.051-.189l.083-.156a8.469,8.469,0,0,1,1.2-1.718l.479-.54-.137.708-.007.036-.133.689-.246-.656-.779-2.076-.056-.148.133-.087,3.09-2.023.132-.087.112.109,1.6,1.552.509.492-.69-.16-.073-.017-.681-.158.663-.22a9.161,9.161,0,0,1,2.378-.446l.7-.036-.584.393-.068.046-.577.39.291-.634c.322-.7.644-1.4.936-2.039l.065-.141.152.032,3.662.774.151.032,0,.154c.011.777.022,1.55.032,2.249l.009.69-.364-.586-.052-.084-.361-.58.609.307a9.153,9.153,0,0,1,2,1.374l.505.458-.669-.131-.1-.02-.666-.13.636-.234,2.119-.781.141-.052.082.126,2.051,3.16.081.125-.1.106-1.578,1.619-.46.472.15-.641.025-.108.149-.636.2.62a9.154,9.154,0,0,1,.441,2.385l.03.646-.361-.536-.063-.093-.361-.536.587.271,2.055.951.129.06-.03.139c-.275,1.286-.546,2.554-.791,3.694l-.029.135-.138,0-2.264.026-.612.007.52-.322.1-.061.517-.321-.277.548a9.185,9.185,0,0,1-1.375,1.988l-.4.44.114-.584.022-.112.115-.587.206.562.779,2.127.045.123-.109.071c-1.11.716-2.2,1.418-3.172,2.049l-.106.068-.09-.088-1.617-1.584-.392-.384.533.125.108.025.533.125-.52.169a9.11,9.11,0,0,1-2.377.434l-.529.024.438-.295.09-.061.441-.3-.224.482-.954,2.047-.049.1-.112-.024-3.678-.8-.106-.023v-.107c-.007-.793-.014-1.569-.02-2.254l0-.461.243.391.052.084.243.392-.41-.21a9.061,9.061,0,0,1-1.977-1.373l-.32-.294.426.084.093.018.431.085-.412.149-2.112.766-.087.031-.049-.077-2.015-3.144-.045-.069.058-.058,1.574-1.593.236-.239-.077.326-.017.074-.078.329-.1-.321a9,9,0,0,1-.417-2.353l-.012-.3.165.247.037.055.166.25-.27-.128-2.007-.951-.052-.024.013-.055.812-3.584.008-.035h.035l1.65.02.416.015C121.709,244.548,121.747,244.555,121.747,244.555Z" transform="translate(-118.674 -237.346)"/></g></g><g class="q" transform="translate(260.315 3227.981)"><path class="l" d="M144.114,108.093v6.776H33.725V40.956h7.368" transform="translate(-33.725 -40.956)"/><path class="r" d="M144.114,108.093v6.776H33.725V40.956h7.368" transform="translate(-33.725 -40.956)"/></g><g transform="translate(267.823 3220.641)"><g transform="translate(0.198 0.198)"><rect class="f" width="110.389" height="73.912"/></g><path class="s" d="M154.193,105.405s-.011-.462-.017-1.344-.01-2.194-.017-3.9c-.01-3.421-.023-8.439-.04-14.865-.02-12.841-.049-31.3-.084-53.8l.158.158-110.381.04H43.8l.2-.2c-.006,26.332-.011,51.372-.017,73.913l-.181-.181,79.529.089,22.721.049,6.044.022,1.56.011c.352,0,.536.011.536.011s-.169.007-.514.011l-1.539.011-6.008.022-22.68.049-79.647.09h-.182v-.182c0-22.541-.011-47.581-.017-73.913v-.2h.207l110.381.04h.159v.158c-.034,22.545-.063,41.037-.083,53.9-.017,6.41-.031,11.417-.04,14.829-.008,1.693-.014,2.988-.017,3.87S154.193,105.405,154.193,105.405Z" transform="translate(-43.606 -31.295)"/></g><g class="h" transform="translate(277.512 3235.142)"><rect class="t" width="29.446" height="29.446"/></g><g transform="translate(311.974 3248.74)"><path class="s" d="M153.011,68.474c0,.109-11.484.2-25.648.2s-25.65-.089-25.65-.2,11.482-.2,25.65-.2S153.011,68.364,153.011,68.474Z" transform="translate(-101.713 -68.276)"/></g><g transform="translate(311.974 3254.211)"><path class="s" d="M153.011,75.675c0,.109-11.484.2-25.648.2s-25.65-.088-25.65-.2,11.482-.2,25.65-.2S153.011,75.566,153.011,75.675Z" transform="translate(-101.713 -75.477)"/></g><g transform="translate(311.974 3259.684)"><path class="s" d="M132.031,82.877a6.832,6.832,0,0,1-1.191.077l-3.248.063c-2.744.036-6.533.058-10.718.058s-7.977-.022-10.72-.058l-3.249-.063a6.828,6.828,0,0,1-1.191-.077A6.984,6.984,0,0,1,102.9,82.8l3.249-.063c2.743-.036,6.533-.058,10.72-.058s7.974.022,10.718.058l3.248.063A6.988,6.988,0,0,1,132.031,82.877Z" transform="translate(-101.713 -82.679)"/></g><g transform="translate(279.354 3274.517)"><rect class="t" width="13.838" height="13.838" transform="translate(0)"/><rect class="u" width="13.838" height="13.838" transform="translate(0)"/></g><g transform="translate(304.45 3274.517)"><rect class="t" width="13.838" height="13.838"/><rect class="u" width="13.838" height="13.838"/></g><g transform="translate(329.547 3274.517)"><rect class="t" width="13.838" height="13.838"/><rect class="u" width="13.838" height="13.838"/></g><g transform="translate(354.643 3274.517)"><rect class="t" width="13.838" height="13.838"/><rect class="u" width="13.838" height="13.838"/></g><ellipse class="v" cx="22.809" cy="22.809" rx="22.809" ry="22.809" transform="translate(458.582 3230.39)"/></g></svg>