<svg xmlns="http://www.w3.org/2000/svg" width="404.796" height="354.593" viewBox="0 0 404.796 354.593"><defs><style>.a{fill:#e0e0e0;}.b{fill:#fafafa;}.c{fill:#ebebeb;}.d{fill:#f5f5f5;}.e{fill:#263238;}.f{fill:#455a64;}.g{fill:#2b56f5;}.h{fill:#ffc727;}.i{fill:#fcd770;}.j{fill:#535353;}.k{fill:#e8505b;}.l{fill:#fff;}.m{fill:#b78876;}.n{fill:#aa6550;}.o{opacity:0.4;}.p{opacity:0.3;}</style></defs><g transform="translate(-700.036 -3718.245)"><g transform="translate(1035.32 3937.762)"><g transform="translate(0 0)"><g transform="translate(0 0)"><rect class="a" width="4.897" height="36.655" transform="translate(0 4.897) rotate(-90)"/></g></g><g transform="translate(4.763 0.203)"><path class="b" d="M472.492,299.42a11.55,11.55,0,0,1,0,4.588,11.505,11.505,0,0,1,0-4.588Z" transform="translate(-472.261 -299.42)"/></g><g transform="translate(3.965 0.103)"><path class="b" d="M471.577,299.305a11.549,11.549,0,0,1,0,4.588,11.507,11.507,0,0,1,0-4.588Z" transform="translate(-471.346 -299.305)"/></g><g transform="translate(33.591 0.203)"><path class="b" d="M505.558,299.42a11.55,11.55,0,0,1,0,4.588,11.549,11.549,0,0,1,0-4.588Z" transform="translate(-505.328 -299.42)"/></g><g transform="translate(32.793 0.103)"><ellipse class="b" cx="0.231" cy="2.294" rx="0.231" ry="2.294"/></g><g transform="translate(9.483 2.366)"><path class="b" d="M496.428,302.131c0,.127-4.2.231-9.376.231s-9.376-.1-9.376-.231,4.2-.23,9.376-.23S496.428,302,496.428,302.131Z" transform="translate(-477.675 -301.901)"/></g></g><g transform="translate(1035.161 3959.81)"><g transform="translate(0 0)"><g transform="translate(0)"><rect class="a" width="9.794" height="36.655" transform="translate(0 9.794) rotate(-90)"/></g></g><g transform="translate(0.092 0.826)"><path class="b" d="M503.755,331.636a.792.792,0,0,1-.2.114c-.134.07-.339.165-.611.28a10.623,10.623,0,0,1-2.485.711,6.474,6.474,0,0,1-4.033-.572,5.371,5.371,0,0,1-1.915-1.736,4.04,4.04,0,0,1-.667-2.821,2.979,2.979,0,0,1,.674-1.459,1.929,1.929,0,0,1,1.547-.7,2.222,2.222,0,0,1,1.554.838,3.036,3.036,0,0,1,.709,1.67,4.444,4.444,0,0,1-1.263,3.472,5.583,5.583,0,0,1-3.523,1.722,9.363,9.363,0,0,1-4.09-.508,7.543,7.543,0,0,1-3.572-2.4,3.933,3.933,0,0,1-.833-2.115,2.748,2.748,0,0,1,.78-2.2,1.794,1.794,0,0,1,1.147-.5,2.1,2.1,0,0,1,1.2.337,3.183,3.183,0,0,1,1.35,1.976,4.613,4.613,0,0,1-1.445,4.314,7.211,7.211,0,0,1-4.127,1.68,10.17,10.17,0,0,1-4.278-.421,5.911,5.911,0,0,1-3.254-2.53,4.336,4.336,0,0,1-.408-3.891,2.046,2.046,0,0,1,1.5-1.265,2.364,2.364,0,0,1,1.847.445,3.058,3.058,0,0,1,.874,3.3,5.7,5.7,0,0,1-1.848,2.6,8.317,8.317,0,0,1-5.026,1.953,8.116,8.116,0,0,1-6.06-2.444,6.021,6.021,0,0,1-.439-.51.807.807,0,0,1-.129-.189,9.3,9.3,0,0,0,2.725,2.078,7.972,7.972,0,0,0,3.89.808,8.085,8.085,0,0,0,4.826-1.943,5.4,5.4,0,0,0,1.719-2.456,2.7,2.7,0,0,0-.763-2.894,1.981,1.981,0,0,0-1.541-.364,1.641,1.641,0,0,0-1.2,1.041,3.929,3.929,0,0,0,.4,3.509,5.48,5.48,0,0,0,3.033,2.332,9.743,9.743,0,0,0,4.086.389,6.774,6.774,0,0,0,3.867-1.57,4.162,4.162,0,0,0,1.3-3.871,2.72,2.72,0,0,0-1.143-1.689,1.4,1.4,0,0,0-1.787.108,2.3,2.3,0,0,0-.64,1.836,3.481,3.481,0,0,0,.738,1.873,7.123,7.123,0,0,0,3.354,2.256,8.952,8.952,0,0,0,3.9.5,5.172,5.172,0,0,0,3.277-1.577,4.059,4.059,0,0,0,1.18-3.152,2.339,2.339,0,0,0-1.9-2.194,1.581,1.581,0,0,0-1.273.573,2.657,2.657,0,0,0-.608,1.287,3.737,3.737,0,0,0,.591,2.607,5.112,5.112,0,0,0,1.794,1.669,6.342,6.342,0,0,0,3.884.621,11.635,11.635,0,0,0,2.476-.62C503.463,331.743,503.747,331.619,503.755,331.636Z" transform="translate(-466.721 -325.424)"/></g></g><g transform="translate(1038.435 3942.626)"><g transform="translate(0 0.174)"><g transform="translate(0 0)"><rect class="c" width="16.992" height="33.382" transform="translate(0 16.992) rotate(-90)"/></g></g><g transform="translate(5.316 0.757)"><path class="a" d="M476.7,305.635a73.625,73.625,0,0,1,.23,8.224,73.622,73.622,0,0,1-.23,8.225,73.617,73.617,0,0,1-.23-8.225A73.62,73.62,0,0,1,476.7,305.635Z" transform="translate(-476.469 -305.635)"/></g><g transform="translate(7.846 0.546)"><path class="a" d="M479.6,305.393a71.38,71.38,0,0,1,.231,8.118,71.378,71.378,0,0,1-.231,8.119,71.989,71.989,0,0,1-.23-8.119A71.991,71.991,0,0,1,479.6,305.393Z" transform="translate(-479.371 -305.393)"/></g><g transform="translate(29.378 0)"><path class="a" d="M504.3,304.767a79.545,79.545,0,0,1,.23,8.549,79.567,79.567,0,0,1-.23,8.551,79.41,79.41,0,0,1-.231-8.551A79.389,79.389,0,0,1,504.3,304.767Z" transform="translate(-504.068 -304.767)"/></g><g transform="translate(26.403 0.229)"><path class="a" d="M500.887,305.03a75.514,75.514,0,0,1,.23,8.329,75.509,75.509,0,0,1-.23,8.33,75.37,75.37,0,0,1-.231-8.33A75.375,75.375,0,0,1,500.887,305.03Z" transform="translate(-500.656 -305.03)"/></g></g><rect class="a" width="225.046" height="149.277" transform="translate(879.786 3749.337)"/><g transform="translate(700.036 3718.245)"><g transform="translate(0 3.075)"><path class="d" d="M36.219,89.844a38.132,38.132,0,1,1,38.74,37.687A38.271,38.271,0,0,1,36.219,89.844Zm56.357-.909a18.233,18.233,0,1,0-17.937,18.608A18.293,18.293,0,0,0,92.577,88.934Z" transform="translate(-36.214 -50.92)"/></g><g transform="translate(0 3.08)"><path class="a" d="M36.219,89.844A38.271,38.271,0,0,1,73.734,50.926l.319,19.989a18.317,18.317,0,0,0,.586,36.628l.32,19.989A38.257,38.257,0,0,1,36.219,89.844Z" transform="translate(-36.214 -50.926)"/></g><g transform="translate(34.096 0)"><path class="c" d="M75.324,47.4c24.6-.4,44.216,18.692,44.611,43.4l-23.278.375c-.189-11.814-9.178-19.252-20.938-19.062Z" transform="translate(-75.324 -47.393)"/></g></g><g transform="translate(812.659 3916.973)"><g transform="translate(0 0)"><rect class="a" width="96.295" height="27.123" rx="3.23"/></g><g transform="translate(9.852 8.503)"><ellipse class="d" cx="5.868" cy="5.895" rx="5.868" ry="5.895"/></g><g transform="translate(12.417 12.392)"><path class="a" d="M186.241,289.56a24.018,24.018,0,0,1-3.155,3.409l-.776.751-.159.154-.152-.156a16.575,16.575,0,0,1-2.356-2.679,16.594,16.594,0,0,1,2.668,2.368l-.31,0,.766-.759A23.814,23.814,0,0,1,186.241,289.56Z" transform="translate(-179.64 -289.556)"/></g><g transform="translate(29.084 11.26)"><path class="b" d="M256.489,288.484c0,.126-12.925.228-28.865.228s-28.867-.1-28.867-.228,12.922-.227,28.867-.227S256.489,288.359,256.489,288.484Z" transform="translate(-198.758 -288.257)"/></g><g transform="translate(29.338 16.171)"><path class="b" d="M256.781,294.118c0,.126-12.925.228-28.865.228s-28.867-.1-28.867-.228,12.922-.227,28.867-.227S256.781,293.992,256.781,294.118Z" transform="translate(-199.049 -293.891)"/></g></g><g transform="translate(866.068 3752.857)"><g transform="translate(0 0)"><g transform="translate(0.227 0.227)"><rect class="b" width="233.06" height="152.868"/></g><path class="e" d="M459.947,240.189c0-1.472-.071-59.632-.18-152.868l.18.18L226.9,87.548h-.019l.228-.228c-.007,54.364-.013,106.1-.019,152.868l-.208-.208,233.061.208-233.061.208h-.208v-.208c-.005-46.768-.011-98.5-.018-152.868v-.227h.246l233.042.046h.18v.18C460.016,180.557,459.948,238.718,459.947,240.189Z" transform="translate(-226.659 -87.094)"/></g><g transform="translate(17.538 58.835)"><g transform="translate(53.781 25.81)"><path class="f" d="M308.6,184.185l22.923.316c-.175,12.217-10.469,22.173-22.923,22.173h-.134Z" transform="translate(-308.465 -184.185)"/><g transform="translate(8.077 13.577)"><path class="e" d="M347.691,217.22a2.255,2.255,0,0,1-.49.039l-1.4.037-5.122.059h-.065l-.042-.052-7.562-9.527c-2.235-2.851-4.326-5.516-6.1-7.774l.118.058L320.284,200l-1.887-.042a3.583,3.583,0,0,1-.667-.046,3.685,3.685,0,0,1,.667-.046l1.887-.041,6.746-.063h.072l.046.058,6.136,7.742,7.5,9.578-.106-.051,5.122.059,1.4.036A2.277,2.277,0,0,1,347.691,217.22Z" transform="translate(-317.73 -199.758)"/></g><g transform="translate(31.427 33.505)"><path class="e" d="M359.347,222.792c0,.1-3.321.176-7.416.176s-7.417-.078-7.417-.176,3.321-.175,7.417-.175S359.347,222.7,359.347,222.792Z" transform="translate(-344.513 -222.617)"/></g><g transform="translate(31.427 36.252)"><path class="e" d="M359.347,225.943c0,.1-3.321.175-7.416.175s-7.417-.078-7.417-.175,3.321-.176,7.417-.176S359.347,225.846,359.347,225.943Z" transform="translate(-344.513 -225.767)"/></g></g><g transform="translate(27.363 0.058)"><path class="g" d="M301.089,177.136l-.322,22.486c-12.454-.172-22.6-10.268-22.6-22.486,0-12.337,10.349-22.489,22.926-22.489s22.926,10.152,22.926,22.489Z" transform="translate(-278.163 -154.647)"/></g><g transform="translate(20.639 1.165)"><path class="g" d="M291.149,169.944a1.488,1.488,0,0,1-.4.093l-1.14.182-4.118.578-.067.01-.051-.05-5.492-5.343c-2.639-2.588-5.014-4.946-6.72-6.664l-2.008-2.048a6.076,6.076,0,0,1-.7-.785,5.973,5.973,0,0,1,.8.688l2.086,1.969c1.751,1.673,4.153,4,6.792,6.59l5.448,5.389-.119-.04,4.133-.455,1.151-.1A1.476,1.476,0,0,1,291.149,169.944Z" transform="translate(-270.45 -155.916)"/></g><path class="g" d="M261.61,154.756c0,.1-3.321.175-7.416.175s-7.417-.078-7.417-.175,3.321-.176,7.417-.176S261.61,154.659,261.61,154.756Z" transform="translate(-246.776 -154.58)"/><g transform="translate(0 2.747)"><path class="g" d="M261.61,157.906c0,.1-3.321.176-7.416.176s-7.417-.078-7.417-.176,3.321-.175,7.417-.175S261.61,157.809,261.61,157.906Z" transform="translate(-246.776 -157.731)"/></g></g><g transform="translate(130.743 22.982)"><path class="g" d="M393.911,127.428l-.092-13.973a17.834,17.834,0,0,0-11.528,4.494,16.528,16.528,0,0,0-5.556,14.473,19.871,19.871,0,0,0,.326,2.03c0,.017.006.032.01.049h0l16.838-3.789Z" transform="translate(-376.626 -113.455)"/><g transform="translate(19.07 0.053)"><path class="g" d="M414.069,123.135a16.578,16.578,0,0,0-13.591-9.514c-.176-.017-.354-.034-.533-.047-.113-.008-.225-.019-.34-.025q-.5-.027-1.014-.03l-.046,0H398.5v0h0l.091,13.974.022,3.283,16.842,3.676.02,0h0a16.588,16.588,0,0,0,.374-3.623A18.137,18.137,0,0,0,414.069,123.135Z" transform="translate(-398.501 -113.516)"/></g><g transform="translate(1.348 19.002)"><path class="h" d="M395.011,135.251l-16.838,3.789a17.259,17.259,0,0,0,33.7-.114l-16.842-3.675" transform="translate(-378.173 -135.251)"/></g><g transform="translate(44.843 16.259)"><path class="e" d="M466.948,132.332c0,.126-8.7.228-19.441.228s-19.444-.1-19.444-.228,8.7-.227,19.444-.227S466.948,132.207,466.948,132.332Z" transform="translate(-428.063 -132.105)"/></g><g transform="translate(44.843 11.827)"><path class="e" d="M466.948,127.248c0,.126-8.7.227-19.441.227s-19.444-.1-19.444-.227,8.7-.227,19.444-.227S466.948,127.122,466.948,127.248Z" transform="translate(-428.063 -127.021)"/></g><g transform="translate(44.843 7.394)"><path class="e" d="M466.948,122.164c0,.126-8.7.227-19.441.227s-19.444-.1-19.444-.227,8.7-.228,19.444-.228S466.948,122.038,466.948,122.164Z" transform="translate(-428.063 -121.936)"/></g><g transform="translate(44.843 20.383)"><path class="e" d="M466.948,137.062c0,.126-8.7.228-19.441.228s-19.444-.1-19.444-.228,8.7-.227,19.444-.227S466.948,136.936,466.948,137.062Z" transform="translate(-428.063 -136.835)"/></g><g transform="translate(44.98 24.871)"><path class="e" d="M454.928,142.21c0,.126-5.979.228-13.354.228s-13.354-.1-13.354-.228,5.978-.227,13.354-.227S454.928,142.084,454.928,142.21Z" transform="translate(-428.22 -141.983)"/></g></g><g transform="translate(132.909 80.164)"><g transform="translate(1.897)"><rect class="g" width="4.005" height="44.731"/></g><g transform="translate(9.629 15.193)"><rect class="i" width="4.005" height="29.539"/></g><g transform="translate(17.362 5.56)"><rect class="g" width="4.005" height="39.399"/></g><g transform="translate(25.094 1.727)"><rect class="i" width="4.005" height="43.004"/></g><g transform="translate(32.827 16.102)"><rect class="h" width="4.005" height="28.63"/></g><g transform="translate(40.56 21.717)"><rect class="j" width="4.005" height="23.015"/></g><g transform="translate(48.292 4.591)"><rect class="g" width="4.005" height="40.14"/></g><g transform="translate(56.025 11.828)"><rect class="h" width="4.005" height="32.903"/></g><g transform="translate(63.757 6.045)"><rect class="h" width="4.005" height="38.686"/></g><g transform="translate(71.49 18.375)"><rect class="g" width="4.005" height="26.356"/></g><g transform="translate(79.223 13.36)"><rect class="j" width="4.005" height="31.372"/></g><g transform="translate(0 47.683)"><path class="e" d="M463.974,233.9c0,.091-19,.164-42.429.164s-42.434-.073-42.434-.164,18.995-.165,42.434-.165S463.974,233.812,463.974,233.9Z" transform="translate(-379.111 -233.739)"/></g><g transform="translate(1.665 51.203)"><path class="e" d="M386.966,237.942a26.892,26.892,0,0,1-5.945,0,26.894,26.894,0,0,1,5.945,0Z" transform="translate(-381.021 -237.777)"/></g><g transform="translate(10.365 51.383)"><path class="e" d="M398.1,238.148a38.373,38.373,0,0,1-7.1,0,38.37,38.37,0,0,1,7.1,0Z" transform="translate(-391 -237.983)"/></g><g transform="translate(18.774 51.383)"><path class="e" d="M407.75,238.148a38.374,38.374,0,0,1-7.1,0,38.37,38.37,0,0,1,7.1,0Z" transform="translate(-400.646 -237.983)"/></g><g transform="translate(27.184 51.383)"><path class="e" d="M417.4,238.148a38.373,38.373,0,0,1-7.1,0,38.37,38.37,0,0,1,7.1,0Z" transform="translate(-410.292 -237.983)"/></g><g transform="translate(35.593 51.383)"><path class="e" d="M427.042,238.148a38.374,38.374,0,0,1-7.1,0,38.37,38.37,0,0,1,7.1,0Z" transform="translate(-419.938 -237.983)"/></g><g transform="translate(44.003 51.383)"><path class="e" d="M436.689,238.148a38.383,38.383,0,0,1-7.105,0,38.379,38.379,0,0,1,7.105,0Z" transform="translate(-429.584 -237.983)"/></g><g transform="translate(52.412 51.383)"><path class="e" d="M446.335,238.148a38.383,38.383,0,0,1-7.105,0,38.379,38.379,0,0,1,7.105,0Z" transform="translate(-439.23 -237.983)"/></g><g transform="translate(60.823 51.383)"><path class="e" d="M455.981,238.148a38.373,38.373,0,0,1-7.1,0,38.37,38.37,0,0,1,7.1,0Z" transform="translate(-448.877 -237.983)"/></g><g transform="translate(69.232 51.383)"><path class="e" d="M465.627,238.148a38.374,38.374,0,0,1-7.1,0,38.37,38.37,0,0,1,7.1,0Z" transform="translate(-458.523 -237.983)"/></g><g transform="translate(77.642 51.383)"><path class="e" d="M475.273,238.148a38.374,38.374,0,0,1-7.1,0,38.37,38.37,0,0,1,7.1,0Z" transform="translate(-468.169 -237.983)"/></g></g><g transform="translate(20.832 25.105)"><path class="k" d="M258.265,119.745a3.856,3.856,0,1,1-3.855-3.855A3.855,3.855,0,0,1,258.265,119.745Z" transform="translate(-250.554 -115.89)"/></g><g transform="translate(36.761 25.692)"><path class="k" d="M326.89,116.791c0,.126-13,.227-29.031.227s-29.034-.1-29.034-.227,13-.227,29.034-.227S326.89,116.665,326.89,116.791Z" transform="translate(-268.825 -116.564)"/></g><g transform="translate(37.184 30.354)"><path class="k" d="M292.2,122.139a3.518,3.518,0,0,1-.9.088c-.579.027-1.418.051-2.452.072-2.071.041-4.932.066-8.091.066s-6.022-.025-8.092-.066c-1.036-.021-1.874-.045-2.452-.072a3.53,3.53,0,0,1-.9-.088,3.45,3.45,0,0,1,.9-.089c.579-.027,1.417-.051,2.452-.072,2.071-.041,4.932-.066,8.092-.066s6.02.025,8.091.066c1.035.021,1.874.045,2.452.072A3.439,3.439,0,0,1,292.2,122.139Z" transform="translate(-269.311 -121.911)"/></g></g><g transform="translate(739.344 3766.695)"><g transform="translate(0 0)"><g transform="translate(0.227 0.227)"><rect class="b" width="121.977" height="139.209"/></g><path class="e" d="M203.506,242.4s-.008-.227-.011-.662-.006-1.086-.011-1.935c-.005-1.709-.013-4.23-.024-7.513-.012-6.573-.031-16.19-.053-28.4-.024-24.408-.059-59.185-.1-100.7l.2.2-121.964.026H81.53l.227-.227c-.013,51.323-.024,99.185-.035,139.209l-.192-.192,88.471.1,24.737.05,6.519.022c1.477.008,2.249.022,2.249.022s-.744.014-2.207.021l-6.484.023-24.692.05-88.593.1h-.192V242.4c-.01-40.024-.023-87.885-.036-139.209v-.227h.24l121.964.026h.2v.2c-.042,41.564-.077,76.385-.1,100.825-.023,12.194-.04,21.8-.052,28.358-.01,3.266-.018,5.774-.024,7.474q-.007,1.258-.011,1.913C203.514,242.191,203.506,242.4,203.506,242.4Z" transform="translate(-81.302 -102.967)"/></g><g transform="translate(15.19 68.168)"><path class="k" d="M195.255,184.3c-.04.083-1.35-.677-3.922-1.491a25.224,25.224,0,0,0-11.249-.835,24.593,24.593,0,0,0-7.418,2.384,34.941,34.941,0,0,0-7.3,5.247c-2.391,2.111-4.766,4.507-7.5,6.723a25.907,25.907,0,0,1-9.58,5.185,14.483,14.483,0,0,1-5.593.337,18.131,18.131,0,0,1-5.183-1.6,90.632,90.632,0,0,1-8.682-5.163,27.1,27.1,0,0,0-8.165-3.661,24.267,24.267,0,0,0-7.767-.6,25.027,25.027,0,0,0-10.722,3.491c-2.3,1.406-3.386,2.464-3.447,2.39a5.394,5.394,0,0,1,.779-.766,18.625,18.625,0,0,1,2.5-1.9,24.457,24.457,0,0,1,18.822-3.292,27.516,27.516,0,0,1,8.405,3.676,92.958,92.958,0,0,0,8.623,5.077,14.775,14.775,0,0,0,10.23,1.2,25.3,25.3,0,0,0,9.273-5.014c2.7-2.166,5.081-4.547,7.508-6.662a35.1,35.1,0,0,1,7.491-5.287,24.845,24.845,0,0,1,19.08-1.241,19.892,19.892,0,0,1,2.881,1.24A5.345,5.345,0,0,1,195.255,184.3Z" transform="translate(-98.726 -181.159)"/><g transform="translate(5.191 5.367)"><g transform="translate(13.42 16.47)"><rect class="h" width="10.37" height="28.046"/></g><g transform="translate(57.423 16.47)"><rect class="h" width="10.37" height="28.046"/></g><g transform="translate(72.091)"><rect class="h" width="10.37" height="44.516"/></g><g transform="translate(0 35.687)"><rect class="h" width="10.37" height="9.439"/></g><g transform="translate(28.087 29.135)"><rect class="h" width="10.37" height="15.381"/></g><g transform="translate(42.755 25.604)"><rect class="h" width="10.37" height="18.912"/></g></g><g transform="translate(5.289 52.772)"><g transform="translate(12.904)"><path class="e" d="M130.8,242.107c0,.23-2.508.417-5.6.417s-5.6-.187-5.6-.417,2.508-.417,5.6-.417S130.8,241.877,130.8,242.107Z" transform="translate(-119.594 -241.69)"/></g><path class="e" d="M116,242.107c0,.23-2.509.417-5.6.417s-5.6-.187-5.6-.417,2.508-.417,5.6-.417S116,241.877,116,242.107Z" transform="translate(-104.793 -241.69)"/><g transform="translate(71.739)"><path class="e" d="M199.748,242.107c0,.23-2.836.417-6.333.417s-6.334-.187-6.334-.417,2.835-.417,6.334-.417S199.748,241.877,199.748,242.107Z" transform="translate(-187.081 -241.69)"/></g><g transform="translate(56.334 0)"><ellipse class="e" cx="6.333" cy="0.417" rx="6.333" ry="0.417"/></g><g transform="translate(41.822)"><path class="e" d="M163.969,242.107c0,.23-2.509.418-5.6.418s-5.6-.187-5.6-.418,2.508-.417,5.6-.417S163.969,241.877,163.969,242.107Z" transform="translate(-152.764 -241.69)"/></g><g transform="translate(26.667)"><path class="e" d="M146.586,242.107c0,.23-2.509.418-5.6.418s-5.6-.187-5.6-.418,2.508-.417,5.6-.417S146.586,241.877,146.586,242.107Z" transform="translate(-135.381 -241.69)"/></g></g></g><g transform="translate(20.137 20.521)"><rect class="a" width="84.749" height="35.195"/><g transform="translate(9.706 7.173)"><path class="e" d="M123.434,138.684a3.951,3.951,0,1,1-3.95-3.951A3.951,3.951,0,0,1,123.434,138.684Z" transform="translate(-115.533 -134.733)"/><g transform="translate(11.852 1.222)"><rect class="e" width="27.529" height="1.528"/></g><g transform="translate(11.852 4.695)"><rect class="l" width="53.552" height="1.528"/></g></g><g transform="translate(9.706 19.319)"><path class="g" d="M123.434,152.616a3.951,3.951,0,1,1-3.95-3.951A3.951,3.951,0,0,1,123.434,152.616Z" transform="translate(-115.533 -148.665)"/><g transform="translate(11.852 1.222)"><rect class="g" width="14.058" height="1.528"/></g><g transform="translate(11.852 4.695)"><rect class="g" width="53.552" height="1.528"/></g></g></g></g><g transform="translate(867.031 3874.955)"><g transform="translate(43.725 58.755)"><g transform="translate(17.795 33.988)"><rect class="e" width="51.947" height="2.527"/></g><path class="e" d="M333.661,331.053l-9.744-36.515h40.561l8.824,36.515Z" transform="translate(-323.917 -294.539)"/><g transform="translate(2.284 1.687)"><path class="d" d="M371.207,328.537H334.971l-8.434-32.063h36.422Z" transform="translate(-326.537 -296.474)"/></g><g transform="translate(2.284 1.687)"><path class="c" d="M327.144,298.779h36.429l-.613-2.305H326.537Z" transform="translate(-326.537 -296.474)"/></g><g transform="translate(4.083 2.442)"><g transform="translate(2.741)"><path class="b" d="M331.745,297.738a.4.4,0,1,0,.4-.4A.4.4,0,0,0,331.745,297.738Z" transform="translate(-331.745 -297.34)"/></g><g transform="translate(1.37)"><path class="b" d="M330.173,297.738a.4.4,0,1,0,.4-.4A.4.4,0,0,0,330.173,297.738Z" transform="translate(-330.173 -297.34)"/></g><path class="b" d="M328.6,297.738a.4.4,0,1,0,.4-.4A.4.4,0,0,0,328.6,297.738Z" transform="translate(-328.601 -297.34)"/></g><g transform="translate(10.378 9.863)"><g transform="translate(13.449 2.361)"><path class="h" d="M357.687,314.378l3.989,4.564a5.639,5.639,0,0,0,2.45-4.589c-.013-3.192-2.929-5.806-6.462-5.792s-6.428,2.651-6.416,5.843Z" transform="translate(-351.248 -308.56)"/></g><g transform="translate(12.91 8.809)"><path class="e" d="M357.1,316.056a9.136,9.136,0,0,1,1.138,1.142c.712.764,1.731,1.88,2.949,3.242l.138.154-.171.129a6.9,6.9,0,0,1-6.726.66,6.575,6.575,0,0,1-2.766-2.225,5.668,5.668,0,0,1-1.026-3l-.008-.2h.2c1.909-.01,3.49,0,4.585.016a9.861,9.861,0,0,1,1.689.081,11.9,11.9,0,0,1-1.756.136c-1.1.051-2.653.108-4.512.157l.192-.2a5.364,5.364,0,0,0,.994,2.761,6.241,6.241,0,0,0,2.591,2.061,6.611,6.611,0,0,0,6.322-.556l-.034.282c-1.155-1.352-2.108-2.493-2.773-3.3A11.015,11.015,0,0,1,357.1,316.056Z" transform="translate(-350.629 -315.955)"/></g><g transform="translate(16.776 4.373)"><path class="e" d="M355.064,311.23a.361.361,0,1,0,.36-.363A.361.361,0,0,0,355.064,311.23Z" transform="translate(-355.064 -310.867)"/></g><g transform="translate(9.6 1.877)"><path class="e" d="M346.833,308.249a20.656,20.656,0,0,1,4.309-.244h.67l.065.065a17.016,17.016,0,0,1,2.493,2.791,16.952,16.952,0,0,1-2.81-2.472l.159.065-.574,0A20.625,20.625,0,0,1,346.833,308.249Z" transform="translate(-346.833 -308.005)"/></g><path class="e" d="M337.264,312.54a13.459,13.459,0,0,1-.412-1.683c-.244-1.107-.59-2.725-.987-4.707l-.044-.217.225,0,9.015-.078c-.048-.041.425.35.225.186v.011l0,.014.005.027.01.054.02.107.041.215.08.427q.081.426.16.846.157.838.308,1.647c.2,1.074.388,2.1.568,3.077l.045.245h-.247c-2.708-.007-4.987-.039-6.569-.071l-1.828-.049a2.616,2.616,0,0,1-.62-.05,4.131,4.131,0,0,1,.7-.055l1.869-.064c1.592-.044,3.821-.1,6.448-.123l-.2.244c-.189-.971-.389-2-.6-3.071q-.156-.808-.316-1.646c-.053-.279-.106-.561-.16-.845l-.082-.427-.041-.215-.02-.107-.01-.054-.005-.027,0-.014,0-.006v-.005c-.2-.166.272.223.223.184l-9.015-.007.18-.219c.342,1.915.605,3.509.785,4.64A17.2,17.2,0,0,1,337.264,312.54Z" transform="translate(-335.821 -305.852)"/><g transform="translate(10.052 11.632)"><g transform="translate(6.188)"><path class="e" d="M354.449,319.557a.361.361,0,1,0,.36-.363A.361.361,0,0,0,354.449,319.557Z" transform="translate(-354.449 -319.194)"/></g><g transform="translate(0 0.147)"><path class="e" d="M347.351,319.6a23.766,23.766,0,0,1,6.549-.026,23.769,23.769,0,0,1-6.549.026Z" transform="translate(-347.351 -319.362)"/></g></g><g transform="translate(0.043 9.845)"><path class="e" d="M337.3,322.164a7.761,7.761,0,0,1-.4-1.2c-.238-.8-.579-1.99-.98-3.471l-.057-.209.221,0c2.454-.045,5.721-.079,9.3-.093l.221.171v0l0,0,0,.01.005.02.01.038.02.078.039.155.079.31.157.614c.1.406.206.808.306,1.2.2.788.391,1.552.575,2.283l.067.267H346.6c-2.758,0-5.107-.037-6.748-.07l-1.9-.052a2.642,2.642,0,0,1-.649-.054,3.994,3.994,0,0,1,.729-.06l1.941-.067c1.649-.046,3.948-.1,6.627-.123l-.206.266-.6-2.278q-.153-.592-.311-1.2l-.159-.614-.079-.31-.04-.156-.02-.078-.01-.039-.005-.019,0-.01v-.008h0l.22.17c-3.575.014-6.842.006-9.3-.02l.165-.213c.344,1.425.609,2.6.79,3.426A10.363,10.363,0,0,1,337.3,322.164Z" transform="translate(-335.87 -317.145)"/></g><g transform="translate(2.158 1.995)"><path class="e" d="M338.3,308.379a21.1,21.1,0,0,1,6.168-.024,21.012,21.012,0,0,1-6.168.024Z" transform="translate(-338.296 -308.14)"/></g><g transform="translate(2.234 3.004)"><path class="e" d="M338.383,309.537a21.344,21.344,0,0,1,6.2-.024,21.265,21.265,0,0,1-6.2.024Z" transform="translate(-338.383 -309.298)"/></g><g transform="translate(2.418 3.978)"><path class="e" d="M338.594,310.654a19.854,19.854,0,0,1,5.988-.023,19.849,19.849,0,0,1-5.988.023Z" transform="translate(-338.594 -310.415)"/></g><g transform="translate(2.34 11.698)"><path class="e" d="M338.5,319.509a19.137,19.137,0,0,1,5.879-.024,19.142,19.142,0,0,1-5.879.024Z" transform="translate(-338.505 -319.27)"/></g><g transform="translate(2.705 12.817)"><path class="e" d="M338.924,320.79a13.948,13.948,0,0,1,5.014-.02,13.95,13.95,0,0,1-5.014.02Z" transform="translate(-338.924 -320.553)"/></g></g></g><g transform="translate(0 95.15)"><path class="e" d="M273.763,336.285v4.789H276.9v96.954h6.435V341.074h34.15v96.954h6.435V341.074H472.066v96.931H478.5V341.074h2.785v-4.789Z" transform="translate(-273.763 -336.285)"/></g><g transform="translate(139.522 131.1)"><path class="e" d="M433.8,377.7a50.044,50.044,0,0,0,8.368,0,49.8,49.8,0,0,0-8.368,0Z" transform="translate(-433.8 -377.522)"/></g><g transform="translate(78.35 132.043)"><ellipse class="f" cx="0.227" cy="0.111" rx="0.227" ry="0.111"/></g><g transform="translate(63.627 0)"><g transform="translate(19.416 8.934)"><path class="m" d="M405.552,274.426l-24.034-24.418-.52-2.643c-.1-.484-.2-1.023-.294-1.636a6.5,6.5,0,0,1,.037-2.152,9.756,9.756,0,0,1,.741-2.559c.4-.708-.243-1.561-.913-1.268s-1.832,2.213-2.083,4.85-2.5-.862-3.343-2.122-3.625-5.036-4.206-5.082c-.851-.065-1.069.856-.2,2.095.88,1.255,3.224,5.14,2.557,5.558l-.025,0a3.145,3.145,0,0,0-3.32,1.647c-.607,1.166-1.282,2.818-.729,3.58a43.211,43.211,0,0,0,3.832,4.058l.8.692s20.793,30.129,25.324,31.108c2.819.609,46.392,4.223,46.392,4.223l3.287-12Z" transform="translate(-369.017 -237.392)"/><g transform="translate(0.016 10.681)"><g transform="translate(0.003 0.003)"><path class="m" d="M369.04,251.335l2.224,2.136a2.627,2.627,0,0,0,.837.614.8.8,0,0,0,1.1-1.05,2.646,2.646,0,0,0-.511-.791l-2.161-2.6" transform="translate(-369.04 -249.647)"/></g><path class="n" d="M370.53,249.647c.048-.04.466.373,1.1,1.073l1.1,1.245a4.076,4.076,0,0,1,.613.83,1.175,1.175,0,0,1-.061,1.234,1.088,1.088,0,0,1-1.216.279,2.455,2.455,0,0,1-.871-.613l-1.164-1.186a5.236,5.236,0,0,1-.992-1.175,5.246,5.246,0,0,1,1.214.944l1.23,1.113a2.151,2.151,0,0,0,.727.5.66.66,0,0,0,.716-.139.752.752,0,0,0,.015-.762,4.049,4.049,0,0,0-.533-.754l-1.024-1.307A5.252,5.252,0,0,1,370.53,249.647Z" transform="translate(-369.036 -249.644)"/></g><g transform="translate(1.594 9.128)"><g transform="translate(0.003 0.003)"><path class="m" d="M370.85,249.553l2.224,2.135a2.643,2.643,0,0,0,.837.615.8.8,0,0,0,1.1-1.05,2.625,2.625,0,0,0-.512-.792l-2.16-2.6" transform="translate(-370.85 -247.865)"/></g><path class="n" d="M372.34,247.865c.048-.04.466.372,1.1,1.072l1.1,1.245a4.1,4.1,0,0,1,.613.83,1.175,1.175,0,0,1-.061,1.234,1.088,1.088,0,0,1-1.216.279,2.454,2.454,0,0,1-.871-.613l-1.164-1.186a5.269,5.269,0,0,1-.992-1.174,5.193,5.193,0,0,1,1.214.943l1.23,1.113a2.159,2.159,0,0,0,.727.5.663.663,0,0,0,.716-.139.753.753,0,0,0,.015-.763,4.042,4.042,0,0,0-.533-.753l-1.024-1.307A5.256,5.256,0,0,1,372.34,247.865Z" transform="translate(-370.846 -247.862)"/></g><g transform="translate(3.326 7.853)"><g transform="translate(0.003 0.003)"><path class="m" d="M372.836,248.092l2.223,2.135a2.656,2.656,0,0,0,.838.615.8.8,0,0,0,1.1-1.05,2.642,2.642,0,0,0-.512-.792l-2.16-2.6" transform="translate(-372.836 -246.403)"/></g><path class="n" d="M374.326,246.4c.048-.04.466.373,1.1,1.073l1.1,1.245a4.076,4.076,0,0,1,.613.83,1.175,1.175,0,0,1-.061,1.234,1.088,1.088,0,0,1-1.216.279,2.454,2.454,0,0,1-.871-.613l-1.164-1.186a5.239,5.239,0,0,1-.992-1.174,5.192,5.192,0,0,1,1.214.943l1.23,1.113a2.165,2.165,0,0,0,.726.5.665.665,0,0,0,.717-.139.756.756,0,0,0,.015-.763,4.082,4.082,0,0,0-.533-.753l-1.024-1.307A5.231,5.231,0,0,1,374.326,246.4Z" transform="translate(-372.832 -246.4)"/></g><g transform="translate(6.843 9.613)"><path class="n" d="M376.867,252.044c-.006-.072.551-.183,1.355.064l-.256.219a3.8,3.8,0,0,1-.057-1.527,3.894,3.894,0,0,1,.833-1.858c.343-.4.632-.558.668-.515a7.955,7.955,0,0,0-1.052,2.446,4.522,4.522,0,0,0-.013,1.377l.047.349-.3-.129C377.392,252.173,376.864,252.133,376.867,252.044Z" transform="translate(-376.867 -248.419)"/></g></g><g transform="translate(61.929)"><g transform="translate(3.777 5.245)"><path class="m" d="M443.84,237.278l.1,33.447-13.041.622-.528-8.016s-6.291.956-7.607-3.778c-.84-3.023-.629-26.391-.629-26.391Z" transform="translate(-422.113 -233.161)"/></g><path class="e" d="M418.341,235.689c.967,2,5.569,5.655,5.569,5.655l2.079,5.572c1.805-1.414,4.231-1.333,4.689,1.841.332,2.293-2.52,2.757-2.52,2.757a41.593,41.593,0,0,0,5.2,7.8c2.615,2.907,4.081,3.2,6.918,3.248h3.128s6.4-5.349,5.136-19.437-13.931-9.978-16.953-13.5C426.667,223.891,415.115,229.017,418.341,235.689Z" transform="translate(-417.781 -227.145)"/><g transform="translate(0.685 5.381)"><path class="f" d="M447.933,255.692a4.492,4.492,0,0,1-1.547-.071,8.047,8.047,0,0,1-3.737-1.922,20.32,20.32,0,0,1-3.777-5c-1.219-1.99-2.55-4.314-4.793-5.861-2.268-1.518-4.935-1.827-7.225-2.3a13.639,13.639,0,0,1-5.835-2.22,6.273,6.273,0,0,1-2.337-3.463,3.594,3.594,0,0,1-.064-1.547,5.324,5.324,0,0,0,.133,1.53,6.27,6.27,0,0,0,2.347,3.377,13.641,13.641,0,0,0,5.788,2.158c2.284.46,4.975.76,7.3,2.309,2.289,1.582,3.622,3.932,4.834,5.926a20.529,20.529,0,0,0,3.718,4.985,8.129,8.129,0,0,0,3.666,1.95,6.349,6.349,0,0,0,1.134.134C447.794,255.684,447.933,255.692,447.933,255.692Z" transform="translate(-418.566 -233.317)"/></g><g transform="translate(0.85 3.518)"><path class="f" d="M448.7,243.96s-.234-.068-.675-.2a10.049,10.049,0,0,0-1.962-.437,4.406,4.406,0,0,0-3.021.676,2.483,2.483,0,0,0-1.051,1.587,2.207,2.207,0,0,0,.609,2,1.679,1.679,0,0,0,1.054.418,2.211,2.211,0,0,0,1.161-.317,3.568,3.568,0,0,0,1.577-2.013,4.993,4.993,0,0,0-4.208-6.546,8.765,8.765,0,0,0-3.241.426,22.988,22.988,0,0,1-3.356.806,13.65,13.65,0,0,1-3.558.009,11.732,11.732,0,0,1-3.431-.951,4.145,4.145,0,0,1-2.349-2.475,3.238,3.238,0,0,1,.8-3.159,2.786,2.786,0,0,1,3.064-.452,2.342,2.342,0,0,1,1.135,1.069,2.557,2.557,0,0,1,.241,1.5,3.409,3.409,0,0,1-1.527,2.391,4.894,4.894,0,0,1-2.576.717,7.6,7.6,0,0,1-2.444-.377,8.747,8.747,0,0,1-3.59-2.214,9.214,9.214,0,0,1-2.483-4.531c-.078-.457-.109-.7-.109-.7s.056.236.145.689a9.791,9.791,0,0,0,.677,1.892,9.219,9.219,0,0,0,1.841,2.575,8.686,8.686,0,0,0,3.557,2.163,7.5,7.5,0,0,0,2.4.358,4.767,4.767,0,0,0,2.5-.7,3.26,3.26,0,0,0,1.45-2.284,2.242,2.242,0,0,0-1.289-2.4,2.618,2.618,0,0,0-2.873.425,3.065,3.065,0,0,0-.746,2.986,3.974,3.974,0,0,0,2.255,2.362,11.588,11.588,0,0,0,3.376.933,13.479,13.479,0,0,0,3.511-.008,22.758,22.758,0,0,0,3.331-.8,8.9,8.9,0,0,1,3.307-.426,5.15,5.15,0,0,1,4.333,6.766,3.705,3.705,0,0,1-1.649,2.087,2.363,2.363,0,0,1-1.236.33,1.816,1.816,0,0,1-1.135-.458,2.325,2.325,0,0,1-.636-2.112,2.588,2.588,0,0,1,1.105-1.649,4.467,4.467,0,0,1,3.087-.663,9.6,9.6,0,0,1,1.967.473C448.471,243.868,448.7,243.96,448.7,243.96Z" transform="translate(-418.756 -231.18)"/></g></g><g transform="translate(71.051 175.208)"><path class="g" d="M433.336,441.634l-4.263-5.469,10.194-8.05,6.321,7.936-.6.54c-2.69,2.377-13.843,11.9-16.173,12.814C426.215,450.425,433.336,441.634,433.336,441.634Z" transform="translate(-428.244 -428.115)"/><g class="o" transform="translate(0.005 7.721)"><path class="l" d="M429.977,447.216s-2.344,3.273-1.571,3.474,12.407-9,17.183-13.5l-.2-.215-13.477,10.844S430.59,446.772,429.977,447.216Z" transform="translate(-428.249 -436.971)"/></g><g transform="translate(0.023 7.588)"><path class="e" d="M445.55,436.819a1.127,1.127,0,0,1-.16.157l-.479.428-1.789,1.544c-1.52,1.294-3.642,3.052-6.029,4.942s-4.586,3.554-6.193,4.737l-1.913,1.387-.527.368a.113.113,0,1,1-.019-.025l.509-.391,1.882-1.427c1.589-1.206,3.776-2.882,6.162-4.771s4.519-3.634,6.056-4.9l1.82-1.506.5-.405A1.183,1.183,0,0,1,445.55,436.819Z" transform="translate(-428.271 -436.819)"/></g><g transform="translate(1.561 17.822)"><path class="e" d="M432.272,449.458a3.426,3.426,0,0,0-2.237-.82,2.1,2.1,0,0,1,2.237.82Z" transform="translate(-430.035 -448.557)"/></g><g transform="translate(4.389 14.384)"><path class="e" d="M434.488,445.049a1.366,1.366,0,0,1-.63-.137c-.334-.116-.593-.244-.579-.285a1.367,1.367,0,0,1,.63.137C434.243,444.881,434.5,445.008,434.488,445.049Z" transform="translate(-433.278 -444.614)"/></g><g transform="translate(4.991 13.611)"><path class="e" d="M435.056,443.847c0,.044-.248.063-.548.044s-.541-.07-.539-.113.248-.063.548-.044S435.059,443.8,435.056,443.847Z" transform="translate(-433.969 -443.727)"/></g><g transform="translate(4.782 12.353)"><path class="e" d="M434.787,442.288c.028.034-.187.252-.478.488s-.55.4-.577.365.187-.252.478-.488S434.76,442.254,434.787,442.288Z" transform="translate(-433.729 -442.284)"/></g><g transform="translate(4.347 11.536)"><path class="e" d="M434.366,441.349a1.328,1.328,0,0,1-.457.641,1.311,1.311,0,0,1-.677.4c-.022-.039.263-.233.57-.518S434.328,441.323,434.366,441.349Z" transform="translate(-433.231 -441.347)"/></g><g transform="translate(2.103 13.981)"><path class="e" d="M433.1,444.374a2.4,2.4,0,0,1-.658.514,4.861,4.861,0,0,1-.819.4,2.415,2.415,0,0,1-.528.152.453.453,0,0,1-.323-.076.327.327,0,0,1-.107-.34,1.531,1.531,0,0,1,1.762-.823,1.5,1.5,0,0,1,.56.268c.114.092.163.157.156.163a2.358,2.358,0,0,0-.739-.323,1.505,1.505,0,0,0-.847.079,1.289,1.289,0,0,0-.738.67c-.044.16.094.249.264.228a2.484,2.484,0,0,0,.493-.134,5.837,5.837,0,0,0,.813-.357C432.837,444.551,433.087,444.354,433.1,444.374Z" transform="translate(-430.656 -444.151)"/></g><g transform="translate(3.771 12.553)"><path class="e" d="M433.2,444.331c0,.015-.233-.076-.435-.394a1.381,1.381,0,0,1-.2-.62.837.837,0,0,1,.282-.765.331.331,0,0,1,.44.142.9.9,0,0,1,.12.381,2.5,2.5,0,0,1,0,.64,1.193,1.193,0,0,1-.166.561c-.024-.007.038-.221.054-.57a2.932,2.932,0,0,0-.036-.609c-.02-.21-.155-.507-.343-.407a.749.749,0,0,0-.212.619,1.381,1.381,0,0,0,.152.572A2.906,2.906,0,0,0,433.2,444.331Z" transform="translate(-432.57 -442.514)"/></g><g transform="translate(12.798 4.964)"><path class="e" d="M445.016,433.81c.016.024-.314.2-.731.621a4.07,4.07,0,0,0-.987,4.238c.19.56.407.865.382.881a.764.764,0,0,1-.163-.206,3.488,3.488,0,0,1-.323-.637,3.946,3.946,0,0,1,1.015-4.356,3.391,3.391,0,0,1,.571-.428A.737.737,0,0,1,445.016,433.81Z" transform="translate(-442.924 -433.809)"/></g><g transform="translate(10.481 1.559)"><path class="e" d="M440.267,429.9a45.35,45.35,0,0,1,3.364,4.145,45.278,45.278,0,0,1-3.364-4.145Z" transform="translate(-440.266 -429.903)"/></g><g transform="translate(8.561 10.793)"><path class="e" d="M441.02,440.5a10.674,10.674,0,0,1-2.955,2.383c-.024-.038.673-.524,1.486-1.181S440.988,440.465,441.02,440.5Z" transform="translate(-438.064 -440.496)"/></g><g transform="translate(13.444 9.213)"><path class="e" d="M443.733,438.683c.044.005.057.184.11.39s.122.371.085.4-.18-.119-.239-.358S443.691,438.675,443.733,438.683Z" transform="translate(-443.664 -438.683)"/></g><g transform="translate(13.399 7.681)"><path class="e" d="M443.738,436.926c.044,0,.062.163.041.353s-.073.34-.116.336-.062-.163-.041-.353S443.695,436.921,443.738,436.926Z" transform="translate(-443.613 -436.926)"/></g><g transform="translate(13.805 6.39)"><path class="e" d="M444.536,435.456c.021.04-.116.146-.224.317s-.153.336-.2.334-.071-.21.066-.419S444.522,435.417,444.536,435.456Z" transform="translate(-444.079 -435.445)"/></g><g transform="translate(14.637 5.589)"><path class="e" d="M445.266,434.53c.037.023.02.121-.038.221s-.137.162-.174.14-.02-.12.038-.221S445.228,434.509,445.266,434.53Z" transform="translate(-445.033 -434.526)"/></g><g class="p" transform="translate(3.395 3.993)"><path d="M443.4,433.4l-10.312,7.879-.954-1.239,10.837-7.348Z" transform="translate(-432.138 -432.696)"/></g></g><g transform="translate(20.458 187.237)"><g transform="translate(0.038)"><path class="g" d="M379.026,448.894l.019-6.934,12.989-.048.079,10.145-.8.054c-3.584.212-18.236.826-20.634.109C368,451.42,379.026,448.894,379.026,448.894Z" transform="translate(-370.256 -441.913)"/></g><g class="o" transform="translate(0 8.408)"><path class="l" d="M373.633,451.557s-3.864,1.13-3.379,1.765,15.315.572,21.854-.028l-.022-.29-17.3.221S374.39,451.586,373.633,451.557Z" transform="translate(-370.212 -451.557)"/></g><g transform="translate(0.037 9.839)"><path class="e" d="M392.3,453.206a1.236,1.236,0,0,1-.223.025l-.641.041-2.361.112c-1.993.08-4.749.154-7.794.17s-5.8-.031-7.8-.092l-2.361-.088-.642-.035a1.229,1.229,0,0,1-.223-.023,1.111,1.111,0,0,1,.224-.01l.643.006,2.362.037c1.995.032,4.75.061,7.793.046s5.8-.072,7.791-.125l2.362-.061.643-.012A1.107,1.107,0,0,1,392.3,453.206Z" transform="translate(-370.254 -453.199)"/></g><g transform="translate(3.325 8.248)"><path class="e" d="M375.281,453.4a3.429,3.429,0,0,0-1.255-2.025,2.1,2.1,0,0,1,1.255,2.025Z" transform="translate(-374.026 -451.374)"/></g><g transform="translate(7.708 7.237)"><path class="e" d="M379.75,451.294c-.037.024-.221-.2-.412-.5s-.316-.558-.279-.582.221.2.412.5S379.787,451.271,379.75,451.294Z" transform="translate(-379.053 -450.214)"/></g><g transform="translate(8.637 7.027)"><path class="e" d="M380.936,450.7c-.029.032-.235-.1-.459-.3s-.384-.389-.355-.421.235.1.459.3S380.965,450.671,380.936,450.7Z" transform="translate(-380.119 -449.973)"/></g><g transform="translate(8.757 6.459)"><path class="e" d="M381.613,449.39a2.959,2.959,0,1,1-.68-.068A1.557,1.557,0,0,1,381.613,449.39Z" transform="translate(-380.256 -449.321)"/></g><g transform="translate(8.802 5.649)"><path class="e" d="M381.845,448.406a1.908,1.908,0,0,1-1.537.122,4.246,4.246,0,0,1,.769-.056A4.1,4.1,0,0,1,381.845,448.406Z" transform="translate(-380.308 -448.393)"/></g><g transform="translate(5.508 6.025)"><path class="e" d="M378.982,449.984a2.38,2.38,0,0,1-.835,0,4.856,4.856,0,0,1-.889-.192,2.41,2.41,0,0,1-.509-.208.453.453,0,0,1-.208-.258.329.329,0,0,1,.126-.335,1.529,1.529,0,0,1,1.894.44,1.482,1.482,0,0,1,.275.555.46.46,0,0,1,.023.226,2.353,2.353,0,0,0-.383-.711,1.508,1.508,0,0,0-.716-.46,1.289,1.289,0,0,0-.994.072c-.133.1-.08.254.068.341a2.517,2.517,0,0,0,.47.2,5.676,5.676,0,0,0,.86.22C378.663,449.96,378.982,449.959,378.982,449.984Z" transform="translate(-376.53 -448.824)"/></g><g transform="translate(7.638 5.61)"><path class="e" d="M379.078,449.966a.821.821,0,0,1-.1-.579,1.368,1.368,0,0,1,.225-.611.836.836,0,0,1,.693-.428.331.331,0,0,1,.259.384.908.908,0,0,1-.14.374,2.512,2.512,0,0,1-.391.507,1.2,1.2,0,0,1-.477.34c-.014-.02.166-.151.395-.416a2.9,2.9,0,0,0,.347-.5c.114-.177.191-.494-.018-.531-.209-.019-.421.189-.548.357a1.382,1.382,0,0,0-.234.543A3.114,3.114,0,0,0,379.078,449.966Z" transform="translate(-378.973 -448.347)"/></g><g transform="translate(17.196 6.209)"><path class="e" d="M394.538,449.119c0,.03-.372-.033-.959.038a4.067,4.067,0,0,0-3.39,2.726c-.2.558-.214.932-.243.928a.751.751,0,0,1,0-.262,3.471,3.471,0,0,1,.139-.7,3.947,3.947,0,0,1,3.485-2.8,3.412,3.412,0,0,1,.714.015A.8.8,0,0,1,394.538,449.119Z" transform="translate(-389.936 -449.035)"/></g><g transform="translate(20.383 0.894)"><path class="e" d="M393.637,442.938a45.426,45.426,0,0,1,.091,5.337,45.425,45.425,0,0,1-.091-5.337Z" transform="translate(-393.592 -442.938)"/></g><g transform="translate(11.75 8.786)"><path class="e" d="M387.486,452.006a10.681,10.681,0,0,1-3.8.052c0-.046.853,0,1.9-.014S387.481,451.961,387.486,452.006Z" transform="translate(-383.69 -451.991)"/></g><g transform="translate(17.723 8.781)"><path class="e" d="M390.91,451.99c.031.031-.069.18-.154.375s-.133.368-.177.365-.068-.2.033-.43S390.882,451.959,390.91,451.99Z" transform="translate(-390.541 -451.985)"/></g><g transform="translate(18.555 7.582)"><path class="e" d="M391.987,450.616c.03.031-.052.166-.187.3s-.268.223-.3.193.052-.166.186-.3S391.955,450.586,391.987,450.616Z" transform="translate(-391.495 -450.61)"/></g><g transform="translate(19.677 6.963)"><path class="e" d="M393.521,449.973c-.009.044-.181.044-.371.112s-.328.17-.362.141.073-.209.31-.29S393.534,449.933,393.521,449.973Z" transform="translate(-392.782 -449.9)"/></g><g transform="translate(21.001 6.746)"><path class="e" d="M394.692,449.68c.016.041-.058.108-.166.15s-.208.044-.224,0,.058-.107.167-.15S394.677,449.64,394.692,449.68Z" transform="translate(-394.301 -449.651)"/></g><g transform="translate(8.802 4.135)"><path d="M393.4,448.292l-13.094.013.014-1.564,13.033-.086Z" transform="translate(-380.308 -446.656)"/></g></g><g transform="translate(0 68.793)"><g transform="translate(17.637)"><path class="m" d="M410.668,311.794l-5.2,15.662c-1.4,4.23-5.1,4.954-9.557,4.954H366.977v-6.491l26.432-3.774,6.3-16.092Z" transform="translate(-366.977 -306.053)"/></g><g transform="translate(0 12.834)"><path class="m" d="M361.2,326.457l-2.3-1.086s-2.473-4.783-3.043-4.591-.734,1.6.26,3.8l-3.05-.871s-6.612,3.055-6.319,3.466a1.526,1.526,0,0,0,2.274.649c1.44-.737,3.327-1.6,3.327-1.6l3.563,1.017-4.594.583L347,331.752a2.116,2.116,0,0,0,2.642-.065l11.221,2.411,3.515.2v-6.491Z" transform="translate(-346.746 -320.775)"/><g transform="translate(2.896 8.612)"><path class="n" d="M350.073,332.953c.047.031.256-.3.66-.741a3.421,3.421,0,0,1,.817-.631,3.347,3.347,0,0,1,1.212-.316,16.812,16.812,0,0,0,3.368-.575,16.6,16.6,0,0,0-3.411.226,3.3,3.3,0,0,0-1.331.385,3.134,3.134,0,0,0-.843.75A1.982,1.982,0,0,0,350.073,332.953Z" transform="translate(-350.068 -330.653)"/></g><g transform="translate(4.614 10.502)"><path class="n" d="M352.081,333.682c.043,0,.078-.232.392-.3s.832-.119,1.364-.174a11.077,11.077,0,0,0,1.973-.2,3.962,3.962,0,0,0-2.007-.149,6.049,6.049,0,0,0-1.412.289.564.564,0,0,0-.341.353C352.02,333.622,352.06,333.685,352.081,333.682Z" transform="translate(-352.039 -332.821)"/></g></g></g><g transform="translate(47.433 39.374)"><path class="g" d="M417.5,304.053l-2.225,7.538L401.154,305.2c.507-1.578,2.843-8.608,7.315-19.762a19.176,19.176,0,0,1,14.638-11.8,83.711,83.711,0,0,1,13.521-1.326c7.919.087,19.577,5.037,21.142,12.8,1.2,5.925.043,16.386.043,29.1l-1.033,24.286L416.2,339.87Z" transform="translate(-401.154 -272.309)"/><g class="p" transform="translate(26.532 35.828)"><path class="g" d="M461.671,313.855c-4.938,1.01-10.007-.008-15.039-.307-3.051-.18-6.435-.511-8.848,1.364-1.914,1.487-2.683,3.987-3.236,6.346-2.1,8.993-2.487,15.021-2.961,24.246l24.426,1.48Z" transform="translate(-431.587 -313.404)"/></g><g transform="translate(15.305 5.378)"><path class="g" d="M418.71,278.485c-.005.037.406.06,1.079.324a5.633,5.633,0,0,1,2.337,1.893,7.879,7.879,0,0,1,1.4,4.227,26.61,26.61,0,0,1-.427,5.563,93.172,93.172,0,0,1-2.268,9.947c-.334,1.218-.61,2.225-.82,2.988a7.044,7.044,0,0,0-.26,1.109,7.147,7.147,0,0,0,.391-1.07c.228-.695.55-1.7.928-2.959a77.248,77.248,0,0,0,2.376-9.96,25.65,25.65,0,0,0,.4-5.641,7.982,7.982,0,0,0-1.52-4.355,5.523,5.523,0,0,0-2.488-1.87,3.956,3.956,0,0,0-.83-.189A.955.955,0,0,0,418.71,278.485Z" transform="translate(-418.71 -278.478)"/></g><g transform="translate(0.441 30.962)"><path class="g" d="M401.66,307.826a13.562,13.562,0,0,0,1.989,1.141c1.255.657,3.01,1.522,4.979,2.411s3.78,1.631,5.1,2.136a13.652,13.652,0,0,0,2.172.736,16.179,16.179,0,0,0-2.078-.966c-1.3-.562-3.087-1.34-5.053-2.226s-3.732-1.714-5.013-2.313A16.168,16.168,0,0,0,401.66,307.826Z" transform="translate(-401.659 -307.823)"/></g></g><g transform="translate(21.974 105.774)"><g transform="translate(11.891 3.008)"><path class="e" d="M393.13,351.922a14.463,14.463,0,0,0-5.906,19.369l35.32,60.64,16.295-9.842-27.426-54.751,19.877-12.975" transform="translate(-385.591 -351.922)"/></g><path class="e" d="M434.386,348.472,385.9,350.189a14.462,14.462,0,0,0-13.949,14.679l2.013,69.248,20.391-.045-.68-65.473,40.709-1.071Z" transform="translate(-371.951 -348.472)"/><g transform="translate(21.686 22.492)"><path class="f" d="M396.865,374.271a3.543,3.543,0,0,1,.058.64c.019.465.046,1.075.078,1.838.061,1.6.123,3.907.182,6.761.122,5.71.2,13.6.248,22.311.044,8.693.085,16.559.114,22.313.016,2.818.029,5.115.038,6.762,0,.763-.005,1.374-.006,1.84a3.473,3.473,0,0,1-.033.642,3.36,3.36,0,0,1-.058-.64c-.02-.465-.046-1.075-.079-1.838-.061-1.6-.123-3.906-.182-6.761-.122-5.709-.2-13.6-.248-22.315-.044-8.689-.085-16.556-.114-22.31-.016-2.817-.029-5.115-.037-6.762,0-.763,0-1.375.006-1.84A3.359,3.359,0,0,1,396.865,374.271Z" transform="translate(-396.826 -374.271)"/></g></g></g><g transform="translate(106.969 61.83)"><path class="f" d="M458.531,298.066H443.863a10.691,10.691,0,0,0-10.692,10.691v51.176H403.865a7.4,7.4,0,0,0-7.4,7.4h66.914c0-.014,0-.028,0-.042a6.106,6.106,0,0,0,5.848-6.1V308.757A10.691,10.691,0,0,0,458.531,298.066Z" transform="translate(-396.461 -298.066)"/><g transform="translate(40.748 1.688)"><path class="e" d="M443.428,300c.125,0,.227,15.04.227,33.587s-.1,33.591-.227,33.591-.228-15.036-.228-33.591S443.3,300,443.428,300Z" transform="translate(-443.2 -300.002)"/></g><g transform="translate(16.258 69.3)"><path class="f" d="M437.972,431.242V377.556H433.2v53.686c-2.911,5.739-9.756,9.622-18.094,12.8h42.514C448.989,440.536,441.2,437.843,437.972,431.242Z" transform="translate(-415.11 -377.556)"/></g></g></g></g></svg>