<svg xmlns="http://www.w3.org/2000/svg" width="428.089" height="405.107" viewBox="0 0 428.089 405.107"><defs><style>.a{fill:#ebebeb;}.b{fill:#263238;}.c{fill:#f5f2e8;}.d{fill:#dbdbdb;}.e{fill:#fff;}.f{fill:#ffc727;}.g,.j{opacity:0.1;}.h{fill:#37474f;}.i{opacity:0.2;}.k{fill:#eb9481;}.l{fill:#c7c7c7;}.m{fill:#ff9bbc;}</style></defs><g transform="translate(-797.667 -5080)"><g transform="translate(800.967 5461.153)"><ellipse class="a" cx="133.243" cy="11.977" rx="133.243" ry="11.977"/></g><g transform="translate(797.667 5454.219)"><path class="b" d="M39,437.822l50.083-.231,50.083-.084,100.167-.159,100.167.158,50.083.083,50.083.232-50.083.232-50.083.083-100.167.158-100.167-.159-50.083-.084Z" transform="translate(-39.004 -437.348)"/></g><g transform="translate(829.297 5241.453)"><g transform="translate(23.371 62.824)"><path class="a" d="M74.945,310.206a3.2,3.2,0,0,1,3.143-.1c.484.257.944.555,1.44.787a5.194,5.194,0,0,1,1.4.855,3.193,3.193,0,0,1,.87,1.384,6.239,6.239,0,0,1,.164,1.634l.111,3.281-.04-.038,13.406-.464-.085.09-.16-4.317a3.228,3.228,0,0,1,.793-2.053,7.73,7.73,0,0,1,1.77-1.287,7.87,7.87,0,0,1,1.935-1.038,3.336,3.336,0,0,1,2.228.161l3.831,2.008-.3.09,6.251-11.875.132.436L108,297.732a3.517,3.517,0,0,1-1.469-1.845,3.722,3.722,0,0,1-.207-1.174l-.043-1.069-.046-1.068a3.607,3.607,0,0,1,.118-1.2,3.506,3.506,0,0,1,1.362-1.964l3.673-2.3-.136.58-7.106-11.379.635.149-3.691,2.294a3.6,3.6,0,0,1-2.409.358,3.694,3.694,0,0,1-1.15-.443l-.918-.529-.946-.479a3.669,3.669,0,0,1-1-.715,3.6,3.6,0,0,1-1.023-2.2l-.126-4.344.45.423-13.41.369.376-.4.1,4.339a3.457,3.457,0,0,1-1.8,2.921l-.908.553-.907.552a3.418,3.418,0,0,1-3.383.273l-3.808-2.072.346-.1-6.434,11.777-.063-.206,3.788,2.078a3.262,3.262,0,0,1,1.339,1.732,7.728,7.728,0,0,1,.2,2.166,7.9,7.9,0,0,1-.088,2.168,3.18,3.18,0,0,1-1.235,1.772l-3.673,2.267.017-.072,7.036,11.421-.017,0Zm0,0-3.488,2.178-.01.007-.007-.01L64.334,301l-.028-.045.045-.029L68,298.644a3.043,3.043,0,0,0,1.171-1.7,7.436,7.436,0,0,0,.057-2.124,7.592,7.592,0,0,0-.223-2.106,3.05,3.05,0,0,0-1.27-1.6L63.932,289.1l-.134-.071.071-.135,6.252-11.875.118-.224.228.12,3.806,2a2.815,2.815,0,0,0,2.785-.261l.928-.585.928-.584a2.778,2.778,0,0,0,1.414-2.367l-.162-4.291-.015-.386.391-.014,13.406-.464.435-.015.015.438.148,4.288a2.691,2.691,0,0,0,.775,1.637,2.783,2.783,0,0,0,.751.531l.984.49.956.543a2.758,2.758,0,0,0,.856.325,2.667,2.667,0,0,0,1.775-.273l3.656-2.244.395-.242.241.391,7.037,11.421.221.359-.357.221-3.65,2.256a2.69,2.69,0,0,0-1.054,1.5,2.955,2.955,0,0,0-.1.94l.03,1.087.026,1.086a2.966,2.966,0,0,0,.152.943,2.788,2.788,0,0,0,1.141,1.482l3.762,2.062.285.157-.153.28-6.433,11.777-.106.194-.191-.1-3.778-2.055a2.978,2.978,0,0,0-1.988-.173,7.557,7.557,0,0,0-1.86.97,7.478,7.478,0,0,0-1.725,1.207,2.965,2.965,0,0,0-.758,1.878l.093,4.306,0,.088-.086,0-13.409.368h-.04v-.039l-.092-3.282a6.241,6.241,0,0,0-.152-1.622,3.151,3.151,0,0,0-.85-1.37,5.177,5.177,0,0,0-1.384-.857c-.5-.235-.956-.537-1.436-.8A3.192,3.192,0,0,0,74.945,310.206Z" transform="translate(-63.798 -269.947)"/><path class="a" d="M78.409,291.037a11.228,11.228,0,0,1,20.661-.8A11.2,11.2,0,0,1,93.378,305.3a11.275,11.275,0,0,1-8.652.113,11.157,11.157,0,0,1-6.1-5.947A11.041,11.041,0,0,1,78.409,291.037Zm0,0a10.972,10.972,0,0,0,.341,8.373,10.753,10.753,0,0,0,19.782-.775,10.762,10.762,0,0,0-6.039-13.763,10.822,10.822,0,0,0-8.289.106A11.08,11.08,0,0,0,78.409,291.037Z" transform="translate(-64.499 -270.646)"/></g><path class="a" d="M410.347,216.126l-4.7-8.141-2.491,1.439a2.232,2.232,0,0,1-2.342-.08,13.094,13.094,0,0,0-1.217-.7,2.233,2.233,0,0,1-1.236-1.986v-2.877h-9.4v2.877a2.233,2.233,0,0,1-1.236,1.986,13.1,13.1,0,0,0-1.217.7,2.232,2.232,0,0,1-2.342.08l-2.491-1.439-4.7,8.141,2.5,1.44a2.238,2.238,0,0,1,1.095,2.074q-.019.343-.018.691t.018.692a2.229,2.229,0,0,1-1.088,2.064l-2.509,1.45,4.7,8.141,2.5-1.441a2.234,2.234,0,0,1,2.343.083,13.219,13.219,0,0,0,1.212.7,2.233,2.233,0,0,1,1.234,1.985v2.877h9.4v-2.877a2.233,2.233,0,0,1,1.234-1.985,13.219,13.219,0,0,0,1.212-.7,2.232,2.232,0,0,1,2.342-.083l2.5,1.441,4.7-8.141-2.5-1.441a2.233,2.233,0,0,1-1.09-2.068q.019-.345.018-.7t-.018-.691a2.241,2.241,0,0,1,1.094-2.075Zm-8.985,4.205a7.7,7.7,0,1,1-7.7-7.7A7.693,7.693,0,0,1,401.362,220.331Z" transform="translate(-56.253 -203.779)"/><path class="a" d="M72.551,340.4l-4.7-8.14L65.363,333.7a2.234,2.234,0,0,1-2.342-.079,12.861,12.861,0,0,0-1.217-.7,2.233,2.233,0,0,1-1.236-1.985v-2.877h-9.4v2.877a2.233,2.233,0,0,1-1.236,1.985,12.965,12.965,0,0,0-1.216.7,2.236,2.236,0,0,1-2.343.079l-2.491-1.438-4.7,8.14,2.5,1.44a2.238,2.238,0,0,1,1.095,2.074c-.011.23-.018.461-.018.692s.007.461.018.691a2.23,2.23,0,0,1-1.088,2.065l-2.508,1.449,4.7,8.141,2.5-1.441a2.232,2.232,0,0,1,2.342.083,13.221,13.221,0,0,0,1.212.7,2.234,2.234,0,0,1,1.234,1.985v2.877h9.4v-2.877a2.234,2.234,0,0,1,1.234-1.985,13.222,13.222,0,0,0,1.212-.7,2.234,2.234,0,0,1,2.343-.083l2.5,1.441,4.7-8.141-2.5-1.441a2.233,2.233,0,0,1-1.091-2.067q.019-.346.018-.7t-.018-.692a2.24,2.24,0,0,1,1.095-2.075Zm-8.986,4.206a7.7,7.7,0,1,1-7.694-7.7A7.693,7.693,0,0,1,63.565,344.605Z" transform="translate(-39.183 -210.059)"/></g><g transform="translate(833.168 5080)"><path class="c" d="M126.441,125.291l-83.182-.128s4.143-5.379,8.7-6.044c0,0,8.907-26.388,23.755-26.553,13.8-.154,19.311,16.266,19.311,16.266s6.405-7.351,12.509-3.976,9.549,13.016,9.549,13.016S123.953,121.585,126.441,125.291Z" transform="translate(-43.259 -36.707)"/><path class="c" d="M345.952,92.558l105.191.162s.01-6.723-14.48-8.061c0,0-13.185-29.395-33.39-25.48-12.583,2.438-19.041,19.7-19.041,19.7s-9.484-13.606-17.092-10.987-12.146,17.08-12.146,17.08S347.146,88.761,345.952,92.558Z" transform="translate(-58.555 -35.001)"/><path class="c" d="M157.879,60.177l71.526.11s-6.74-6.293-9.74-6.3-11.724-21.11-22.913-20.228S179.6,50.337,179.6,50.337,166.009,46.053,157.879,60.177Z" transform="translate(-49.051 -33.734)"/><path class="c" d="M332.657,151.336l61.167.093s-3.035-3.964-6.387-4.464c0,0-6.491-19.422-17.408-19.578-10.149-.144-14.236,11.917-14.236,11.917s-4.693-5.42-9.19-2.951-7.051,9.549-7.051,9.549S334.494,148.616,332.657,151.336Z" transform="translate(-57.883 -38.466)"/></g><g transform="translate(834.323 5272.929)"><path class="d" d="M92.87,325.081l20.715-3.494,17.92-18.253,32.059,33.33,22.174-13.778L201.378,335.6l30.644-33.667,24.111-2.23,25.85-38.249,28.09,28.143,16.588-25.677,10.353-1.479,13.767-25.513,26.886,44.5,37.6,146.232H44.476Z" transform="translate(-44.476 -236.931)"/><g transform="translate(44.416 13.194)"><path class="e" d="M99.3,374.963l-.584-.749,31.191-24.326,45.5-3.9.08.021,40.138,10.639,35.12-30.488.138-.02,49.2-7.068,36.664-24.667,16.995-38.773.87.382L337.512,295.04l-.114.077L300.44,319.982l-.108.016-49.174,7.063L215.87,357.7l-.243-.064-40.3-10.681-45.054,3.86Z" transform="translate(-91.633 -251.07)"/><g transform="translate(0 118.565)"><path class="d" d="M100.334,380.492a4.289,4.289,0,1,1-4.289-4.29A4.289,4.289,0,0,1,100.334,380.492Z" transform="translate(-91.281 -375.727)"/><path class="e" d="M96.02,385.23a4.764,4.764,0,1,1,4.763-4.763A4.77,4.77,0,0,1,96.02,385.23Zm0-8.578a3.814,3.814,0,1,0,3.814,3.815A3.82,3.82,0,0,0,96.02,376.651Z" transform="translate(-91.256 -375.702)"/></g><g transform="translate(33.492 94.515)"><path class="d" d="M135.609,355.162a4.289,4.289,0,1,1-4.289-4.29A4.288,4.288,0,0,1,135.609,355.162Z" transform="translate(-126.556 -350.397)"/><path class="e" d="M131.3,359.9a4.764,4.764,0,1,1,4.763-4.763A4.77,4.77,0,0,1,131.3,359.9Zm0-8.578a3.814,3.814,0,1,0,3.814,3.815A3.819,3.819,0,0,0,131.3,351.321Z" transform="translate(-126.531 -350.372)"/></g><g transform="translate(78.97 89.987)"><path class="d" d="M183.507,350.393a4.289,4.289,0,1,1-4.289-4.289A4.289,4.289,0,0,1,183.507,350.393Z" transform="translate(-174.454 -345.628)"/><path class="e" d="M179.193,355.132a4.764,4.764,0,1,1,4.763-4.764A4.77,4.77,0,0,1,179.193,355.132Zm0-8.579a3.815,3.815,0,1,0,3.814,3.815A3.819,3.819,0,0,0,179.193,346.552Z" transform="translate(-174.429 -345.603)"/></g><g transform="translate(119.151 101.436)"><circle class="d" cx="4.289" cy="4.289" r="4.289" transform="translate(0.474 0.475)"/><path class="e" d="M221.511,367.19a4.764,4.764,0,1,1,4.764-4.763A4.769,4.769,0,0,1,221.511,367.19Zm0-8.578a3.814,3.814,0,1,0,3.815,3.815A3.819,3.819,0,0,0,221.511,358.611Z" transform="translate(-216.748 -357.662)"/></g><g transform="translate(154.555 71.263)"><path class="d" d="M263.115,330.673a4.289,4.289,0,1,1-4.289-4.29A4.288,4.288,0,0,1,263.115,330.673Z" transform="translate(-254.062 -325.908)"/><path class="e" d="M258.8,335.411a4.764,4.764,0,1,1,4.763-4.764A4.77,4.77,0,0,1,258.8,335.411Zm0-8.578a3.814,3.814,0,1,0,3.814,3.814A3.819,3.819,0,0,0,258.8,326.832Z" transform="translate(-254.037 -325.883)"/></g><g transform="translate(203.868 63.328)"><path class="d" d="M315.052,322.315a4.289,4.289,0,1,1-4.29-4.29A4.29,4.29,0,0,1,315.052,322.315Z" transform="translate(-305.999 -317.55)"/><path class="e" d="M310.737,327.053a4.764,4.764,0,1,1,4.764-4.763A4.769,4.769,0,0,1,310.737,327.053Zm0-8.578a3.814,3.814,0,1,0,3.815,3.815A3.819,3.819,0,0,0,310.737,318.474Z" transform="translate(-305.974 -317.525)"/></g><g transform="translate(240.77 39)"><path class="d" d="M353.918,296.693a4.29,4.29,0,1,1-4.29-4.29A4.289,4.289,0,0,1,353.918,296.693Z" transform="translate(-344.865 -291.928)"/><path class="e" d="M349.6,301.432a4.764,4.764,0,1,1,4.764-4.764A4.77,4.77,0,0,1,349.6,301.432Zm0-8.579a3.815,3.815,0,1,0,3.815,3.815A3.82,3.82,0,0,0,349.6,292.852Z" transform="translate(-344.84 -291.903)"/></g><g transform="translate(257.988)"><path class="d" d="M372.053,255.617a4.29,4.29,0,1,1-4.29-4.29A4.29,4.29,0,0,1,372.053,255.617Z" transform="translate(-363 -250.852)"/><path class="e" d="M367.738,260.355a4.764,4.764,0,1,1,4.764-4.763A4.769,4.769,0,0,1,367.738,260.355Zm0-8.578a3.814,3.814,0,1,0,3.815,3.815A3.819,3.819,0,0,0,367.738,251.776Z" transform="translate(-362.975 -250.827)"/></g></g></g><g transform="translate(994.994 5233.956)"><g transform="translate(0 0)"><g transform="translate(57.23 107.614)"><rect class="f" width="43.53" height="122.122"/><g class="g" transform="translate(33.562)"><rect width="9.968" height="122.122"/></g></g><g transform="translate(114.58 61.461)"><rect class="f" width="43.53" height="168.276"/><g class="g" transform="translate(33.562)"><rect width="9.968" height="168.276"/></g></g><g transform="translate(0 135.118)"><rect class="f" width="43.53" height="94.618"/><g class="g" transform="translate(33.562)"><rect width="9.968" height="94.618"/></g></g><g transform="translate(171.93)"><rect class="f" width="43.53" height="229.736"/><g class="g" transform="translate(33.562)"><rect width="9.968" height="229.736"/></g></g></g></g><g transform="translate(979.573 5198.689)"><path class="h" d="M197.457,387.894V364.345s158.549-13.5,222.615-189.142l6.369,1.638S383.9,356.879,197.457,387.894Z" transform="translate(-197.457 -159.572)"/><path class="h" d="M443.824,181.919l-20.032-6.633,16.6-16.546Z" transform="translate(-208.894 -158.74)"/></g><g transform="translate(848.532 5126.151)"><g transform="translate(151.295 1.446)"><path class="b" d="M292.484,95.418c2.818,16.163-6.667,33.682-27.382,40.187-18.841,5.918-40.17-3.889-44.857-16.316-4.972-13.185,3.532-25.765,14.1-26.893,10.208-1.09,18.335,4.539,25.894,1.476,3.617-1.466,7.677-6.673,12.928-9.07C279.027,82.128,290.674,85.034,292.484,95.418Z" transform="translate(-218.788 -83.865)"/><path class="b" d="M228.452,131.624a39.717,39.717,0,0,0,18.281,7.939,44.051,44.051,0,0,0,19.986-1.524,37.857,37.857,0,0,0,17.013-10.519,37.439,37.439,0,0,0,8.9-17.81,39.244,39.244,0,0,1-9.346,17.393,36.707,36.707,0,0,1-7.727,6.19,40.157,40.157,0,0,1-9.075,3.974,48.072,48.072,0,0,1-9.733,1.936,42.944,42.944,0,0,1-19.524-2.836A38.239,38.239,0,0,1,228.452,131.624Z" transform="translate(-219.276 -85.171)"/><path class="b" d="M232.184,92.113a19.573,19.573,0,0,1,6.1-.893,26.163,26.163,0,0,1,6.1.732c2.015.5,4.044.934,6.1,1.3a26.974,26.974,0,0,0,6.275.46,17.555,17.555,0,0,0,3.151-.446,12.119,12.119,0,0,0,2.94-1.261,51.92,51.92,0,0,0,5.082-3.645,24.392,24.392,0,0,1,5.264-3.164,17.028,17.028,0,0,1,6-1.322,16.194,16.194,0,0,0-6.145.963,24.231,24.231,0,0,0-5.481,3.029c-1.715,1.181-3.321,2.5-5.088,3.5a11.367,11.367,0,0,1-2.771,1.154,16.54,16.54,0,0,1-3,.384c-4.077.258-8.137-.774-12.193-1.564a26.329,26.329,0,0,0-6.244-.518A18.383,18.383,0,0,0,232.184,92.113Z" transform="translate(-219.465 -83.865)"/></g><g transform="translate(0 27.571)"><g transform="translate(10.255 5.856)"><path class="f" d="M77.318,127.045c2.008-4.648,64.15-6.922,116.982-7.595.02,0,.041,0,.051-.008,23.84-.3,46.742-2.49,61.172-1.737,9.173.479,14.087,3.818,15.158,5.1,3.538,4.253,10.029,17.9-14.394,35.133-18.473,13.037-39.681,24.693-55.432,44.666s-24.592,45.077-23.465,62.2,13.555,33.483,12.319,31.707c-.381-.547-5-.271-11.462-4.016-7.921-4.591-17.133-14.317-23.362-17.171-12.737-5.837-29.952-4.851-43.393-18.482-14.158-14.359-17.623-39.66-24.384-59.695C78.9,172.817,60,167.137,77.318,127.045Z" transform="translate(-70.242 -117.549)"/><g class="i"><path d="M77.318,127.045c2.008-4.648,64.15-6.922,116.982-7.595.02,0,.041,0,.051-.008,23.84-.3,46.742-2.49,61.172-1.737,9.173.479,14.087,3.818,15.158,5.1,3.538,4.253,10.029,17.9-14.394,35.133-18.473,13.037-39.681,24.693-55.432,44.666s-24.592,45.077-23.465,62.2,13.555,33.483,12.319,31.707c-.381-.547-5-.271-11.462-4.016-7.921-4.591-17.133-14.317-23.362-17.171-12.737-5.837-29.952-4.851-43.393-18.482-14.158-14.359-17.623-39.66-24.384-59.695C78.9,172.817,60,167.137,77.318,127.045Z" transform="translate(-70.242 -117.549)"/></g><path class="j" d="M90.4,209.121c-.9-3.1-1.812-6.14-2.8-9.072a86.015,86.015,0,0,0-7.763-16.15s55.708-13.854,71.953-7.1C160.667,180.487,134.6,182.809,90.4,209.121Z" transform="translate(-70.726 -120.449)"/><path class="j" d="M168.723,287.824c-3.632-2.99-7.057-5.679-9.866-6.965a62.722,62.722,0,0,0-10.114-3.394c3.575-23.141,7.62-39.122,17.611-49.721C172.762,220.946,156.638,259.964,168.723,287.824Z" transform="translate(-74.209 -123.078)"/><path class="j" d="M95.957,227.859c-.834-2.794-1.622-5.615-2.4-8.429,17.966-7.257,33.176-17.734,33.35-15.288C127.093,206.81,107.73,220.093,95.957,227.859Z" transform="translate(-71.42 -121.906)"/></g><path class="f" d="M60.249,177.439s-5.141-22.822,10.514-50.316c1.523-2.676,28.031-14,45.747-15.483s31.193,3.762,52.248,6.838,77.017-3.72,90.552-.831c9.3,1.986,10.807,4.867,10.807,4.867s-10.869-3.438-17.408-3.331c-25.853.423-71.746,14.12-83.789,13.938-14.7-.221-31.06-1.543-42.986,1.316C112.576,137.64,68.055,169.079,60.249,177.439Z" transform="translate(-59.441 -111.38)"/></g><g transform="translate(60.434 76.802)"><g transform="translate(61.96 2.009)"><g transform="translate(0 113.667)"><path class="k" d="M212.25,357.786c-1.419-1.567-24.3-54.137-23.9-56.69.136-.973,49.181-16.032,49.181-16.032l13.439,34.117-31.021,6.708s-.242,24.039-.98,26.8C218.235,355.435,213.66,359.357,212.25,357.786Z" transform="translate(-188.349 -285.064)"/><path class="b" d="M212.251,358.341c-.624-.689-5.388-11.222-10.506-23.036-.333-.777-.671-1.563-1.009-2.348-.877-2.015-1.746-4.055-2.605-6.079-.329-.791-.658-1.581-.991-2.358l-.019-.035c-.325-.781-.648-1.563-.973-2.322-.5-1.181-.982-2.339-1.448-3.473-.3-.737-.6-1.466-.894-2.173l-.013-.026c-.288-.712-.571-1.415-.848-2.086l-.014-.027c-.419-1.023-.815-2-1.178-2.942-.254-.629-.5-1.248-.731-1.845-.458-1.159-.864-2.223-1.211-3.172-.184-.475-.346-.928-.489-1.345-.37-1.038-.648-1.878-.8-2.469a3.028,3.028,0,0,1-.16-.958c.046-.338,5.789-2.687,13.3-5.637,1.064,5.584,3.321,15.66,7.577,30.714,7,24.752,10.17,15.037,10.536,10.142.008-.049.007-.093.014-.142,0,.293-.008.6-.018.9a.84.84,0,0,1,0,.146q-.021.819-.041,1.637c-.013.591-.029,1.193-.05,1.788-.026.99-.051,1.98-.095,2.934-.022.953-.062,1.872-.1,2.747-.028.519-.051,1.025-.066,1.5-.008.239-.028.475-.041.705-.015.31-.029.621-.054.914q-.056.973-.132,1.719a2.893,2.893,0,0,1-.031.342,9.263,9.263,0,0,1-.18,1.184C218.238,355.986,213.663,359.9,212.251,358.341Z" transform="translate(-188.35 -285.617)"/></g><g transform="translate(28.9)"><path class="b" d="M232.15,322.763l-13.362-39.6s50.665-19.626,51.533-22.956c.34-1.3-32.844-49.854-39.014-68.591-4.109-12.478,6.032-26.267,6.032-26.267l36.53,9.8s-1.932,10.43-.673,12.52c11.548,19.167,43.919,72.092,40.883,90.487C311.174,295.758,232.15,322.763,232.15,322.763Z" transform="translate(-218.788 -165.347)"/><g transform="translate(8.683 2.468)"><path class="h" d="M240.524,323.851c-1.445-4.592-7.6-23.173-9.335-27.777-.5-1.323-.984-2.651-1.5-3.965a37.753,37.753,0,0,0-1.61-3.9.074.074,0,0,0-.139.048,34.22,34.22,0,0,0,1.007,3.616c.354,1.2.738,2.4,1.112,3.6.74,2.366,1.51,4.72,2.286,7.074,1.517,4.6,6.526,19.032,7.788,21.444C240.234,324.193,240.6,324.087,240.524,323.851Z" transform="translate(-227.934 -174.021)"/><path class="h" d="M276.575,261.353c-4.366-5.274-35.443-59.822-37.062-63.01a37.967,37.967,0,0,1-3.726-9.245c-1.494-7.112.743-14.523,3.83-20.9a.171.171,0,0,0-.3-.165c-3.055,5.542-5.194,11.852-4.778,18.254a25.817,25.817,0,0,0,2.628,9.363c1.506,3.2,3.166,6.33,4.76,9.485,3.29,6.513,31.487,53.408,33.812,56.372-5.439,2.931-10.886,5.841-16.425,8.583-5.715,2.828-11.506,5.5-17.325,8.108q-4.935,2.21-9.916,4.311c-.142.06-.079.291.071.235A306.78,306.78,0,0,0,267,267.125c3.2-1.675,6.386-3.374,9.512-5.178A.382.382,0,0,0,276.575,261.353Z" transform="translate(-228.139 -167.946)"/></g><path class="h" d="M266.023,251.856c-9.4-14.973-29.443-46.1-34.1-60.244-4.1-12.476,6.039-26.262,6.039-26.262l14.062,3.769Z" transform="translate(-219.402 -165.347)"/></g></g><g transform="translate(0 140.585)"><path class="k" d="M170.431,394.364c-1.98-.737-46.5-36.857-47.323-39.309-.328-.927,4.557-7.721,10.7-15.761l.195-.25c1.261-1.66,25.648-27.746,25.648-27.746l28.649,24.272-25.313,26.456-.406.479s10.858,21.448,11.477,24.241C174.661,389.521,172.406,395.109,170.431,394.364Z" transform="translate(-123.092 -311.298)"/><path class="b" d="M130.768,345c-4.631,6.2-7.936,10.983-7.659,11.755.82,2.454,45.34,38.572,47.324,39.31s4.228-4.843,3.618-7.623c-.377-1.7-4.555-10.324-7.763-16.815,2.036,4.573,3.6,13.828-14.28-3.944C140.979,356.72,134.376,349.3,130.768,345Z" transform="translate(-123.092 -313.001)"/></g><g transform="translate(15.427)"><path class="b" d="M269.855,175.044s-8.484,19.705-15.411,24.168c0,0-25.177,61.9-33.171,78.164-10.552,21.471-47.088,70.919-47.088,70.919L139.34,321.809s45.854-56.776,46.439-58.2c3.327-8.1,29.7-67.737,29.6-69.312-.986-16.117,10.463-31.063,10.463-31.063Z" transform="translate(-139.34 -163.231)"/><g transform="translate(7.097 3.278)"><path class="h" d="M259.83,201.167a4.453,4.453,0,0,0-.773,1.48c-.218.495-.43.992-.639,1.491-.418,1-.843,2-1.252,3q-1.276,3.119-2.577,6.228t-2.549,6.252c-.8,2.03-1.641,4.074-2.292,6.159-.026.082.1.124.137.054,1.122-1.929,2.066-3.986,3-6.011.941-2.04,1.826-4.1,2.683-6.178s1.7-4.163,2.527-6.254c.385-.973.751-1.955,1.119-2.935q.285-.759.553-1.525a4.4,4.4,0,0,0,.44-1.614A.221.221,0,0,0,259.83,201.167Z" transform="translate(-152.016 -168.423)"/><path class="h" d="M275.7,178.7c-2.8,4.6-5.477,9.258-8.536,13.7-.644.934-1.318,2.28-2.349,2.84a1.379,1.379,0,0,1-1.388.036c-.589-.408-.3-1.221-.047-1.74.591-1.226,1.327-2.394,1.98-3.589l2.075-3.8c1.532-2.811,2.907-5.709,4.457-8.51a.074.074,0,0,0-.13-.072c-1.6,2.776-3.371,5.451-4.987,8.219-.827,1.416-1.662,2.828-2.481,4.249-.39.676-.775,1.356-1.163,2.034a8.452,8.452,0,0,0-.9,1.836,1.844,1.844,0,0,0,1.245,2.418,2.819,2.819,0,0,0,2.79-1.132,34.287,34.287,0,0,0,2.4-3.461c.829-1.262,1.643-2.534,2.408-3.835a72.962,72.962,0,0,0,4.694-9.143A.041.041,0,0,0,275.7,178.7Z" transform="translate(-152.642 -167.231)"/><path class="h" d="M263.131,196.638c-.69.576-3.33,4.047-3.492,4.238-.071.083.378.428.457.35a41.955,41.955,0,0,0,3.369-4.49C263.488,196.673,263.2,196.585,263.131,196.638Z" transform="translate(-152.515 -168.196)"/><path class="h" d="M265.568,199.855a40.34,40.34,0,0,0-7.028,1.128c-1.147.24-2.286.5-3.42.8a26.789,26.789,0,0,0-3.6,1,.075.075,0,0,0,.023.145,25.718,25.718,0,0,0,3.688-.469c1.12-.161,2.231-.348,3.342-.564a41.19,41.19,0,0,0,7.051-1.7A.172.172,0,0,0,265.568,199.855Z" transform="translate(-152.103 -168.359)"/><path class="h" d="M177.393,347.728c-3.794-2.962-19.4-14.777-23.441-17.584-1.16-.806-2.314-1.625-3.488-2.412a37.875,37.875,0,0,0-3.54-2.3.074.074,0,0,0-.086.119,33.991,33.991,0,0,0,2.881,2.408c.975.792,1.969,1.56,2.958,2.335,1.95,1.529,3.919,3.032,5.894,4.53,3.858,2.927,16.168,11.975,18.574,13.245C177.348,348.174,177.588,347.881,177.393,347.728Z" transform="translate(-146.814 -174.705)"/><path class="h" d="M230.964,166.733a40.364,40.364,0,0,0-6.5,13.021,40.862,40.862,0,0,0-1.368,7.074c-.285,2.688-.107,5.448-.944,8.051a84.522,84.522,0,0,1-3.293,7.817c-1.162,2.658-2.33,5.314-3.484,7.976q-3.434,7.919-6.87,15.835-6.913,15.9-13.817,31.8c-1.106,2.548-2.189,5.113-3.465,7.583a50.89,50.89,0,0,1-4.332,6.848c-3.387,4.583-7.014,9-10.514,13.494-7.048,9.05-14.144,18.065-21.034,27.236q-1.3,1.738-2.606,3.477c-.058.076.047.181.11.1,7.28-8.911,14.393-17.949,21.505-26.993q5.341-6.791,10.651-13.6c1.6-2.051,3.179-4.119,4.6-6.3a54.9,54.9,0,0,0,3.884-7.248c4.755-10.466,9.191-21.086,13.769-31.63q6.9-15.9,13.8-31.807a25.566,25.566,0,0,0,2.4-7.37c.278-2.635.282-5.262.74-7.882a44.935,44.935,0,0,1,5.043-14.117q.914-1.638,1.971-3.19C231.3,166.77,231.067,166.6,230.964,166.733Z" transform="translate(-147.113 -166.683)"/></g></g></g><g transform="translate(113.616)"><g transform="translate(88.656 28.87)"><g transform="translate(0.211)"><path class="k" d="M274.964,133.886c11.989,19.493,27.175,37.348,34.176,37.481,9.42.178,29.451-9.529,39.382-15.53,2.918-1.763-11.262-24.2-14.383-22.315-3.773,2.274-23.1,14.348-23.533,14.453-.92.224-22.671-14.609-27.783-18.279C274.287,123.567,269.642,125.235,274.964,133.886Z" transform="translate(-272.7 -113.42)"/><g transform="translate(59.586)"><path class="k" d="M366.137,145.648c-3.6,4.378-14.475,10.45-17.661,10.906s-14.122-17.684-12.929-20.763,14.468-16.881,20.131-18.069S369.87,141.113,366.137,145.648Z" transform="translate(-335.457 -112.997)"/><g transform="translate(10.464)"><path class="k" d="M347.914,121.05c-.433,2.973,3.318,1.782,3.318,1.782s-4.987,3.016-4.249,6.253c.721,3.119,5.2,1.52,5.524,1.41-.262.162-4.772,3.053-3.7,6.23,1.122,3.3,5.346.924,5.618.769-.2.231-2.79,3.324-1.423,5.552,2.352,3.826,9.194-3.9,12.829-3.97,0,0,.819,6.148.88,6.322,0,0,6.661-7.22,6.294-12.118a3.136,3.136,0,0,0-2.638-2.913s2.4-2.091,1.635-4.618c-.4-1.3-2.827-1.813-2.827-1.813a3.931,3.931,0,0,0,1.03-3.961c-.652-1.762-2.986-2.006-2.986-2.006s1-2.511-.253-4.1C364.456,110.672,348.847,114.685,347.914,121.05Z" transform="translate(-346.499 -112.748)"/><g transform="translate(4.457 5.04)"><path class="b" d="M367.077,118.142a.043.043,0,0,0,0-.085,27.96,27.96,0,0,0-15.834,5.086c-.144.107-.032.388.149.3A57.249,57.249,0,0,1,367.077,118.142Z" transform="translate(-351.172 -118.057)"/><path class="b" d="M369.531,124.471c.062-.009.045-.113-.022-.111a26.185,26.185,0,0,0-16.928,6.621c-.159.15-.151.444.045.286C355.927,128.593,364.393,125.332,369.531,124.471Z" transform="translate(-351.237 -118.376)"/><path class="b" d="M354.591,138.842c4.6-4.02,10.035-6.159,15.927-7.555.077-.018.044-.124-.025-.127-3.069-.1-6.733,1.178-9.5,2.416a16.109,16.109,0,0,0-6.545,5.1C354.383,138.771,354.494,138.927,354.591,138.842Z" transform="translate(-351.336 -118.719)"/></g><path class="b" d="M351.21,123.369A18.383,18.383,0,0,0,348.7,125.6a6.159,6.159,0,0,0-1.618,2.774,2.022,2.022,0,0,0,.227,1.433,2.929,2.929,0,0,0,1.062,1.046,3.588,3.588,0,0,0,2.924.063l2.308-.857-1.87,1.608a10.093,10.093,0,0,0-2.119,2.484,3.606,3.606,0,0,0-.524,2.9,2.06,2.06,0,0,0,2.083,1.542,6.225,6.225,0,0,0,2.967-.972l2.508-1.492-1.875,2.22a9.5,9.5,0,0,0-1.314,2.029,3.9,3.9,0,0,0-.433,2.209,1.856,1.856,0,0,0,1.256,1.5,4.1,4.1,0,0,0,2.281-.26,32.277,32.277,0,0,0,4.533-2.247c.748-.412,1.5-.827,2.27-1.206a6.087,6.087,0,0,1,2.446-.761,6.561,6.561,0,0,0-2.334.969c-.732.432-1.445.9-2.16,1.367a27.422,27.422,0,0,1-4.511,2.538,4.791,4.791,0,0,1-2.725.4,2.63,2.63,0,0,1-1.938-2.138,4.768,4.768,0,0,1,.463-2.756,10.4,10.4,0,0,1,1.43-2.281l.634.729a7.159,7.159,0,0,1-3.492,1.183,2.98,2.98,0,0,1-1.926-.611,3.373,3.373,0,0,1-1.106-1.661,4.554,4.554,0,0,1,.662-3.673,10.937,10.937,0,0,1,2.375-2.695l.438.751a4.288,4.288,0,0,1-3.611-.27,3.62,3.62,0,0,1-1.247-1.362,2.608,2.608,0,0,1-.211-1.839,6.3,6.3,0,0,1,1.934-2.87A15.025,15.025,0,0,1,351.21,123.369Z" transform="translate(-346.478 -113.285)"/></g><g transform="translate(1.938 2.669)"><path class="k" d="M337.5,132.935s6.743-23.093,14.477-16.035c2.3,2.1,9.234,13.453,6.98,14.89-2.91,1.855-6.69-2.344-8.644-5.358,0,0-1.188,8.178-7.128,9.048A5.963,5.963,0,0,1,337.5,132.935Z" transform="translate(-337.498 -115.559)"/><path class="b" d="M351.666,116.4a12.6,12.6,0,0,1,2.637,2.547,27.3,27.3,0,0,1,2.127,3.005,42.252,42.252,0,0,1,3.386,6.555,6.924,6.924,0,0,1,.476,1.9,2.585,2.585,0,0,1-.136,1.109,1.812,1.812,0,0,1-.3.54,1.921,1.921,0,0,1-.46.4,3.1,3.1,0,0,1-2.1.418,5.786,5.786,0,0,1-1.888-.686,11.111,11.111,0,0,1-2.878-2.481,25.034,25.034,0,0,1-2.2-3l.779-.18a14.891,14.891,0,0,1-.767,2.716,13.722,13.722,0,0,1-1.253,2.5,9.522,9.522,0,0,1-1.846,2.1,7.219,7.219,0,0,1-2.4,1.353,8.132,8.132,0,0,0,2.2-1.572,9.814,9.814,0,0,0,1.586-2.156,13.118,13.118,0,0,0,1.059-2.457,14.134,14.134,0,0,0,.578-2.591l.128-1.086.65.9a26.736,26.736,0,0,0,2.211,2.818A10.834,10.834,0,0,0,355.9,131.3a3.02,3.02,0,0,0,2.94.3c.731-.392.442-1.7.064-2.773a34.927,34.927,0,0,0-1.405-3.311c-.514-1.1-1.042-2.187-1.624-3.246A23.34,23.34,0,0,0,351.666,116.4Z" transform="translate(-337.869 -115.601)"/></g></g></g><g transform="translate(0 12.11)"><path class="a" d="M320.177,141.571l11.289,25.31s-18.293,6.445-24.253,4.34-22.805-19.889-30.81-33.66-3.291-15.581,9.946-6.266,23.718,15.853,24.125,15.679S320.177,141.571,320.177,141.571Z" transform="translate(-272.478 -125.503)"/><path class="b" d="M318.807,146.358c-.036-.08-.169-.026-.142.057a216.377,216.377,0,0,0,8.361,22.067c.034.08.169.026.142-.058A216.637,216.637,0,0,0,318.807,146.358Z" transform="translate(-274.812 -126.555)"/><path class="l" d="M297.107,163.422c-7.121-6.931-15.666-17.195-20.708-25.863-6.485-11.147-4.624-14.46,3.352-10.368Z" transform="translate(-272.478 -125.503)"/></g></g><g transform="translate(45.671 36.891)"><path class="a" d="M276.09,166.215l-1.865,14.823s-31.023-3.1-47.02-16.759c0,0,17.075-34.248,34.424-41.6,8.677-3.677,15.29-.11,17.64,6.277.6,1.616,7.261,19.717,5.638,26.977C283.461,162.332,276.09,166.215,276.09,166.215Z" transform="translate(-227.205 -121.196)"/><g transform="translate(38.629 10.436)"><path class="b" d="M277.5,132.59l-.055-.266-.009-.069v-.037c-.012-.023.055-.046.06-.017a.684.684,0,0,1,.067.126c.071.168.13.34.189.512.117.343.212.692.31,1.041.19.7.361,1.4.519,2.109.321,1.414.542,2.846.74,4.282a47.538,47.538,0,0,1,.387,8.7,30.632,30.632,0,0,1-1.55,8.6,17.27,17.27,0,0,1-4.665,7.377l.066-.105c-.872,2.607-1.788,5.2-2.705,7.789l-1.405,3.877c-.49,1.284-.958,2.58-1.559,3.817.553-1.258.962-2.572,1.407-3.87l1.288-3.915,2.49-7.855.018-.058.048-.048a18.237,18.237,0,0,0,4.206-7.279,35.484,35.484,0,0,0,1.461-8.384,62.392,62.392,0,0,0-.138-8.579c-.11-1.432-.3-2.856-.486-4.281-.1-.712-.209-1.423-.339-2.131l-.213-1.058c-.038-.176-.078-.351-.128-.522a.6.6,0,0,0-.047-.119c.037-.03,0,.061.015.091Z" transform="translate(-267.89 -132.187)"/></g><path class="b" d="M287.283,145.791c-.033-.157-.074-.312-.109-.468a12.107,12.107,0,0,0-.076-1.81,11.59,11.59,0,0,0-.513-2.154.037.037,0,0,0-.071.022,20.8,20.8,0,0,1,.456,3.065,42.164,42.164,0,0,0-1.945-6.169.048.048,0,0,0-.092.028c.628,2.506,1.284,5,1.819,7.53s.933,5.059,1.384,7.589c.017.1.17.067.167-.027A42.9,42.9,0,0,0,287.283,145.791Z" transform="translate(-230.122 -122.057)"/><g transform="translate(38.629 17.156)"><path class="b" d="M277.662,140.175a.91.91,0,1,1-.91-.91A.91.91,0,0,1,277.662,140.175Z" transform="translate(-268.292 -139.265)"/><circle class="b" cx="0.91" cy="0.91" r="0.91" transform="translate(7.769 8.672)"/><circle class="b" cx="0.91" cy="0.91" r="0.91" transform="translate(2.697 23.854)"/><circle class="b" cx="0.91" cy="0.91" r="0.91" transform="translate(0 31.864)"/><circle class="b" cx="0.91" cy="0.91" r="0.91" transform="translate(6.641 16.45)"/></g></g><g transform="translate(0 36.538)"><g transform="translate(0 0.135)"><path class="k" d="M255.442,120.967c-22.57.093-40.262,4.886-44.359,10.016-3.387,4.241-13.888,22.782-18.323,34.09-1.245,3.174,24.068,14.515,24.971,10.984,1.4-5.466,12.932-31.946,13.05-32.372.254-.913,22.918-10.249,28.71-12.389C270.114,127.37,267.406,120.918,255.442,120.967Z" transform="translate(-179.792 -120.967)"/><g transform="translate(0 42.195)"><path class="k" d="M200.562,207.953a4.06,4.06,0,0,1-3.4-3.15,6.027,6.027,0,0,1-4.073.441c-2.38-.7-2.326-4.74-2.326-4.74a7.424,7.424,0,0,1-4.369-.218c-2.211-.9-2.738-4.983-2.738-4.983a6.512,6.512,0,0,1-3.721-2.612c-2.229-3.54.549-9.292,2.278-12.967s10.076-12.478,11.5-14.317l23.68,10.894s-3.065,18.685-5.712,22.717C209.446,202.414,203.716,208.274,200.562,207.953Z" transform="translate(-179.104 -165.407)"/><g transform="translate(4.506 19.551)"><path class="b" d="M198.592,206.342c3.238-3.042,5.4-6.876,7.772-10.581.053-.082-.077-.163-.129-.081-2.319,3.711-5.344,6.915-7.806,10.527A.107.107,0,0,0,198.592,206.342Z" transform="translate(-184.586 -186.486)"/><path class="b" d="M191.732,201.846a11.56,11.56,0,0,0,1.682-2.519q.8-1.4,1.552-2.82,1.508-2.848,2.874-5.769c.04-.086-.083-.169-.129-.081-1.005,1.89-2.04,3.766-3.125,5.612q-.813,1.386-1.65,2.759a13.81,13.81,0,0,0-1.454,2.659A.154.154,0,0,0,191.732,201.846Z" transform="translate(-184.235 -186.232)"/><path class="b" d="M183.939,196.265a8.056,8.056,0,0,0,1.394-2.348q.661-1.312,1.335-2.617c.9-1.738,1.8-3.477,2.761-5.184.047-.084-.081-.166-.129-.081-.985,1.729-1.992,3.445-2.96,5.182q-.715,1.28-1.414,2.568a7.59,7.59,0,0,0-1.076,2.437A.054.054,0,0,0,183.939,196.265Z" transform="translate(-183.85 -185.999)"/></g></g></g><g transform="translate(18.338)"><path class="a" d="M223.926,163.611l-25.508-12.579s8.464-19.072,13.6-22.762,27-7.6,42.929-7.442c16.19.158,16.848,6.548,1.64,12.092s-24.985,10.569-25.075,11S223.926,163.611,223.926,163.611Z" transform="translate(-198.418 -120.824)"/><g transform="translate(4.128 14.316)"><path class="b" d="M226.761,161.433c1.111-2.662,6.3-16.628,6.478-16.74.359-.226,6.18-3.063,7.9-3.9,1.467-.714,2.948-1.4,4.43-2.084,1.253-.266,2.509-.525,3.735-.9a.074.074,0,0,0-.032-.143,20.333,20.333,0,0,0-2.589.525c1.624-.744,3.251-1.481,4.873-2.227.031-.015.012-.07-.021-.058-3.671,1.283-18.73,7.964-18.757,8.188-.038.315-6.177,16.764-6.209,17.135C226.563,161.317,226.729,161.511,226.761,161.433Z" transform="translate(-203.969 -135.902)"/><path class="b" d="M224.144,158.063c.082.033.14-.1.063-.14a216.4,216.4,0,0,0-21.343-10.064c-.08-.033-.139.1-.063.14A216.593,216.593,0,0,0,224.144,158.063Z" transform="translate(-202.766 -136.506)"/></g></g></g><g transform="translate(85.42)"><g transform="translate(0.428)"><g transform="translate(1.759 22.952)"><path class="k" d="M271.373,121.741c-.019.965,2.828,7.984,7.041,8.847,1.373.278,3.228-7.148,3.228-7.148l.263-.517,3.666-7.238-7.544-8.074-1.108-1.1s-.873,2.046-1.933,4.6c-.05.119-.1.237-.151.365-.065.143-.126.278-.179.414-.163.38-.328.769-.485,1.16-.121.3-.238.585-.353.9s-.237.623-.361.937A52.265,52.265,0,0,0,271.373,121.741Z" transform="translate(-271.373 -106.515)"/><path class="b" d="M275.178,111.12a16.276,16.276,0,0,0,6.92,11.8l3.666-7.238-7.544-8.074-1.108-1.1S276.239,108.561,275.178,111.12Z" transform="translate(-271.565 -106.515)"/></g><path class="k" d="M298.554,100.4c2.852,13.951-5.181,17.234-8.19,17.845-2.732.555-12.1,2.1-16.381-11.481s1.306-19.318,7.486-20.918S295.7,86.45,298.554,100.4Z" transform="translate(-269.67 -82.496)"/><g transform="translate(15.802 13.147)"><g transform="translate(4.996 12.152)"><path class="b" d="M294.831,109.366a4.115,4.115,0,0,1-1.256,1.663,1.854,1.854,0,0,1-1.067.362c-.842.007-1.057-.709-1.08-1.365a4.418,4.418,0,0,1,.1-1.039A5.335,5.335,0,0,0,294.831,109.366Z" transform="translate(-291.425 -108.987)"/><path class="m" d="M293.575,111.083a1.854,1.854,0,0,1-1.067.362c-.842.007-1.057-.709-1.08-1.365A1.914,1.914,0,0,1,293.575,111.083Z" transform="translate(-291.426 -109.041)"/></g><path class="b" d="M296.293,97.533a9.441,9.441,0,0,1-.984,0,1.588,1.588,0,0,1-1-.2.5.5,0,0,1-.123-.606,1.256,1.256,0,0,1,1.154-.536,1.847,1.847,0,0,1,1.266.406A.54.54,0,0,1,296.293,97.533Z" transform="translate(-286.566 -96.188)"/><path class="b" d="M286.956,100.868a9.345,9.345,0,0,0,.976-.117,1.591,1.591,0,0,0,.974-.309.507.507,0,0,0,.054-.616,1.256,1.256,0,0,0-1.207-.4,1.846,1.846,0,0,0-1.212.547A.541.541,0,0,0,286.956,100.868Z" transform="translate(-286.175 -96.351)"/><g transform="translate(0 6.417)"><g transform="translate(1.477)"><path class="b" d="M289.788,103.791c-.016-.034-.065.062-.054.1.247.938.372,2.054-.411,2.565-.024.015-.01.063.021.05C290.353,106.119,290.171,104.639,289.788,103.791Z" transform="translate(-287.8 -102.989)"/><path class="b" d="M288.636,102.956c-1.546.234-.966,3.308.467,3.092C290.513,105.834,289.932,102.759,288.636,102.956Z" transform="translate(-287.719 -102.946)"/></g><path class="b" d="M287.985,103.245c-.236.224-.441.581-.759.675-.368.107-.712-.161-1.015-.424-.031-.028-.053,0-.047.046.1.591.443,1.153,1.092,1.12.591-.028.907-.629.942-1.249C288.205,103.3,288.079,103.154,287.985,103.245Z" transform="translate(-286.164 -102.96)"/></g><g transform="translate(8.637 4.289)"><g transform="translate(0 0.422)"><path class="b" d="M295.261,102.4c0-.038.083.031.088.07.142.96.467,2.035,1.387,2.2.028,0,.034.053,0,.055C295.658,104.761,295.241,103.33,295.261,102.4Z" transform="translate(-295.26 -101.213)"/><path class="b" d="M295.932,101.185c1.513-.394,2.19,2.661.788,3.027C295.341,104.571,294.664,101.516,295.932,101.185Z" transform="translate(-295.26 -101.15)"/></g><path class="b" d="M296.679,101.222c.277.108.581.349.873.3.34-.052.514-.438.657-.8.014-.038.045-.018.054.023.146.58.087,1.231-.449,1.468-.489.216-.976-.2-1.244-.754C296.521,101.361,296.567,101.179,296.679,101.222Z" transform="translate(-295.325 -100.706)"/></g><path class="b" d="M291.067,111.946c.262.193.536.469.888.449a2.571,2.571,0,0,0,1-.388.034.034,0,0,1,.048.043,1.305,1.305,0,0,1-1.144.7,1.031,1.031,0,0,1-.875-.742C290.959,111.949,291.029,111.919,291.067,111.946Z" transform="translate(-286.407 -96.984)"/><g transform="translate(5.081 1.322)"><path class="b" d="M294.646,106.761s.481,1.381.616,2.05c.012.063-.144.125-.368.184-.01.006-.015.01-.026.006a3.246,3.246,0,0,1-3.331-.567c-.06-.056.011-.142.081-.113a4.9,4.9,0,0,0,3.074.249c.009-.2-.9-2.337-.8-2.366a5.953,5.953,0,0,1,1.589.039c-.92-2.9-2.3-5.637-3.17-8.542a.093.093,0,0,1,.166-.079,49.323,49.323,0,0,1,3.806,9.055C296.416,107.047,294.937,106.821,294.646,106.761Z" transform="translate(-291.515 -97.58)"/></g></g><path class="b" d="M275.078,108.326c2.349-.433,1.6-5.4,1.6-5.4s4.679-1.228,4.436-8.36a10.715,10.715,0,0,1-.593,6.109s8.011-3.063,9.649-10.883c0,0-.451,3.88-1.418,5.476a9.992,9.992,0,0,0,4.142-5.138s2.5,3.6,3.9,4.4c0,0-.462-7.485-4.443-10.283-8.388-5.9-16.518,3.735-16.518,3.735s-5.39,2.5-6.167,7.309C268.466,102.725,275.078,108.326,275.078,108.326Z" transform="translate(-269.521 -82.342)"/><g transform="translate(1.198 21.431)"><path class="k" d="M276.772,108.126s-3.4-4.226-5.337-2.984.826,7.512,3.247,8.233a2.408,2.408,0,0,0,3.132-1.508Z" transform="translate(-270.783 -104.913)"/><path class="b" d="M272.35,107.026c-.039,0-.042.053-.009.065a6.085,6.085,0,0,1,3.394,3.588,1.329,1.329,0,0,0-2.009-.229c-.041.033.006.1.051.085a1.48,1.48,0,0,1,1.661.406,7.194,7.194,0,0,1,.868,1.263c.087.143.349.046.281-.121l-.016-.038C276.472,109.931,274.632,107.087,272.35,107.026Z" transform="translate(-270.86 -105.02)"/></g></g><g transform="translate(0 35.933)"><path class="a" d="M281.507,124.27l-3.955,5.524-5.719-9.607-2.764,1.961s4.44,14.127,4.622,13.583l3.812-4.663,2.748,4.561,1.954-9.292Z" transform="translate(-269.07 -120.187)"/><path class="b" d="M281.486,131.23c.272-1.545.588-3.093.787-4.649.007-.056-.071-.1-.1-.04-.664,1.394-1.669,7.308-2.017,8.7l-.011-.02c-.114-.2-2.588-4.055-2.633-4.014-.752.7-3.542,4.1-3.754,4.415-.7-2.243-3.477-10.453-4.419-12.642a.054.054,0,0,0-.1.03c.536,2.319,4.171,13.35,4.269,13.345a61.2,61.2,0,0,0,4-4.936,41.317,41.317,0,0,0,2.857,4.84A49.12,49.12,0,0,0,281.486,131.23Z" transform="translate(-269.078 -120.326)"/></g><path class="f" d="M272.341,120.195c-.682-1.613-2.523,1.784-1.062,3.759,2.163,2.925,6.262,6.4,7.161,6.417s3.823-3.6,4.168-4.388-.45-2.56-.735-2.389-2.785,4.021-3.141,4.2S273.806,123.659,272.341,120.195Z" transform="translate(-269.154 -84.233)"/></g></g></g></g></svg>