<svg xmlns="http://www.w3.org/2000/svg" width="440.196" height="313.41" viewBox="0 0 440.196 313.41"><defs><style>.a,.f{fill:#ebebeb;}.b{fill:#fafafa;}.c,.o,.r,.v{fill:#fff;}.d{fill:#e0e0e0;}.e{fill:#f0f0f0;}.f,.o,.s{opacity:0.5;}.g{fill:#f5f5f5;}.h{fill:#b55b52;}.i{fill:#263238;}.j{fill:#b65b52;}.k,.n,.p,.s,.u{fill:#407bff;}.l,.n{opacity:0.2;}.m{fill:#a02724;}.p{opacity:0.4;}.q{fill:#ffc727;}.r,.t,.v{opacity:0.8;}.u{opacity:0.3;}.v{fill-rule:evenodd;}</style></defs><g transform="translate(-700 -2687.024)"><g transform="translate(700 2687.024)"><g transform="translate(0 0)"><rect class="a" width="428" height="0.214" transform="translate(0 280.293)"/><rect class="a" width="28.353" height="0.214" transform="translate(44.905 288.445)"/><rect class="a" width="47.436" height="0.214" transform="translate(146.496 286.123)"/><rect class="a" width="16.429" height="0.214" transform="translate(77.896 293.529)"/><rect class="a" width="36.974" height="0.214" transform="translate(329.953 288.338)"/><rect class="a" width="5.421" height="0.214" transform="translate(374.548 288.338)"/><rect class="a" width="40.093" height="0.214" transform="translate(237.294 291.342)"/><path class="a" d="M208.386,297.07H43.093a4.892,4.892,0,0,1-4.886-4.886V59.838a4.891,4.891,0,0,1,4.886-4.885H208.386a4.891,4.891,0,0,1,4.885,4.885V292.184A4.892,4.892,0,0,1,208.386,297.07ZM43.093,55.167a4.677,4.677,0,0,0-4.672,4.671V292.184a4.677,4.677,0,0,0,4.672,4.672H208.386a4.677,4.677,0,0,0,4.671-4.672V59.838a4.676,4.676,0,0,0-4.671-4.671Z" transform="translate(-5.502 -54.953)"/><path class="a" d="M424.682,297.07H259.39a4.891,4.891,0,0,1-4.885-4.886V59.838a4.891,4.891,0,0,1,4.885-4.885H424.682a4.891,4.891,0,0,1,4.887,4.885V292.184A4.892,4.892,0,0,1,424.682,297.07ZM259.39,55.167a4.676,4.676,0,0,0-4.671,4.671V292.184a4.677,4.677,0,0,0,4.671,4.672H424.682a4.678,4.678,0,0,0,4.673-4.672V59.838a4.677,4.677,0,0,0-4.673-4.671Z" transform="translate(-36.649 -54.953)"/></g><g transform="translate(51.31 10.767)"><g transform="translate(26.167)"><g transform="translate(3.604 1.795)"><rect class="b" width="165.257" height="118.635" transform="translate(8.614 4.079)"/><path class="c" d="M274.477,193.028,232.443,74.394H200.9l42.033,118.635Z" transform="translate(-110.01 -70.314)"/><path class="c" d="M178.756,193.028,136.723,74.394H125.217l42.033,118.635Z" transform="translate(-99.112 -70.314)"/><path class="d" d="M95.454,69.628H276.471a.736.736,0,0,1,.734.734h0a.736.736,0,0,1-.734.734H95.454a.736.736,0,0,1-.734-.734h0A.736.736,0,0,1,95.454,69.628Z" transform="translate(-94.72 -69.628)"/><rect class="e" width="1.958" height="119.145" transform="translate(90.263 3.824)"/><rect class="d" width="0.979" height="119.145" transform="translate(89.284 3.824)"/><rect class="e" width="1.958" height="167.542" transform="translate(7.472 64.376) rotate(-90)"/><path class="e" d="M103.449,192.02h0V73.059H270.99V192.02h0v1.959H103.449Zm165.583,0v-117H105.407v117Z" transform="translate(-95.977 -70.122)"/><rect class="d" width="0.979" height="120.919" transform="translate(6.493 2.937)"/></g><path class="f" d="M125.88,67.531v139.32H90.51L97,67.531Z" transform="translate(-90.51 -67.531)"/><path class="f" d="M269.651,67.531v139.32h35.37l-6.487-139.32Z" transform="translate(-116.306 -67.531)"/></g><g transform="translate(0 152.443)"><rect class="e" width="13.49" height="109.422" transform="translate(1.697 3.57)"/><rect class="e" width="148.624" height="4.091" transform="translate(4.287 112.993)"/><rect class="g" width="140.315" height="109.422" transform="translate(155.502 112.993) rotate(180)"/><rect class="e" width="13.788" height="3.57"/><rect class="b" width="143.412" height="3.57" transform="translate(157.199 3.57) rotate(180)"/><path class="d" d="M213.963,312.628H83.35V258.545H213.963Zm-129.707-.907h128.8v-52.27H84.256Z" transform="translate(-63.312 -247.479)"/><path class="d" d="M213.963,362.985H83.35V328.052H213.963ZM84.256,362.08h128.8V328.958H84.256Z" transform="translate(-63.312 -257.488)"/><rect class="d" width="95.419" height="2.904" rx="1.398" transform="translate(37.635 11.518)"/><rect class="d" width="95.419" height="2.904" rx="1.398" transform="translate(37.635 71.016)"/></g><g transform="translate(243.967 24.839)"><rect class="e" width="78.476" height="239.437" transform="translate(80.966 239.437) rotate(180)"/><rect class="d" width="2.49" height="239.437" transform="translate(0 0)"/><rect class="b" width="53.011" height="221.17" transform="translate(68.234 230.304) rotate(180)"/></g></g></g><g transform="translate(734.601 2976.747)"><ellipse class="g" cx="202.798" cy="11.844" rx="202.798" ry="11.844" transform="translate(0 0)"/></g><g transform="translate(751.227 2723.352)"><g transform="translate(0 0)"><path class="h" d="M142.665,404.38l6.7-2.542-4.1-16.2-6.7,2.542Z" transform="translate(-71.18 -138.9)"/><path class="h" d="M84.527,404.892h7.168l1.074-16.6H85.6Z" transform="translate(-63.399 -139.282)"/><path class="i" d="M91.983,406.715h-8.74a.588.588,0,0,0-.586.49l-1.1,6.371a1.115,1.115,0,0,0,1.113,1.275c2.809-.049,4.854-.213,8.395-.213,2.179,0,8.76.226,11.769.226,2.942,0,3.254-2.975,2.008-3.244-5.583-1.209-9.828-2.874-11.675-4.464A1.821,1.821,0,0,0,91.983,406.715Z" transform="translate(-62.969 -141.935)"/><path class="i" d="M149.488,403.356l-7.32,2.776a.626.626,0,0,0-.4.675l.936,6.459a1.044,1.044,0,0,0,1.417.827c2.623-1.047,4.849-2.374,8.19-3.573a55.74,55.74,0,0,0,10.944-4.916c2.482-1.581,1.436-4.574.266-4.1-5.327,2.138-6.633,2.841-12.224,1.766A3.323,3.323,0,0,0,149.488,403.356Z" transform="translate(-71.641 -141.177)"/><path class="j" d="M127.087,152.492c2.256,3.986,4.633,8.094,7.027,12.07,2.394,3.993,4.855,7.939,7.463,11.64.633.937,1.334,1.833,1.964,2.7a2.37,2.37,0,0,0,.556.645,2.071,2.071,0,0,0,1.3.2,8.993,8.993,0,0,0,2.394-.569,29.59,29.59,0,0,0,5.528-2.895c.923-.607,1.86-1.233,2.778-1.9s1.841-1.392,2.677-2.036l4.02,3.579a37.888,37.888,0,0,1-2.352,3.058c-.817.973-1.667,1.931-2.593,2.834a33.682,33.682,0,0,1-2.943,2.629,25.026,25.026,0,0,1-3.451,2.347,17.309,17.309,0,0,1-4.351,1.771,11.691,11.691,0,0,1-5.782-.017,10.869,10.869,0,0,1-5.276-3.331c-.859-1-1.7-1.926-2.482-2.91a135.3,135.3,0,0,1-8.644-12.026c-2.647-4.13-5.092-8.265-7.407-12.659Z" transform="translate(-68.149 -105.327)"/><g transform="translate(46.035 41.875)"><path class="k" d="M113.812,151.932c-1.933,6.575,11.673,24.5,11.673,24.5L139.2,167.6a87.492,87.492,0,0,0-9.507-16.12C124.078,144.323,115.934,144.716,113.812,151.932Z" transform="translate(-113.624 -146.312)"/><path class="l" d="M113.812,151.932c-1.933,6.575,11.673,24.5,11.673,24.5L139.2,167.6a87.492,87.492,0,0,0-9.507-16.12C124.078,144.323,115.934,144.716,113.812,151.932Z" transform="translate(-113.624 -146.312)"/></g><path class="l" d="M122.7,161.871c2.822,1.206,6.975,8,9.136,13.039l-5.822,3.742a109.645,109.645,0,0,1-8.752-13.717C119.1,162.916,121.207,161.238,122.7,161.871Z" transform="translate(-68.113 -106.658)"/><path class="h" d="M164.73,177.122l2.514-7.039,7.134,3.4s-1.481,6.278-6.7,6.268Z" transform="translate(-74.948 -107.86)"/><path class="h" d="M174.015,164.667,177.033,168l-2.233,4.7-7.134-3.4Z" transform="translate(-75.371 -107.08)"/><path class="l" d="M145.263,385.647,147.38,394l-6.705,2.543-2.116-8.348Z" transform="translate(-71.18 -138.901)"/><path class="l" d="M85.685,388.3h7.171l-.557,8.556H85.128Z" transform="translate(-63.486 -139.283)"/><g transform="translate(14.271 40.8)"><path class="k" d="M76.517,148.843c7.721,27.229,6.457,56.119,6.94,61.989,5.618-.2,26.778-1,38.314-1.436,6.508-40.587-5.18-63.178-5.18-63.178s-2.458-.478-5.8-.82c-1.049-.108-2.18-.2-3.357-.264-.651-.039-1.311-.06-1.982-.074A141.98,141.98,0,0,0,89.2,146.272c-1.02.127-2.057.28-3.059.443-.931.159-1.845.328-2.7.5C79.528,147.994,76.517,148.843,76.517,148.843Z" transform="translate(-76.517 -145.056)"/><path class="l" d="M76.517,148.843c7.721,27.229,6.457,56.119,6.94,61.989,5.618-.2,26.778-1,38.314-1.436,6.508-40.587-5.18-63.178-5.18-63.178s-2.458-.478-5.8-.82c-1.049-.108-2.18-.2-3.357-.264-.651-.039-1.311-.06-1.982-.074A141.98,141.98,0,0,0,89.2,146.272c-1.02.127-2.057.28-3.059.443-.931.159-1.845.328-2.7.5C79.528,147.994,76.517,148.843,76.517,148.843Z" transform="translate(-76.517 -145.056)"/></g><path class="l" d="M85.308,163.126c.688,2.634-.1,14.654-2.849,17.619-.375-3.849-.875-7.867-1.536-11.975Z" transform="translate(-62.88 -106.858)"/><path class="h" d="M91.579,124.956c1.414,5.153,3.151,14.658-.248,18.42,3.052,2.613,7.011,5.6,13.237,5.358s4.823-4.435,3.016-6.566c-5.936-.959-6.107-5.3-5.394-9.436Z" transform="translate(-64.379 -101.362)"/><g transform="translate(24.063 40.176)"><path class="k" d="M106.476,151.7l1.13.765-4.126,1.2,1.063-1.91Z" transform="translate(-90.191 -145.388)"/><path class="k" d="M108.728,151.229,108.3,152.4l4.143,1.2-.28-2.217Z" transform="translate(-90.885 -145.321)"/><path class="c" d="M88.368,145.847,90,145.029a1.567,1.567,0,0,1,1.638.139,32.541,32.541,0,0,0,12.6,5.546c-3.274,1.563-2.464,5.756-2.464,5.756s-10.4-3.43-13.741-9.64A.728.728,0,0,1,88.368,145.847Z" transform="translate(-87.956 -144.404)"/><path class="c" d="M111.917,144.691l-2.391-.36a.317.317,0,0,0-.306.5c.836,1.184,2.222,3.8-.422,5.407,3.275,1.563,4.293,5.388,4.293,5.388s4.263-4.6-.707-10.667A.758.758,0,0,0,111.917,144.691Z" transform="translate(-90.957 -144.327)"/></g><path class="l" d="M96.66,128.663l6.28,4.6a16.734,16.734,0,0,0-.287,2.922c-2.251-.157-5.494-2.375-5.9-4.689A7.859,7.859,0,0,1,96.66,128.663Z" transform="translate(-65.133 -101.895)"/><path class="i" d="M111.833,111.5a7.093,7.093,0,0,1-4.219,5.168l-1.924-10.836C110.014,102.787,112.237,108.007,111.833,111.5Z" transform="translate(-66.447 -98.476)"/><path class="h" d="M89.064,114.162c1.246,7,1.62,11.167,5.6,14.377,5.987,4.829,14.322.595,15.193-6.64.785-6.512-1.385-16.872-8.613-18.883A9.7,9.7,0,0,0,89.064,114.162Z" transform="translate(-64.03 -98.148)"/><path class="i" d="M89.537,118.13c3.243,1.724,4.673-2.151,4.7-3.721.045-2.5-1.039-5.246-2.331-6.251,6.262-.038,18.653-.31,15.528-6.276S98.05,96.6,93.331,99.86c-2.494,1.724-10.557.223-8.557,4.875C80.569,106.967,84.216,115.3,89.537,118.13Z" transform="translate(-63.171 -97.392)"/><path class="i" d="M85.365,105.343a5.118,5.118,0,0,1-3.091-1.052,2.931,2.931,0,0,0,2.736,2.268Z" transform="translate(-63.075 -98.386)"/><path class="h" d="M85.951,122.063a6.767,6.767,0,0,0,3.908,3.377c2.256.729,2.773-1.34,2.226-3.518-.493-1.961-1.556-4.631-3.859-4.412A3.037,3.037,0,0,0,85.951,122.063Z" transform="translate(-63.551 -100.287)"/><path class="i" d="M133.493,296c-2.914-21.683-8.347-75.778-8.347-75.778l-25.187.944s11.88,54.061,16.179,75.979S132.4,371.973,132.4,371.973l11.351-4.3S136.525,318.547,133.493,296Z" transform="translate(-65.621 -115.08)"/><path class="l" d="M110,238.354a13.258,13.258,0,0,0-5.6,2.866c2.375,10.931,5.484,25.318,8.153,38C114.379,268.234,114.433,247.507,110,238.354Z" transform="translate(-66.262 -117.691)"/><path class="i" d="M108.96,220.819s-5.344,58.685-7.792,79.544c-2.68,22.843-6.028,70.718-6.028,70.718H82.011s-.544-42.342,1.162-64.7c1.944-25.47,1.065-84.629,1.065-84.629Z" transform="translate(-63.025 -115.166)"/><path class="k" d="M96.745,395.862H81.286l-.325-4.618,17.26-.3Z" transform="translate(-62.886 -139.664)"/><path class="k" d="M150.34,391.28l-13.524,5.129-1.657-4.369,15.03-5.964Z" transform="translate(-70.69 -138.963)"/><path class="i" d="M101.854,116.775c.066.574.424,1,.8.962s.626-.544.56-1.119-.424-1-.8-.961S101.787,116.2,101.854,116.775Z" transform="translate(-65.893 -100.022)"/><path class="i" d="M109.438,115.9c.066.574.424,1,.8.962s.627-.544.56-1.119-.424-1-.8-.961S109.372,115.327,109.438,115.9Z" transform="translate(-66.985 -99.896)"/><path class="m" d="M107.067,116.7a20.694,20.694,0,0,0,3.31,4.6,3.332,3.332,0,0,1-2.684.831Z" transform="translate(-66.645 -100.173)"/><path class="i" d="M104.587,124.863a4.765,4.765,0,0,1-3.462-1.508.17.17,0,0,1,.262-.217,4.588,4.588,0,0,0,3.914,1.352.17.17,0,1,1,.039.337A5.457,5.457,0,0,1,104.587,124.863Z" transform="translate(-65.784 -101.091)"/><path class="i" d="M99.179,114.41a.337.337,0,0,1-.166-.047.34.34,0,0,1-.12-.465,3.368,3.368,0,0,1,2.586-1.709.339.339,0,0,1,.032.678h0a2.693,2.693,0,0,0-2.032,1.376A.34.34,0,0,1,99.179,114.41Z" transform="translate(-65.461 -99.523)"/><path class="i" d="M111.954,112.745a.338.338,0,0,1-.28-.157,2.694,2.694,0,0,0-2.078-1.306.339.339,0,0,1,.009-.679,3.375,3.375,0,0,1,2.642,1.62.339.339,0,0,1-.293.522Z" transform="translate(-66.961 -99.295)"/><g transform="translate(29.419 259.108)"><path class="k" d="M96.24,407.873a8.632,8.632,0,0,1-1.888-.257.183.183,0,0,1-.135-.138.162.162,0,0,1,.069-.171c.253-.163,2.5-1.584,3.308-1.177a.576.576,0,0,1,.315.48.978.978,0,0,1-.306.9A2.09,2.09,0,0,1,96.24,407.873Zm-1.408-.5a3.424,3.424,0,0,0,2.539-.129.664.664,0,0,0,.2-.616.219.219,0,0,0-.117-.2C97.031,406.22,95.744,406.833,94.832,407.377Z" transform="translate(-94.213 -400.948)"/><path class="k" d="M94.391,407.337a.18.18,0,0,1-.178-.183c0-.087.071-2.155.871-2.836a.892.892,0,0,1,.712-.218h0a.59.59,0,0,1,.562.445c.191.8-1.165,2.369-1.887,2.772A.166.166,0,0,1,94.391,407.337Zm1.3-2.905a.573.573,0,0,0-.383.149,3.909,3.909,0,0,0-.735,2.245c.71-.56,1.565-1.746,1.452-2.219-.01-.043-.035-.144-.257-.171h0A.582.582,0,0,0,95.694,404.432Z" transform="translate(-94.213 -400.665)"/><path class="k" d="M151.938,404a.17.17,0,0,1-.131-.283c.245-.272,2.421-2.66,3.407-2.515a.539.539,0,0,1,.423.323h0a.951.951,0,0,1-.005.885c-.488.93-2.509,1.394-3.671,1.589Zm3.16-2.466c-.572.016-1.822,1.127-2.692,2.037,1.573-.315,2.652-.8,2.926-1.32a.619.619,0,0,0,0-.583.2.2,0,0,0-.165-.131A.335.335,0,0,0,155.1,401.529Z" transform="translate(-102.5 -400.247)"/><path class="k" d="M151.9,403.837a.153.153,0,0,1-.048-.005.171.171,0,0,1-.121-.12,4.848,4.848,0,0,1,.062-2.976,1.243,1.243,0,0,1,.777-.606h0c.453-.121.663.052.759.219.41.712-.643,2.769-1.314,3.439A.171.171,0,0,1,151.9,403.837Zm.932-3.408a.747.747,0,0,0-.175.028h0a.9.9,0,0,0-.57.448,3.98,3.98,0,0,0-.1,2.4c.638-.809,1.3-2.362,1.049-2.788C153.022,400.492,152.982,400.424,152.834,400.429Zm-.218-.135h0Z" transform="translate(-102.464 -400.089)"/></g><g transform="translate(0 43.96)"><path class="j" d="M82,160.484c-2.15,4.43-4.342,9-6.466,13.5-1.054,2.264-2.112,4.522-3.109,6.791l-1.486,3.4-.71,1.7-.177.425-.124.316c-.088.2-.145.407-.22.611a10.377,10.377,0,0,0-.281,5.207,17.894,17.894,0,0,0,2.257,5.694,35.345,35.345,0,0,0,4.075,5.517c.778.889,1.594,1.761,2.452,2.6.428.418.865.829,1.308,1.228.425.4.91.826,1.288,1.155l-2.856,4.562a35.193,35.193,0,0,1-3.589-2.1c-1.138-.749-2.253-1.541-3.333-2.4a36.892,36.892,0,0,1-5.981-5.954,25.056,25.056,0,0,1-4.325-8.014,19.256,19.256,0,0,1-.414-9.909c.1-.407.194-.822.321-1.221l.33-1.061.608-1.887c.421-1.245.838-2.5,1.3-3.717.9-2.46,1.84-4.889,2.85-7.283,2-4.815,4.165-9.458,6.613-14.121Z" transform="translate(-59.845 -149.723)"/><g transform="translate(1.301)"><path class="k" d="M74.337,149.375C67.8,151.424,61.365,173.6,61.365,173.6L76.5,180.222s4.895-10.716,7.709-19.114C87.273,151.96,82.259,146.895,74.337,149.375Z" transform="translate(-61.365 -148.747)"/><path class="l" d="M74.337,149.375C67.8,151.424,61.365,173.6,61.365,173.6L76.5,180.222s4.895-10.716,7.709-19.114C87.273,151.96,82.259,146.895,74.337,149.375Z" transform="translate(-61.365 -148.747)"/></g><path class="h" d="M81.818,215.915l6.258,3.72-6.087,6.06s-5.287-4.066-3.71-7.252Z" transform="translate(-62.457 -158.419)"/><path class="h" d="M92.928,226.193l-6.277,4.4-3.988-4.269,6.087-6.06Z" transform="translate(-63.131 -159.045)"/></g></g></g><g transform="translate(838.633 2764.059)"><g transform="translate(0 0)"><rect class="k" width="4.137" height="0.857" transform="matrix(0.072, -0.997, 0.997, 0.072, 244.896, 63.277)"/><rect class="k" width="11.993" height="0.857" transform="translate(245.45 55.503) rotate(-85.856)"/><path class="k" d="M385.229,323.006H175.563a10.728,10.728,0,0,1-10.814-11.648L175.843,156.6a12.755,12.755,0,0,1,12.483-11.648H397.992A10.727,10.727,0,0,1,408.8,156.6L397.712,311.358A12.755,12.755,0,0,1,385.229,323.006Z" transform="translate(-162.352 -144.947)"/><path class="k" d="M351.859,402.091H283.8L271.673,318h68.055Z" transform="translate(-177.754 -169.866)"/><path class="k" d="M340.093,410.384H266.475l-1.462,5.011h73.619Z" transform="translate(-176.795 -183.17)"/><path class="i" d="M343.321,358.479l-66.331-3.624L271.673,318h65.808Z" transform="translate(-177.754 -169.866)"/><path class="i" d="M382.464,323.006H172.8a10.728,10.728,0,0,1-10.814-11.648L173.078,156.6a12.755,12.755,0,0,1,12.483-11.648H395.227A10.727,10.727,0,0,1,406.04,156.6L394.947,311.358A12.755,12.755,0,0,1,382.464,323.006Z" transform="translate(-161.954 -144.947)"/><rect class="c" width="89.01" height="0.818" transform="matrix(0.072, -0.997, 0.997, 0.072, 237.201, 101.933)"/><rect class="c" width="30.82" height="0.818" transform="translate(234.448 140.388) rotate(-85.901)"/><g transform="translate(2.394 2.897)"><g transform="translate(0.867)"><path class="c" d="M382.569,320.6H174.205a8.349,8.349,0,0,1-8.417-9.066L176.836,157.4a9.927,9.927,0,0,1,9.716-9.067H394.917a8.35,8.35,0,0,1,8.417,9.067L392.286,311.531A9.927,9.927,0,0,1,382.569,320.6Z" transform="translate(-165.765 -148.331)"/><path class="n" d="M382.569,320.6H174.205a8.349,8.349,0,0,1-8.417-9.066L176.836,157.4a9.927,9.927,0,0,1,9.716-9.067H394.917a8.35,8.35,0,0,1,8.417,9.067L392.286,311.531A9.927,9.927,0,0,1,382.569,320.6Z" transform="translate(-165.765 -148.331)"/><path class="o" d="M229.191,314.915H180.529a4.034,4.034,0,0,1-4.066-4.381L187.2,160.692a4.8,4.8,0,0,1,4.694-4.38H240.56a4.034,4.034,0,0,1,4.066,4.38l-10.74,149.842A4.8,4.8,0,0,1,229.191,314.915Z" transform="translate(-167.304 -149.48)"/></g><path class="p" d="M231.007,179.012H205.822a3.634,3.634,0,0,1-3.663-3.945l.277-3.862a4.32,4.32,0,0,1,4.229-3.945H231.85a3.633,3.633,0,0,1,3.663,3.945l-.277,3.862A4.321,4.321,0,0,1,231.007,179.012Z" transform="translate(-170.137 -151.057)"/><g transform="translate(0 36.35)"><path class="q" d="M209.609,243.014h-38.45a6.34,6.34,0,0,1-6.39-6.884l2.755-38.45A7.539,7.539,0,0,1,174.9,190.8h38.449a6.34,6.34,0,0,1,6.391,6.884l-2.756,38.45A7.538,7.538,0,0,1,209.609,243.014Z" transform="translate(-164.751 -190.796)"/><path class="c" d="M223.054,214.971a2.874,2.874,0,0,0-2.812,2.624l-.4,5.583a2.416,2.416,0,0,0,2.435,2.624h3.9a.711.711,0,0,0,.7-.651l.683-9.529a.6.6,0,0,0-.6-.651Z" transform="translate(-172.683 -194.277)"/><path class="c" d="M202.022,201.874H177.786a.969.969,0,0,1-.977-1.052h0a1.152,1.152,0,0,1,1.127-1.052h24.236a.969.969,0,0,1,.977,1.052h0A1.152,1.152,0,0,1,202.022,201.874Z" transform="translate(-166.487 -192.088)"/><path class="c" d="M201.573,208.129H177.337a.968.968,0,0,1-.976-1.052h0a1.152,1.152,0,0,1,1.127-1.052h24.235a.969.969,0,0,1,.977,1.052h0A1.151,1.151,0,0,1,201.573,208.129Z" transform="translate(-166.423 -192.989)"/><path class="c" d="M192.751,214.384H176.889a.969.969,0,0,1-.977-1.052h0a1.152,1.152,0,0,1,1.127-1.052H192.9a.969.969,0,0,1,.977,1.052h0A1.152,1.152,0,0,1,192.751,214.384Z" transform="translate(-166.358 -193.89)"/><path class="o" d="M201.688,240.954H178.241a4.144,4.144,0,0,1-4.177-4.5l.883-12.319a4.928,4.928,0,0,1,4.823-4.5h23.448a4.144,4.144,0,0,1,4.177,4.5l-.883,12.319A4.927,4.927,0,0,1,201.688,240.954Z" transform="translate(-166.091 -194.949)"/></g><g transform="translate(23.469 99.067)"><path class="p" d="M226.7,267.965H197.523a1.8,1.8,0,0,1-1.811-1.951h0a2.136,2.136,0,0,1,2.091-1.951h29.174a1.8,1.8,0,0,1,1.811,1.951h0A2.137,2.137,0,0,1,226.7,267.965Z" transform="translate(-192.678 -264.063)"/><path class="r" d="M221.622,276.91H203.109a1.8,1.8,0,0,1-1.811-1.951h0a2.137,2.137,0,0,1,2.091-1.952H221.9a1.8,1.8,0,0,1,1.811,1.952h0A2.137,2.137,0,0,1,221.622,276.91Z" transform="translate(-193.482 -265.351)"/><path class="p" d="M224.928,292.652H195.753a1.8,1.8,0,0,1-1.811-1.951h0a2.136,2.136,0,0,1,2.091-1.951h29.174a1.8,1.8,0,0,1,1.811,1.951h0A2.136,2.136,0,0,1,224.928,292.652Z" transform="translate(-192.423 -267.618)"/><path class="r" d="M219.853,301.6H201.34a1.8,1.8,0,0,1-1.811-1.951h0a2.136,2.136,0,0,1,2.09-1.951h18.513a1.8,1.8,0,0,1,1.811,1.951h0A2.136,2.136,0,0,1,219.853,301.6Z" transform="translate(-193.227 -268.906)"/><path class="p" d="M223.159,317.339H193.984a1.8,1.8,0,0,1-1.811-1.951h0a2.136,2.136,0,0,1,2.091-1.951h29.174a1.8,1.8,0,0,1,1.811,1.951h0A2.136,2.136,0,0,1,223.159,317.339Z" transform="translate(-192.168 -271.173)"/><path class="r" d="M218.083,326.285H199.57a1.8,1.8,0,0,1-1.811-1.952h0a2.136,2.136,0,0,1,2.091-1.951h18.513a1.8,1.8,0,0,1,1.811,1.951h0A2.137,2.137,0,0,1,218.083,326.285Z" transform="translate(-192.972 -272.461)"/></g><g transform="translate(73.748 99.423)"><path class="s" d="M397.09,288.459a2.135,2.135,0,0,1,4,1.121l-2.808,39.162a3.743,3.743,0,0,1-3.4,3.657H253.79c-1.73,0-3.018-1.639-2.874-3.657l1.668-23.268a5.048,5.048,0,0,1,6.354-4.483c7.952,2.479,14.767,1.023,21.1-2.116,13.545-6.725,24.878-21.156,40.45-21.156.6,0,1.185.015,1.757.053,23.163,1.4,30.22,30.169,48.165,30.169,5.3,0,10.145-2.289,14.361-5.553A58.16,58.16,0,0,0,397.09,288.459Z" transform="translate(-250.905 -266.386)"/><path class="s" d="M400.018,302.687l-1.731,24.148a3.743,3.743,0,0,1-3.4,3.657H253.79c-1.73,0-3.018-1.639-2.874-3.657l3.439-47.985c.235-3.287,4.544-4.67,6.287-2.01,4.5,6.868,11.428,15.738,19.4,20.128a19.831,19.831,0,0,0,9.531,2.7c11.4,0,21.1-13.525,32.676-23.8,7.1-6.3,14.907-11.387,24.245-11.387,19.494,0,22.369,31.673,38.28,36,3.068.839,6.617.657,10.866-.967A3.161,3.161,0,0,1,400.018,302.687Z" transform="translate(-250.905 -264.479)"/><g class="t" transform="translate(0.86 26.442)"><path class="c" d="M425.861,298.082a.314.314,0,0,1-.205-.086.214.214,0,0,1-.06-.094.265.265,0,0,1-.027-.111.281.281,0,0,1,.087-.205.286.286,0,0,1,.41,0,.263.263,0,0,1,.086.205.457.457,0,0,1-.018.111.34.34,0,0,1-.068.094A.3.3,0,0,1,425.861,298.082Z" transform="translate(-276.917 -295.676)"/><path class="c" d="M264.145,317.831a.288.288,0,0,1-.291-.29h0a.287.287,0,0,1,.291-.282v-.009a.293.293,0,0,1,.29.291h0a.3.3,0,0,1-.29.3h0Zm-2.936-.162h.009a.285.285,0,0,1-.265-.317h0a.29.29,0,0,1,.325-.257h0a.289.289,0,0,1,.257.317h0a.3.3,0,0,1-.291.265h0A.063.063,0,0,1,261.209,317.669Zm5.538-.257a.291.291,0,0,1,.256-.325h0a.29.29,0,0,1,.325.257h0a.291.291,0,0,1-.256.325h-.034A.3.3,0,0,1,266.747,317.412Zm-8.432-.189a.306.306,0,0,1-.231-.35h0a.308.308,0,0,1,.351-.231h0a.309.309,0,0,1,.231.351h0a.3.3,0,0,1-.292.23h-.059Zm11.291-.29a.29.29,0,0,1,.214-.359h0a.3.3,0,0,1,.351.214h0a.3.3,0,0,1-.214.359h0v-.009h0a.215.215,0,0,1-.069.009h0A.279.279,0,0,1,269.606,316.932Zm93.621.12a.289.289,0,0,1-.291-.292h0a.294.294,0,0,1,.291-.29h0a.288.288,0,0,1,.29.29h0a.288.288,0,0,1-.29.292Zm2.611-.411a.283.283,0,0,1,.257-.317h0a.285.285,0,0,1,.325.256h0a.3.3,0,0,1-.265.325h-.026A.3.3,0,0,1,365.838,316.641Zm-5.538.231a.284.284,0,0,1-.248-.326h0a.291.291,0,0,1,.325-.256h0a.3.3,0,0,1,.256.325h0a.3.3,0,0,1-.29.265h0A.076.076,0,0,1,360.3,316.873Zm-104.826-.351a.3.3,0,0,1-.205-.359h0a.3.3,0,0,1,.368-.206h0a.3.3,0,0,1,.2.368h0a.285.285,0,0,1-.282.205h0A.234.234,0,0,1,255.474,316.522Zm113.24-.282a.282.282,0,0,1,.23-.342h0a.291.291,0,0,1,.343.231h0a.29.29,0,0,1-.231.342h0c-.017,0-.034.008-.051.008h0A.3.3,0,0,1,368.714,316.239Zm-11.292.1a.279.279,0,0,1-.214-.351h0a.29.29,0,0,1,.352-.214h0a.294.294,0,0,1,.214.351h0a.293.293,0,0,1-.282.223h0A.173.173,0,0,1,357.422,316.342Zm-85.043-.24a.286.286,0,0,1,.171-.378h0a.294.294,0,0,1,.376.164h0a.289.289,0,0,1-.17.376h0a.218.218,0,0,1-.1.027h0A.3.3,0,0,1,272.38,316.1Zm99.167-.505a.3.3,0,0,1,.206-.369h0a.3.3,0,0,1,.359.206h0a.3.3,0,0,1-.205.359h0a.231.231,0,0,1-.077.018h0A.3.3,0,0,1,371.546,315.6Zm-16.931-.1h0a.29.29,0,0,1-.18-.368h0a.3.3,0,0,1,.377-.18h0a.3.3,0,0,1,.18.377h0a.3.3,0,0,1-.282.187h0A.174.174,0,0,1,354.616,315.495Zm-79.574-.548a.293.293,0,0,1,.128-.395h0a.3.3,0,0,1,.393.138h0a.286.286,0,0,1-.128.385h0a.253.253,0,0,1-.137.034h0A.292.292,0,0,1,275.042,314.947Zm99.287-.205a.284.284,0,0,1,.172-.369l.008-.008a.3.3,0,0,1,.369.18h0a.3.3,0,0,1-.18.377h0a.361.361,0,0,1-.094.016h0A.294.294,0,0,1,374.328,314.741Zm-22.418-.36h0a.288.288,0,0,1-.146-.385h0a.3.3,0,0,1,.385-.146h0a.291.291,0,0,1,.146.394h0a.3.3,0,0,1-.265.171h0A.2.2,0,0,1,351.911,314.382Zm25.132-.668a.288.288,0,0,1,.163-.378h0a.276.276,0,0,1,.377.155h0a.288.288,0,0,1-.155.385h0a.247.247,0,0,1-.11.017h0A.3.3,0,0,1,377.043,313.714Zm-99.467-.171a.3.3,0,0,1,.094-.411h0a.292.292,0,0,1,.4.093h0a.293.293,0,0,1-.094.4h0a.257.257,0,0,1-.154.051h0A.308.308,0,0,1,277.576,313.543Zm71.724-.471h0a.3.3,0,0,1-.121-.4h0a.3.3,0,0,1,.4-.111h0a.291.291,0,0,1,.111.394h0a.3.3,0,0,1-.257.154h0A.419.419,0,0,1,349.3,313.072Zm30.405-.531a.289.289,0,0,1,.137-.386h0a.3.3,0,0,1,.394.138h0a.291.291,0,0,1-.146.385h0l.009.009h0a.345.345,0,0,1-.128.026h0A.287.287,0,0,1,379.7,312.541Zm-99.716-.608a.3.3,0,0,1,.068-.411h0a.3.3,0,0,1,.412.06h0a.3.3,0,0,1-.068.411h0a.32.32,0,0,1-.171.059h0A.3.3,0,0,1,279.989,311.934Zm66.786-.325V311.6h0a.28.28,0,0,1-.094-.394h0a.275.275,0,0,1,.394-.1h0a.287.287,0,0,1,.1.4h0a.3.3,0,0,1-.248.146h0A.32.32,0,0,1,346.775,311.608Zm35.533-.368a.288.288,0,0,1,.119-.394h0a.3.3,0,0,1,.395.12h0a.3.3,0,0,1-.12.4h0a.4.4,0,0,1-.138.034h0A.291.291,0,0,1,382.307,311.24Zm-99.989-1.061a.288.288,0,0,1,.043-.411h0a.294.294,0,0,1,.41.043h0a.3.3,0,0,1-.042.419h0a.309.309,0,0,1-.188.061h0A.261.261,0,0,1,282.318,310.179Zm61.992-.128v-.009h0a.29.29,0,0,1-.086-.4h0a.3.3,0,0,1,.411-.086h0a.3.3,0,0,1,.086.4h0a.288.288,0,0,1-.249.136h0A.353.353,0,0,1,344.309,310.05Zm40.539-.214a.293.293,0,0,1,.1-.4h0a.3.3,0,0,1,.4.1h0a.3.3,0,0,1-.1.4h0a.349.349,0,0,1-.154.043h0A.29.29,0,0,1,384.849,309.836Zm-42.962-1.4a.3.3,0,0,1-.077-.412h0a.308.308,0,0,1,.411-.076h0a.308.308,0,0,1,.077.411h0a.3.3,0,0,1-.249.128h0A.3.3,0,0,1,341.887,308.433Zm45.445-.1a.305.305,0,0,1,.094-.412h0a.292.292,0,0,1,.4.1h0a.292.292,0,0,1-.094.4h0a.24.24,0,0,1-.154.052h0A.311.311,0,0,1,387.332,308.33Zm-102.763.016a.294.294,0,0,1,.034-.41h0a.306.306,0,0,1,.419.034h0a.287.287,0,0,1-.044.41h0a.251.251,0,0,1-.187.068h0A.3.3,0,0,1,284.569,308.346Zm105.2-1.609a.3.3,0,0,1,.069-.41h0a.293.293,0,0,1,.412.077h0a.288.288,0,0,1-.077.4h0a.3.3,0,0,1-.163.052h0A.289.289,0,0,1,389.771,306.737Zm-50.29.068a.283.283,0,0,1-.076-.4h0a.29.29,0,0,1,.4-.086h0a.292.292,0,0,1,.077.411h0a.276.276,0,0,1-.24.128h0A.3.3,0,0,1,339.481,306.805Zm-52.678-.324a.282.282,0,0,1,.034-.411h0a.3.3,0,0,1,.412.034h0a.3.3,0,0,1-.034.411h0a.27.27,0,0,1-.188.068h0A.279.279,0,0,1,286.8,306.481Zm50.265-1.284a.287.287,0,0,1-.086-.4h0a.286.286,0,0,1,.4-.086h0a.292.292,0,0,1,.086.4h0a.275.275,0,0,1-.24.128h0A.273.273,0,0,1,337.068,305.2Zm55.084-.137a.28.28,0,0,1,.06-.4h0a.3.3,0,0,1,.41.06h0a.3.3,0,0,1-.069.411h0a.3.3,0,0,1-.17.051h0A.263.263,0,0,1,392.151,305.06Zm-103.114-.437a.289.289,0,0,1,.043-.411h0a.3.3,0,0,1,.411.043h0a.286.286,0,0,1-.043.41h0a.256.256,0,0,1-.189.069h0A.282.282,0,0,1,289.037,304.623Zm45.59-.993a.292.292,0,0,1-.093-.4h0a.292.292,0,0,1,.4-.094h0a.292.292,0,0,1,.094.4h0a.3.3,0,0,1-.248.146h0A.261.261,0,0,1,334.627,303.63Zm59.852-.308a.289.289,0,0,1,.052-.411h0a.29.29,0,0,1,.411.051h0a.306.306,0,0,1-.051.411h-.009a.262.262,0,0,1-.171.06h0A.291.291,0,0,1,394.479,303.322Zm-103.164-.5a.3.3,0,0,1,.06-.411h0a.3.3,0,0,1,.411.06h0a.3.3,0,0,1-.061.41h0a.31.31,0,0,1-.17.061h0A.3.3,0,0,1,291.314,302.826Zm40.822-.676a.292.292,0,0,1-.1-.4h0a.283.283,0,0,1,.394-.1h0a.278.278,0,0,1,.111.394h0a.3.3,0,0,1-.257.154h0A.368.368,0,0,1,332.136,302.149Zm64.612-.642a.289.289,0,0,1,.043-.411h0a.289.289,0,0,1,.411.042h0a.3.3,0,0,1-.034.412h0a.34.34,0,0,1-.189.068h0A.287.287,0,0,1,396.748,301.507Zm-103.071-.377a.292.292,0,0,1,.076-.411h0a.3.3,0,0,1,.412.086h0a.291.291,0,0,1-.086.4h0a.284.284,0,0,1-.162.051h0A.3.3,0,0,1,293.677,301.131Zm35.918-.359a.291.291,0,0,1-.12-.394h0a.3.3,0,0,1,.394-.129h0a.316.316,0,0,1,.128.4h0a.312.312,0,0,1-.264.154h0A.269.269,0,0,1,329.595,300.771Zm69.378-1.139a.3.3,0,0,1,.027-.411h.009a.3.3,0,0,1,.411.025h0a.3.3,0,0,1-.034.412h0a.267.267,0,0,1-.188.077h0A.292.292,0,0,1,398.973,299.633Zm-102.839-.051a.291.291,0,0,1,.111-.4h0a.293.293,0,0,1,.394.112h0a.3.3,0,0,1-.111.4h.008a.322.322,0,0,1-.145.034h0A.291.291,0,0,1,296.134,299.581Zm30.859-.052h0a.291.291,0,0,1-.145-.385h0a.288.288,0,0,1,.385-.146h0a.287.287,0,0,1,.146.386h0a.293.293,0,0,1-.265.171h0A.284.284,0,0,1,326.992,299.529Zm-2.671-1.086a.285.285,0,0,1-.171-.377h0a.3.3,0,0,1,.377-.172h0a.3.3,0,0,1,.171.378h0a.286.286,0,0,1-.274.187h0A.225.225,0,0,1,324.322,298.443Zm-25.62-.205a.3.3,0,0,1,.146-.385h0a.294.294,0,0,1,.394.146h0a.3.3,0,0,1-.154.385h0a.274.274,0,0,1-.121.026h0A.286.286,0,0,1,298.7,298.237Zm22.881-.693a.3.3,0,0,1-.2-.369h0a.3.3,0,0,1,.368-.2h0a.3.3,0,0,1,.2.368h0a.3.3,0,0,1-.283.205h0A.321.321,0,0,1,321.583,297.544Zm-20.194-.4a.292.292,0,0,1,.189-.368h0a.291.291,0,0,1,.368.188h0a.292.292,0,0,1-.188.369h0a.308.308,0,0,1-.094.017h0A.292.292,0,0,1,301.389,297.142Zm17.4-.308a.291.291,0,0,1-.222-.342h0a.283.283,0,0,1,.351-.223h0a.282.282,0,0,1,.223.342h0a.3.3,0,0,1-.291.232h0A.174.174,0,0,1,318.791,296.834Zm-14.621-.488a.294.294,0,0,1,.232-.351h0a.29.29,0,0,1,.341.222h0a.289.289,0,0,1-.222.352h0c-.017,0-.043.008-.06.008h0A.3.3,0,0,1,304.171,296.346Zm11.788-.009h0a.3.3,0,0,1-.248-.335h0a.284.284,0,0,1,.325-.248h.008a.3.3,0,0,1,.248.335h0a.3.3,0,0,1-.291.248h-.043Zm-8.928-.488a.288.288,0,0,1,.257-.317h0a.285.285,0,0,1,.325.256h0a.3.3,0,0,1-.266.326h-.025A.3.3,0,0,1,307.031,295.849Zm6.06.188h.009a.283.283,0,0,1-.274-.307h0a.289.289,0,0,1,.308-.274h0a.3.3,0,0,1,.274.317h0a.291.291,0,0,1-.291.274h0C313.108,296.046,313.1,296.037,313.09,296.037Zm-3.166-.376a.283.283,0,0,1,.291-.291h0a.288.288,0,0,1,.291.291h0a.29.29,0,0,1-.291.291h0A.289.289,0,0,1,309.924,295.661Z" transform="translate(-252.392 -295.369)"/><path class="c" d="M252.2,318.911a.253.253,0,0,1-.111-.027.227.227,0,0,1-.094-.068.17.17,0,0,1-.06-.093.237.237,0,0,1-.026-.111.314.314,0,0,1,.086-.205.214.214,0,0,1,.094-.06.254.254,0,0,1,.223,0,.175.175,0,0,1,.094.06.277.277,0,0,1,.086.205.225.225,0,0,1-.018.111.181.181,0,0,1-.068.093.295.295,0,0,1-.205.1Z" transform="translate(-251.91 -298.674)"/></g></g><g transform="translate(83.642 19.231)"><g transform="translate(0 0.048)"><path class="c" d="M300.733,214.865h0l-2-2.153a19.6,19.6,0,0,1-13.323,5.357,16.741,16.741,0,0,1-16.7-13.56l-3,.788h0l-2.739.72a22.115,22.115,0,0,0,5.469,10.816c8.688,9.359,24.089,9.359,34.118,0Z" transform="translate(-262.537 -175.699)"/><path class="i" d="M311.02,179.047l-2.616,2.44h0l-1.806,1.686a17.027,17.027,0,0,1,4.436,12.932,19.7,19.7,0,0,1-6.285,12.939l1.566,1.685h0l2.26,2.434a26.046,26.046,0,0,0,8.29-17.059A22.561,22.561,0,0,0,311.02,179.047Z" transform="translate(-268.553 -172.033)"/><path class="q" d="M304.931,177.867c-8.688-9.353-24.09-9.353-34.118,0a25.523,25.523,0,0,0-7.915,23.3l3.388-.89h0l2.348-.617a18.156,18.156,0,0,1-.275-4.736,19.969,19.969,0,0,1,19.6-18.289,16.941,16.941,0,0,1,12.549,5.357l2.315-2.16h0Z" transform="translate(-262.464 -170.852)"/></g><g transform="translate(59.085)"><path class="c" d="M339.456,210.149h0L341.763,208a17.045,17.045,0,0,1-4.43-12.938,20.057,20.057,0,0,1,14.827-17.676l-.577-2.941h0l-.527-2.687A26.425,26.425,0,0,0,339.794,178c-10.031,9.36-11.134,24.76-2.446,34.118Z" transform="translate(-331.488 -170.935)"/><path class="i" d="M372.452,218.211l-2.266-2.44h0l-1.565-1.685a19.578,19.578,0,0,1-13.317,5.363,16.953,16.953,0,0,1-12.555-5.357l-1.807,1.686h0l-2.608,2.434a22.427,22.427,0,0,0,16.552,7.067A25.927,25.927,0,0,0,372.452,218.211Z" transform="translate(-332.474 -177.03)"/><path class="q" d="M374.758,211.977c10.023-9.359,11.127-24.759,2.446-34.118a23.007,23.007,0,0,0-22.856-6.244L355,174.94h0l.452,2.3a19.012,19.012,0,0,1,4.78-.615,16.8,16.8,0,0,1,16.979,18.29,19.681,19.681,0,0,1-6.284,12.932l2,2.16h0Z" transform="translate(-334.78 -170.797)"/></g></g><path class="u" d="M422.283,173.178a1.68,1.68,0,0,1,1.7,1.834l-1.058,14.765a2.151,2.151,0,0,1-2.08,1.942H406.08a1.679,1.679,0,0,1-1.7-1.834l1.058-14.764a2.15,2.15,0,0,1,2.079-1.943h14.765m0-.755H407.517a2.9,2.9,0,0,0-2.832,2.643l-1.058,14.765a2.434,2.434,0,0,0,2.453,2.643h14.765a2.894,2.894,0,0,0,2.833-2.643l1.058-14.765a2.434,2.434,0,0,0-2.454-2.643Z" transform="translate(-199.148 -151.8)"/><path class="u" d="M420.155,202.859a1.679,1.679,0,0,1,1.7,1.834L420.8,219.458a2.149,2.149,0,0,1-2.079,1.942H403.953a1.678,1.678,0,0,1-1.7-1.834l1.058-14.764a2.149,2.149,0,0,1,2.079-1.942h14.765m0-.756H405.39a2.894,2.894,0,0,0-2.832,2.643L401.5,219.511a2.435,2.435,0,0,0,2.454,2.644h14.765a2.894,2.894,0,0,0,2.833-2.644l1.059-14.765a2.435,2.435,0,0,0-2.454-2.643Z" transform="translate(-198.842 -156.074)"/><path class="k" d="M397.617,298.3a1.4,1.4,0,0,1,1.429,1.541,1.8,1.8,0,0,1-1.765,1.65,1.4,1.4,0,0,1-1.429-1.542,1.8,1.8,0,0,1,1.765-1.649m0-.756A2.567,2.567,0,0,0,395.1,299.9a2.159,2.159,0,0,0,2.183,2.351A2.565,2.565,0,0,0,399.8,299.9a2.159,2.159,0,0,0-2.182-2.351Z" transform="translate(-197.92 -169.818)"/><g transform="translate(199.509 90.653)"><path class="k" d="M398.2,297.43l-.376-.027.054-.753.376.027Z" transform="translate(-397.822 -260.342)"/><path class="k" d="M398.391,289.409l-.376-.026.111-1.546.376.027Zm.222-3.091-.377-.027.111-1.546.377.027Zm.222-3.093-.377-.027.111-1.545.377.027Zm.221-3.091-.376-.027.111-1.547.376.027Zm.222-3.092-.376-.027.111-1.545.376.027Zm.223-3.092-.376-.027.11-1.546.376.027Zm.222-3.092-.377-.027.11-1.546.377.027Zm.222-3.091-.377-.027.11-1.546.377.027Zm.221-3.093-.376-.027.111-1.545.376.027Zm.222-3.091-.376-.026.111-1.547.376.027Zm.222-3.092-.376-.027.11-1.546.377.027Z" transform="translate(-397.85 -254.621)"/><rect class="k" width="0.755" height="0.377" transform="translate(2.603 0.753) rotate(-85.938)"/></g><path class="k" d="M396.53,252.2H260.984a2.666,2.666,0,0,1-2.68-2.889l.669-9.331a3.092,3.092,0,0,1,3.032-2.83H397.551a2.665,2.665,0,0,1,2.68,2.888l-.669,9.332A3.094,3.094,0,0,1,396.53,252.2ZM262,237.966a2.261,2.261,0,0,0-2.216,2.069l-.669,9.332a1.846,1.846,0,0,0,1.864,2.01H396.53a2.262,2.262,0,0,0,2.217-2.069l.669-9.331a1.847,1.847,0,0,0-1.864-2.011Z" transform="translate(-178.222 -161.121)"/><path class="v" d="M394.571,243.749H266.082a1.169,1.169,0,0,1-1.179-1.269h0a1.391,1.391,0,0,1,1.36-1.27H394.753a1.169,1.169,0,0,1,1.179,1.27h0A1.39,1.39,0,0,1,394.571,243.749Z" transform="translate(-179.173 -161.705)"/><path class="v" d="M373.093,250H265.633a1.17,1.17,0,0,1-1.179-1.269h0a1.391,1.391,0,0,1,1.361-1.27h107.46a1.17,1.17,0,0,1,1.179,1.27h0A1.391,1.391,0,0,1,373.093,250Z" transform="translate(-179.108 -162.606)"/></g></g></g></g></svg>