<svg xmlns="http://www.w3.org/2000/svg" width="1400" height="413" viewBox="0 0 1400 413"><defs><style>.a{fill:#c4d9ed;}.b{fill:#d5e7f7;}.c{fill:#dceaf9;}.d{fill:#adc9e0;}.e{fill:#2e3552;}.f{fill:#2b56f5;opacity:0.78;}</style></defs><g transform="translate(0 -7388)"><g transform="translate(73 114.81)"><g transform="translate(-73 7311)"><g transform="translate(867.6)"><rect class="a" width="125.68" height="324.991" transform="translate(0 0.105)"/><rect class="b" width="125.68" height="324.991" transform="translate(85.641 0.105)"/><g transform="translate(85.675)"><rect class="a" width="125.646" height="23.242"/><rect class="a" width="125.646" height="23.242" transform="translate(0 45.913)"/><rect class="a" width="125.646" height="23.242" transform="translate(0 78.753)"/><rect class="a" width="125.646" height="23.242" transform="translate(0 118.132)"/><rect class="a" width="125.646" height="23.242" transform="translate(0 157.51)"/><rect class="a" width="125.646" height="23.242" transform="translate(0 196.885)"/><rect class="a" width="125.646" height="23.242" transform="translate(0 229.728)"/><rect class="a" width="125.646" height="23.242" transform="translate(0 275.642)"/></g></g><g transform="translate(1032.564 56.926)"><rect class="a" width="125.68" height="268.08" transform="translate(0 0.09)"/><rect class="b" width="125.68" height="268.08" transform="translate(28.232 0.09)"/><g transform="translate(28.26)"><rect class="a" width="125.646" height="19.951"/><rect class="a" width="125.646" height="19.951" transform="translate(0 38.652)"/><rect class="a" width="125.646" height="19.951" transform="translate(0 64.49)"/><rect class="a" width="125.646" height="19.951" transform="translate(0 96.733)"/><rect class="a" width="125.646" height="19.951" transform="translate(0 128.98)"/><rect class="a" width="125.646" height="19.951" transform="translate(0 161.223)"/><rect class="a" width="125.646" height="19.951" transform="translate(0 187.058)"/><rect class="a" width="125.646" height="19.951" transform="translate(0 225.713)"/></g></g><rect class="c" width="52.628" height="50.505" transform="translate(873.337 354.264) rotate(180)"/><path class="b" d="M2877.94,1504.675v-24.931h14.389v-42.862h77.149v42.862H3041.6V1409.9H3121.2v45.34h18.15V1401.11h79.588V1502.6H3319.6v59.183h37.609v14.907h86.39v-25.673h49.6v-69.762h61.271v128.779h61.271V1722.1H2816.47V1504.675Z" transform="translate(-2672.401 -1350.47)"/><g transform="translate(725.403 106.339)"><rect class="a" width="61.812" height="19.974"/><rect class="a" width="61.812" height="19.974" transform="translate(0 29.704)"/><rect class="a" width="61.812" height="19.974" transform="translate(0 59.405)"/><rect class="a" width="61.812" height="19.974" transform="translate(0 90.542)"/><rect class="a" width="61.812" height="19.974" transform="translate(0 120.714)"/><rect class="a" width="61.812" height="19.974" transform="translate(0 150.882)"/><rect class="a" width="61.812" height="19.974" transform="translate(0 182.448)"/></g><rect class="a" width="22.788" height="87.284" transform="translate(708.324 122.909)"/><rect class="a" width="45.843" height="32.124" transform="translate(642.369 197.372)"/><path class="a" d="M3200.661,1430.64H3184.84v87.348h15.8Z" transform="translate(-2871.088 -1371.355)"/><rect class="a" width="9.712" height="67.688" transform="translate(406.132 57.935)"/><g transform="translate(155.708 56.339)"><rect class="a" width="79.633" height="12.939" transform="translate(311.24)"/><rect class="a" width="79.633" height="12.939" transform="translate(311.24 24.308)"/><rect class="a" width="79.633" height="12.939" transform="translate(311.24 46.178)"/><rect class="a" width="79.633" height="12.939" transform="translate(213.519 46.178)"/><rect class="a" width="79.633" height="12.939" transform="translate(213.519 24.308)"/><rect class="a" width="79.633" height="12.939" transform="translate(213.519 2.472)"/><rect class="a" width="177.376" height="12.939" transform="translate(213.496 67.382)"/><rect class="a" width="177.376" height="12.939" transform="translate(213.496 88.586)"/><rect class="a" width="177.376" height="8.212" transform="translate(213.496 109.308)"/><rect class="a" width="13.491" height="12.517" transform="translate(461.549 131.162)"/><rect class="a" width="13.491" height="12.517" transform="translate(436.318 131.162)"/><rect class="a" width="13.491" height="12.517" transform="translate(411.649 131.162)"/><rect class="a" width="13.491" height="12.517" transform="translate(388.264 131.162)"/><rect class="a" width="13.491" height="12.517" transform="translate(364.425 131.162)"/><rect class="a" width="13.491" height="12.517" transform="translate(340.319 131.162)"/><rect class="a" width="13.491" height="12.517" transform="translate(315.087 131.162)"/><rect class="a" width="13.491" height="12.517" transform="translate(290.418 131.162)"/><rect class="a" width="13.491" height="12.517" transform="translate(267.034 131.162)"/><rect class="a" width="13.491" height="12.517" transform="translate(243.194 131.162)"/><rect class="a" width="13.491" height="12.517" transform="translate(218.355 131.162)"/><rect class="a" width="13.491" height="12.517" transform="translate(193.123 131.162)"/><rect class="a" width="13.491" height="12.517" transform="translate(168.454 131.162)"/><rect class="a" width="13.491" height="12.517" transform="translate(145.07 131.162)"/><rect class="a" width="13.491" height="12.517" transform="translate(121.231 131.162)"/><rect class="a" width="13.491" height="12.517" transform="translate(97.124 131.162)"/><rect class="a" width="13.491" height="12.517" transform="translate(71.893 131.162)"/><rect class="a" width="13.491" height="12.517" transform="translate(47.224 131.162)"/><rect class="a" width="13.491" height="12.517" transform="translate(23.839 131.162)"/><rect class="a" width="13.491" height="12.517" transform="translate(0 131.162)"/><rect class="a" width="13.491" height="12.517" transform="translate(461.549 153.245)"/><rect class="a" width="13.491" height="12.517" transform="translate(436.318 153.245)"/><rect class="a" width="13.491" height="12.517" transform="translate(411.649 153.245)"/><rect class="a" width="13.491" height="12.517" transform="translate(388.264 153.245)"/><rect class="a" width="13.491" height="12.517" transform="translate(364.425 153.245)"/><rect class="a" width="13.491" height="12.517" transform="translate(340.319 153.245)"/><rect class="a" width="13.491" height="12.517" transform="translate(315.087 153.245)"/><rect class="a" width="13.491" height="12.517" transform="translate(290.418 153.245)"/><rect class="a" width="13.491" height="12.517" transform="translate(267.034 153.245)"/><rect class="a" width="13.491" height="12.517" transform="translate(243.194 153.245)"/><rect class="a" width="13.491" height="12.517" transform="translate(218.355 153.245)"/><rect class="a" width="13.491" height="12.517" transform="translate(193.123 153.245)"/><rect class="a" width="13.491" height="12.517" transform="translate(168.454 153.245)"/><rect class="a" width="13.491" height="12.517" transform="translate(145.07 153.245)"/><rect class="a" width="13.491" height="12.517" transform="translate(121.231 153.245)"/><rect class="a" width="13.491" height="12.517" transform="translate(97.124 153.245)"/><rect class="a" width="13.491" height="12.517" transform="translate(71.893 153.245)"/><rect class="a" width="13.491" height="12.517" transform="translate(47.224 153.245)"/><rect class="a" width="13.491" height="12.517" transform="translate(23.839 153.245)"/><rect class="a" width="13.491" height="12.517" transform="translate(0 153.245)"/><rect class="a" width="13.491" height="12.517" transform="translate(461.549 174.992)"/><rect class="a" width="13.491" height="12.517" transform="translate(436.318 174.992)"/><rect class="a" width="13.491" height="12.517" transform="translate(411.649 174.992)"/><rect class="a" width="13.491" height="12.517" transform="translate(388.264 174.992)"/><rect class="a" width="13.491" height="12.517" transform="translate(364.425 174.992)"/><rect class="a" width="13.491" height="12.517" transform="translate(340.319 174.992)"/><rect class="a" width="13.491" height="12.517" transform="translate(315.087 174.992)"/><rect class="a" width="13.491" height="12.517" transform="translate(290.418 174.992)"/><rect class="a" width="13.491" height="12.517" transform="translate(267.034 174.992)"/><rect class="a" width="13.491" height="12.517" transform="translate(243.194 174.992)"/><rect class="a" width="13.491" height="12.517" transform="translate(218.355 174.992)"/><rect class="a" width="13.491" height="12.517" transform="translate(193.123 174.992)"/><rect class="a" width="13.491" height="12.517" transform="translate(168.454 174.992)"/><rect class="a" width="13.491" height="12.517" transform="translate(145.07 174.992)"/><rect class="a" width="13.491" height="12.517" transform="translate(121.231 174.992)"/><rect class="a" width="13.491" height="12.517" transform="translate(97.124 174.992)"/><rect class="a" width="13.491" height="12.517" transform="translate(71.893 174.992)"/><rect class="a" width="13.491" height="12.517" transform="translate(47.224 174.992)"/><rect class="a" width="13.491" height="12.517" transform="translate(23.839 174.992)"/><rect class="a" width="13.491" height="12.517" transform="translate(0 174.992)"/><rect class="a" width="13.491" height="12.517" transform="translate(461.549 198.099)"/><rect class="a" width="13.491" height="12.517" transform="translate(436.318 198.099)"/><rect class="a" width="13.491" height="12.517" transform="translate(411.649 198.099)"/><rect class="a" width="13.491" height="12.517" transform="translate(388.264 198.099)"/><rect class="a" width="13.491" height="12.517" transform="translate(364.425 198.099)"/><rect class="a" width="13.491" height="12.517" transform="translate(340.319 198.099)"/><rect class="a" width="13.491" height="12.517" transform="translate(315.087 198.099)"/><rect class="a" width="13.491" height="12.517" transform="translate(290.418 198.099)"/><rect class="a" width="13.491" height="12.517" transform="translate(267.034 198.099)"/><rect class="a" width="13.491" height="12.517" transform="translate(243.194 198.099)"/><rect class="a" width="13.491" height="12.517" transform="translate(218.355 198.099)"/><rect class="a" width="13.491" height="12.517" transform="translate(193.123 198.099)"/><rect class="a" width="13.491" height="12.517" transform="translate(168.454 198.099)"/><rect class="a" width="13.491" height="12.517" transform="translate(145.07 198.099)"/><rect class="a" width="13.491" height="12.517" transform="translate(121.231 198.099)"/><rect class="a" width="13.491" height="12.517" transform="translate(97.124 198.099)"/><rect class="a" width="13.491" height="12.517" transform="translate(71.893 198.099)"/><rect class="a" width="13.491" height="12.517" transform="translate(47.224 198.099)"/><rect class="a" width="13.491" height="12.517" transform="translate(23.839 198.099)"/><rect class="a" width="13.491" height="12.517" transform="translate(0 198.099)"/><rect class="a" width="13.491" height="12.517" transform="translate(461.549 220.182)"/><rect class="a" width="13.491" height="12.517" transform="translate(436.318 220.182)"/><rect class="a" width="13.491" height="12.517" transform="translate(411.649 220.182)"/><rect class="a" width="13.491" height="12.517" transform="translate(388.264 220.182)"/><rect class="a" width="13.491" height="12.517" transform="translate(364.425 220.182)"/><rect class="a" width="13.491" height="12.517" transform="translate(340.319 220.182)"/><rect class="a" width="13.491" height="12.517" transform="translate(315.087 220.182)"/><rect class="a" width="13.491" height="12.517" transform="translate(290.418 220.182)"/><rect class="a" width="13.491" height="12.517" transform="translate(267.034 220.182)"/><rect class="a" width="13.491" height="12.517" transform="translate(243.194 220.182)"/><rect class="a" width="13.491" height="12.517" transform="translate(218.355 220.182)"/><rect class="a" width="13.491" height="12.517" transform="translate(193.123 220.182)"/><rect class="a" width="13.491" height="12.517" transform="translate(168.454 220.182)"/><rect class="a" width="13.491" height="12.517" transform="translate(145.07 220.182)"/><rect class="a" width="13.491" height="12.517" transform="translate(121.231 220.182)"/><rect class="a" width="13.491" height="12.517" transform="translate(97.124 220.182)"/><rect class="a" width="13.491" height="12.517" transform="translate(71.893 220.182)"/><rect class="a" width="13.491" height="12.517" transform="translate(47.224 220.182)"/><rect class="a" width="13.491" height="12.517" transform="translate(23.839 220.182)"/><rect class="a" width="13.491" height="12.517" transform="translate(0 220.182)"/><rect class="a" width="13.491" height="12.513" transform="translate(461.549 241.928)"/><rect class="a" width="13.491" height="12.513" transform="translate(436.318 241.928)"/><rect class="a" width="13.491" height="12.513" transform="translate(411.649 241.928)"/><rect class="a" width="13.491" height="12.513" transform="translate(388.264 241.928)"/><rect class="a" width="13.491" height="12.513" transform="translate(364.425 241.928)"/><rect class="a" width="13.491" height="12.513" transform="translate(340.319 241.928)"/><rect class="a" width="13.491" height="12.513" transform="translate(315.087 241.928)"/><rect class="a" width="13.491" height="12.513" transform="translate(290.418 241.928)"/><rect class="a" width="13.491" height="12.513" transform="translate(267.034 241.928)"/><rect class="a" width="13.491" height="12.513" transform="translate(243.194 241.928)"/><rect class="a" width="13.491" height="12.513" transform="translate(218.355 241.928)"/><rect class="a" width="13.491" height="12.513" transform="translate(193.123 241.928)"/><rect class="a" width="13.491" height="12.513" transform="translate(168.454 241.928)"/><rect class="a" width="13.491" height="12.513" transform="translate(145.07 241.928)"/><rect class="a" width="13.491" height="12.513" transform="translate(121.231 241.928)"/><rect class="a" width="13.491" height="12.513" transform="translate(97.124 241.928)"/><rect class="a" width="13.491" height="12.513" transform="translate(71.893 241.928)"/><rect class="a" width="13.491" height="12.513" transform="translate(47.224 241.928)"/><rect class="a" width="13.491" height="12.513" transform="translate(23.839 241.928)"/><rect class="a" width="13.491" height="12.513" transform="translate(0 241.928)"/></g><rect class="a" width="312.729" height="110.194" transform="translate(355.437 263.149)"/><rect class="a" width="312.729" height="54.678" transform="translate(559.706 318.661)"/><rect class="a" width="312.729" height="93.017" transform="translate(387.557 373.465) rotate(180)"/><g transform="translate(368.588 291.219)"><rect class="b" width="58.265" height="20.561" transform="translate(220.122)"/><rect class="b" width="58.265" height="20.561" transform="translate(145.326)"/><rect class="b" width="58.265" height="20.561" transform="translate(71.961)"/><rect class="b" width="58.265" height="20.561"/></g><rect class="d" width="30.016" height="110.194" transform="translate(342.167 263.149)"/><rect class="d" width="30.016" height="131.779" transform="translate(13.514 241.492)"/><rect class="d" width="32.221" height="92.823" transform="translate(74.825 373.273) rotate(180)"/><g transform="translate(716.205 122.332)"><rect class="c" width="1.625" height="8.691" transform="translate(58.402)"/><rect class="c" width="1.625" height="8.691"/></g><rect class="b" width="172.12" height="132.105" transform="translate(42.604 241.167)"/><rect class="b" width="3.182" height="26.784" transform="translate(54.145 240.989)"/><g transform="translate(0 265.826)"><rect class="b" width="214.724" height="95.029" transform="translate(0 12.416)"/><rect class="a" width="214.724" height="30.886"/><g transform="translate(10.61 8.676)"><rect class="d" width="11.03" height="10.228" transform="translate(178.467 31.365)"/><rect class="d" width="11.03" height="10.228" transform="translate(157.845 31.365)"/><rect class="d" width="11.03" height="10.228" transform="translate(137.682 31.365)"/><rect class="d" width="11.03" height="10.228" transform="translate(118.565 31.365)"/><rect class="d" width="11.03" height="10.228" transform="translate(99.085 31.365)"/><rect class="d" width="11.03" height="10.228" transform="translate(79.377 31.365)"/><rect class="d" width="11.03" height="10.228" transform="translate(58.754 31.365)"/><rect class="d" width="11.03" height="10.228" transform="translate(38.597 31.365)"/><rect class="d" width="11.03" height="10.228" transform="translate(19.48 31.365)"/><rect class="d" width="11.03" height="10.228" transform="translate(0 31.365)"/><rect class="d" width="11.03" height="10.228" transform="translate(178.467 49.416)"/><rect class="d" width="11.03" height="10.228" transform="translate(157.845 49.416)"/><rect class="d" width="11.03" height="10.228" transform="translate(137.682 49.416)"/><rect class="d" width="11.03" height="10.228" transform="translate(118.565 49.416)"/><rect class="d" width="11.03" height="10.228" transform="translate(99.085 49.416)"/><rect class="d" width="11.03" height="10.228" transform="translate(79.377 49.416)"/><rect class="d" width="11.03" height="10.228" transform="translate(58.754 49.416)"/><rect class="d" width="11.03" height="10.228" transform="translate(38.597 49.416)"/><rect class="d" width="11.03" height="10.228" transform="translate(19.48 49.416)"/><rect class="d" width="11.03" height="10.228" transform="translate(0 49.416)"/><rect class="d" width="11.03" height="10.228" transform="translate(178.467 67.187)"/><rect class="d" width="11.03" height="10.228" transform="translate(157.845 67.187)"/><rect class="d" width="11.03" height="10.228" transform="translate(137.682 67.187)"/><rect class="d" width="11.03" height="10.228" transform="translate(118.565 67.187)"/><rect class="d" width="11.03" height="10.228" transform="translate(99.085 67.187)"/><rect class="d" width="11.03" height="10.228" transform="translate(79.377 67.187)"/><rect class="d" width="11.03" height="10.228" transform="translate(58.754 67.187)"/><rect class="d" width="11.03" height="10.228" transform="translate(38.597 67.187)"/><rect class="d" width="11.03" height="10.228" transform="translate(19.48 67.187)"/><rect class="d" width="11.03" height="10.228" transform="translate(0 67.187)"/><rect class="d" width="9.269" height="10.55" transform="translate(178.467)"/><rect class="d" width="9.269" height="10.55" transform="translate(86.463)"/><rect class="d" width="9.269" height="10.55" transform="translate(13.281)"/></g></g><g transform="translate(787.119 265.826)"><rect class="b" width="214.724" height="95.029" transform="translate(0 12.416)"/><rect class="a" width="214.724" height="30.886"/><g transform="translate(10.61 8.676)"><rect class="d" width="11.03" height="10.228" transform="translate(178.462 31.365)"/><rect class="d" width="11.03" height="10.228" transform="translate(157.845 31.365)"/><rect class="d" width="11.025" height="10.228" transform="translate(137.682 31.365)"/><rect class="d" width="11.03" height="10.228" transform="translate(118.565 31.365)"/><rect class="d" width="11.03" height="10.228" transform="translate(99.085 31.365)"/><rect class="d" width="11.03" height="10.228" transform="translate(79.377 31.365)"/><rect class="d" width="11.03" height="10.228" transform="translate(58.754 31.365)"/><rect class="d" width="11.03" height="10.228" transform="translate(38.597 31.365)"/><rect class="d" width="11.03" height="10.228" transform="translate(19.481 31.365)"/><rect class="d" width="11.03" height="10.228" transform="translate(0 31.365)"/><rect class="d" width="11.03" height="10.228" transform="translate(178.462 49.416)"/><rect class="d" width="11.03" height="10.228" transform="translate(157.845 49.416)"/><rect class="d" width="11.025" height="10.228" transform="translate(137.682 49.416)"/><rect class="d" width="11.03" height="10.228" transform="translate(118.565 49.416)"/><rect class="d" width="11.03" height="10.228" transform="translate(99.085 49.416)"/><rect class="d" width="11.03" height="10.228" transform="translate(79.377 49.416)"/><rect class="d" width="11.03" height="10.228" transform="translate(58.754 49.416)"/><rect class="d" width="11.03" height="10.228" transform="translate(38.597 49.416)"/><rect class="d" width="11.03" height="10.228" transform="translate(19.481 49.416)"/><rect class="d" width="11.03" height="10.228" transform="translate(0 49.416)"/><rect class="d" width="11.03" height="10.228" transform="translate(178.462 67.187)"/><rect class="d" width="11.03" height="10.228" transform="translate(157.845 67.187)"/><rect class="d" width="11.025" height="10.228" transform="translate(137.682 67.187)"/><rect class="d" width="11.03" height="10.228" transform="translate(118.565 67.187)"/><rect class="d" width="11.03" height="10.228" transform="translate(99.085 67.187)"/><rect class="d" width="11.03" height="10.228" transform="translate(79.377 67.187)"/><rect class="d" width="11.03" height="10.228" transform="translate(58.754 67.187)"/><rect class="d" width="11.03" height="10.228" transform="translate(38.597 67.187)"/><rect class="d" width="11.03" height="10.228" transform="translate(19.481 67.187)"/><rect class="d" width="11.03" height="10.228" transform="translate(0 67.187)"/><rect class="d" width="9.269" height="10.55" transform="translate(178.462)"/><rect class="d" width="9.269" height="10.55" transform="translate(86.463)"/><rect class="d" width="9.269" height="10.55" transform="translate(13.281)"/></g></g><g transform="translate(968.626 265.826)"><rect class="b" width="214.724" height="95.029" transform="translate(0 12.416)"/><rect class="a" width="214.724" height="30.886"/><g transform="translate(10.61 40.041)"><rect class="a" width="11.03" height="10.228" transform="translate(178.467)"/><rect class="a" width="11.03" height="10.228" transform="translate(157.845)"/><rect class="a" width="11.03" height="10.228" transform="translate(137.682)"/><rect class="a" width="11.03" height="10.228" transform="translate(118.565)"/><rect class="a" width="11.03" height="10.228" transform="translate(99.085)"/><rect class="a" width="11.025" height="10.228" transform="translate(79.383)"/><rect class="a" width="11.03" height="10.228" transform="translate(58.76)"/><rect class="a" width="11.03" height="10.228" transform="translate(38.597)"/><rect class="a" width="11.03" height="10.228" transform="translate(19.48)"/><rect class="a" width="11.025" height="10.228"/><rect class="a" width="11.03" height="10.228" transform="translate(178.467 18.052)"/><rect class="a" width="11.03" height="10.228" transform="translate(157.845 18.052)"/><rect class="a" width="11.03" height="10.228" transform="translate(137.682 18.052)"/><rect class="a" width="11.03" height="10.228" transform="translate(118.565 18.052)"/><rect class="a" width="11.03" height="10.228" transform="translate(99.085 18.052)"/><rect class="a" width="11.025" height="10.228" transform="translate(79.383 18.052)"/><rect class="a" width="11.03" height="10.228" transform="translate(58.76 18.052)"/><rect class="a" width="11.03" height="10.228" transform="translate(38.597 18.052)"/><rect class="a" width="11.03" height="10.228" transform="translate(19.48 18.052)"/><rect class="a" width="11.025" height="10.228" transform="translate(0 18.052)"/><rect class="a" width="11.03" height="10.228" transform="translate(178.467 35.823)"/><rect class="a" width="11.03" height="10.228" transform="translate(157.845 35.823)"/><rect class="a" width="11.03" height="10.228" transform="translate(137.682 35.823)"/><rect class="a" width="11.03" height="10.228" transform="translate(118.565 35.823)"/><rect class="a" width="11.03" height="10.228" transform="translate(99.085 35.823)"/><rect class="a" width="11.025" height="10.228" transform="translate(79.383 35.823)"/><rect class="a" width="11.03" height="10.228" transform="translate(58.76 35.823)"/><rect class="a" width="11.03" height="10.228" transform="translate(38.597 35.823)"/><rect class="a" width="11.03" height="10.228" transform="translate(19.48 35.823)"/><rect class="a" width="11.025" height="10.228" transform="translate(0 35.823)"/></g><g transform="translate(23.89 8.676)"><rect class="d" width="9.269" height="10.55" transform="translate(165.187)"/><rect class="d" width="9.269" height="10.55" transform="translate(73.183)"/><rect class="d" width="9.269" height="10.55"/></g></g><g transform="translate(1185.276 265.826)"><rect class="b" width="214.724" height="95.029" transform="translate(0 12.416)"/><rect class="a" width="214.724" height="30.886"/><g transform="translate(10.61 40.041)"><rect class="a" width="11.03" height="10.228" transform="translate(178.467)"/><rect class="a" width="11.03" height="10.228" transform="translate(157.845)"/><rect class="a" width="11.03" height="10.228" transform="translate(137.682)"/><rect class="a" width="11.03" height="10.228" transform="translate(118.571)"/><rect class="a" width="11.03" height="10.228" transform="translate(99.085)"/><rect class="a" width="11.03" height="10.228" transform="translate(79.383)"/><rect class="a" width="11.03" height="10.228" transform="translate(58.76)"/><rect class="a" width="11.03" height="10.228" transform="translate(38.597)"/><rect class="a" width="11.025" height="10.228" transform="translate(19.48)"/><rect class="a" width="11.03" height="10.228"/><rect class="a" width="11.03" height="10.228" transform="translate(178.467 18.052)"/><rect class="a" width="11.03" height="10.228" transform="translate(157.845 18.052)"/><rect class="a" width="11.03" height="10.228" transform="translate(137.682 18.052)"/><rect class="a" width="11.03" height="10.228" transform="translate(118.571 18.052)"/><rect class="a" width="11.03" height="10.228" transform="translate(99.085 18.052)"/><rect class="a" width="11.03" height="10.228" transform="translate(79.383 18.052)"/><rect class="a" width="11.03" height="10.228" transform="translate(58.76 18.052)"/><rect class="a" width="11.03" height="10.228" transform="translate(38.597 18.052)"/><rect class="a" width="11.025" height="10.228" transform="translate(19.48 18.052)"/><rect class="a" width="11.03" height="10.228" transform="translate(0 18.052)"/><rect class="a" width="11.03" height="10.228" transform="translate(178.467 35.823)"/><rect class="a" width="11.03" height="10.228" transform="translate(157.845 35.823)"/><rect class="a" width="11.03" height="10.228" transform="translate(137.682 35.823)"/><rect class="a" width="11.03" height="10.228" transform="translate(118.571 35.823)"/><rect class="a" width="11.03" height="10.228" transform="translate(99.085 35.823)"/><rect class="a" width="11.03" height="10.228" transform="translate(79.383 35.823)"/><rect class="a" width="11.03" height="10.228" transform="translate(58.76 35.823)"/><rect class="a" width="11.03" height="10.228" transform="translate(38.597 35.823)"/><rect class="a" width="11.025" height="10.228" transform="translate(19.48 35.823)"/><rect class="a" width="11.03" height="10.228" transform="translate(0 35.823)"/></g><g transform="translate(23.89 8.676)"><rect class="d" width="9.269" height="10.55" transform="translate(165.187)"/><rect class="d" width="9.269" height="10.55" transform="translate(73.183)"/><rect class="d" width="9.269" height="10.55"/></g></g></g><path class="e" d="M2665.564,2464.54a.46.46,0,0,0-.049.036h-2.575a6.738,6.738,0,0,1,.68-.036Z" transform="translate(-2620.979 5140.639)"/><path class="e" d="M2634.76,2464.54a.488.488,0,0,1,.05.036h2.575a6.722,6.722,0,0,0-.679-.036Z" transform="translate(-2606.781 5221.614)"/></g><rect class="f" width="1400" height="413" transform="translate(0 7388)"/></g></svg>