<svg xmlns="http://www.w3.org/2000/svg" width="72.846" height="72.401" viewBox="0 0 72.846 72.401"><defs><style>.a{fill:#dfb28b;}.b{fill:#fcd770;}.c{fill:#e6e9ed;}.d{fill:#ccd1d9;}.e{fill:#ffeaa7;}.f{fill:#aab2bd;}.g{fill:#69d6f4;}.h{fill:#2b56f5;}</style></defs><g transform="translate(1.435 1.168)"><g transform="translate(1.46 14.363)"><path class="a" d="M22.81,18.621a13.887,13.887,0,0,1,.677-4.321,58.679,58.679,0,0,0-6.458,1.063c-1.67.362-3.223.782-4.659,1.214-1.833.549-3.468,1.133-4.858,1.682v.012c-1.845.724-3.293,1.413-4.262,1.9l2.044,5.453H24.678A13.926,13.926,0,0,1,22.81,18.621Z" transform="translate(-3.25 -14.3)"/></g><g transform="translate(47.177 16.991)"><path class="a" d="M51.275,19.212c-1.3-.584-2.861-1.226-4.671-1.857-.771-.28-1.588-.549-2.441-.806a13.453,13.453,0,0,1,.105,1.693A13.926,13.926,0,0,1,42.4,25.25H55.946v-3.5A32.783,32.783,0,0,0,51.275,19.212Z" transform="translate(-42.4 -16.55)"/></g><g transform="translate(0 9.447)"><path class="b" d="M12.58,17.283c-1.833.549-3.468,1.133-4.858,1.682v.012c-1.845.724-3.293,1.413-4.262,1.9L2,16.991a57.071,57.071,0,0,1,18.684-6.259c1.833-.292,3.772-.514,5.8-.642A14.049,14.049,0,0,0,23.7,15.006a58.679,58.679,0,0,0-6.458,1.063c-1.67.362-3.223.782-4.659,1.214Z" transform="translate(-2 -10.09)"/></g><g transform="translate(47.259 11.829)"><path class="b" d="M46.592,18.1c-.771-.28-1.588-.549-2.441-.806A13.924,13.924,0,0,0,42.47,12.13c8.782,2.406,13.464,5.687,13.464,5.687v4.671a32.783,32.783,0,0,0-4.671-2.534C49.967,19.37,48.4,18.728,46.592,18.1Z" transform="translate(-42.47 -12.13)"/></g><g transform="translate(18.684)"><path class="c" d="M69.381,16.013l-3.5,11.678H60.039V19.516s-4.683-3.281-13.464-5.687A14.024,14.024,0,0,0,23.8,11.447c-2.032.128-3.97.35-5.8.642V2H29.432A63.924,63.924,0,0,1,69.381,16.013Z" transform="translate(-18 -2)"/></g><g transform="translate(0 25.691)"><path class="d" d="M29.279,28.671H3.168A1.171,1.171,0,0,1,2,27.5V25.168A1.171,1.171,0,0,1,3.168,24h21.72A14.234,14.234,0,0,0,29.279,28.671Z" transform="translate(-2 -24)"/></g><g transform="translate(42.787 25.691)"><path class="d" d="M65.919,25.168V27.5a1.171,1.171,0,0,1-1.168,1.168H38.64A14.234,14.234,0,0,0,43.031,24h21.72A1.171,1.171,0,0,1,65.919,25.168Z" transform="translate(-38.64 -24)"/></g><g transform="translate(2.336 30.362)"><path class="c" d="M69.395,32.671l-.07.187a3.1,3.1,0,0,0-1.1-.187,3.5,3.5,0,0,0,0,7.007H65.891a1.171,1.171,0,0,0-1.168,1.168V57.194a1.171,1.171,0,0,0,1.168,1.168h3.5V67.7H62.388V64.2a1.171,1.171,0,0,0-1.168-1.168h-3.5V35.007H39.033V63.033H32.026V61.865a1.186,1.186,0,0,0-.911-1.144,3.489,3.489,0,0,0-1.448-5.652,1.286,1.286,0,0,0,.023-.21,3.493,3.493,0,0,0-6.8-1.144,1.287,1.287,0,0,0-.21-.023,1.133,1.133,0,0,0-.2.012v-.012a3.495,3.495,0,0,0-5.979-3.41,4.59,4.59,0,0,0-3.165-1.261,4.7,4.7,0,0,0-4.251,2.721A3.5,3.5,0,0,0,4,54.858V28H28.943a14.039,14.039,0,0,0,15.508,0H69.395Z" transform="translate(-4 -28)"/></g><g transform="translate(63.059 35.033)"><path class="b" d="M60.6,32.187A3.476,3.476,0,1,1,59.5,32,3.1,3.1,0,0,1,60.6,32.187Z" transform="translate(-56 -32)"/></g><g transform="translate(63.059 42.039)"><path class="e" d="M63.007,39.168v3.5H56v-3.5A1.171,1.171,0,0,1,57.168,38h4.671A1.171,1.171,0,0,1,63.007,39.168Z" transform="translate(-56 -38)"/></g><g transform="translate(63.059 56.052)"><path class="e" d="M63.007,50v3.5a1.171,1.171,0,0,1-1.168,1.168H57.168A1.171,1.171,0,0,1,56,53.5V50Z" transform="translate(-56 -50)"/></g><g transform="translate(63.059 46.71)"><path class="b" d="M56,42v9.342h7.007V42Z" transform="translate(-56 -42)"/></g><g transform="translate(30.362 65.394)"><path class="d" d="M58.362,59.168v3.5H28V58H57.194A1.171,1.171,0,0,1,58.362,59.168Z" transform="translate(-28 -58)"/></g><g transform="translate(0 63.059)"><path class="f" d="M31.451,56.023a1.186,1.186,0,0,1,.911,1.144v5.839H2V57.168a1.186,1.186,0,0,1,.911-1.144A1.751,1.751,0,0,1,3.168,56H31.194A1.751,1.751,0,0,1,31.451,56.023Z" transform="translate(-2 -56)"/></g><g transform="translate(7.427 51.381)"><path class="b" d="M21.953,49.5a3.5,3.5,0,0,1-.2,1.168v.012a3.5,3.5,0,0,0,.2,6.995H10.275a3.5,3.5,0,0,0,0-7.007,1.288,1.288,0,0,0-.21.023,3.553,3.553,0,0,0-1.7-1.973A4.7,4.7,0,0,1,12.611,46a4.59,4.59,0,0,1,3.165,1.261A3.491,3.491,0,0,1,21.953,49.5Z" transform="translate(-8.36 -46)"/></g><g transform="translate(0 53.717)"><path class="b" d="M3.168,57.342a1.749,1.749,0,0,0-.257.023,3.489,3.489,0,0,1,1.448-5.652,1.287,1.287,0,0,1-.023-.21,3.5,3.5,0,0,1,5.091-3.118,3.553,3.553,0,0,1,1.7,1.974,1.288,1.288,0,0,1,.21-.023,3.5,3.5,0,0,1,0,7.007Z" transform="translate(-2 -48)"/></g><g transform="translate(17.516 53.717)"><path class="b" d="M29.845,55.007a3.51,3.51,0,0,1-.911,2.359,1.749,1.749,0,0,0-.257-.023H20.5a3.5,3.5,0,0,1-.2-6.995,1.133,1.133,0,0,1,.2-.012,1.287,1.287,0,0,1,.21.023,3.493,3.493,0,0,1,6.8,1.144,1.287,1.287,0,0,1-.023.21A3.5,3.5,0,0,1,29.845,55.007Z" transform="translate(-17 -48)"/></g><g transform="translate(37.368 37.368)"><path class="f" d="M34,34H52.684V62.026H34Z" transform="translate(-34 -34)"/></g><g transform="translate(42.039 42.039)"><path class="g" d="M38,38h9.342V61.355H38Z" transform="translate(-38 -38)"/></g><g transform="translate(37.368 51.381)"><circle class="b" cx="2.336" cy="2.336" r="2.336"/></g><g transform="translate(11.678 37.368)"><path class="g" d="M21.342,34H12v9.342H30.684V34Z" transform="translate(-12 -34)"/></g><g transform="translate(21.02 4.671)"><path class="e" d="M46.158,27.02a14.235,14.235,0,0,1-4.391,4.671,14.039,14.039,0,0,1-15.508,0,14.234,14.234,0,0,1-4.391-4.671,14.019,14.019,0,1,1,26.053-8.7,13.454,13.454,0,0,1,.105,1.693A13.926,13.926,0,0,1,46.158,27.02Z" transform="translate(-20 -6)"/></g></g><g transform="translate(0 0)"><path class="h" d="M40.107,15.885a3.784,3.784,0,0,0-3.677,2.872l-.145.579L34.8,18.912,32.176,9.726l-2.246.642,2.225,7.788-7.788-2.225-.642,2.246L32.911,20.8l.424,1.485-.579.145a3.79,3.79,0,0,0,.92,7.467,3.22,3.22,0,0,0,3.216-3.216,3.264,3.264,0,0,0-.124-.884l-1.212-4.242L39.8,22.769a3.272,3.272,0,0,0,.882.123A3.219,3.219,0,0,0,43.9,19.675a3.8,3.8,0,0,0-3.791-3.791ZM33.675,27.562a1.455,1.455,0,0,1-.353-2.867l.654-.163.544,1.906a.868.868,0,0,1,.035.244A.881.881,0,0,1,33.675,27.562Zm6.765-7.04-1.908-.545.163-.654a1.455,1.455,0,0,1,2.867.353.9.9,0,0,1-1.122.847Z" transform="translate(3.08 0.464)"/><path class="h" d="M71.1,26.691h-.766l3.279-10.929L73,15.27A65.345,65.345,0,0,0,32.324,1h-12.6V11.282A57.512,57.512,0,0,0,1.6,17.516l-.834.5,3.253,8.674h-.65a2.338,2.338,0,0,0-2.336,2.336v2.336A2.338,2.338,0,0,0,3.374,33.7V58.864a4.6,4.6,0,0,0-1.831,6.1,2.316,2.316,0,0,0-.5,1.433V73.4H71.1V64.059a2.338,2.338,0,0,0,2.336-2.336V45.375a2.325,2.325,0,0,0-.954-1.873,4.612,4.612,0,0,0-1.381-6.82V33.7a2.338,2.338,0,0,0,2.336-2.336V29.026A2.338,2.338,0,0,0,71.1,26.691ZM22.058,3.336H32.324a63.005,63.005,0,0,1,38.6,13.27L67.9,26.691H64.1V19.076l-.5-.349c-.2-.137-4.805-3.313-13.394-5.73A15.127,15.127,0,0,0,26.174,10.49c-1.419.1-2.791.244-4.116.426ZM37.239,33.7A12.845,12.845,0,1,1,50.084,20.852,12.861,12.861,0,0,1,37.239,33.7ZM11.222,26.691l-1.835-5.5c.792-.3,1.651-.6,2.568-.9l1.6,6.4Zm4.741,0-1.77-7.079c.754-.214,1.548-.417,2.364-.613l1.711,7.692Zm4.7,0-1.822-8.2c1.127-.225,2.3-.425,3.514-.593a15.1,15.1,0,0,0,.878,8.792Zm41.1-4.407a52.5,52.5,0,0,0-9.58-4.025,15.111,15.111,0,0,0-.632-2.424,47.164,47.164,0,0,1,10.212,4.488ZM52.416,20.79h0v5.9H51.249a15.1,15.1,0,0,0,1.171-5.839C52.42,20.831,52.416,20.811,52.416,20.79Zm2.339.838c.85.327,1.626.649,2.336.962v4.1H54.755Zm4.671,2.066c1.09.555,1.873,1.012,2.336,1.3v1.7H59.426ZM24.273,13a15.134,15.134,0,0,0-1.206,2.458A62.873,62.873,0,0,0,4.306,20.79l-.652-1.738A59.548,59.548,0,0,1,24.273,13ZM5.129,22.985c.584-.278,1.278-.592,2.084-.933L8.76,26.691H6.519ZM3.374,29.026H24.467a15.241,15.241,0,0,0,1.843,2.336H3.374ZM4.947,60.7l.838-.292-.057-.886-.019-.133a2.326,2.326,0,0,1,4.527-.763l.292.838.886-.057.133-.019a2.336,2.336,0,1,1,0,4.671H3.693A2.309,2.309,0,0,1,4.947,60.7Zm24.88,0a2.309,2.309,0,0,1,1.254,3.36H23.226a2.336,2.336,0,0,1-.041-4.671l1.059.076.292-.838a2.327,2.327,0,0,1,4.529.722l-.076,1.059Zm-7.783-3.48a4.618,4.618,0,0,0-2.84,6.84H15.569a4.612,4.612,0,0,0,.65-2.336,4.678,4.678,0,0,0-4.127-4.64,4.654,4.654,0,0,0-.89-1.112,3.475,3.475,0,0,1,5.056-.309l.9.835.789-.938a2.322,2.322,0,0,1,4.112,1.492c0,.056-.011.111-.014.167ZM31.4,71.066H3.374V66.395H31.4Zm2.336-2.336H61.762v2.336H33.736Zm23.355-2.336H54.755V43.039H43.078V52.6a3.281,3.281,0,0,0-2.336,0V40.7H57.091ZM52.42,52.381H50.084V50.046H52.42Zm0,2.336v2.336H50.084V54.717Zm-4.671,2.336H45.413V54.717h2.336Zm-2.336,2.336h2.336v2.336H45.413Zm4.671,0H52.42v2.336H50.084ZM52.42,47.71H50.084V45.375H52.42Zm-4.671,0H45.413V45.375h2.336Zm-2.336,2.336h2.336v2.336H45.413Zm0,14.013h2.336v2.336H45.413Zm4.671,0H52.42v2.336H50.084Zm-7.007-8.174a1.168,1.168,0,1,1-1.168-1.168A1.17,1.17,0,0,1,43.078,55.885Zm-2.336,3.288a3.281,3.281,0,0,0,2.336,0v7.221H40.742Zm25.691,2.55V59.388h4.672v2.336Zm0-21.02a2.336,2.336,0,1,1,2.336,2.336A2.338,2.338,0,0,1,66.433,40.7ZM71.1,45.375V47.71H66.433V45.375Zm0,10.664-4.672-3.114V51.061l4.672,3.114Zm-1.983-5.993H71.1v1.322Zm-.708,7.007H66.433V55.731Zm.354-21.02A4.676,4.676,0,0,0,64.1,40.7a4.624,4.624,0,0,0,.954,2.8,2.325,2.325,0,0,0-.954,1.873V61.723a2.338,2.338,0,0,0,2.336,2.336h2.336v7.007H64.1V68.73a2.338,2.338,0,0,0-2.336-2.336H59.426V38.368H38.407V66.395H33.736a2.316,2.316,0,0,0-.5-1.433,4.6,4.6,0,0,0-1.863-6.118,4.678,4.678,0,0,0-4.64-4.127,4.622,4.622,0,0,0-2.61.819,4.631,4.631,0,0,0-7.136-2.251,5.776,5.776,0,0,0-3.1-.9,5.85,5.85,0,0,0-4.755,2.472,4.524,4.524,0,0,0-3.419.5V33.7H29.185a15.055,15.055,0,0,0,16.108,0H68.768ZM71.1,31.362H48.168a15.241,15.241,0,0,0,1.843-2.336H71.1Z" transform="translate(-0.771 -1)"/><path class="h" d="M11,44.678H32.02V33H11Zm18.684-2.336H22.678V35.336h7.007ZM13.336,35.336h7.007v7.007H13.336Z" transform="translate(0.945 4.368)"/></g></svg>