<svg xmlns="http://www.w3.org/2000/svg" width="45.917" height="52.702" viewBox="0 0 45.917 52.702"><defs><style>.a{fill:#fff;}</style></defs><g transform="translate(-32.958 0)"><g transform="translate(32.958 0)"><path class="a" d="M78.36,12.8,56.431.138a1.029,1.029,0,0,0-1.029,0L48.449,4.152a1.029,1.029,0,1,0,1.029,1.783l5.409-3.123V6.881a6.169,6.169,0,0,0-4.17,9.414q-.467.243-.909.526a6.169,6.169,0,0,0-10.238-1.1l-3.524-2.034,5.408-3.122a1.029,1.029,0,1,0-1.029-1.783L33.473,12.8a1.029,1.029,0,0,0-.515.891V39.012a1.029,1.029,0,0,0,.515.891L55.4,52.564a1.029,1.029,0,0,0,1.029,0L78.36,39.9a1.029,1.029,0,0,0,.515-.891V13.69A1.029,1.029,0,0,0,78.36,12.8ZM35.017,15.473l3.523,2.034a6.175,6.175,0,0,0,2.7,7.5,6.211,6.211,0,0,0,3.1.825c.089,0,.179,0,.268-.006-.008.174-.013.348-.013.524s0,.351.013.525a6.169,6.169,0,0,0-6.066,8.319l-3.524,2.034Zm20.9,1.614a9.264,9.264,0,1,1-9.264,9.264,9.275,9.275,0,0,1,9.264-9.264ZM56.946,6.881V2.812L75.787,13.69l-3.523,2.034a6.175,6.175,0,0,0-7.847-1.413,6.216,6.216,0,0,0-2.392,2.509q-.441-.283-.909-.526a6.169,6.169,0,0,0-4.17-9.414ZM71.071,35.1a4.117,4.117,0,0,1-5.624,1.507,4.147,4.147,0,0,1-1.759-2.029,11.326,11.326,0,0,0,3.247-5.612,4.148,4.148,0,0,1,2.63.51A4.117,4.117,0,0,1,71.071,35.1ZM63.687,18.124a4.147,4.147,0,0,1,1.759-2.029,4.117,4.117,0,0,1,4.117,7.132,4.147,4.147,0,0,1-2.63.51,11.326,11.326,0,0,0-3.247-5.613ZM60.034,39.732A4.117,4.117,0,1,1,52.673,37.2a11.331,11.331,0,0,0,6.488,0A4.147,4.147,0,0,1,60.034,39.732ZM42.269,29.476a4.147,4.147,0,0,1,2.63-.51,11.326,11.326,0,0,0,3.247,5.612,4.147,4.147,0,0,1-1.759,2.029,4.117,4.117,0,1,1-4.117-7.132Zm-2.7,7.5a6.129,6.129,0,0,0,3.16,2.029,6.206,6.206,0,0,0,1.609.213,6.14,6.14,0,0,0,3.078-.83,6.215,6.215,0,0,0,2.392-2.509q.441.283.909.526a6.169,6.169,0,0,0,4.17,9.414V49.89L36.046,39.012Zm17.377,8.843a6.169,6.169,0,0,0,4.17-9.414q.467-.243.909-.526a6.215,6.215,0,0,0,2.392,2.509,6.138,6.138,0,0,0,3.078.83,6.215,6.215,0,0,0,1.609-.213,6.128,6.128,0,0,0,3.16-2.029l3.523,2.034L56.946,49.89ZM73.293,35.195a6.169,6.169,0,0,0-6.066-8.319c.008-.174.013-.349.013-.525s0-.35-.013-.524c.089,0,.179.006.268.006a6.212,6.212,0,0,0,3.1-.825,6.175,6.175,0,0,0,2.7-7.5l3.523-2.034V37.229ZM51.8,12.97A4.117,4.117,0,1,1,59.16,15.5a11.332,11.332,0,0,0-6.488,0A4.147,4.147,0,0,1,51.8,12.97Zm-5.412,3.125a4.147,4.147,0,0,1,1.759,2.029A11.326,11.326,0,0,0,44.9,23.736a4.148,4.148,0,0,1-2.63-.51,4.117,4.117,0,0,1,4.117-7.131Z" transform="translate(-32.958 0)"/><path class="a" d="M219.719,208.058h5.622a1.029,1.029,0,1,0,0-2.059h-5.622a1.029,1.029,0,0,0,0,2.059Z" transform="translate(-199.572 -184.795)"/><path class="a" d="M198.025,248.059h10.088a1.029,1.029,0,1,0,0-2.059H198.025a1.029,1.029,0,1,0,0,2.059Z" transform="translate(-180.111 -220.678)"/><path class="a" d="M225.342,286h-5.622a1.029,1.029,0,1,0,0,2.059h5.622a1.029,1.029,0,1,0,0-2.059Z" transform="translate(-199.572 -256.563)"/><path class="a" d="M240.51,109.792a1.029,1.029,0,0,0-1.029-1.029h-1.957a1.029,1.029,0,0,0,0,2.059h1.957A1.029,1.029,0,0,0,240.51,109.792Z" transform="translate(-215.544 -97.568)"/><path class="a" d="M122.91,172.766a1.029,1.029,0,0,0,1.406-.377l.978-1.695a1.029,1.029,0,1,0-1.783-1.029l-.978,1.695A1.029,1.029,0,0,0,122.91,172.766Z" transform="translate(-113.189 -151.739)"/><path class="a" d="M123.512,309.625a1.029,1.029,0,1,0,1.783-1.029l-.978-1.695a1.029,1.029,0,0,0-1.783,1.029Z" transform="translate(-113.189 -274.849)"/><path class="a" d="M236.495,384.266a1.029,1.029,0,0,0,1.029,1.029h1.957a1.029,1.029,0,1,0,0-2.059h-1.957A1.029,1.029,0,0,0,236.495,384.266Z" transform="translate(-215.544 -343.789)"/><path class="a" d="M362.619,306.525a1.029,1.029,0,0,0-1.406.377l-.978,1.695a1.029,1.029,0,1,0,1.783,1.029l.978-1.695A1.029,1.029,0,0,0,362.619,306.525Z" transform="translate(-326.423 -274.849)"/><path class="a" d="M362.105,172.9a1.03,1.03,0,0,0,.89-1.544l-.978-1.695a1.029,1.029,0,1,0-1.783,1.029l.978,1.695A1.029,1.029,0,0,0,362.105,172.9Z" transform="translate(-326.423 -151.738)"/><path class="a" d="M140.506,63.56a1.029,1.029,0,1,0,0-2.059h0a1.029,1.029,0,0,0,0,2.059Z" transform="translate(-128.512 -55.17)"/></g></g></svg>