<svg xmlns="http://www.w3.org/2000/svg" width="52.635" height="44.969" viewBox="0 0 52.635 44.969"><defs><style>.a{fill:#fff;}</style></defs><g transform="translate(0 -8.266)"><g transform="translate(0 8.266)"><path class="a" d="M91.237,8.962a.7.7,0,0,0-.7-.7h-9.43a.7.7,0,0,0-.7.7V25.737L91.237,13.051Z" transform="translate(-43.124 -8.266)"/><path class="a" d="M80.416,59.55v6.787a.7.7,0,0,0,.7.7h9.43a.7.7,0,0,0,.7-.7V33.995L80.416,46.682Z" transform="translate(-43.124 -22.063)"/><path class="a" d="M44.083,73.221v9.246a.7.7,0,0,0,.7.7h9.43a.7.7,0,0,0,.7-.7V65.44l-4.666-1.363Z" transform="translate(-23.64 -38.195)"/><path class="a" d="M49.912,41.821,54.9,43.28V32.46a.7.7,0,0,0-.7-.7h-9.43a.7.7,0,0,0-.7.7V47.587l3.255-4.836A2.316,2.316,0,0,1,49.912,41.821Z" transform="translate(-23.64 -20.867)"/><path class="a" d="M16.77,56.516l3.8,3.665V49.962a.7.7,0,0,0-.7-.7h-9.43a.7.7,0,0,0-.7.7v9.669l3.939-3.236A2.318,2.318,0,0,1,16.77,56.516Z" transform="translate(-5.229 -30.252)"/><path class="a" d="M9.75,79.534v8.893a.7.7,0,0,0,.7.7h9.43a.7.7,0,0,0,.7-.7v-7.9l-5.534-5.337Z" transform="translate(-5.229 -44.153)"/><path class="a" d="M52.229,16.265a1.159,1.159,0,0,0-1.634.13L33.227,36.755l-7.163-2.094a1.156,1.156,0,0,0-1.287.466L17.432,46.037l-6.58-6.345a1.159,1.159,0,0,0-1.541-.061l-8.888,7.3A1.16,1.16,0,0,0,1.9,48.728l8.091-6.649,6.831,6.588a1.159,1.159,0,0,0,1.766-.187l7.642-11.354,7.07,2.067a1.163,1.163,0,0,0,1.208-.36L52.358,17.9A1.161,1.161,0,0,0,52.229,16.265Z" transform="translate(0 -12.407)"/></g></g></svg>