<svg xmlns="http://www.w3.org/2000/svg" width="51.143" height="51.141" viewBox="0 0 51.143 51.141"><defs><style>.a{fill:#2b56f5;}</style></defs><g transform="translate(0 -0.009)"><g transform="translate(0 22.018)"><g transform="translate(0)"><path class="a" d="M50.342,207.7a1.81,1.81,0,0,0-.16-.1l-3.629-1.954L26.426,216.31a1.826,1.826,0,0,1-1.71,0L4.59,205.654.961,207.608a1.808,1.808,0,0,0-.749,2.445,1.827,1.827,0,0,0,.1.16l25.265,13.376,25.265-13.376A1.808,1.808,0,0,0,50.342,207.7Z" transform="translate(0 -205.654)"/></g></g><g transform="translate(0.001 32.977)"><path class="a" d="M50.935,310.748a1.826,1.826,0,0,0-.74-.74l-3.629-1.954L26.439,318.71a1.827,1.827,0,0,1-1.71,0L4.6,308.054.974,310.008a1.827,1.827,0,0,0,0,3.215l23.745,12.786a1.826,1.826,0,0,0,1.732,0L50.2,313.223A1.827,1.827,0,0,0,50.935,310.748Z" transform="translate(-0.014 -308.054)"/></g><g transform="translate(0 0.009)"><g transform="translate(0 0)"><path class="a" d="M50.342,13.108a1.807,1.807,0,0,0-.16-.1L26.437.227a1.826,1.826,0,0,0-1.732,0L.961,13.013a1.808,1.808,0,0,0-.654,2.6L25.571,28.993,50.836,15.617A1.808,1.808,0,0,0,50.342,13.108Z" transform="translate(0 -0.009)"/></g></g></g></svg>