<svg xmlns="http://www.w3.org/2000/svg" width="73.03" height="73.153" viewBox="0 0 73.03 73.153"><defs><style>.a{fill:#ececec;}.b{fill:#b6c1ce;}.c{fill:#8c95a4;}.d{fill:#798699;}.e,.f{fill:#ffc727;}.e{opacity:0;}.g,.i,.j,.k,.l{fill:#d3a06c;}.h{fill:#eabd8c;}.i{opacity:0.46;}.j{opacity:0.17;}.k{opacity:0.38;}.l{opacity:0.23;}.m{fill:#2b56f5;}</style></defs><rect class="a" width="61.251" height="21.202" transform="translate(5.89 20.147)"/><g transform="translate(5.89 20.147)"><rect class="b" width="61.251" height="5.89"/><rect class="b" width="61.251" height="5.89" transform="translate(0 15.313)"/></g><rect class="c" width="51.828" height="30.626" transform="translate(10.601 41.349)"/><rect class="d" width="49.472" height="3.534" transform="translate(11.779 43.705)"/><rect class="a" width="7.067" height="23.558" transform="translate(58.895 46.061)"/><g transform="translate(58.895 46.061)"><rect class="b" width="7.067" height="5.89"/><rect class="b" width="7.067" height="5.89" transform="translate(0 17.669)"/></g><rect class="a" width="7.067" height="23.558" transform="translate(7.067 46.061)"/><g transform="translate(7.067 46.061)"><rect class="b" width="7.067" height="5.89" transform="translate(0)"/><rect class="b" width="7.067" height="5.89" transform="translate(0 17.669)"/></g><rect class="d" width="51.828" height="3.534" transform="translate(10.601 68.441)"/><path class="e" d="M79.09,25.323v4.712H8.416V25.323L43.753,8.832h0Z" transform="translate(-7.238 -7.532)"/><path class="f" d="M0,0H70.674V4.712H0Z" transform="translate(1.178 17.791)"/><g transform="translate(3.534 43.705)"><path class="g" d="M25.594,301.544H37.373l1.178-4.712H24.416Z" transform="translate(-24.416 -296.832)"/><path class="g" d="M376.424,296.832l1.178,4.712H389.38l1.178-4.712Z" transform="translate(-324.595 -296.832)"/><path class="g" d="M25.594,456.832l-1.178,4.712H38.55l-1.178-4.712Z" transform="translate(-24.416 -433.274)"/><path class="g" d="M389.373,456.832H377.594l-1.178,4.712h14.135Z" transform="translate(-324.588 -433.274)"/></g><path class="h" d="M204.784,70.967l4.123-7.067-4.123-7.067h-8.245L192.416,63.9l4.123,7.067Z" transform="translate(-164.146 -48.464)"/><rect class="a" width="70.674" height="4.712" transform="translate(1.178 38.993)"/><g transform="translate(10.601 27.214)"><rect class="i" width="9.423" height="7.067" transform="translate(14.135)"/><rect class="j" width="9.423" height="7.067" transform="translate(28.27)"/><path class="k" d="M0,0H9.423V7.067H0Z"/><rect class="l" width="9.423" height="7.067" transform="translate(42.405)"/></g><path class="h" d="M184.907,328.832h-9.423a7.067,7.067,0,0,0-7.067,7.067V352.39h23.558V335.9A7.067,7.067,0,0,0,184.907,328.832Z" transform="translate(-143.68 -280.415)"/><rect class="g" width="23.558" height="3.534" transform="translate(24.736 68.441)"/><path class="m" d="M73.446,23.681v-6.64L36.931,0,.416,17.041v6.64H5.128V37.815H.416v7.067H3.03l1.178,4.712h2.1V66.085h-2.1L3.03,70.8H.416v2.356h73.03V70.8H70.832l-1.178-4.712h-2.1V49.595h2.1l1.178-4.712h2.614V37.815H68.734V23.681ZM2.772,18.969h21.2V16.613H6.9L36.931,2.6,66.959,16.613H49.888v2.356h21.2v2.356H43.1l3.436-5.89L41.731,7.19h-9.6l-4.809,8.245,3.436,5.89H2.772Zm30.713,2.356-3.436-5.89,3.436-5.89h6.893l3.436,5.89-3.436,5.89ZM5.459,44.883H16.576l-.589,2.356H6.048Zm49.4,0,1.178,4.712h2.1V66.085h-2.1L54.858,70.8h-4.97V55.484a8.255,8.255,0,0,0-8.245-8.245H32.219a8.255,8.255,0,0,0-8.245,8.245V70.8H19l-1.178-4.712h-2.1V49.595h2.1L19,44.883Zm-16.75,4.712h3.534a5.9,5.9,0,0,1,5.89,5.89V70.8H38.109ZM35.753,70.8H26.33V55.484a5.9,5.9,0,0,1,5.89-5.89h3.534ZM8.661,63.729h2.356V61.374H8.661V54.306h2.356V51.95H8.661V49.595h4.712v7.067H11.017v2.356h2.356v7.067H8.661ZM6.048,68.441h9.939l.589,2.356H5.459ZM68.4,70.8H57.286l.589-2.356h9.939ZM65.2,51.95H62.845v2.356H65.2v7.067H62.845v2.356H65.2v2.356H60.49V59.018h2.355V56.662H60.49V49.595H65.2Zm2.614-4.712H57.875l-.589-2.356H68.4Zm3.276-4.712H2.772V40.171H71.09Zm-4.712-4.712H7.483V23.681h58.9Z" transform="translate(-0.416)"/><path class="m" d="M172.195,176.832H160.416v9.423h11.779Zm-2.356,7.067h-7.067v-4.712h7.067Z" transform="translate(-136.858 -150.796)"/><path class="m" d="M268.2,176.832H256.416v9.423H268.2Zm-2.356,7.067h-7.067v-4.712h7.067Z" transform="translate(-218.723 -150.796)"/><path class="m" d="M76.2,186.255v-9.423H64.416v9.423Zm-9.423-7.067h7.067V183.9H66.772Z" transform="translate(-54.993 -150.796)"/><path class="m" d="M364.2,176.832H352.416v9.423H364.2Zm-2.356,7.067h-7.067v-4.712h7.067Z" transform="translate(-300.588 -150.796)"/></svg>