<svg xmlns="http://www.w3.org/2000/svg" width="73.614" height="73.614" viewBox="0 0 73.614 73.614"><defs><style>.a{fill:#fcd770;}.b{fill:#e0b999;}.c{fill:#f7cca9;}.d{fill:#c3c6c7;}.e{fill:#3397e8;}.f{fill:#ed6f6d;}.g{fill:#2b56f5;}.h{fill:#f7b030;}</style></defs><path class="a" d="M165.8,8h2.3a13.8,13.8,0,0,1,13.8,13.8v6.9H152V21.8A13.8,13.8,0,0,1,165.8,8Z" transform="translate(-130.146 -6.85)"/><path class="a" d="M170.506,257.2V248H136v9.2l4.6,2.3v4.6h25.3v-4.6Z" transform="translate(-116.446 -212.343)"/><path class="b" d="M224,200h9.2v6.9a2.3,2.3,0,0,1-2.3,2.3h-4.6a2.3,2.3,0,0,1-2.3-2.3Z" transform="translate(-191.794 -171.245)"/><path class="c" d="M198.953,72,184,76.6V88.1a4.6,4.6,0,0,0,4.6,4.6h11.5a4.6,4.6,0,0,0,4.6-4.6V76.6Z" transform="translate(-157.545 -61.648)"/><circle class="a" cx="5.44" cy="5.44" r="5.44" transform="translate(31.448 45.313)"/><path class="d" d="M8,360H79.313v20.7H8Z" transform="translate(-6.85 -308.24)"/><ellipse class="e" cx="7.68" cy="7.36" rx="7.68" ry="7.36" transform="translate(3.929 54.272)"/><ellipse class="e" cx="8" cy="7.36" rx="8" ry="7.36" transform="translate(53.848 54.272)"/><path class="c" d="M49.2,248a6.9,6.9,0,0,0-6.9,6.9v9.2a2.3,2.3,0,0,0-2.3,2.3V271a2.3,2.3,0,0,0,2.3,2.3h6.9a2.3,2.3,0,0,0,2.3-2.3v-4.6a2.3,2.3,0,0,0-2.3-2.3v-6.9a2.3,2.3,0,0,1,2.3-2.3h2.3V248Z" transform="translate(-34.249 -212.343)"/><path class="c" d="M387.5,104h-6.9a2.3,2.3,0,0,0-2.3,2.3v6.9a2.3,2.3,0,0,0,2.3,2.3v6.9a2.3,2.3,0,0,1-2.3,2.3H376v6.9h4.6a6.9,6.9,0,0,0,6.9-6.9v-9.2a2.3,2.3,0,0,0,2.3-2.3v-6.9A2.3,2.3,0,0,0,387.5,104Z" transform="translate(-321.94 -89.047)"/><g transform="translate(17.253 14.953)"><path class="e" d="M168,392h4.6v4.6H168Z" transform="translate(-161.099 -350.592)"/><path class="e" d="M232,440h4.6v4.6H232Z" transform="translate(-215.897 -391.691)"/><path class="e" d="M129.2,104v11.5h-4.6a4.6,4.6,0,0,1-4.6-4.6v-2.3a4.6,4.6,0,0,1,4.6-4.6Z" transform="translate(-120 -104)"/><path class="e" d="M337.2,108.6v2.3a4.6,4.6,0,0,1-4.6,4.6H328V104h4.6a4.6,4.6,0,0,1,4.6,4.6Z" transform="translate(-298.094 -104)"/></g><path class="f" d="M232,160h6.9v1.15a3.451,3.451,0,1,1-6.9,0Z" transform="translate(-198.644 -136.996)"/><path class="g" d="M72.463,50.609H50.609V47.87l3.965-1.983a1.15,1.15,0,0,0,.636-1.029v-1.15h3.451a8.061,8.061,0,0,0,8.051-8.052V27.408a3.457,3.457,0,0,0,2.3-3.254v-6.9A3.455,3.455,0,0,0,65.562,13.8h-6.9a3.451,3.451,0,0,0-2.917,1.61,5.742,5.742,0,0,0-2.871-1.5A14.972,14.972,0,0,0,37.957,0h-2.3A14.972,14.972,0,0,0,20.741,13.912,5.76,5.76,0,0,0,16.1,19.554v2.3a5.758,5.758,0,0,0,5.751,5.751H25.42a5.761,5.761,0,0,0,5.635,4.6v2.3h-16.1A8.061,8.061,0,0,0,6.9,42.558v8.051H1.15A1.15,1.15,0,0,0,0,51.76v20.7a1.15,1.15,0,0,0,1.15,1.15H72.463a1.15,1.15,0,0,0,1.15-1.15V51.76A1.15,1.15,0,0,0,72.463,50.609Zm-29.906-18.4a5.761,5.761,0,0,0,5.636-4.6H51.76a5.73,5.73,0,0,0,3.985-1.61,3.468,3.468,0,0,0,1.766,1.413v5.948a1.152,1.152,0,0,1-1.15,1.15h-13.8Zm5.751-16.1h2.3v9.2h-2.3Zm9.2,1.15a1.152,1.152,0,0,1,1.15-1.15h6.9a1.152,1.152,0,0,1,1.15,1.15v6.9a1.152,1.152,0,0,1-1.15,1.15,1.15,1.15,0,0,0-1.15,1.15v9.2a5.758,5.758,0,0,1-5.751,5.751H55.21v-4.6h1.15a3.455,3.455,0,0,0,3.451-3.451v-6.9a1.15,1.15,0,0,0-1.15-1.15,1.152,1.152,0,0,1-1.15-1.15Zm-2.3,2.3v2.3a3.456,3.456,0,0,1-2.3,3.253V16.3A3.456,3.456,0,0,1,55.21,19.554ZM23,16.1h2.3v9.2H23Zm-4.6,5.751v-2.3A3.456,3.456,0,0,1,20.7,16.3v8.806A3.456,3.456,0,0,1,18.4,21.854ZM26.282,13.8H23.057a12.669,12.669,0,0,1,12.6-11.5h2.3a12.669,12.669,0,0,1,12.6,11.5H47.562L42.127,9.454a1.15,1.15,0,0,0-1.057-.2Zm1.323,12.652V15.8L41.164,11.63l4.844,3.875V26.455a3.455,3.455,0,0,1-3.451,3.451h-11.5A3.455,3.455,0,0,1,27.605,26.455Zm12.652,5.751v3.451a1.152,1.152,0,0,1-1.15,1.15h-4.6a1.152,1.152,0,0,1-1.15-1.15V32.206ZM20.7,36.807h10.55a3.456,3.456,0,0,0,3.253,2.3h4.6a3.456,3.456,0,0,0,3.253-2.3H52.91v7.341L48.945,46.13a1.15,1.15,0,0,0-.636,1.029v3.451h-4.6a6.9,6.9,0,0,0-13.8,0H25.3V47.159a1.15,1.15,0,0,0-.636-1.029L20.7,44.148Zm11.5,13.8a4.6,4.6,0,0,1,9.2,0ZM23,47.87v2.74H16.1V44.858a1.152,1.152,0,0,1,1.15-1.15H18.4v1.15a1.15,1.15,0,0,0,.636,1.029ZM18.4,62.112a6.9,6.9,0,1,1-13.5-2.035,3.455,3.455,0,0,0,3.146,2.035h6.9A3.455,3.455,0,0,0,18.1,60.077,6.92,6.92,0,0,1,18.4,62.112ZM9.2,51.76v-9.2a5.758,5.758,0,0,1,5.751-5.751H18.4v4.6h-1.15A3.455,3.455,0,0,0,13.8,44.858v6.9a1.15,1.15,0,0,0,1.15,1.15,1.152,1.152,0,0,1,1.15,1.15v4.6a1.152,1.152,0,0,1-1.15,1.15h-6.9a1.152,1.152,0,0,1-1.15-1.15v-4.6a1.152,1.152,0,0,1,1.15-1.15A1.15,1.15,0,0,0,9.2,51.76ZM71.313,62.112v9.2H2.3V52.91H4.8a3.431,3.431,0,0,0-.2,1.15v1.966a9.2,9.2,0,1,0,13.8,0V54.06a3.431,3.431,0,0,0-.2-1.15H71.313Z" transform="translate(0 0)"/><path class="g" d="M377.2,368a9.2,9.2,0,1,0,9.2,9.2A9.2,9.2,0,0,0,377.2,368Zm0,16.1a6.9,6.9,0,1,1,6.9-6.9A6.9,6.9,0,0,1,377.2,384.1Z" transform="translate(-315.09 -315.09)"/><path class="g" d="M165.751,384h-4.6a1.15,1.15,0,0,0-1.15,1.15v4.6a1.15,1.15,0,0,0,1.15,1.15h1.15v5.751a1.15,1.15,0,1,0,2.3,0V390.9h1.15a1.15,1.15,0,0,0,1.15-1.15v-4.6A1.15,1.15,0,0,0,165.751,384Zm-1.15,4.6h-2.3v-2.3h2.3Z" transform="translate(-136.996 -328.79)"/><path class="g" d="M229.751,390.9H228.6V385.15a1.15,1.15,0,0,0-2.3,0V390.9h-1.15a1.15,1.15,0,0,0-1.15,1.15v4.6a1.15,1.15,0,0,0,1.15,1.15h4.6a1.15,1.15,0,0,0,1.15-1.15v-4.6A1.15,1.15,0,0,0,229.751,390.9Zm-1.15,4.6h-2.3v-2.3h2.3Z" transform="translate(-191.794 -328.79)"/><ellipse class="h" cx="0.64" cy="1.28" rx="0.64" ry="1.28" transform="translate(44.248 66.432)"/><ellipse class="h" cx="0.64" cy="1.28" rx="0.64" ry="1.28" transform="translate(44.248 61.952)"/><ellipse class="h" cx="0.64" cy="1.92" rx="0.64" ry="1.92" transform="translate(44.248 56.832)"/><ellipse class="h" cx="0.96" cy="1.28" rx="0.96" ry="1.28" transform="translate(48.088 66.432)"/><ellipse class="h" cx="0.96" cy="1.28" rx="0.96" ry="1.28" transform="translate(48.088 61.952)"/><ellipse class="g" cx="0.96" cy="1.92" rx="0.96" ry="1.92" transform="translate(48.088 56.832)"/><ellipse cx="0.64" cy="0.96" rx="0.64" ry="0.96" transform="translate(32.728 16.513)"/><ellipse cx="0.64" cy="0.96" rx="0.64" ry="0.96" transform="translate(39.768 16.513)"/><path class="g" d="M227.451,150.9h2.3a3.455,3.455,0,0,0,3.451-3.451v-2.3a1.15,1.15,0,0,0-1.15-1.15h-6.9a1.15,1.15,0,0,0-1.15,1.15v2.3A3.455,3.455,0,0,0,227.451,150.9Zm-1.15-4.6h4.6v1.15a1.152,1.152,0,0,1-1.15,1.15h-2.3a1.152,1.152,0,0,1-1.15-1.15Z" transform="translate(-191.794 -123.296)"/></svg>