<svg xmlns="http://www.w3.org/2000/svg" width="58.388" height="59.416" viewBox="0 0 58.388 59.416"><defs><style>.a{fill:#2b56f5;}</style></defs><g transform="translate(-0.001)"><path class="a" d="M123.766,492h-.031a1.16,1.16,0,1,0,0,2.321h.031a1.16,1.16,0,1,0,0-2.321Zm0,0" transform="translate(-108.35 -434.906)"/><path class="a" d="M433.156,492h-.031a1.16,1.16,0,0,0,0,2.321h.031a1.16,1.16,0,0,0,0-2.321Zm0,0" transform="translate(-381.836 -434.906)"/><path class="a" d="M53.653,48.141a7.176,7.176,0,0,0,1.222-4.013V41.1a7.225,7.225,0,0,0-6.055-7.12V31.525A3.021,3.021,0,0,0,45.8,28.508H30.869V25.477a12.765,12.765,0,1,0-2.321,0v3.031H13.613A3.021,3.021,0,0,0,10.6,31.525V33.98A7.226,7.226,0,0,0,4.541,41.1v3.028A7.17,7.17,0,0,0,5.764,48.14,11.743,11.743,0,0,0,0,58.255a1.16,1.16,0,0,0,1.16,1.16h9.586a1.16,1.16,0,0,0,0-2.321H2.393A9.425,9.425,0,0,1,7.408,49.88a7.2,7.2,0,0,0,8.7,0,9.425,9.425,0,0,1,5.015,7.214h-2.37a1.16,1.16,0,1,0,0,2.32h27.9a1.16,1.16,0,1,0,0-2.32H38.3a9.425,9.425,0,0,1,5.015-7.214,7.2,7.2,0,0,0,8.7,0,9.424,9.424,0,0,1,5.015,7.214h-2.37a1.16,1.16,0,1,0,0,2.32h3.6c.641,0-1.059-9.177-4.6-11.274ZM19.264,12.765ZM52.448,40.088a3.548,3.548,0,0,1-2.019-1.017c-.388-.474-5.844,1.884-7.611,1.321a4.894,4.894,0,0,1,9.63-.3ZM11.757,36.206a4.9,4.9,0,0,1,4.788,3.882,3.548,3.548,0,0,1-2.019-1.017,1.16,1.16,0,0,0-1.574-.209c-1.517,1.087-4.269,2.092-6.037,1.53a4.9,4.9,0,0,1,4.842-4.186Zm0,12.815a4.874,4.874,0,0,1-3.31-1.293,1.156,1.156,0,0,0-.118-.113,4.88,4.88,0,0,1-1.466-3.488V42.766a6.539,6.539,0,0,0,1.192.105,11.509,11.509,0,0,0,5.454-1.611,6.083,6.083,0,0,0,3.143,1.164v1.7a4.88,4.88,0,0,1-1.463,3.485,1.1,1.1,0,0,0-.122.117A4.877,4.877,0,0,1,11.757,49.022Zm5.993-.881a7.172,7.172,0,0,0,1.222-4.013V41.1a7.225,7.225,0,0,0-6.054-7.12V31.525a.705.705,0,0,1,.7-.7H28.548V33.98a7.226,7.226,0,0,0-6.055,7.12v3.028a7.173,7.173,0,0,0,1.222,4.013,11.69,11.69,0,0,0-2.981,2.522,11.73,11.73,0,0,0-2.985-2.521Zm18.214,8.954H23.454A11.729,11.729,0,0,0,22.1,52.671a9.4,9.4,0,0,1,3.256-2.791,7.2,7.2,0,0,0,8.7,0,9.4,9.4,0,0,1,3.256,2.791A11.729,11.729,0,0,0,35.963,57.094ZM24.814,42.766a6.539,6.539,0,0,0,1.192.1,11.513,11.513,0,0,0,5.454-1.61A6.091,6.091,0,0,0,34.6,42.424v1.7a4.879,4.879,0,0,1-1.463,3.486,1.177,1.177,0,0,0-.122.116,4.884,4.884,0,0,1-6.619,0,1.226,1.226,0,0,0-.119-.114,4.878,4.878,0,0,1-1.465-3.487Zm7.664-3.7a1.16,1.16,0,0,0-1.574-.209c-1.517,1.087-4.27,2.092-6.037,1.53a4.894,4.894,0,0,1,9.63-.3,3.55,3.55,0,0,1-2.019-1.017Zm6.205,11.591A11.69,11.69,0,0,0,35.7,48.14a7.176,7.176,0,0,0,1.222-4.013V41.1a7.226,7.226,0,0,0-6.055-7.12V30.829H45.8a.705.705,0,0,1,.7.7V33.98a7.226,7.226,0,0,0-6.054,7.12v3.027a7.171,7.171,0,0,0,1.222,4.013,11.741,11.741,0,0,0-2.985,2.522Zm5.667-2.934a1.142,1.142,0,0,0-.118-.112,4.878,4.878,0,0,1-1.466-3.488V42.766a6.531,6.531,0,0,0,1.191.1,11.513,11.513,0,0,0,5.454-1.61,6.091,6.091,0,0,0,3.143,1.164v1.7a4.878,4.878,0,0,1-1.463,3.485,1.135,1.135,0,0,0-.122.117,4.883,4.883,0,0,1-6.62,0Zm0,0" transform="translate(0 0)"/><path class="a" d="M247.977,145.336a1.16,1.16,0,1,0,0,1.641A1.16,1.16,0,0,0,247.977,145.336Zm0,0" transform="translate(-217.448 -128.17)"/></g></svg>