<svg xmlns="http://www.w3.org/2000/svg" width="71.479" height="73.643" viewBox="0 0 71.479 73.643"><defs><style>.a{fill:#fcd770;}.b{fill:#fff;}.c{fill:#b6e6fa;}.d{fill:#54c9f3;}.e{fill:#fee95d;}.f{fill:#fcad42;}.g{fill:#8ad8f6;}.h{fill:#00adeb;}.i{fill:#2b56f5;}</style></defs><g transform="translate(2.216 1.117)"><path class="a" d="M95.287,262.109a6.7,6.7,0,0,1-6.7-6.7,6.7,6.7,0,1,1-13.406,0,6.7,6.7,0,0,1-13.4.353,6.7,6.7,0,0,1-13.4-.353h-.019a6.7,6.7,0,0,1-11.162,5v29.48H99.747v-29.48A6.678,6.678,0,0,1,95.287,262.109Z" transform="translate(-34.961 -218.48)"/><path class="a" d="M437.078,290.527v27.945h2.979v-29.48A6.686,6.686,0,0,1,437.078,290.527Z" transform="translate(-375.272 -247.064)"/><path class="b" d="M84.7,120.406H26.61L22.141,138.28v2.234a6.7,6.7,0,1,0,13.406,0h.019a6.7,6.7,0,0,0,13.4.353,6.7,6.7,0,0,0,13.4-.353,6.7,6.7,0,1,0,13.406,0,6.7,6.7,0,1,0,13.406,0V138.28Z" transform="translate(-22.141 -103.588)"/><path class="c" d="M202.141,120.406v20.583c0-.041.007-.081.009-.122a6.7,6.7,0,0,0,13.4-.353V120.406Z" transform="translate(-175.329 -103.588)"/><path class="c" d="M28.844,147.218a6.7,6.7,0,0,1-6.7-6.7V138.28l4.469-17.874H37.781l-2.228,20.361c0-.084-.006-.167-.006-.252A6.7,6.7,0,0,1,28.844,147.218Z" transform="translate(-22.141 -103.588)"/><path class="d" d="M64.588,120.406,62.36,140.767c0-.084-.006-.167-.006-.252a6.7,6.7,0,0,1-5.213,6.535,6.7,6.7,0,0,0,8.192-6.535c0,.084,0,.168.006.252l2.228-20.361Z" transform="translate(-51.927 -103.588)"/><path class="c" d="M376.078,147.218a6.7,6.7,0,0,0,6.7-6.7V138.28l-4.469-17.874H367.141l2.228,20.361c0-.084.006-.167.006-.252A6.7,6.7,0,0,0,376.078,147.218Z" transform="translate(-315.752 -103.588)"/><path class="d" d="M420.865,120.406h-2.979l4.469,17.874v2.234a6.7,6.7,0,0,1-5.213,6.535,6.7,6.7,0,0,0,8.192-6.535V138.28Z" transform="translate(-358.305 -103.588)"/><ellipse class="e" cx="17.865" cy="17.865" rx="17.865" ry="17.865" transform="translate(15.659 0)"/><path class="f" d="M238.693,7.5c-.5,0-1,.022-1.49.062a17.865,17.865,0,0,1,0,35.605c.491.041.988.062,1.49.062a17.865,17.865,0,0,0,0-35.73Z" transform="translate(-205.169 -7.5)"/><path class="g" d="M37.2,328.969H59.546v14.588H37.2Z" transform="translate(-34.959 -281.085)"/><path class="h" d="M167.2,328.969h2.979v14.588H167.2Z" transform="translate(-145.596 -281.085)"/><path class="g" d="M307.141,328.969h22.343v14.588H307.141Z" transform="translate(-264.689 -281.085)"/><path class="h" d="M437.141,328.969h2.979v14.588h-2.979Z" transform="translate(-375.325 -281.085)"/><path class="e" d="M187.2,328.969h17.856v23.525H187.2Z" transform="translate(-162.617 -281.085)"/><path class="f" d="M202.08,328.969v20.546H187.2v2.979h17.856V328.969Z" transform="translate(-162.617 -281.085)"/><g transform="translate(22.357 10.069)"><path class="b" d="M178.192,112.054h-2.979a2.979,2.979,0,0,1-2.979-2.979v-3.733h8.937v3.733A2.979,2.979,0,0,1,178.192,112.054Z" transform="translate(-172.234 -100.837)"/><path class="b" d="M271.109,82.323c0,3.99-2,5.511-4.469,5.511s-4.469-1.521-4.469-5.511,2-7.224,4.469-7.224S271.109,78.333,271.109,82.323Z" transform="translate(-248.775 -75.099)"/></g></g><g transform="translate(0 0)"><g transform="translate(9.226 52.65)"><path class="b" d="M80.374,355.7H78.14v-2.234h2.234Zm-4.469,0H73.672v-2.234h2.234Zm-4.469,0H69.2v-2.234h2.234Z" transform="translate(-69.203 -353.469)"/></g><g transform="translate(0 0)"><path class="i" d="M75.384,71.409V59.19H73.15v3.282H53.05V50.118h20.1v6.843h2.234V43.519a7.793,7.793,0,0,0,2.244-5.475V35.672L72.914,16.818H61.865a18.909,18.909,0,0,0-6.9-12.574L53.56,5.978a16.745,16.745,0,0,1-2.74,27.814V24.945c2.82-.483,4.469-2.848,4.469-6.535,0-4.677-2.454-8.341-5.586-8.341s-5.586,3.664-5.586,8.341c0,3.687,1.649,6.052,4.468,6.535v9.828a16.745,16.745,0,0,1-11.167,0l.005-11.25H37.8a4.1,4.1,0,0,0,4.1-4.1v-8.2H39.659v3.346H37.424V11.232H35.19v3.342H32.956V11.228H30.721v8.2a4.1,4.1,0,0,0,4.1,4.1h.372l0,10.268A16.747,16.747,0,1,1,51.848,4.757l1.181-1.9A18.986,18.986,0,0,0,24.147,16.818H13.078L8.365,35.672v2.372a7.793,7.793,0,0,0,2.244,5.475v27.89H7.266v2.234H78.745V71.409Zm.009-33.365a5.586,5.586,0,0,1-11.171,0h-.027l-.122-1.113h11.32ZM71.17,19.052,75.081,34.7H63.828L62.116,19.052ZM60.632,26.026l.949,8.671H53.642A19.09,19.09,0,0,0,60.632,26.026Zm1.193,10.905.154,1.41a5.585,5.585,0,0,1-11.159-.117V36.931H61.825ZM46.352,18.41c0-2.889,1.376-6.107,3.351-6.107s3.351,3.218,3.351,6.107c0,2.916-1.128,4.394-3.351,4.394S46.352,21.326,46.352,18.41ZM43.005,37.964a18.92,18.92,0,0,0,5.581-.838v.917h0a5.586,5.586,0,0,1-11.162.315V37.125A18.923,18.923,0,0,0,43.005,37.964ZM34.818,21.286a1.864,1.864,0,0,1-1.862-1.862V16.808h6.7v2.616A1.864,1.864,0,0,1,37.8,21.286ZM36.3,42.093a7.822,7.822,0,0,0,13.4-.025,7.816,7.816,0,0,0,13.406,0A7.813,7.813,0,0,0,73.15,45.112v2.772H12.842V45.112A7.813,7.813,0,0,0,22.9,42.053a7.822,7.822,0,0,0,13.406.041ZM24.023,37.938l.112-1.007h5.474V34.7H24.383l.97-8.733a19.094,19.094,0,0,0,9.831,10.313v2.081a5.585,5.585,0,0,1-11.162-.315Zm-9.2-18.886h9.051L22.135,34.7H10.911ZM10.6,38.043V36.931H21.77v1.113a5.586,5.586,0,0,1-11.171,0ZM32.951,71.409H12.842v-6.7H32.951Zm0-8.937H12.842V50.118H32.951Zm17.856,8.937H35.185V50.118H50.807Zm22.343,0H53.041v-6.7H73.15Z" transform="translate(-7.266 0)"/><path class="i" d="M224.641,389.437h2.234v4.469h-2.234Z" transform="translate(-192.262 -331.429)"/><path class="i" d="M254.641,389.437h2.234v4.469h-2.234Z" transform="translate(-217.794 -331.429)"/></g></g></svg>