<svg xmlns="http://www.w3.org/2000/svg" width="42.779" height="56.276" viewBox="0 0 42.779 56.276"><defs><style>.a{fill:#2b56f5;}</style></defs><g transform="translate(-60.444)"><path class="a" d="M237.808,249.257a1.786,1.786,0,0,0-1.786,1.786v24.874a1.786,1.786,0,0,0,3.573,0V251.043A1.786,1.786,0,0,0,237.808,249.257Z" transform="translate(-155.975 -221.428)"/><path class="a" d="M146.825,24.257a5.367,5.367,0,0,1,5.26,4.338h7.961C159.8,15.656,154.455,5.583,147.938.39a1.786,1.786,0,0,0-2.226,0C139.2,5.58,133.854,15.66,133.6,28.6h7.961a5.367,5.367,0,0,1,5.26-4.338ZM144,14.52a4,4,0,1,1,0,5.66A4,4,0,0,1,144,14.52Z" transform="translate(-64.991 0)"/><path class="a" d="M300.022,288.114v12.7h3.943a1.786,1.786,0,0,0,1.694-1.221,43.925,43.925,0,0,0,2.159-11.477h-7.8Z" transform="translate(-212.829 -255.946)"/><path class="a" d="M141.983,288.115h-7.8a43.924,43.924,0,0,0,2.159,11.477,1.786,1.786,0,0,0,1.694,1.221h3.943Z" transform="translate(-65.508 -255.947)"/><path class="a" d="M72.531,294.567a5.353,5.353,0,0,1-5.084-3.663c-1.311-3.93-2.454-13.842-2.454-13.842a11.914,11.914,0,0,0-3.262,14.75l4.038,7.969a1.787,1.787,0,0,0,2.6.671,12.924,12.924,0,0,0,4.747-5.886Z" transform="translate(0 -246.128)"/><path class="a" d="M338.256,277.063s-1.143,9.912-2.454,13.842a5.353,5.353,0,0,1-5.084,3.663h-.581a12.925,12.925,0,0,0,4.747,5.886,1.787,1.787,0,0,0,2.6-.671l4.038-7.969A11.914,11.914,0,0,0,338.256,277.063Z" transform="translate(-239.583 -246.129)"/></g></svg>