<svg xmlns="http://www.w3.org/2000/svg" width="71.644" height="71.644" viewBox="0 0 71.644 71.644"><defs><style>.a{fill:#ccc;}.b{fill:#e6e6e6;}.c{fill:#71dbfb;}.d{fill:#aae9fd;}.e{fill:gray;}.f{fill:#ffc727;}.g{fill:#2b56f5;}</style></defs><path class="a" d="M20,2H66.222V66.711H20Z" transform="translate(1.955 -0.844)"/><path class="b" d="M20,2H62.755V66.711H20Z" transform="translate(1.955 -0.844)"/><path class="c" d="M44,16h6.933V27.555H44Z" transform="translate(5.688 1.333)"/><path class="d" d="M44,16h3.467V27.555H44Z" transform="translate(5.688 1.333)"/><path class="c" d="M44,30h6.933V41.555H44Z" transform="translate(5.688 3.511)"/><path class="d" d="M44,30h3.467V41.555H44Z" transform="translate(5.688 3.511)"/><path class="c" d="M20,2H31.555V13.555H20Z" transform="translate(1.955 -0.844)"/><path class="d" d="M20,2h6.933V13.555H20Z" transform="translate(1.955 -0.844)"/><path class="c" d="M30,2H41.555V13.555H30Z" transform="translate(3.511 -0.844)"/><path class="d" d="M30,2h6.933V13.555H30Z" transform="translate(3.511 -0.844)"/><path class="c" d="M40,2H51.555V13.555H40Z" transform="translate(5.066 -0.844)"/><path class="d" d="M40,2h6.933V13.555H40Z" transform="translate(5.066 -0.844)"/><path class="c" d="M50,2H61.555V13.555H50Z" transform="translate(6.622 -0.844)"/><path class="d" d="M50,2h6.933V13.555H50Z" transform="translate(6.622 -0.844)"/><path class="c" d="M50,16H61.555V27.555H50Z" transform="translate(6.622 1.333)"/><path class="d" d="M50,16h6.933V27.555H50Z" transform="translate(6.622 1.333)"/><path class="c" d="M50,30H61.555V41.555H50Z" transform="translate(6.622 3.511)"/><path class="d" d="M50,30h6.933V41.555H50Z" transform="translate(6.622 3.511)"/><path class="a" d="M4,16H50.222V64.533H4Z" transform="translate(-0.533 1.333)"/><path class="b" d="M4,16H46.755V64.533H4Z" transform="translate(-0.533 1.333)"/><path class="c" d="M8,48h6.933V59.555H8Z" transform="translate(0.089 6.311)"/><path class="d" d="M8,48h3.467V59.555H8Z" transform="translate(0.089 6.311)"/><path class="c" d="M14,48h6.933V59.555H14Z" transform="translate(1.022 6.311)"/><path class="d" d="M14,48h3.467V59.555H14Z" transform="translate(1.022 6.311)"/><path class="c" d="M28,48h6.933V59.555H28Z" transform="translate(3.2 6.311)"/><path class="d" d="M28,48h3.467V59.555H28Z" transform="translate(3.2 6.311)"/><path class="c" d="M34,48h6.933V59.555H34Z" transform="translate(4.133 6.311)"/><path class="d" d="M34,48h3.467V59.555H34Z" transform="translate(4.133 6.311)"/><path class="c" d="M44,48h6.933V59.555H44Z" transform="translate(5.688 6.311)"/><path class="d" d="M44,48h3.467V59.555H44Z" transform="translate(5.688 6.311)"/><path class="c" d="M4,30H15.555V41.555H4Z" transform="translate(-0.533 3.511)"/><path class="d" d="M4,30h6.933V41.555H4Z" transform="translate(-0.533 3.511)"/><path class="c" d="M14,30H25.555V41.555H14Z" transform="translate(1.022 3.511)"/><path class="d" d="M14,30h6.933V41.555H14Z" transform="translate(1.022 3.511)"/><path class="c" d="M24,30H35.555V41.555H24Z" transform="translate(2.578 3.511)"/><path class="d" d="M24,30h6.933V41.555H24Z" transform="translate(2.578 3.511)"/><path class="c" d="M34,30H45.555V41.555H34Z" transform="translate(4.133 3.511)"/><path class="d" d="M34,30h6.933V41.555H34Z" transform="translate(4.133 3.511)"/><path class="e" d="M2,58H71.333v4.622H2Z" transform="translate(-0.844 7.866)"/><path class="f" d="M2,58H67.866v4.622H2Z" transform="translate(-0.844 7.866)"/><path class="g" d="M71.488,63.933H2.156A1.156,1.156,0,0,1,1,62.778V58.156A1.156,1.156,0,0,1,2.156,57H71.488a1.156,1.156,0,0,1,1.156,1.156v4.622A1.156,1.156,0,0,1,71.488,63.933ZM3.311,61.622H70.333V59.311H3.311Z" transform="translate(-1 7.711)"/><path class="g" d="M51.533,64.688H49.222V17.311H5.311V64.688H3V16.156A1.156,1.156,0,0,1,4.156,15H50.377a1.156,1.156,0,0,1,1.156,1.156Z" transform="translate(-0.689 1.178)"/><path class="g" d="M67.533,66.866H65.222V3.311H21.311V18.333H19V2.156A1.156,1.156,0,0,1,20.156,1H66.377a1.156,1.156,0,0,1,1.156,1.156Z" transform="translate(1.8 -1)"/><path class="g" d="M20,11H66.222v2.311H20Z" transform="translate(1.955 0.555)"/><path class="g" d="M29,2h2.311V13.555H29Z" transform="translate(3.355 -0.844)"/><path class="g" d="M39,2h2.311V13.555H39Z" transform="translate(4.911 -0.844)"/><path class="g" d="M49,2h2.311V13.555H49Z" transform="translate(6.466 -0.844)"/><path class="g" d="M44,25H62.489v2.311H44Z" transform="translate(5.688 2.733)"/><path class="g" d="M49,16h2.311V27.555H49Z" transform="translate(6.466 1.333)"/><path class="g" d="M49,30h2.311V41.555H49Z" transform="translate(6.466 3.511)"/><path class="g" d="M44,15H62.489v2.311H44Z" transform="translate(5.688 1.178)"/><path class="g" d="M44,29H62.489v2.311H44Z" transform="translate(5.688 3.355)"/><path class="g" d="M44,43H62.489v2.311H44Z" transform="translate(5.688 5.533)"/><path class="g" d="M52.089,59.711H49.778v-10.4H44V47h6.933a1.156,1.156,0,0,1,1.156,1.156Z" transform="translate(5.688 6.155)"/><path class="g" d="M4,29H50.222v2.311H4Z" transform="translate(-0.533 3.355)"/><path class="g" d="M17.933,28.244H15.622V25.05l-.121.244a1.2,1.2,0,0,1-2.067,0l-.122-.244v3.194H11V20.155a1.156,1.156,0,0,1,2.19-.517l1.277,2.555,1.277-2.555a1.156,1.156,0,0,1,2.19.517Z" transform="translate(0.555 1.8)"/><path class="g" d="M25.933,28.244H23.622V22.467a1.156,1.156,0,0,0-2.311,0v5.778H19V22.467a3.467,3.467,0,1,1,6.933,0Z" transform="translate(1.8 1.8)"/><path class="g" d="M20,23h4.622v2.311H20Z" transform="translate(1.955 2.422)"/><path class="g" d="M31.622,28.244H28.156A1.156,1.156,0,0,1,27,27.089V19h2.311v6.933h2.311Z" transform="translate(3.044 1.8)"/><path class="g" d="M37.622,28.244H34.156A1.156,1.156,0,0,1,33,27.089V19h2.311v6.933h2.311Z" transform="translate(3.977 1.8)"/><path class="g" d="M23.178,59.711H20.867v-10.4H9.311v10.4H7V48.156A1.156,1.156,0,0,1,8.156,47H22.022a1.156,1.156,0,0,1,1.156,1.156Z" transform="translate(-0.067 6.155)"/><path class="g" d="M13,48h2.311V59.555H13Z" transform="translate(0.867 6.311)"/><path class="g" d="M43.178,59.711H40.867v-10.4H29.311v10.4H27V48.156A1.156,1.156,0,0,1,28.156,47H42.022a1.156,1.156,0,0,1,1.156,1.156Z" transform="translate(3.044 6.155)"/><path class="g" d="M33,48h2.311V59.555H33Z" transform="translate(3.977 6.311)"/><path class="g" d="M4,39H50.222v2.311H4Z" transform="translate(-0.533 4.911)"/><path class="g" d="M44,39H62.489v2.311H44Z" transform="translate(5.688 4.911)"/><path class="g" d="M13,30h2.311V41.555H13Z" transform="translate(0.867 3.511)"/><path class="g" d="M23,30h2.311V41.555H23Z" transform="translate(2.422 3.511)"/><path class="g" d="M33,30h2.311V41.555H33Z" transform="translate(3.977 3.511)"/><path class="g" d="M7,43H23.178v2.311H7Z" transform="translate(-0.067 5.533)"/><path class="g" d="M27,43H43.178v2.311H27Z" transform="translate(3.044 5.533)"/></svg>