<svg xmlns="http://www.w3.org/2000/svg" width="39.072" height="32.967" viewBox="0 0 39.072 32.967"><defs><style>.a{fill:#fff;}</style></defs><g transform="translate(0 -40)"><path class="a" d="M15.205,184.248a7.334,7.334,0,0,0-3.574-5.467,5.481,5.481,0,0,0,1.8-4.064V173.5a5.494,5.494,0,0,0-10.989,0v1.221a5.48,5.48,0,0,0,1.783,4.048,7.326,7.326,0,0,0-3.6,5.533l-.616,5.547A1.221,1.221,0,0,0,1.222,191.2H14.653a1.221,1.221,0,0,0,1.213-1.364ZM4.885,173.5a3.052,3.052,0,0,1,6.1,0v1.221a3.052,3.052,0,0,1-6.1,0Zm-2.3,15.262.466-4.191a4.9,4.9,0,0,1,9.729-.033l.5,4.225Z" transform="translate(0 -118.234)"/><path class="a" d="M319.865,189.837l-.66-5.589a7.334,7.334,0,0,0-3.574-5.467,5.481,5.481,0,0,0,1.8-4.064V173.5a5.494,5.494,0,1,0-10.989,0v1.221a5.48,5.48,0,0,0,1.783,4.048,7.326,7.326,0,0,0-3.6,5.533l-.616,5.547a1.221,1.221,0,0,0,1.214,1.356h13.431A1.221,1.221,0,0,0,319.865,189.837ZM308.884,173.5a3.053,3.053,0,0,1,6.105,0v1.221a3.053,3.053,0,0,1-6.105,0Zm-2.3,15.262.466-4.191a4.9,4.9,0,0,1,9.729-.033l.5,4.225Z" transform="translate(-280.801 -118.234)"/><path class="a" d="M96.171,43.044a1.213,1.213,0,0,0,0,1.24A27.193,27.193,0,0,0,98.8,46.969a1.221,1.221,0,1,0,1.727-1.727l-.358-.358h16.083l-.358.358a1.221,1.221,0,1,0,1.727,1.727,25.263,25.263,0,0,0,2.626-2.68,1.218,1.218,0,0,0-.071-1.357c-.083-.111.164.145-2.555-2.574a1.221,1.221,0,1,0-1.727,1.727l.358.358H100.17l.358-.358A1.221,1.221,0,0,0,98.8,40.358a26.9,26.9,0,0,0-2.629,2.686Z" transform="translate(-88.675)"/></g></svg>